<?xml version="1.0" standalone="no"?>
<!DOCTYPE svg PUBLIC "-//W3C//DTD SVG 1.1//EN" "http://www.w3.org/Graphics/SVG/1.1/DTD/svg11.dtd" >
<svg xmlns="http://www.w3.org/2000/svg" xmlns:xlink="http://www.w3.org/1999/xlink" version="1.1">
<metadata>
Created by FontForge 20150318 at Mon Oct 26 14:24:59 2015
 By uniteet7
Archivo Narrow was designed to be used simultaneously in print and digital platforms. The technical and aesthetic characteristics of the font are both crafted for high performance typography.
</metadata>
<defs>
<font id="ArchivoNarrow-Regular" horiz-adv-x="456" >
  <font-face 
    font-family="Archivo Narrow"
    font-weight="400"
    font-stretch="normal"
    units-per-em="1000"
    panose-1="2 0 0 0 0 0 0 0 0 0"
    ascent="800"
    descent="-200"
    x-height="526"
    cap-height="686"
    bbox="-174 -303 960 957"
    underline-thickness="24"
    underline-position="-25"
    stemh="81"
    stemv="82"
    unicode-range="U+000D-FB02"
  />
<missing-glyph horiz-adv-x="228" 
d="M500 700v-700h-500v700h500zM250 305l-170 -255h340zM50 605v-510l170 255zM450 605l-170 -255l170 -255v510zM420 650h-340l170 -255z" />
    <glyph glyph-name=".notdef" horiz-adv-x="228" 
d="M500 700v-700h-500v700h500zM250 305l-170 -255h340zM50 605v-510l170 255zM450 605l-170 -255l170 -255v510zM420 650h-340l170 -255z" />
    <glyph glyph-name="NULL" horiz-adv-x="0" 
 />
    <glyph glyph-name="CR" unicode="&#xd;" horiz-adv-x="0" 
 />
    <glyph glyph-name="space" unicode=" " horiz-adv-x="228" 
 />
    <glyph glyph-name="exclam" unicode="!" horiz-adv-x="228" 
d="M60 686h113c-5 -57 -17 -334 -26 -515h-62c-8 171 -15 344 -25 515zM167 108v-108h-100v108h100z" />
    <glyph glyph-name="quotedbl" unicode="&#x22;" horiz-adv-x="291" 
d="M119 686v-147l-21 -132h-39c-8 44 -14 87 -22 132v147h82zM252 686v-147l-22 -132h-39l-21 132v147h82z" />
    <glyph glyph-name="numbersign" unicode="#" 
d="M430 696l-47 -210h60v-76h-77l-34 -155h71v-76h-88l-40 -179h-76l40 179h-90l-40 -179h-76l40 179h-64v76h81l34 155h-76v76h93l47 210h76l-47 -210h90l47 210h76zM290 410h-90l-34 -155h90z" />
    <glyph glyph-name="dollar" unicode="$" 
d="M251 723v-106c90 -7 139 -70 139 -143c0 -7 -1 -17 -1 -19h-81v9c0 36 -14 72 -57 82v-158c70 -23 149 -51 149 -158c0 -104 -62 -154 -149 -161v-118h-49v118c-107 9 -149 80 -149 153c0 14 1 20 1 22h82v-10c0 -56 27 -85 66 -94v179c-67 23 -137 51 -137 149
c0 83 52 137 137 148v107h49zM251 301v-162c38 6 67 32 67 79c0 44 -29 66 -67 83zM202 407v139c-45 -9 -55 -46 -55 -72c0 -35 23 -53 55 -67z" />
    <glyph glyph-name="percent" unicode="%" horiz-adv-x="729" 
d="M173 698c80 0 128 -42 128 -181s-48 -180 -128 -180s-128 42 -128 180c0 139 48 181 128 181zM173 639c-48 0 -59 -47 -59 -114v-15c0 -67 11 -114 59 -114s59 47 59 114v15c0 67 -11 114 -59 114zM565 290c-48 0 -59 -47 -59 -114v-15c0 -67 11 -114 59 -114
s59 47 59 114v15c0 67 -11 114 -59 114zM565 349c80 0 128 -42 128 -181s-48 -180 -128 -180s-128 42 -128 180c0 139 48 181 128 181zM614 686l-419 -686h-70l418 686h71z" />
    <glyph glyph-name="ampersand" unicode="&#x26;" horiz-adv-x="547" 
d="M256 698c122 0 208 -74 208 -188v-18h-82v9c0 85 -54 122 -127 122c-65 0 -120 -33 -120 -118c0 -81 49 -120 105 -120h51v-73h-49c-61 0 -119 -25 -119 -122c0 -90 53 -127 131 -127c85 0 128 43 128 128v194h152v-74h-70v-117c0 -125 -74 -206 -216 -206
c-125 0 -213 74 -213 196c0 91 43 146 101 168v4c-51 29 -89 73 -89 154c0 122 84 188 209 188z" />
    <glyph glyph-name="quotesingle" unicode="'" horiz-adv-x="157" 
d="M117 686v-147l-21 -132h-39c-8 44 -14 87 -22 132v147h82z" />
    <glyph glyph-name="parenleft" unicode="(" horiz-adv-x="273" 
d="M204 735h54c-75 -122 -133 -289 -133 -445s58 -325 133 -447h-54c-105 123 -164 281 -164 445s59 324 164 447z" />
    <glyph glyph-name="parenright" unicode=")" horiz-adv-x="273" 
d="M15 735h54c105 -123 164 -283 164 -447s-59 -322 -164 -445h-54c75 122 133 291 133 447s-58 323 -133 445z" />
    <glyph glyph-name="asterisk" unicode="*" horiz-adv-x="319" 
d="M193 686l-9 -88l74 51l34 -58l-82 -38l82 -38l-34 -59l-74 52l9 -89h-68l9 89l-74 -52l-34 59l82 38l-82 38l34 58l74 -52l-9 89h68z" />
    <glyph glyph-name="plus" unicode="+" horiz-adv-x="479" 
d="M280 511v-214h155v-84h-155v-213h-83v213h-154v84h154v214h83z" />
    <glyph glyph-name="comma" unicode="," horiz-adv-x="228" 
d="M164 108v-99l-48 -133h-52l40 124h-40v108h100z" />
    <glyph glyph-name="hyphen" unicode="-" horiz-adv-x="273" 
d="M262 319v-98h-252v98h252z" />
    <glyph glyph-name="period" unicode="." horiz-adv-x="228" 
d="M164 108v-108h-100v108h100z" />
    <glyph glyph-name="slash" unicode="/" horiz-adv-x="228" 
d="M228 735l-156 -784h-71l157 784h70z" />
    <glyph glyph-name="zero" unicode="0" 
d="M228 698c117 0 188 -76 188 -355s-71 -355 -188 -355c-118 0 -188 76 -188 355s70 355 188 355zM228 625c-82 0 -104 -104 -104 -247v-70c0 -143 22 -247 104 -247s104 104 104 247v70c0 143 -22 247 -104 247z" />
    <glyph glyph-name="one" unicode="1" 
d="M295 686v-613h150v-73h-395v73h163v488h-164v52c56 6 150 35 214 73h32z" />
    <glyph glyph-name="two" unicode="2" 
d="M230 698c99 0 179 -52 179 -178c0 -172 -174 -283 -251 -401c-8 -12 -14 -24 -18 -35h272v-84h-373v13c0 54 17 104 48 149c82 120 235 219 235 359c0 46 -20 101 -93 101c-71 0 -96 -60 -96 -131v-41h-85s-3 16 -3 40c0 147 86 208 185 208z" />
    <glyph glyph-name="three" unicode="3" 
d="M225 698c107 0 179 -66 179 -188c0 -81 -38 -125 -89 -154v-4c58 -22 101 -77 101 -168c0 -122 -78 -196 -188 -196c-125 0 -193 81 -193 206v8h84v-11c0 -85 36 -130 103 -130c65 0 110 39 110 129c0 97 -55 122 -113 122h-57v73h59c53 0 99 39 99 120
c0 85 -44 120 -94 120c-55 0 -95 -39 -95 -124v-9h-84v18c0 114 74 188 178 188z" />
    <glyph glyph-name="four" unicode="4" 
d="M198 698h83c-38 -184 -146 -401 -184 -456h188v216c20 49 29 85 42 138h40v-354h70v-73h-70v-169h-82v169h-265v74c72 131 138 299 178 455z" />
    <glyph glyph-name="five" unicode="5" 
d="M394 686v-84h-241l-13 -209c22 22 62 53 121 53c90 0 162 -71 162 -222s-73 -236 -191 -236c-116 0 -192 85 -192 225h85c0 -94 47 -153 107 -153c61 0 106 53 106 164c0 95 -41 148 -99 148c-44 0 -82 -32 -102 -79l-78 13l23 380h312z" />
    <glyph glyph-name="six" unicode="6" 
d="M232 698c117 0 166 -96 166 -223h-83c0 95 -29 150 -87 150c-83 0 -103 -100 -104 -259c29 40 71 65 121 65c116 0 171 -98 171 -221c0 -137 -76 -222 -179 -222c-123 0 -197 81 -197 335c0 286 71 375 192 375zM232 359c-69 0 -101 -67 -101 -149s32 -149 101 -149
s100 67 100 149s-31 149 -100 149z" />
    <glyph glyph-name="seven" unicode="7" 
d="M423 686v-53c-94 -142 -212 -360 -212 -582c0 -19 0 -27 1 -51h-93c0 236 112 459 201 602h-287v84h390z" />
    <glyph glyph-name="eight" unicode="8" 
d="M228 698c115 0 174 -86 174 -191c0 -65 -25 -122 -75 -155c63 -31 89 -90 89 -164c0 -110 -55 -200 -188 -200s-188 90 -188 200c0 74 26 133 88 164c-49 33 -74 90 -74 155c0 105 59 191 174 191zM228 314c-68 0 -104 -48 -104 -126s36 -127 104 -127s104 49 104 127
s-36 126 -104 126zM228 625c-56 0 -92 -45 -92 -119s36 -119 92 -119s93 45 93 119s-37 119 -93 119z" />
    <glyph glyph-name="nine" unicode="9" 
d="M219 698c123 0 197 -81 197 -335c0 -286 -70 -375 -188 -375c-120 0 -170 96 -170 223h83c0 -95 30 -150 91 -150c80 0 98 100 100 258c-30 -40 -71 -64 -121 -64c-116 0 -171 98 -171 221c0 137 76 222 179 222zM224 625c-69 0 -100 -67 -100 -149s31 -149 100 -149
s101 67 101 149s-32 149 -101 149z" />
    <glyph glyph-name="colon" unicode=":" horiz-adv-x="228" 
d="M164 108v-108h-100v108h100zM164 526v-108h-100v108h100z" />
    <glyph glyph-name="semicolon" unicode=";" horiz-adv-x="228" 
d="M164 108v-99l-48 -133h-52l40 124h-40v108h100zM164 526v-108h-100v108h100z" />
    <glyph glyph-name="less" unicode="&#x3c;" horiz-adv-x="479" 
d="M436 504v-90l-311 -160l311 -160v-90l-392 196v107z" />
    <glyph glyph-name="equal" unicode="=" horiz-adv-x="479" 
d="M435 402v-84h-392v84h392zM435 189v-83h-392v83h392z" />
    <glyph glyph-name="greater" unicode="&#x3e;" horiz-adv-x="479" 
d="M44 504l392 -197v-107l-392 -196v90l311 160l-311 160v90z" />
    <glyph glyph-name="question" unicode="?" 
d="M236 698c99 0 173 -73 173 -178c0 -193 -130 -180 -130 -299v-41h-87v56c0 134 126 142 126 273c0 28 -9 112 -89 112c-85 0 -95 -89 -95 -135c0 -16 1 -27 1 -27h-89s-3 23 -3 35c0 112 64 204 193 204zM285 108v-108h-100v108h100z" />
    <glyph glyph-name="at" unicode="@" horiz-adv-x="832" 
d="M427 698c206 0 359 -109 359 -377c0 -227 -110 -299 -189 -299c-57 0 -80 25 -89 62h-4c-25 -39 -67 -63 -117 -63c-46 0 -125 19 -125 134c0 132 103 160 242 160v62c0 46 -15 78 -76 78c-56 0 -73 -39 -73 -76v-11h-74c-1 6 -1 12 -1 20c0 88 64 133 154 133
c96 0 144 -49 144 -134v-262c0 -27 12 -38 34 -38c52 0 116 50 116 235c0 227 -124 321 -302 321c-199 0 -323 -124 -323 -382c0 -239 93 -359 292 -359c42 0 117 14 150 32v-60c-38 -16 -111 -27 -150 -27c-216 0 -350 126 -350 415c0 319 176 436 382 436zM504 205v44
c-97 0 -164 -14 -164 -89c0 -55 23 -73 65 -73c47 0 99 39 99 118z" />
    <glyph glyph-name="A" unicode="A" horiz-adv-x="547" 
d="M453 0l-47 153h-272l-47 -153h-88l218 686h113l218 -686h-95zM252 538l-94 -305h223l-93 305c-7 23 -16 76 -16 76h-4s-9 -54 -16 -76z" />
    <glyph glyph-name="B" unicode="B" horiz-adv-x="547" 
d="M65 0v686h260c102 0 177 -67 177 -168c0 -79 -46 -137 -105 -158v-4c68 -21 121 -86 121 -174c0 -115 -88 -182 -193 -182h-260zM307 311h-154v-231h160c65 0 113 40 113 114c0 62 -46 117 -119 117zM305 606h-152v-215h146c67 0 111 50 111 108c0 72 -42 107 -105 107z
" />
    <glyph glyph-name="C" unicode="C" horiz-adv-x="592" 
d="M312 698c140 0 239 -85 239 -260h-90c0 120 -59 179 -149 179c-120 0 -178 -82 -178 -249v-50c0 -167 58 -249 178 -249c92 0 152 58 152 177h87c0 -177 -99 -258 -239 -258c-178 0 -270 117 -270 355s92 355 270 355z" />
    <glyph glyph-name="D" unicode="D" horiz-adv-x="592" 
d="M283 0h-213v686h213c162 0 260 -112 260 -333c0 -235 -98 -353 -260 -353zM275 606h-117v-526h117c108 0 176 81 176 248v50c0 153 -68 228 -176 228z" />
    <glyph glyph-name="E" unicode="E" horiz-adv-x="547" 
d="M499 0h-429v686h423v-80h-335v-215h291v-80h-291v-231h341v-80z" />
    <glyph glyph-name="F" unicode="F" horiz-adv-x="501" 
d="M158 0h-88v686h396v-80h-308v-222h272v-80h-272v-304z" />
    <glyph glyph-name="G" unicode="G" horiz-adv-x="638" 
d="M515 0l-19 76c-42 -62 -103 -88 -177 -88c-173 0 -270 117 -270 355s104 355 275 355c143 0 249 -80 249 -246h-90c0 114 -65 165 -159 165c-113 0 -183 -82 -183 -249v-50c0 -167 63 -249 178 -249c114 0 164 64 164 195v16h-178v77h268v-357h-58z" />
    <glyph glyph-name="H" unicode="H" horiz-adv-x="592" 
d="M522 686v-686h-88v311h-276v-311h-88v686h88v-295h276v295h88z" />
    <glyph glyph-name="I" unicode="I" horiz-adv-x="228" 
d="M158 686v-686h-88v686h88z" />
    <glyph glyph-name="J" unicode="J" horiz-adv-x="410" 
d="M345 686v-523c0 -114 -61 -175 -166 -175s-166 61 -166 175v45h88v-50c0 -58 28 -89 78 -89s78 31 78 89v528h88z" />
    <glyph glyph-name="K" unicode="K" horiz-adv-x="547" 
d="M158 686v-363l272 363h98l-206 -277l213 -409h-100l-167 335l-110 -122v-213h-88v686h88z" />
    <glyph glyph-name="L" unicode="L" 
d="M438 0h-368v686h88v-606h280v-80z" />
    <glyph glyph-name="M" unicode="M" horiz-adv-x="683" 
d="M621 0h-88v498c0 24 7 106 7 106h-4s-16 -82 -23 -106l-137 -498h-79l-137 498c-5 19 -21 106 -21 106h-4s6 -86 6 -106v-498h-79v686h134l121 -450c13 -50 23 -154 23 -154h4s9 106 22 154l122 450h133v-686z" />
    <glyph glyph-name="N" unicode="N" horiz-adv-x="592" 
d="M522 686v-686h-73l-257 437c-17 29 -44 92 -44 92l-3 -1s4 -63 4 -91v-437h-79v686h76l255 -431c15 -26 42 -92 42 -92l3 1s-3 69 -3 91v431h79z" />
    <glyph glyph-name="O" unicode="O" horiz-adv-x="638" 
d="M319 698c168 0 270 -117 270 -355s-102 -355 -270 -355s-270 117 -270 355s102 355 270 355zM319 617c-110 0 -178 -82 -178 -249v-50c0 -167 68 -249 178 -249s178 82 178 249v50c0 167 -68 249 -178 249z" />
    <glyph glyph-name="P" unicode="P" horiz-adv-x="547" 
d="M315 283h-157v-283h-88v686h245c135 0 205 -81 205 -200c0 -121 -78 -203 -205 -203zM312 606h-154v-243h154c70 0 116 49 116 123s-41 120 -116 120z" />
    <glyph glyph-name="Q" unicode="Q" horiz-adv-x="638" 
d="M49 343c0 238 102 355 270 355s270 -117 270 -355c0 -182 -60 -294 -163 -336l142 -131h-118l-119 112h-12c-168 0 -270 117 -270 355zM141 368v-50c0 -167 68 -249 178 -249s178 82 178 249v50c0 167 -68 249 -178 249s-178 -82 -178 -249z" />
    <glyph glyph-name="R" unicode="R" horiz-adv-x="592" 
d="M551 496c0 -85 -45 -151 -122 -177l138 -319h-98l-127 303h-184v-303h-88v686h276c135 0 205 -77 205 -190zM343 606h-185v-223h185c70 0 116 45 116 113s-41 110 -116 110z" />
    <glyph glyph-name="S" unicode="S" horiz-adv-x="547" 
d="M273 698c119 0 215 -56 215 -193v-12h-91v15c0 70 -53 109 -122 109c-72 0 -127 -30 -127 -96c0 -164 356 -82 356 -323c0 -154 -99 -210 -232 -210c-125 0 -231 55 -231 206c0 7 1 17 1 20h91c0 -1 -1 -15 -1 -21c0 -84 58 -124 136 -124c92 0 144 40 144 114
c0 173 -357 83 -357 331c0 126 98 184 218 184z" />
    <glyph glyph-name="T" unicode="T" horiz-adv-x="501" 
d="M19 606v80h462v-80h-187v-606h-88v606h-187z" />
    <glyph glyph-name="U" unicode="U" horiz-adv-x="592" 
d="M522 686v-463c0 -154 -85 -235 -226 -235s-226 81 -226 235v463h88v-468c0 -97 52 -149 138 -149s138 52 138 149v468h88z" />
    <glyph glyph-name="V" unicode="V" horiz-adv-x="547" 
d="M539 686l-209 -686h-113l-209 686h97l170 -589h4l175 589h85z" />
    <glyph glyph-name="W" unicode="W" horiz-adv-x="774" 
d="M764 686l-159 -686h-114l-84 465c-8 46 -19 138 -19 138h-4s-11 -92 -19 -138l-82 -465h-114l-159 686h93l105 -474c9 -40 21 -122 21 -122h4s7 62 17 122l79 474h122l85 -474c9 -50 18 -122 18 -122h4s11 77 21 122l105 474h80z" />
    <glyph glyph-name="X" unicode="X" horiz-adv-x="547" 
d="M427 686h94c0 -1 -199 -322 -199 -322l221 -364h-104l-169 280l-172 -280h-94l219 356l-199 330h104l148 -245s151 244 151 245z" />
    <glyph glyph-name="Y" unicode="Y" horiz-adv-x="547" 
d="M539 686l-221 -402v-284h-88v284l-222 402h97l174 -318h4l171 318h85z" />
    <glyph glyph-name="Z" unicode="Z" horiz-adv-x="501" 
d="M479 0h-459v38l326 568h-305v80h431v-38l-327 -568h334v-80z" />
    <glyph glyph-name="bracketleft" unicode="[" horiz-adv-x="228" 
d="M208 735v-65h-83v-766h83v-65h-159v896h159z" />
    <glyph glyph-name="backslash" unicode="\" horiz-adv-x="228" 
d="M71 735l157 -784h-71l-156 784h70z" />
    <glyph glyph-name="bracketright" unicode="]" horiz-adv-x="228" 
d="M179 735v-896h-159v65h83v766h-83v65h159z" />
    <glyph glyph-name="asciicircum" unicode="^" horiz-adv-x="385" 
d="M247 686l137 -392h-90l-101 315l-99 -315h-90l136 392h107z" />
    <glyph glyph-name="underscore" unicode="_" 
d="M455 -71v-53h-455v53h455z" />
    <glyph glyph-name="grave" unicode="`" horiz-adv-x="273" 
d="M118 723l86 -132h-69l-108 129l1 3h90z" />
    <glyph glyph-name="a" unicode="a" 
d="M223 538c106 0 159 -54 159 -147v-295c0 -25 14 -35 28 -35h32v-57c-9 -5 -28 -12 -54 -12c-43 0 -73 26 -83 65h-5c-27 -43 -73 -69 -128 -69c-52 0 -138 21 -138 148c0 145 113 176 266 176v68c0 50 -16 85 -83 85c-62 0 -81 -43 -81 -83v-12h-81c-1 6 -1 13 -1 22
c0 96 70 146 169 146zM300 191v48c-107 0 -180 -16 -180 -98c0 -60 25 -80 71 -80c52 0 109 43 109 130z" />
    <glyph glyph-name="b" unicode="b" 
d="M138 61h-5l-11 -61h-62v723h82v-247h5c18 39 61 62 112 62c87 0 157 -83 157 -274c0 -193 -63 -276 -163 -276c-48 0 -90 25 -115 73zM330 244v38c0 131 -31 183 -94 183s-94 -63 -94 -187v-34c0 -121 31 -183 94 -183s94 52 94 183z" />
    <glyph glyph-name="c" unicode="c" horiz-adv-x="410" 
d="M216 538c114 0 161 -73 161 -207h-85c0 91 -17 134 -76 134c-65 0 -94 -62 -94 -183v-38c0 -121 28 -183 94 -183c59 0 80 47 80 134h81c0 -110 -45 -207 -161 -207c-124 0 -180 86 -180 275s57 275 180 275z" />
    <glyph glyph-name="d" unicode="d" 
d="M396 723v-723h-62l-11 61h-5c-25 -48 -67 -73 -115 -73c-100 0 -163 83 -163 276c0 191 70 274 157 274c51 0 94 -23 112 -62h5v247h82zM220 465c-63 0 -94 -52 -94 -183v-38c0 -131 31 -183 94 -183s94 62 94 183v34c0 124 -31 187 -94 187z" />
    <glyph glyph-name="e" unicode="e" 
d="M240 538c115 0 173 -71 173 -247v-52h-285c1 -123 37 -178 115 -178c52 0 89 45 89 118h81c0 -118 -70 -191 -172 -191c-131 0 -199 80 -199 275c0 189 66 275 198 275zM240 465c-73 0 -104 -52 -111 -153h198c0 100 -30 153 -87 153z" />
    <glyph glyph-name="f" unicode="f" horiz-adv-x="228" 
d="M159 731c24 0 52 -6 69 -12v-57h-44c-31 0 -47 -17 -47 -48v-88h91v-73h-91v-453h-82v453h-46v73h46v84c0 60 24 121 104 121z" />
    <glyph glyph-name="g" unicode="g" 
d="M364 611h72c0 -63 -33 -112 -88 -126c29 -30 47 -72 47 -124c0 -109 -66 -176 -168 -177h-55c-27 0 -48 -21 -48 -47s22 -47 48 -47h150c76 0 124 -56 124 -123c0 -83 -54 -149 -154 -149h-149c-86 0 -130 56 -130 125c0 51 26 96 68 112c-27 17 -43 48 -43 79
c0 43 30 75 74 91c-38 31 -61 77 -61 136c0 110 65 177 172 177c27 0 54 -7 76 -19c47 25 60 59 65 92zM301 12h-145c-42 0 -61 -27 -61 -61s20 -62 61 -62h145c35 0 62 28 62 62s-20 61 -62 61zM222 470c-58 0 -89 -42 -89 -109c0 -70 31 -109 89 -109s90 42 90 109
c0 70 -32 109 -90 109z" />
    <glyph glyph-name="h" unicode="h" 
d="M142 723v-252h6c27 47 66 67 118 67c79 0 130 -42 130 -159v-379h-82v373c0 73 -30 92 -74 92c-52 0 -98 -53 -98 -144v-321h-82v723h82z" />
    <glyph glyph-name="i" unicode="i" horiz-adv-x="182" 
d="M132 526v-526h-82v526h82zM132 723v-98h-82v98h82z" />
    <glyph glyph-name="j" unicode="j" horiz-adv-x="182" 
d="M132 526v-587c0 -60 -24 -121 -104 -121c-24 0 -52 6 -69 12v57h44c31 0 47 17 47 48v591h82zM132 723v-98h-82v98h82z" />
    <glyph glyph-name="k" unicode="k" horiz-adv-x="410" 
d="M142 723v-441l170 244h91l-155 -216l163 -310h-93l-120 240l-56 -61v-179h-82v723h82z" />
    <glyph glyph-name="l" unicode="l" horiz-adv-x="182" 
d="M132 723v-723h-82v723h82z" />
    <glyph glyph-name="m" unicode="m" horiz-adv-x="683" 
d="M499 538c74 0 124 -42 124 -159v-379h-82v373c0 73 -29 92 -68 92c-49 0 -90 -53 -90 -144v-321h-82v373c0 73 -29 92 -68 92c-49 0 -91 -53 -91 -144v-321h-82v526h62l11 -61h6c28 52 70 73 120 73c52 0 93 -22 112 -76c28 50 78 76 128 76z" />
    <glyph glyph-name="n" unicode="n" 
d="M266 538c79 0 130 -42 130 -159v-379h-82v373c0 73 -30 92 -74 92c-52 0 -98 -53 -98 -144v-321h-82v526h62l11 -61h6c29 52 75 73 127 73z" />
    <glyph glyph-name="o" unicode="o" 
d="M228 538c123 0 188 -86 188 -275s-65 -275 -188 -275s-188 86 -188 275s65 275 188 275zM228 465c-68 0 -102 -62 -102 -183v-38c0 -121 34 -183 102 -183s102 62 102 183v38c0 121 -34 183 -102 183z" />
    <glyph glyph-name="p" unicode="p" 
d="M253 538c100 0 163 -83 163 -276c0 -191 -70 -274 -157 -274c-51 0 -94 22 -112 58h-5v-219h-82v699h62l11 -61h5c25 48 67 73 115 73zM236 465c-63 0 -94 -62 -94 -183v-38c0 -121 31 -183 94 -183s94 52 94 183v38c0 131 -31 183 -94 183z" />
    <glyph glyph-name="q" unicode="q" 
d="M318 465h5l11 61h62v-699h-82v219h-5c-18 -36 -61 -58 -112 -58c-87 0 -157 83 -157 274c0 193 63 276 163 276c48 0 90 -25 115 -73zM126 282v-38c0 -131 31 -183 94 -183s94 62 94 183v38c0 121 -31 183 -94 183s-94 -52 -94 -183z" />
    <glyph glyph-name="r" unicode="r" horiz-adv-x="273" 
d="M228 538c22 0 39 -8 39 -8v-85h-27c-52 0 -98 -31 -98 -124v-321h-82v526h62l11 -69h6c13 40 39 81 89 81z" />
    <glyph glyph-name="s" unicode="s" horiz-adv-x="410" 
d="M209 538c98 0 151 -66 151 -144c0 -7 -1 -17 -1 -19h-85v9c0 41 -17 82 -73 82c-58 0 -71 -43 -71 -72c0 -115 240 -48 240 -244c0 -113 -71 -162 -168 -162c-121 0 -169 76 -169 154c0 14 1 20 1 22h86v-10c0 -66 38 -94 86 -94c43 0 79 27 79 78
c0 132 -240 61 -240 250c0 93 64 150 164 150z" />
    <glyph glyph-name="t" unicode="t" horiz-adv-x="228" 
d="M141 672v-146h71v-73h-71v-344c0 -31 16 -48 47 -48h24v-57c-14 -8 -39 -14 -59 -14c-72 0 -94 61 -94 121v342h-45v73h45l18 146h64z" />
    <glyph glyph-name="u" unicode="u" 
d="M396 526v-526h-62l-11 61h-6c-29 -52 -75 -73 -127 -73c-79 0 -130 42 -130 159v379h82v-373c0 -73 30 -92 74 -92c52 0 98 53 98 144v321h82z" />
    <glyph glyph-name="v" unicode="v" horiz-adv-x="410" 
d="M401 526l-151 -526h-89l-151 526h90l107 -400h4l107 400h83z" />
    <glyph glyph-name="w" unicode="w" horiz-adv-x="592" 
d="M590 526l-131 -526h-91l-55 300c-10 54 -16 121 -16 121h-4s-6 -66 -16 -121l-54 -300h-91l-131 526h90l66 -296c10 -43 21 -125 21 -125h4s7 71 16 125l53 296h95l54 -296c9 -53 16 -125 16 -125h4s8 65 21 125l66 296h83z" />
    <glyph glyph-name="x" unicode="x" horiz-adv-x="410" 
d="M397 526l-147 -253l154 -273h-99l-103 192l-106 -192h-90l153 266l-146 260h99l95 -180l98 180h92z" />
    <glyph glyph-name="y" unicode="y" horiz-adv-x="410" 
d="M401 526l-134 -499c-31 -115 -78 -209 -170 -209c-23 0 -42 2 -59 8v57h29c44 0 85 27 104 117l-161 526h90l116 -408h4l98 408h83z" />
    <glyph glyph-name="z" unicode="z" horiz-adv-x="410" 
d="M370 526v-38l-232 -415h245v-73h-357v39l231 414h-215v73h328z" />
    <glyph glyph-name="braceleft" unicode="{" horiz-adv-x="274" 
d="M254 735v-57c-36 0 -79 -12 -79 -71c0 -69 -4 -136 -7 -206c-2 -68 -24 -108 -88 -108v-10c64 0 86 -40 88 -108c3 -70 7 -137 7 -206c0 -59 43 -71 79 -71v-57c-83 0 -157 22 -157 148v197c0 45 -41 60 -77 60v84c18 0 37 4 52 13c15 10 25 25 25 47v197
c0 126 74 148 157 148z" />
    <glyph glyph-name="bar" unicode="|" horiz-adv-x="213" 
d="M146 723v-896h-79v896h79z" />
    <glyph glyph-name="braceright" unicode="}" horiz-adv-x="274" 
d="M20 678v57c83 0 157 -22 157 -148v-197c0 -45 41 -60 77 -60v-84c-18 0 -37 -4 -52 -13s-25 -24 -25 -47v-197c0 -126 -74 -148 -157 -148v57c36 0 79 12 79 71c0 69 4 136 7 206c2 68 24 108 88 108v10c-64 0 -86 40 -88 108c-3 70 -7 137 -7 206c0 59 -43 71 -79 71z
" />
    <glyph glyph-name="asciitilde" unicode="~" horiz-adv-x="479" 
d="M444 388v-92s-39 -73 -118 -73c-31 0 -58 15 -86 31c-27 15 -55 30 -87 30c-69 0 -118 -73 -118 -73v92s39 73 118 73c31 0 58 -15 86 -30c27 -16 55 -31 87 -31c69 0 118 73 118 73z" />
    <glyph glyph-name="Euro" unicode="&#x20ac;" 
d="M360 698c23 0 45 -3 67 -10v-71c-18 5 -36 8 -55 8c-96 0 -177 -57 -205 -182h202v-65h-211c-1 -12 -1 -23 -1 -35s0 -24 1 -35h211v-65h-202c28 -125 109 -182 205 -182c19 0 37 3 55 8v-71c-22 -6 -44 -10 -67 -10c-151 0 -250 92 -278 255h-63v65h56
c-1 11 -1 23 -1 35s0 23 1 35h-56v65h63c28 163 127 255 278 255z" />
    <glyph glyph-name="quotesinglbase" unicode="&#x201a;" horiz-adv-x="182" 
d="M137 108v-99l-48 -133h-52l40 124h-40v108h100z" />
    <glyph glyph-name="florin" unicode="&#x192;" 
d="M353 731c24 0 50 -6 66 -12l-8 -57h-44c-31 0 -51 -17 -53 -48l-22 -139h91l-11 -73h-91l-67 -463c-10 -71 -42 -121 -122 -121c-24 0 -50 6 -65 12l7 57h44c31 0 51 17 53 48l68 467h-71l11 73h71l21 135c11 71 42 121 122 121z" />
    <glyph glyph-name="quotedblbase" unicode="&#x201e;" horiz-adv-x="273" 
d="M251 108v-99l-48 -133h-52l40 124h-40v108h100zM124 108v-99l-48 -133h-52l40 124h-40v108h100z" />
    <glyph glyph-name="ellipsis" unicode="&#x2026;" horiz-adv-x="820" 
d="M732 108v-108h-100v108h100zM187 108v-108h-100v108h100zM460 108v-108h-100v108h100z" />
    <glyph glyph-name="dagger" unicode="&#x2020;" 
d="M271 686l-17 -193l166 17v-93l-166 18l20 -605h-94l20 605l-165 -18v93l165 -17l-17 193h88z" />
    <glyph glyph-name="daggerdbl" unicode="&#x2021;" 
d="M271 686l-17 -193l166 17v-93l-166 18l20 -175l-20 -179l166 18v-93l-166 17l17 -193h-88l17 193l-165 -17v93l165 -18l-20 179l20 175l-165 -18v93l165 -17l-17 193h88z" />
    <glyph glyph-name="circumflex" unicode="&#x2c6;" horiz-adv-x="273" 
d="M174 722l85 -135h-80l-44 79l-45 -79h-80l86 135h78z" />
    <glyph glyph-name="perthousand" unicode="&#x2030;" horiz-adv-x="820" 
d="M437 349c74 0 118 -45 118 -181s-44 -180 -118 -180s-118 45 -118 180c0 136 44 181 118 181zM437 290c-40 0 -49 -47 -49 -114v-15c0 -67 9 -114 49 -114s49 47 49 114v15c0 67 -9 114 -49 114zM153 698c74 0 118 -45 118 -181s-44 -180 -118 -180s-118 45 -118 180
c0 136 44 181 118 181zM153 639c-40 0 -49 -47 -49 -114v-15c0 -67 9 -114 49 -114s49 47 49 114v15c0 67 -9 114 -49 114zM702 349c74 0 118 -45 118 -181s-44 -180 -118 -180s-118 45 -118 180c0 136 44 181 118 181zM702 290c-40 0 -49 -47 -49 -114v-15
c0 -67 9 -114 49 -114s49 47 49 114v15c0 67 -9 114 -49 114zM515 686l-379 -686h-62l378 686h63z" />
    <glyph glyph-name="Scaron" unicode="&#x160;" horiz-adv-x="547" 
d="M273 698c119 0 215 -56 215 -193v-12h-91v15c0 70 -53 109 -122 109c-72 0 -127 -30 -127 -96c0 -164 356 -82 356 -323c0 -154 -99 -210 -232 -210c-125 0 -231 55 -231 206c0 7 1 17 1 20h91c0 -1 -1 -15 -1 -21c0 -84 58 -124 136 -124c92 0 144 40 144 114
c0 173 -357 83 -357 331c0 126 98 184 218 184zM398 883l-86 -135h-78l-85 135h80l44 -79l45 79h80z" />
    <glyph glyph-name="guilsinglleft" unicode="&#x2039;" horiz-adv-x="273" 
d="M241 526l-113 -200l113 -200h-71l-141 200l141 200h71z" />
    <glyph glyph-name="OE" unicode="&#x152;" horiz-adv-x="820" 
d="M784 0h-359v68c-37 -54 -88 -80 -152 -80c-141 0 -224 117 -224 355s83 355 224 355c64 0 115 -27 152 -80v68h353v-80h-265v-215h220v-80h-220v-231h271v-80zM141 368v-50c0 -167 54 -249 142 -249s142 82 142 249v50c0 167 -54 249 -142 249s-142 -82 -142 -249z" />
    <glyph glyph-name="Zcaron" unicode="&#x17d;" horiz-adv-x="501" 
d="M375 883l-86 -135h-78l-85 135h80l44 -79l45 79h80zM479 0h-459v38l326 568h-305v80h431v-38l-327 -568h334v-80z" />
    <glyph glyph-name="quoteleft" unicode="&#x2018;" horiz-adv-x="182" 
d="M141 686l-40 -124h40v-108h-100v99l48 133h52z" />
    <glyph glyph-name="quoteright" unicode="&#x2019;" horiz-adv-x="182" 
d="M141 686v-99l-48 -133h-52l40 124h-40v108h100z" />
    <glyph glyph-name="quotedblleft" unicode="&#x201c;" horiz-adv-x="273" 
d="M122 686l-40 -124h40v-108h-100v99l48 133h52zM249 686l-40 -124h40v-108h-100v99l48 133h52z" />
    <glyph glyph-name="quotedblright" unicode="&#x201d;" horiz-adv-x="273" 
d="M251 686v-99l-48 -133h-52l40 124h-40v108h100zM124 686v-99l-48 -133h-52l40 124h-40v108h100z" />
    <glyph glyph-name="bullet" unicode="&#x2022;" horiz-adv-x="287" 
d="M143 455c61 0 110 -50 110 -111s-49 -112 -110 -112c-60 0 -109 51 -109 112s49 111 109 111z" />
    <glyph glyph-name="endash" unicode="&#x2013;" 
d="M455 308v-75h-455v75h455z" />
    <glyph glyph-name="emdash" unicode="&#x2014;" horiz-adv-x="820" 
d="M820 308v-75h-820v75h820z" />
    <glyph glyph-name="tilde" unicode="&#x2dc;" horiz-adv-x="273" 
d="M224 723h58c0 -46 -25 -104 -85 -104c-43 0 -76 31 -115 31c-18 0 -31 -8 -34 -31h-58c0 23 6 49 20 69c14 21 35 35 65 35c22 0 41 -8 59 -15c19 -8 37 -16 56 -16c18 0 31 8 34 31z" />
    <glyph glyph-name="trademark" unicode="&#x2122;" horiz-adv-x="820" 
d="M723 686v-404h-52v336h-4l-88 -336h-47l-87 336h-4v-336h-47v404h79l84 -323h4l84 323h78zM351 686v-49h-109v-354h-52v354h-110v49h271z" />
    <glyph glyph-name="scaron" unicode="&#x161;" horiz-adv-x="410" 
d="M209 538c98 0 151 -66 151 -144c0 -7 -1 -17 -1 -19h-85v9c0 41 -17 82 -73 82c-58 0 -71 -43 -71 -72c0 -115 240 -48 240 -244c0 -113 -71 -162 -168 -162c-121 0 -169 76 -169 154c0 14 1 20 1 22h86v-10c0 -66 38 -94 86 -94c43 0 79 27 79 78
c0 132 -240 61 -240 250c0 93 64 150 164 150zM330 723l-86 -135h-78l-85 135h80l44 -79l45 79h80z" />
    <glyph glyph-name="guilsinglright" unicode="&#x203a;" horiz-adv-x="273" 
d="M103 526l141 -200l-141 -200h-71l113 200l-113 200h71z" />
    <glyph glyph-name="oe" unicode="&#x153;" horiz-adv-x="774" 
d="M543 538c115 0 173 -71 173 -247v-52h-285c1 -123 37 -178 115 -178c52 0 89 45 89 118h81c0 -118 -70 -191 -172 -191c-71 0 -124 23 -157 76c-31 -52 -81 -76 -146 -76c-123 0 -188 86 -188 275s65 275 188 275c66 0 115 -25 146 -77c33 52 85 77 156 77zM241 465
c-68 0 -102 -62 -102 -183v-38c0 -121 34 -183 102 -183s102 62 102 183v38c0 121 -34 183 -102 183zM543 465c-73 0 -104 -52 -111 -153h198c0 100 -30 153 -87 153z" />
    <glyph glyph-name="zcaron" unicode="&#x17e;" horiz-adv-x="410" 
d="M370 526v-38l-232 -415h245v-73h-357v39l231 414h-215v73h328zM330 723l-86 -135h-78l-85 135h80l44 -79l45 79h80z" />
    <glyph glyph-name="Ydieresis" unicode="&#x178;" horiz-adv-x="547" 
d="M539 686l-221 -402v-284h-88v284l-222 402h97l174 -318h4l171 318h85zM392 883v-95h-87v95h87zM242 883v-95h-87v95h87z" />
    <glyph glyph-name="uni00A0" unicode="&#xa0;" horiz-adv-x="228" 
 />
    <glyph glyph-name="exclamdown" unicode="&#xa1;" horiz-adv-x="273" 
d="M125 355h62c9 -181 21 -458 26 -515h-113c10 171 17 344 25 515zM207 526v-108h-100v108h100z" />
    <glyph glyph-name="cent" unicode="&#xa2;" 
d="M259 723v-106c105 -9 148 -81 148 -206h-85c0 80 -15 122 -63 132v-400c49 10 67 55 67 132h81c0 -103 -42 -195 -148 -206v-118h-49v118c-111 12 -162 98 -162 274c0 175 51 262 162 273v107h49zM210 144v397c-53 -14 -76 -75 -76 -179v-38c0 -105 22 -165 76 -180z" />
    <glyph glyph-name="sterling" unicode="&#xa3;" 
d="M252 698c98 0 161 -51 161 -194v-13h-82v16c0 81 -28 118 -79 118s-78 -34 -78 -110v-139h133v-72h-134l-9 -225h249v-79h-383v79h61v225h-72v72h72v123c0 133 60 199 161 199z" />
    <glyph glyph-name="currency" unicode="&#xa4;" 
d="M228 589c53 0 102 -22 140 -59l43 43l48 -48l-49 -49c22 -39 35 -85 35 -134c0 -50 -13 -96 -35 -134l49 -49l-48 -48l-43 43c-38 -36 -87 -58 -140 -58c-54 0 -102 22 -140 58l-43 -43l-48 48l49 49c-22 38 -35 84 -35 134c0 49 13 95 35 134l-49 49l48 48l42 -43
c38 37 87 59 141 59zM228 520c-83 0 -149 -79 -149 -178c0 -98 66 -177 149 -177c82 0 148 79 148 177c0 99 -66 178 -148 178z" />
    <glyph glyph-name="yen" unicode="&#xa5;" 
d="M453 686l-150 -317h128v-65h-159v-70h159v-65h-159v-169h-88v169h-159v65h159v70h-159v65h128l-151 317h95l136 -293h4l133 293h83z" />
    <glyph glyph-name="brokenbar" unicode="&#xa6;" horiz-adv-x="213" 
d="M146 723v-380h-79v380h79zM146 207v-380h-79v380h79z" />
    <glyph glyph-name="section" unicode="&#xa7;" 
d="M242 698c98 0 151 -66 151 -144c0 -7 -1 -17 -1 -19h-85v9c0 41 -17 82 -73 82c-57 0 -71 -43 -71 -72c0 -149 240 -113 240 -315c0 -65 -35 -110 -70 -135c34 -30 60 -70 60 -136c0 -93 -60 -150 -164 -150c-98 0 -151 66 -151 144c0 7 1 17 1 19h85v-9
c0 -41 17 -82 73 -82c57 0 71 43 71 72c0 149 -240 113 -240 315c0 65 35 110 70 134c-35 30 -60 71 -60 137c0 93 60 150 164 150zM182 379c-21 -16 -34 -44 -34 -81c0 -91 74 -120 140 -162c21 17 35 45 35 82c0 91 -74 120 -141 161z" />
    <glyph glyph-name="dieresis" unicode="&#xa8;" horiz-adv-x="273" 
d="M255 723v-95h-87v95h87zM105 723v-95h-87v95h87z" />
    <glyph glyph-name="copyright" unicode="&#xa9;" horiz-adv-x="604" 
d="M302 698c175 0 281 -139 281 -355s-106 -355 -281 -355s-281 139 -281 355s106 355 281 355zM304 558c82 0 141 -50 141 -153h-58c0 68 -33 101 -83 101c-68 0 -100 -47 -100 -142v-30c0 -95 32 -143 100 -143c51 0 85 33 85 100h56c0 -104 -59 -152 -141 -152
c-105 0 -159 69 -159 209c0 141 54 210 159 210zM302 651c-146 0 -235 -121 -235 -308s89 -308 235 -308s235 121 235 308s-89 308 -235 308z" />
    <glyph glyph-name="ordfeminine" unicode="&#xaa;" horiz-adv-x="303" 
d="M149 735c73 0 109 -37 109 -100v-198c0 -16 9 -22 17 -22h23v-41c-7 -5 -21 -9 -38 -9c-29 0 -50 17 -58 43c-19 -29 -50 -46 -87 -46c-36 0 -95 14 -95 101c0 100 76 121 179 121v43c0 33 -11 56 -53 56c-40 0 -53 -28 -53 -55v-10h-59v17c0 66 48 100 115 100zM199 500
v31c-69 0 -117 -11 -117 -65c0 -38 16 -51 46 -51c33 0 71 28 71 85z" />
    <glyph glyph-name="guillemotleft" unicode="&#xab;" 
d="M417 526l-112 -200l112 -200h-70l-142 200l142 200h70zM266 526l-113 -200l113 -200h-71l-141 200l141 200h71z" />
    <glyph glyph-name="logicalnot" unicode="&#xac;" horiz-adv-x="479" 
d="M435 453v-256h-84v163h-312v93h396z" />
    <glyph glyph-name="uni00AD" unicode="&#xad;" horiz-adv-x="273" 
d="M262 319v-98h-252v98h252z" />
    <glyph glyph-name="registered" unicode="&#xae;" horiz-adv-x="604" 
d="M302 698c175 0 281 -139 281 -355s-106 -355 -281 -355s-281 139 -281 355s106 355 281 355zM302 651c-146 0 -235 -121 -235 -308s89 -308 235 -308s235 121 235 308s-89 308 -235 308zM174 550h161c59 0 103 -41 103 -101c0 -48 -28 -82 -63 -94v-4
c12 -5 60 -30 60 -107c0 -56 10 -70 28 -77v-17c-5 -2 -18 -5 -29 -5c-30 0 -57 17 -57 76c0 82 -38 102 -65 102h-81v-175h-57v402zM317 497h-86v-121h83c40 0 65 26 65 62c0 38 -25 59 -62 59z" />
    <glyph glyph-name="macron" unicode="&#xaf;" horiz-adv-x="273" 
d="M262 671v-72h-250v72h250z" />
    <glyph glyph-name="degree" unicode="&#xb0;" horiz-adv-x="400" 
d="M198 698c75 0 135 -60 135 -135s-60 -135 -135 -135s-135 60 -135 135s60 135 135 135zM198 644c-45 0 -82 -36 -82 -81s37 -82 82 -82s81 37 81 82s-36 81 -81 81z" />
    <glyph glyph-name="plusminus" unicode="&#xb1;" horiz-adv-x="549" 
d="M315 578v-184h155v-84h-155v-183h-83v183h-154v84h154v184h83zM470 83v-83h-392v83h392z" />
    <glyph glyph-name="twosuperior" unicode="&#xb2;" horiz-adv-x="273" 
d="M141 735c60 0 110 -31 110 -109c0 -66 -51 -124 -94 -171c-19 -21 -44 -43 -56 -70h151v-63h-228v16c0 124 161 181 161 288c0 22 -9 50 -45 50c-34 0 -47 -30 -47 -66v-31h-63s-2 17 -2 30c0 89 53 126 113 126z" />
    <glyph glyph-name="threesuperior" unicode="&#xb3;" horiz-adv-x="273" 
d="M139 735c66 0 110 -41 110 -115c0 -45 -18 -70 -48 -89c31 -16 54 -49 54 -96c0 -75 -47 -119 -114 -119c-76 0 -118 48 -118 125v11h64v-13c0 -44 17 -66 50 -66s55 20 55 65c0 49 -27 62 -56 62h-35v57h36c26 0 49 19 49 60c0 43 -22 61 -46 61c-26 0 -47 -20 -47 -63
v-13h-63v18c0 70 45 115 109 115z" />
    <glyph glyph-name="acute" unicode="&#xb4;" horiz-adv-x="273" 
d="M244 723l1 -3l-108 -129h-69l86 132h90z" />
    <glyph glyph-name="mu" unicode="&#xb5;" 
d="M396 526v-526h-62l-11 61h-6c-29 -52 -75 -73 -127 -73c-18 0 -34 2 -48 7v-168h-82v699h82v-384c0 -64 32 -81 74 -81c52 0 98 53 98 144v321h82z" />
    <glyph glyph-name="paragraph" unicode="&#xb6;" horiz-adv-x="440" 
d="M419 686v-61h-48v-798h-66v798h-53v-798h-65v423c-96 13 -169 104 -169 217c0 121 85 219 192 219h209z" />
    <glyph glyph-name="periodcentered" unicode="&#xb7;" horiz-adv-x="228" 
d="M164 399v-111h-101v111h101z" />
    <glyph glyph-name="cedilla" unicode="&#xb8;" horiz-adv-x="273" 
d="M150 11l-7 -47c43 -3 81 -19 81 -65c0 -67 -63 -81 -104 -81c-28 0 -60 3 -84 8v49h76c22 0 36 5 36 24c0 16 -8 24 -34 24h-33l14 88h55z" />
    <glyph glyph-name="onesuperior" unicode="&#xb9;" horiz-adv-x="273" 
d="M181 724v-344h73v-58h-214v58h79v258h-80v43c31 4 82 22 113 43h29z" />
    <glyph glyph-name="ordmasculine" unicode="&#xba;" horiz-adv-x="299" 
d="M149 735c84 0 128 -59 128 -187s-44 -187 -128 -187c-83 0 -128 59 -128 187s45 187 128 187zM149 682c-45 0 -66 -41 -66 -121v-26c0 -80 21 -121 66 -121s67 41 67 121v26c0 80 -22 121 -67 121z" />
    <glyph glyph-name="guillemotright" unicode="&#xbb;" 
d="M261 526l141 -200l-141 -200h-71l113 200l-113 200h71zM109 526l142 -200l-142 -200h-70l112 200l-112 200h70z" />
    <glyph glyph-name="onequarter" unicode="&#xbc;" horiz-adv-x="684" 
d="M593 698l-415 -710h-63l416 710h62zM173 686v-344h73v-58h-214v58h79v258h-80v43c31 4 82 22 113 43h29zM493 413h62c-22 -102 -74 -216 -100 -260h85v91c9 24 27 72 35 111h27v-202h40v-57h-40v-96h-62v96h-151v52c42 76 79 173 104 265z" />
    <glyph glyph-name="onehalf" unicode="&#xbd;" horiz-adv-x="684" 
d="M582 698l-415 -710h-63l416 710h62zM173 686v-344h73v-58h-214v58h79v258h-80v43c31 4 82 22 113 43h29zM530 413c60 0 110 -31 110 -109c0 -66 -51 -124 -94 -171c-19 -21 -44 -43 -56 -70h151v-63h-228v16c0 124 161 181 161 288c0 22 -9 50 -45 50
c-34 0 -47 -30 -47 -66v-31h-63s-2 17 -2 30c0 89 53 126 113 126z" />
    <glyph glyph-name="threequarters" unicode="&#xbe;" horiz-adv-x="684" 
d="M585 698l-415 -710h-63l416 710h62zM143 698c66 0 110 -41 110 -115c0 -45 -18 -70 -48 -89c31 -16 54 -49 54 -96c0 -75 -47 -119 -114 -119c-76 0 -118 48 -118 125v11h64v-13c0 -44 17 -66 50 -66s55 20 55 65c0 49 -27 62 -56 62h-35v57h36c26 0 49 19 49 60
c0 43 -22 61 -46 61c-26 0 -47 -20 -47 -63v-13h-63v18c0 70 45 115 109 115zM493 413h62c-22 -102 -74 -216 -100 -260h85v91c9 24 27 72 35 111h27v-202h40v-57h-40v-96h-62v96h-151v52c42 76 79 173 104 265z" />
    <glyph glyph-name="questiondown" unicode="&#xbf;" horiz-adv-x="501" 
d="M287 346v-56c0 -136 -126 -144 -126 -277c0 -27 10 -108 94 -108c81 0 90 88 90 135c0 16 -1 27 -1 27h89s3 -23 3 -35c0 -118 -62 -204 -188 -204c-102 0 -178 71 -178 174c0 185 130 182 130 303v41h87zM294 526v-108h-100v108h100z" />
    <glyph glyph-name="Agrave" unicode="&#xc0;" horiz-adv-x="547" 
d="M333 751h-69l-108 129l1 3h90zM453 0l-47 153h-272l-47 -153h-88l218 686h113l218 -686h-95zM252 538l-94 -305h223l-93 305c-7 23 -16 76 -16 76h-4s-9 -54 -16 -76z" />
    <glyph glyph-name="Aacute" unicode="&#xc1;" horiz-adv-x="547" 
d="M391 880l-108 -129h-69l86 132h90zM453 0l-47 153h-272l-47 -153h-88l218 686h113l218 -686h-95zM252 538l-94 -305h223l-93 305c-7 23 -16 76 -16 76h-4s-9 -54 -16 -76z" />
    <glyph glyph-name="Acircumflex" unicode="&#xc2;" horiz-adv-x="547" 
d="M313 882l85 -135h-80l-44 79l-45 -79h-80l86 135h78zM453 0l-47 153h-272l-47 -153h-88l218 686h113l218 -686h-95zM252 538l-94 -305h223l-93 305c-7 23 -16 76 -16 76h-4s-9 -54 -16 -76z" />
    <glyph glyph-name="Atilde" unicode="&#xc3;" horiz-adv-x="547" 
d="M361 883h58c0 -46 -24 -104 -85 -104c-43 0 -76 31 -115 31c-18 0 -31 -8 -33 -31h-59c0 46 25 104 85 104c43 0 76 -30 115 -30c18 0 31 7 34 30zM453 0l-47 153h-272l-47 -153h-88l218 686h113l218 -686h-95zM252 538l-94 -305h223l-93 305c-7 23 -16 76 -16 76h-4
s-9 -54 -16 -76z" />
    <glyph glyph-name="Adieresis" unicode="&#xc4;" horiz-adv-x="547" 
d="M453 0l-47 153h-272l-47 -153h-88l218 686h113l218 -686h-95zM252 538l-94 -305h223l-93 305c-7 23 -16 76 -16 76h-4s-9 -54 -16 -76zM392 883v-95h-87v95h87zM242 883v-95h-87v95h87z" />
    <glyph glyph-name="Aring" unicode="&#xc5;" horiz-adv-x="547" 
d="M273 915c55 0 96 -44 96 -96c0 -53 -42 -96 -96 -96c-52 0 -96 42 -96 96c0 53 43 96 96 96zM273 870c-27 0 -51 -23 -51 -51s24 -51 51 -51s51 23 51 51s-24 51 -51 51zM453 0l-47 153h-272l-47 -153h-88l218 686h113l218 -686h-95zM252 538l-94 -305h223l-93 305
c-7 23 -16 76 -16 76h-4s-9 -54 -16 -76z" />
    <glyph glyph-name="AE" unicode="&#xc6;" horiz-adv-x="820" 
d="M783 0h-330l-34 153h-273l-59 -153h-88l280 686h498v-80h-367l49 -215h274v-80h-256l52 -231h254v-80zM298 543l-121 -310h225l-68 310c-7 23 -11 62 -11 62h-4s-13 -40 -21 -62z" />
    <glyph glyph-name="Ccedilla" unicode="&#xc7;" horiz-adv-x="592" 
d="M312 698c140 0 239 -85 239 -260h-90c0 120 -59 179 -149 179c-120 0 -178 -82 -178 -249v-50c0 -167 58 -249 178 -249c92 0 152 58 152 177h87c0 -177 -99 -258 -239 -258l-3 -24c43 -3 81 -19 81 -65c0 -67 -63 -81 -104 -81c-28 0 -60 3 -84 8v49h76c22 0 36 5 36 24
c0 16 -8 24 -34 24h-33l11 69c-143 22 -216 138 -216 351c0 238 92 355 270 355z" />
    <glyph glyph-name="Egrave" unicode="&#xc8;" horiz-adv-x="547" 
d="M333 751h-69l-108 129l1 3h90zM499 0h-429v686h423v-80h-335v-215h291v-80h-291v-231h341v-80z" />
    <glyph glyph-name="Eacute" unicode="&#xc9;" horiz-adv-x="547" 
d="M391 880l-108 -129h-69l86 132h90zM499 0h-429v686h423v-80h-335v-215h291v-80h-291v-231h341v-80z" />
    <glyph glyph-name="Ecircumflex" unicode="&#xca;" horiz-adv-x="547" 
d="M313 882l85 -135h-80l-44 79l-45 -79h-80l86 135h78zM499 0h-429v686h423v-80h-335v-215h291v-80h-291v-231h341v-80z" />
    <glyph glyph-name="Edieresis" unicode="&#xcb;" horiz-adv-x="547" 
d="M392 883v-95h-87v95h87zM242 883v-95h-87v95h87zM499 0h-429v686h423v-80h-335v-215h291v-80h-291v-231h341v-80z" />
    <glyph glyph-name="Igrave" unicode="&#xcc;" horiz-adv-x="228" 
d="M158 0h-88v686h88v-686zM174 751h-69l-108 129l1 3h90z" />
    <glyph glyph-name="Iacute" unicode="&#xcd;" horiz-adv-x="228" 
d="M158 0h-88v686h88v-686zM231 880l-107 -129h-69l86 132h89z" />
    <glyph glyph-name="Icircumflex" unicode="&#xce;" horiz-adv-x="228" 
d="M158 686v-686h-88v686h88zM154 882l85 -135h-80l-44 79l-45 -79h-81l87 135h78z" />
    <glyph glyph-name="Idieresis" unicode="&#xcf;" horiz-adv-x="228" 
d="M158 686v-686h-88v686h88zM233 883v-95h-87v95h87zM83 883v-95h-87v95h87z" />
    <glyph glyph-name="Eth" unicode="&#xd0;" horiz-adv-x="592" 
d="M5 323v64h65v299h213c162 0 260 -112 260 -333c0 -235 -98 -353 -260 -353h-213v323h-65zM275 606h-117v-219h157v-64h-157v-243h117c108 0 176 81 176 248v50c0 153 -68 228 -176 228z" />
    <glyph glyph-name="Ntilde" unicode="&#xd1;" horiz-adv-x="592" 
d="M522 686v-686h-73l-257 437c-17 29 -44 92 -44 92l-3 -1s4 -63 4 -91v-437h-79v686h76l255 -431c15 -26 42 -92 42 -92l3 1s-3 69 -3 91v431h79zM384 883h58c0 -46 -25 -104 -85 -104c-44 0 -76 31 -115 31c-18 0 -31 -8 -34 -31h-58c0 46 25 104 85 104
c43 0 76 -30 115 -30c18 0 31 7 34 30z" />
    <glyph glyph-name="Ograve" unicode="&#xd2;" horiz-adv-x="638" 
d="M319 698c168 0 270 -117 270 -355s-102 -355 -270 -355s-270 117 -270 355s102 355 270 355zM319 617c-110 0 -178 -82 -178 -249v-50c0 -167 68 -249 178 -249s178 82 178 249v50c0 167 -68 249 -178 249zM379 751h-69l-108 129l1 3h90z" />
    <glyph glyph-name="Oacute" unicode="&#xd3;" horiz-adv-x="638" 
d="M319 698c168 0 270 -117 270 -355s-102 -355 -270 -355s-270 117 -270 355s102 355 270 355zM319 617c-110 0 -178 -82 -178 -249v-50c0 -167 68 -249 178 -249s178 82 178 249v50c0 167 -68 249 -178 249zM437 880l-108 -129h-69l86 132h90z" />
    <glyph glyph-name="Ocircumflex" unicode="&#xd4;" horiz-adv-x="638" 
d="M319 698c168 0 270 -117 270 -355s-102 -355 -270 -355s-270 117 -270 355s102 355 270 355zM319 617c-110 0 -178 -82 -178 -249v-50c0 -167 68 -249 178 -249s178 82 178 249v50c0 167 -68 249 -178 249zM359 882l85 -135h-80l-44 79l-45 -79h-80l86 135h78z" />
    <glyph glyph-name="Otilde" unicode="&#xd5;" horiz-adv-x="638" 
d="M319 698c168 0 270 -117 270 -355s-102 -355 -270 -355s-270 117 -270 355s102 355 270 355zM319 617c-110 0 -178 -82 -178 -249v-50c0 -167 68 -249 178 -249s178 82 178 249v50c0 167 -68 249 -178 249zM407 883h58c0 -46 -25 -104 -85 -104c-43 0 -76 31 -115 31
c-18 0 -31 -8 -34 -31h-58c0 46 25 104 85 104c43 0 76 -30 115 -30c18 0 31 7 34 30z" />
    <glyph glyph-name="Odieresis" unicode="&#xd6;" horiz-adv-x="638" 
d="M319 698c168 0 270 -117 270 -355s-102 -355 -270 -355s-270 117 -270 355s102 355 270 355zM319 617c-110 0 -178 -82 -178 -249v-50c0 -167 68 -249 178 -249s178 82 178 249v50c0 167 -68 249 -178 249zM438 883v-95h-87v95h87zM288 883v-95h-87v95h87z" />
    <glyph glyph-name="multiply" unicode="&#xd7;" horiz-adv-x="479" 
d="M247 314l153 152l55 -59l-153 -152l153 -151l-55 -59c-51 50 -103 100 -153 150l-154 -150l-55 59l153 151l-153 152l55 59z" />
    <glyph glyph-name="Oslash" unicode="&#xd8;" horiz-adv-x="638" 
d="M589 723l-72 -114c46 -59 72 -148 72 -266c0 -238 -102 -355 -270 -355c-63 0 -117 16 -159 49l-46 -74h-64l71 113c-47 59 -72 148 -72 267c0 238 102 355 270 355c63 0 117 -17 159 -50l47 75h64zM466 527l-260 -416c29 -28 67 -42 113 -42c110 0 178 82 178 249v50
c0 66 -11 119 -31 159zM319 617c-110 0 -178 -82 -178 -249v-50c0 -67 11 -120 31 -160l260 416c-30 29 -68 43 -113 43z" />
    <glyph glyph-name="Ugrave" unicode="&#xd9;" horiz-adv-x="592" 
d="M522 686v-463c0 -154 -85 -235 -226 -235s-226 81 -226 235v463h88v-468c0 -97 52 -149 138 -149s138 52 138 149v468h88zM355 751h-68l-109 129l1 3h91z" />
    <glyph glyph-name="Uacute" unicode="&#xda;" horiz-adv-x="592" 
d="M522 686v-463c0 -154 -85 -235 -226 -235s-226 81 -226 235v463h88v-468c0 -97 52 -149 138 -149s138 52 138 149v468h88zM413 880l-107 -129h-70l86 132h90z" />
    <glyph glyph-name="Ucircumflex" unicode="&#xdb;" horiz-adv-x="592" 
d="M522 686v-463c0 -154 -85 -235 -226 -235s-226 81 -226 235v463h88v-468c0 -97 52 -149 138 -149s138 52 138 149v468h88zM335 882l86 -135h-80l-44 79l-46 -79h-80l86 135h78z" />
    <glyph glyph-name="Udieresis" unicode="&#xdc;" horiz-adv-x="592" 
d="M522 686v-463c0 -154 -85 -235 -226 -235s-226 81 -226 235v463h88v-468c0 -97 52 -149 138 -149s138 52 138 149v468h88zM415 883v-95h-88v95h88zM264 883v-95h-87v95h87z" />
    <glyph glyph-name="Yacute" unicode="&#xdd;" horiz-adv-x="547" 
d="M318 284v-284h-88v284l-222 402h97l174 -318h4l171 318h85zM391 880l-108 -129h-69l86 132h90z" />
    <glyph glyph-name="Thorn" unicode="&#xde;" horiz-adv-x="547" 
d="M158 686v-136h157c135 0 205 -81 205 -200c0 -121 -78 -203 -205 -203h-157v-147h-88v686h88zM312 470h-154v-243h154c70 0 116 49 116 123s-41 120 -116 120z" />
    <glyph glyph-name="germandbls" unicode="&#xdf;" horiz-adv-x="501" 
d="M254 735c108 0 188 -70 188 -187c0 -66 -39 -131 -95 -153v-4c68 -25 116 -100 116 -177c0 -129 -88 -214 -200 -214h-75v74h67c69 0 124 63 124 141c0 74 -55 135 -124 135h-67v73h59c61 0 111 56 111 122c0 70 -38 117 -109 117s-117 -49 -117 -144v-518h-82v516
c0 156 90 219 204 219z" />
    <glyph glyph-name="agrave" unicode="&#xe0;" 
d="M223 538c106 0 159 -54 159 -147v-295c0 -25 14 -35 28 -35h32v-57c-9 -5 -28 -12 -54 -12c-43 0 -73 26 -83 65h-5c-27 -43 -73 -69 -128 -69c-52 0 -138 21 -138 148c0 145 113 176 266 176v68c0 50 -16 85 -83 85c-62 0 -81 -43 -81 -83v-12h-81c-1 6 -1 13 -1 22
c0 96 70 146 169 146zM300 191v48c-107 0 -180 -16 -180 -98c0 -60 25 -80 71 -80c52 0 109 43 109 130zM283 591h-69l-108 129l1 3h90z" />
    <glyph glyph-name="aacute" unicode="&#xe1;" 
d="M223 538c106 0 159 -54 159 -147v-295c0 -25 14 -35 28 -35h32v-57c-9 -5 -28 -12 -54 -12c-43 0 -73 26 -83 65h-5c-27 -43 -73 -69 -128 -69c-52 0 -138 21 -138 148c0 145 113 176 266 176v68c0 50 -16 85 -83 85c-62 0 -81 -43 -81 -83v-12h-81c-1 6 -1 13 -1 22
c0 96 70 146 169 146zM300 191v48c-107 0 -180 -16 -180 -98c0 -60 25 -80 71 -80c52 0 109 43 109 130zM341 720l-108 -129h-69l86 132h90z" />
    <glyph glyph-name="acircumflex" unicode="&#xe2;" 
d="M223 538c106 0 159 -54 159 -147v-295c0 -25 14 -35 28 -35h32v-57c-9 -5 -28 -12 -54 -12c-43 0 -73 26 -83 65h-5c-27 -43 -73 -69 -128 -69c-52 0 -138 21 -138 148c0 145 113 176 266 176v68c0 50 -16 85 -83 85c-62 0 -81 -43 -81 -83v-12h-81c-1 6 -1 13 -1 22
c0 96 70 146 169 146zM300 191v48c-107 0 -180 -16 -180 -98c0 -60 25 -80 71 -80c52 0 109 43 109 130zM268 722l85 -135h-80l-44 79l-45 -79h-80l85 135h79z" />
    <glyph glyph-name="atilde" unicode="&#xe3;" 
d="M223 538c106 0 159 -54 159 -147v-295c0 -25 14 -35 28 -35h32v-57c-9 -5 -28 -12 -54 -12c-43 0 -73 26 -83 65h-5c-27 -43 -73 -69 -128 -69c-52 0 -138 21 -138 148c0 145 113 176 266 176v68c0 50 -16 85 -83 85c-62 0 -81 -43 -81 -83v-12h-81c-1 6 -1 13 -1 22
c0 96 70 146 169 146zM300 191v48c-107 0 -180 -16 -180 -98c0 -60 25 -80 71 -80c52 0 109 43 109 130zM316 723h58c0 -46 -25 -104 -85 -104c-43 0 -76 31 -115 31c-18 0 -31 -8 -34 -31h-58c0 23 6 49 20 69c14 21 35 35 65 35c22 0 41 -8 59 -15c19 -8 37 -16 56 -16
c18 0 31 8 34 31z" />
    <glyph glyph-name="adieresis" unicode="&#xe4;" 
d="M223 538c106 0 159 -54 159 -147v-295c0 -25 14 -35 28 -35h32v-57c-9 -5 -28 -12 -54 -12c-43 0 -73 26 -83 65h-5c-27 -43 -73 -69 -128 -69c-52 0 -138 21 -138 148c0 145 113 176 266 176v68c0 50 -16 85 -83 85c-62 0 -81 -43 -81 -83v-12h-81c-1 6 -1 13 -1 22
c0 96 70 146 169 146zM300 191v48c-107 0 -180 -16 -180 -98c0 -60 25 -80 71 -80c52 0 109 43 109 130zM347 723v-95h-88v95h88zM196 723v-95h-87v95h87z" />
    <glyph glyph-name="aring" unicode="&#xe5;" 
d="M223 538c106 0 159 -54 159 -147v-295c0 -25 14 -35 28 -35h32v-57c-9 -5 -28 -12 -54 -12c-43 0 -73 26 -83 65h-5c-27 -43 -73 -69 -128 -69c-52 0 -138 21 -138 148c0 145 113 176 266 176v68c0 50 -16 85 -83 85c-62 0 -81 -43 -81 -83v-12h-81c-1 6 -1 13 -1 22
c0 96 70 146 169 146zM300 191v48c-107 0 -180 -16 -180 -98c0 -60 25 -80 71 -80c52 0 109 43 109 130zM228 754c54 0 96 -44 96 -95c0 -54 -43 -97 -96 -97c-52 0 -96 42 -96 97c0 53 43 95 96 95zM228 709c-28 0 -51 -22 -51 -50s23 -52 51 -52c27 0 51 24 51 52
s-24 50 -51 50z" />
    <glyph glyph-name="ae" unicode="&#xe6;" horiz-adv-x="729" 
d="M504 538c115 0 173 -71 173 -247v-52h-285c1 -123 37 -178 115 -178c52 0 89 45 89 118h81c0 -118 -70 -191 -172 -191c-73 0 -127 24 -160 80c-37 -49 -91 -80 -152 -80c-65 0 -153 21 -153 148c0 145 113 176 266 176v68c0 50 -16 85 -83 85c-62 0 -81 -43 -81 -83v-12
h-81c-1 6 -1 13 -1 22c0 96 70 146 169 146c64 0 110 -21 135 -60c33 41 79 60 140 60zM306 183v56c-107 0 -180 -16 -180 -98c0 -60 25 -80 71 -80c52 0 109 40 109 122zM504 465c-73 0 -104 -52 -111 -153h198c0 100 -30 153 -87 153z" />
    <glyph glyph-name="ccedilla" unicode="&#xe7;" horiz-adv-x="410" 
d="M216 538c114 0 161 -73 161 -207h-85c0 91 -17 134 -76 134c-65 0 -94 -62 -94 -183v-38c0 -121 28 -183 94 -183c59 0 80 47 80 134h81c0 -108 -44 -204 -156 -207l-3 -24c43 -3 81 -19 81 -65c0 -67 -63 -81 -104 -81c-28 0 -60 3 -84 8v49h76c22 0 36 5 36 24
c0 16 -8 24 -34 24h-33l11 71c-90 21 -131 107 -131 269c0 189 57 275 180 275z" />
    <glyph glyph-name="egrave" unicode="&#xe8;" 
d="M240 538c115 0 173 -71 173 -247v-52h-285c1 -123 37 -178 115 -178c52 0 89 45 89 118h81c0 -118 -70 -191 -172 -191c-131 0 -199 80 -199 275c0 189 66 275 198 275zM240 465c-73 0 -104 -52 -111 -153h198c0 100 -30 153 -87 153zM299 591h-69l-108 129l1 3h90z" />
    <glyph glyph-name="eacute" unicode="&#xe9;" 
d="M240 538c115 0 173 -71 173 -247v-52h-285c1 -123 37 -178 115 -178c52 0 89 45 89 118h81c0 -118 -70 -191 -172 -191c-131 0 -199 80 -199 275c0 189 66 275 198 275zM240 465c-73 0 -104 -52 -111 -153h198c0 100 -30 153 -87 153zM357 720l-107 -129h-70l86 132h90z
" />
    <glyph glyph-name="ecircumflex" unicode="&#xea;" 
d="M240 538c115 0 173 -71 173 -247v-52h-285c1 -123 37 -178 115 -178c52 0 89 45 89 118h81c0 -118 -70 -191 -172 -191c-131 0 -199 80 -199 275c0 189 66 275 198 275zM240 465c-73 0 -104 -52 -111 -153h198c0 100 -30 153 -87 153zM268 722l85 -135h-80l-44 79
l-45 -79h-80l85 135h79z" />
    <glyph glyph-name="edieresis" unicode="&#xeb;" 
d="M240 538c115 0 173 -71 173 -247v-52h-285c1 -123 37 -178 115 -178c52 0 89 45 89 118h81c0 -118 -70 -191 -172 -191c-131 0 -199 80 -199 275c0 189 66 275 198 275zM240 465c-73 0 -104 -52 -111 -153h198c0 100 -30 153 -87 153zM347 723v-95h-88v95h88zM196 723
v-95h-87v95h87z" />
    <glyph glyph-name="igrave" unicode="&#xec;" horiz-adv-x="228" 
d="M155 0h-82v526h82v-526zM174 591h-69l-108 129l1 3h90z" />
    <glyph glyph-name="iacute" unicode="&#xed;" horiz-adv-x="228" 
d="M155 0h-82v526h82v-526zM231 720l-107 -129h-69l86 132h89z" />
    <glyph glyph-name="icircumflex" unicode="&#xee;" horiz-adv-x="228" 
d="M155 526v-526h-82v526h82zM154 722l85 -135h-80l-44 79l-45 -79h-81l87 135h78z" />
    <glyph glyph-name="idieresis" unicode="&#xef;" horiz-adv-x="228" 
d="M155 526v-526h-82v526h82zM233 723v-95h-87v95h87zM83 723v-95h-87v95h87z" />
    <glyph glyph-name="eth" unicode="&#xf0;" 
d="M119 723h88c15 -16 31 -32 45 -49l117 11v-60l-71 -7c71 -97 118 -210 118 -355c0 -189 -65 -275 -188 -275s-188 86 -188 275c0 194 74 275 177 275c18 0 35 -5 50 -12c-16 29 -35 56 -56 84l-118 -10v60l71 6c-15 17 -30 35 -47 53zM228 465c-68 0 -102 -62 -102 -183
v-38c0 -121 34 -183 102 -183s102 62 102 183v38c0 121 -35 183 -102 183z" />
    <glyph glyph-name="ntilde" unicode="&#xf1;" 
d="M266 538c79 0 130 -42 130 -159v-379h-82v373c0 73 -30 92 -74 92c-52 0 -98 -53 -98 -144v-321h-82v526h62l11 -61h6c29 52 75 73 127 73zM316 723h58c0 -46 -25 -104 -85 -104c-43 0 -76 31 -115 31c-18 0 -31 -8 -34 -31h-58c0 23 6 49 20 69c14 21 35 35 65 35
c22 0 41 -8 59 -15c19 -8 37 -16 56 -16c18 0 31 8 34 31z" />
    <glyph glyph-name="ograve" unicode="&#xf2;" 
d="M228 538c123 0 188 -86 188 -275s-65 -275 -188 -275s-188 86 -188 275s65 275 188 275zM228 465c-68 0 -102 -62 -102 -183v-38c0 -121 34 -183 102 -183s102 62 102 183v38c0 121 -34 183 -102 183zM288 591h-69l-109 129l1 3h91z" />
    <glyph glyph-name="oacute" unicode="&#xf3;" 
d="M228 538c123 0 188 -86 188 -275s-65 -275 -188 -275s-188 86 -188 275s65 275 188 275zM228 465c-68 0 -102 -62 -102 -183v-38c0 -121 34 -183 102 -183s102 62 102 183v38c0 121 -34 183 -102 183zM345 720l-107 -129h-70l86 132h90z" />
    <glyph glyph-name="ocircumflex" unicode="&#xf4;" 
d="M228 538c123 0 188 -86 188 -275s-65 -275 -188 -275s-188 86 -188 275s65 275 188 275zM228 465c-68 0 -102 -62 -102 -183v-38c0 -121 34 -183 102 -183s102 62 102 183v38c0 121 -34 183 -102 183zM268 722l85 -135h-80l-44 79l-45 -79h-80l85 135h79z" />
    <glyph glyph-name="otilde" unicode="&#xf5;" 
d="M228 538c123 0 188 -86 188 -275s-65 -275 -188 -275s-188 86 -188 275s65 275 188 275zM228 465c-68 0 -102 -62 -102 -183v-38c0 -121 34 -183 102 -183s102 62 102 183v38c0 121 -34 183 -102 183zM316 723h58c0 -46 -25 -104 -85 -104c-43 0 -76 31 -115 31
c-18 0 -31 -8 -34 -31h-58c0 23 6 49 20 69c14 21 35 35 65 35c22 0 41 -8 59 -15c19 -8 37 -16 56 -16c18 0 31 8 34 31z" />
    <glyph glyph-name="odieresis" unicode="&#xf6;" 
d="M228 538c123 0 188 -86 188 -275s-65 -275 -188 -275s-188 86 -188 275s65 275 188 275zM228 465c-68 0 -102 -62 -102 -183v-38c0 -121 34 -183 102 -183s102 62 102 183v38c0 121 -34 183 -102 183zM347 723v-95h-88v95h88zM196 723v-95h-87v95h87z" />
    <glyph glyph-name="divide" unicode="&#xf7;" horiz-adv-x="549" 
d="M505 297v-84h-462v84h462zM316 141v-90h-84v90h84zM316 460v-91h-84v91h84z" />
    <glyph glyph-name="oslash" unicode="&#xf8;" horiz-adv-x="501" 
d="M438 558l-48 -87c32 -45 48 -114 48 -208c0 -189 -65 -275 -188 -275c-42 0 -78 10 -106 31l-27 -51h-55l47 87c-31 45 -47 113 -47 208c0 189 65 275 188 275c42 0 77 -10 105 -31l28 51h55zM341 380l-157 -289c16 -20 38 -30 66 -30c68 0 102 62 102 183v38
c0 39 -4 72 -11 98zM250 465c-68 0 -102 -62 -102 -183v-38c0 -39 3 -72 10 -99l158 290c-17 20 -39 30 -66 30z" />
    <glyph glyph-name="ugrave" unicode="&#xf9;" 
d="M396 0h-62l-11 61h-6c-29 -52 -75 -73 -127 -73c-79 0 -130 42 -130 159v379h82v-373c0 -73 30 -92 74 -92c52 0 98 53 98 144v321h82v-526zM288 591h-69l-109 129l1 3h91z" />
    <glyph glyph-name="uacute" unicode="&#xfa;" 
d="M396 0h-62l-11 61h-6c-29 -52 -75 -73 -127 -73c-79 0 -130 42 -130 159v379h82v-373c0 -73 30 -92 74 -92c52 0 98 53 98 144v321h82v-526zM345 720l-107 -129h-70l86 132h90z" />
    <glyph glyph-name="ucircumflex" unicode="&#xfb;" 
d="M396 526v-526h-62l-11 61h-6c-29 -52 -75 -73 -127 -73c-79 0 -130 42 -130 159v379h82v-373c0 -73 30 -92 74 -92c52 0 98 53 98 144v321h82zM268 722l85 -135h-80l-44 79l-45 -79h-80l85 135h79z" />
    <glyph glyph-name="udieresis" unicode="&#xfc;" 
d="M396 526v-526h-62l-11 61h-6c-29 -52 -75 -73 -127 -73c-79 0 -130 42 -130 159v379h82v-373c0 -73 30 -92 74 -92c52 0 98 53 98 144v321h82zM347 723v-95h-88v95h88zM196 723v-95h-87v95h87z" />
    <glyph glyph-name="yacute" unicode="&#xfd;" horiz-adv-x="410" 
d="M401 526l-134 -499c-31 -115 -78 -209 -170 -209c-23 0 -42 2 -59 8v57h29c44 0 85 27 104 117l-161 526h90l116 -408h4l98 408h83zM322 720l-107 -129h-69l85 132h90z" />
    <glyph glyph-name="thorn" unicode="&#xfe;" 
d="M142 723v-243l4 -1c21 36 61 59 107 59c100 0 163 -83 163 -276c0 -191 -70 -274 -157 -274c-51 0 -94 22 -112 58h-5v-219h-82v896h82zM236 465c-63 0 -94 -62 -94 -183v-38c0 -121 31 -183 94 -183s94 52 94 183v38c0 131 -31 183 -94 183z" />
    <glyph glyph-name="ydieresis" unicode="&#xff;" horiz-adv-x="410" 
d="M401 526l-134 -499c-31 -115 -78 -209 -170 -209c-23 0 -42 2 -59 8v57h29c44 0 85 27 104 117l-161 526h90l116 -408h4l98 408h83zM324 723v-95h-88v95h88zM173 723v-95h-87v95h87z" />
    <glyph glyph-name="Abreve" unicode="&#x102;" horiz-adv-x="547" 
d="M333 883h64c0 -45 -47 -97 -124 -97c-76 0 -123 52 -123 97h64c3 -14 26 -33 59 -33c34 0 59 19 60 33zM453 0l-47 153h-272l-47 -153h-88l218 686h113l218 -686h-95zM252 538l-94 -305h223l-93 305c-7 23 -16 76 -16 76h-4s-9 -54 -16 -76z" />
    <glyph glyph-name="Amacron" unicode="&#x100;" horiz-adv-x="547" 
d="M399 831v-72h-251v72h251zM453 0l-47 153h-272l-47 -153h-88l218 686h113l218 -686h-95zM252 538l-94 -305h223l-93 305c-7 23 -16 76 -16 76h-4s-9 -54 -16 -76z" />
    <glyph glyph-name="Aogonek" unicode="&#x104;" horiz-adv-x="547" 
d="M330 686l218 -686h-30c-11 -15 -24 -38 -24 -62c0 -28 12 -55 46 -55h31v-51c-21 -9 -41 -14 -61 -14c-43 0 -94 21 -94 90c0 42 16 69 37 92l-47 153h-272l-47 -153h-88l218 686h113zM272 614h-4s-9 -54 -16 -76l-94 -305h223l-93 305c-7 23 -16 76 -16 76z" />
    <glyph glyph-name="Aringacute" unicode="&#x1fa;" horiz-adv-x="547" 
d="M274 821c54 0 96 -42 96 -92c0 -28 -13 -52 -32 -69l210 -660h-95l-47 153h-272l-47 -153h-88l210 661c-19 16 -31 40 -31 68c0 51 43 92 96 92zM272 614h-4s-9 -54 -16 -76l-94 -305h223l-93 305c-7 23 -16 76 -16 76zM274 778c-28 0 -51 -22 -51 -49s23 -49 51 -49
c27 0 51 22 51 49s-24 49 -51 49zM404 957l1 -4l-93 -105h-69l71 109h90z" />
    <glyph glyph-name="Cacute" unicode="&#x106;" horiz-adv-x="592" 
d="M312 698c140 0 239 -85 239 -260h-90c0 120 -59 179 -149 179c-120 0 -178 -82 -178 -249v-50c0 -167 58 -249 178 -249c92 0 152 58 152 177h87c0 -177 -99 -258 -239 -258c-178 0 -270 117 -270 355s92 355 270 355zM428 880l-108 -129h-69l86 132h90z" />
    <glyph glyph-name="Ccaron" unicode="&#x10c;" horiz-adv-x="592" 
d="M312 698c140 0 239 -85 239 -260h-90c0 120 -59 179 -149 179c-120 0 -178 -82 -178 -249v-50c0 -167 58 -249 178 -249c92 0 152 58 152 177h87c0 -177 -99 -258 -239 -258c-178 0 -270 117 -270 355s92 355 270 355zM421 883l-87 -135h-78l-85 135h80l45 -79l45 79h80z
" />
    <glyph glyph-name="Ccircumflex" unicode="&#x108;" horiz-adv-x="592" 
d="M312 698c140 0 239 -85 239 -260h-90c0 120 -59 179 -149 179c-120 0 -178 -82 -178 -249v-50c0 -167 58 -249 178 -249c92 0 152 58 152 177h87c0 -177 -99 -258 -239 -258c-178 0 -270 117 -270 355s92 355 270 355zM335 882l86 -135h-80l-44 79l-46 -79h-80l86 135h78
z" />
    <glyph glyph-name="Cdotaccent" unicode="&#x10a;" horiz-adv-x="592" 
d="M312 698c140 0 239 -85 239 -260h-90c0 120 -59 179 -149 179c-120 0 -178 -82 -178 -249v-50c0 -167 58 -249 178 -249c92 0 152 58 152 177h87c0 -177 -99 -258 -239 -258c-178 0 -270 117 -270 355s92 355 270 355zM340 883v-95h-88v95h88z" />
    <glyph glyph-name="Dcaron" unicode="&#x10e;" horiz-adv-x="592" 
d="M421 883l-87 -135h-78l-85 135h80l45 -79l45 79h80zM283 0h-213v686h213c162 0 260 -112 260 -333c0 -235 -98 -353 -260 -353zM275 606h-117v-526h117c108 0 176 81 176 248v50c0 153 -68 228 -176 228z" />
    <glyph glyph-name="Dcroat" unicode="&#x110;" horiz-adv-x="592" 
d="M5 323v64h65v299h213c162 0 260 -112 260 -333c0 -235 -98 -353 -260 -353h-213v323h-65zM275 606h-117v-219h157v-64h-157v-243h117c108 0 176 81 176 248v50c0 153 -68 228 -176 228z" />
    <glyph glyph-name="Ebreve" unicode="&#x114;" horiz-adv-x="547" 
d="M333 883h64c0 -45 -47 -97 -124 -97c-76 0 -123 52 -123 97h64c3 -14 26 -33 59 -33c34 0 59 19 60 33zM499 0h-429v686h423v-80h-335v-215h291v-80h-291v-231h341v-80z" />
    <glyph glyph-name="Ecaron" unicode="&#x11a;" horiz-adv-x="547" 
d="M398 883l-86 -135h-78l-85 135h80l44 -79l45 79h80zM499 0h-429v686h423v-80h-335v-215h291v-80h-291v-231h341v-80z" />
    <glyph glyph-name="Edotaccent" unicode="&#x116;" horiz-adv-x="547" 
d="M317 883v-95h-87v95h87zM499 0h-429v686h423v-80h-335v-215h291v-80h-291v-231h341v-80z" />
    <glyph glyph-name="Emacron" unicode="&#x112;" horiz-adv-x="547" 
d="M399 831v-72h-251v72h251zM499 0h-429v686h423v-80h-335v-215h291v-80h-291v-231h341v-80z" />
    <glyph glyph-name="Eng" unicode="&#x14a;" horiz-adv-x="592" 
d="M522 686v-747c0 -60 -24 -121 -104 -121c-24 0 -52 6 -69 12v57h44c31 0 47 17 47 48v80l-248 422c-17 29 -44 92 -44 92l-3 -1s4 -63 4 -91v-437h-79v686h76l255 -431c15 -26 42 -92 42 -92l3 1s-3 69 -3 91l-3 431h82z" />
    <glyph glyph-name="Eogonek" unicode="&#x118;" horiz-adv-x="547" 
d="M493 686v-80h-335v-215h291v-80h-291v-231h341v-80c-11 -15 -24 -38 -24 -62c0 -28 12 -55 46 -55h31v-51c-21 -9 -41 -14 -61 -14c-43 0 -94 21 -94 90c0 42 16 69 37 92h-364v686h423z" />
    <glyph glyph-name="Gbreve" unicode="&#x11e;" horiz-adv-x="638" 
d="M379 883h64c0 -45 -47 -97 -124 -97c-76 0 -123 52 -123 97h64c3 -14 26 -33 59 -33c34 0 58 19 60 33zM515 0l-19 76c-42 -62 -103 -88 -177 -88c-173 0 -270 117 -270 355s104 355 275 355c143 0 249 -80 249 -246h-90c0 114 -65 165 -159 165
c-113 0 -183 -82 -183 -249v-50c0 -167 63 -249 178 -249c114 0 164 64 164 195v16h-178v77h268v-357h-58z" />
    <glyph glyph-name="Gcircumflex" unicode="&#x11c;" horiz-adv-x="638" 
d="M359 882l85 -135h-80l-44 79l-45 -79h-80l86 135h78zM515 0l-19 76c-42 -62 -103 -88 -177 -88c-173 0 -270 117 -270 355s104 355 275 355c143 0 249 -80 249 -246h-90c0 114 -65 165 -159 165c-113 0 -183 -82 -183 -249v-50c0 -167 63 -249 178 -249
c114 0 164 64 164 195v16h-178v77h268v-357h-58z" />
    <glyph glyph-name="Gcommaaccent" unicode="&#x122;" horiz-adv-x="638" 
d="M362 -60v-84l-29 -78h-44l22 71h-34v91h85zM515 0l-19 76c-42 -62 -103 -88 -177 -88c-173 0 -270 117 -270 355s104 355 275 355c143 0 249 -80 249 -246h-90c0 114 -65 165 -159 165c-113 0 -183 -82 -183 -249v-50c0 -167 63 -249 178 -249c114 0 164 64 164 195v16
h-178v77h268v-357h-58z" />
    <glyph glyph-name="Gdotaccent" unicode="&#x120;" horiz-adv-x="638" 
d="M363 883v-95h-87v95h87zM515 0l-19 76c-42 -62 -103 -88 -177 -88c-173 0 -270 117 -270 355s104 355 275 355c143 0 249 -80 249 -246h-90c0 114 -65 165 -159 165c-113 0 -183 -82 -183 -249v-50c0 -167 63 -249 178 -249c114 0 164 64 164 195v16h-178v77h268v-357
h-58z" />
    <glyph glyph-name="Hbar" unicode="&#x126;" horiz-adv-x="592" 
d="M572 562v-72h-50v-490h-88v306h-276v-306h-88v490h-50v72h50v124h88v-124h276v124h88v-124h50zM158 386h276v104h-276v-104z" />
    <glyph glyph-name="Hcircumflex" unicode="&#x124;" horiz-adv-x="592" 
d="M335 882l86 -135h-80l-44 79l-46 -79h-80l86 135h78zM522 686v-686h-88v311h-276v-311h-88v686h88v-295h276v295h88z" />
    <glyph glyph-name="IJ" unicode="&#x132;" horiz-adv-x="638" 
d="M158 686v-686h-88v686h88zM573 686v-523c0 -114 -61 -175 -166 -175s-166 61 -166 175v45h88v-50c0 -58 28 -89 78 -89s78 31 78 89v528h88z" />
    <glyph glyph-name="Ibreve" unicode="&#x12c;" horiz-adv-x="228" 
d="M158 686v-686h-88v686h88zM174 883h64c0 -45 -47 -97 -124 -97c-76 0 -124 52 -124 97h65c3 -14 26 -33 59 -33c34 0 58 19 60 33z" />
    <glyph glyph-name="Idotaccent" unicode="&#x130;" horiz-adv-x="228" 
d="M158 686v-686h-88v686h88zM158 883v-95h-87v95h87z" />
    <glyph glyph-name="Imacron" unicode="&#x12a;" horiz-adv-x="228" 
d="M158 686v-686h-88v686h88zM240 831v-72h-251v72h251z" />
    <glyph glyph-name="Iogonek" unicode="&#x12e;" horiz-adv-x="228" 
d="M158 686v-686h-7c-11 -15 -24 -38 -24 -62c0 -28 13 -55 46 -55h32v-51c-21 -9 -41 -14 -61 -14c-43 0 -95 21 -95 90c0 42 16 69 37 92h-16v686h88z" />
    <glyph glyph-name="Itilde" unicode="&#x128;" horiz-adv-x="228" 
d="M158 686v-686h-88v686h88zM202 883h58c0 -46 -25 -104 -85 -104c-43 0 -76 31 -115 31c-18 0 -31 -8 -34 -31h-58c0 46 25 104 85 104c43 0 76 -30 115 -30c18 0 31 7 34 30z" />
    <glyph glyph-name="Jcircumflex" unicode="&#x134;" horiz-adv-x="410" 
d="M345 686v-523c0 -114 -61 -175 -166 -175s-166 61 -166 175v45h88v-50c0 -58 28 -89 78 -89s78 31 78 89v528h88zM341 882l86 -135h-80l-44 79l-46 -79h-80l86 135h78z" />
    <glyph glyph-name="Kcommaaccent" unicode="&#x136;" horiz-adv-x="547" 
d="M316 -60v-84l-29 -78h-44l22 71h-34v91h85zM158 686v-363l272 363h98l-206 -277l213 -409h-100l-167 335l-110 -122v-213h-88v686h88z" />
    <glyph glyph-name="Lacute" unicode="&#x139;" 
d="M228 880l-107 -129h-70l86 132h90zM438 0h-368v686h88v-606h280v-80z" />
    <glyph glyph-name="Lcaron" unicode="&#x13d;" 
d="M419 686v-99l-48 -133h-52l40 124h-40v108h100zM438 0h-368v686h88v-606h280v-80z" />
    <glyph glyph-name="Lcommaaccent" unicode="&#x13b;" 
d="M271 -60v-84l-29 -78h-45l23 71h-34v91h85zM438 0h-368v686h88v-606h280v-80z" />
    <glyph glyph-name="Ldot" unicode="&#x13f;" 
d="M396 525v-111h-101v111h101zM438 0h-368v686h88v-606h280v-80z" />
    <glyph glyph-name="Lslash" unicode="&#x141;" 
d="M158 686v-291l137 122v-73l-137 -121v-243h280v-80h-368v245l-70 -61v71l70 62v369h88z" />
    <glyph glyph-name="Nacute" unicode="&#x143;" horiz-adv-x="592" 
d="M522 0h-73l-257 437c-17 29 -44 92 -44 92l-3 -1s4 -63 4 -91v-437h-79v686h76l255 -431c15 -26 42 -92 42 -92l3 1s-3 69 -3 91v431h79v-686zM413 880l-107 -129h-70l86 132h90z" />
    <glyph glyph-name="Ncaron" unicode="&#x147;" horiz-adv-x="592" 
d="M522 686v-686h-73l-257 437c-17 29 -44 92 -44 92l-3 -1s4 -63 4 -91v-437h-79v686h76l255 -431c15 -26 42 -92 42 -92l3 1s-3 69 -3 91v431h79zM421 883l-87 -135h-78l-85 135h80l45 -79l45 79h80z" />
    <glyph glyph-name="Ncommaaccent" unicode="&#x145;" horiz-adv-x="592" 
d="M522 686v-686h-73l-257 437c-17 29 -44 92 -44 92l-3 -1s4 -63 4 -91v-437h-79v686h76l255 -431c15 -26 42 -92 42 -92l3 1s-3 69 -3 91v431h79zM339 -60v-84l-29 -78h-45l23 71h-35v91h86z" />
    <glyph glyph-name="Obreve" unicode="&#x14e;" horiz-adv-x="638" 
d="M319 698c168 0 270 -117 270 -355s-102 -355 -270 -355s-270 117 -270 355s102 355 270 355zM319 617c-110 0 -178 -82 -178 -249v-50c0 -167 68 -249 178 -249s178 82 178 249v50c0 167 -68 249 -178 249zM379 883h64c0 -45 -47 -97 -124 -97c-76 0 -123 52 -123 97h64
c3 -14 26 -33 59 -33c34 0 58 19 60 33z" />
    <glyph glyph-name="Ohungarumlaut" unicode="&#x150;" horiz-adv-x="638" 
d="M319 698c168 0 270 -117 270 -355s-102 -355 -270 -355s-270 117 -270 355s102 355 270 355zM319 617c-110 0 -178 -82 -178 -249v-50c0 -167 68 -249 178 -249s178 82 178 249v50c0 167 -68 249 -178 249zM506 883l1 -3l-84 -129h-69l62 132h90zM375 883l1 -3l-84 -129
h-68l62 132h89z" />
    <glyph glyph-name="Omacron" unicode="&#x14c;" horiz-adv-x="638" 
d="M319 698c168 0 270 -117 270 -355s-102 -355 -270 -355s-270 117 -270 355s102 355 270 355zM319 617c-110 0 -178 -82 -178 -249v-50c0 -167 68 -249 178 -249s178 82 178 249v50c0 167 -68 249 -178 249zM445 831v-72h-251v72h251z" />
    <glyph glyph-name="Oslashacute" unicode="&#x1fe;" horiz-adv-x="638" 
d="M589 723l-72 -114c46 -59 72 -148 72 -266c0 -238 -102 -355 -270 -355c-63 0 -117 16 -159 49l-46 -74h-64l71 113c-47 59 -72 148 -72 267c0 238 102 355 270 355c63 0 117 -17 159 -50l47 75h64zM466 527l-260 -416c29 -28 67 -42 113 -42c110 0 178 82 178 249v50
c0 66 -11 119 -31 159zM319 617c-110 0 -178 -82 -178 -249v-50c0 -67 11 -120 31 -160l260 416c-30 29 -68 43 -113 43zM437 880l-108 -129h-69l86 132h90z" />
    <glyph glyph-name="Racute" unicode="&#x154;" horiz-adv-x="592" 
d="M391 880l-107 -129h-70l86 132h90zM551 496c0 -85 -45 -151 -122 -177l138 -319h-98l-127 303h-184v-303h-88v686h276c135 0 205 -77 205 -190zM343 606h-185v-223h185c70 0 116 45 116 113s-41 110 -116 110z" />
    <glyph glyph-name="Rcaron" unicode="&#x158;" horiz-adv-x="592" 
d="M421 883l-87 -135h-78l-85 135h80l45 -79l45 79h80zM551 496c0 -85 -45 -151 -122 -177l138 -319h-98l-127 303h-184v-303h-88v686h276c135 0 205 -77 205 -190zM343 606h-185v-223h185c70 0 116 45 116 113s-41 110 -116 110z" />
    <glyph glyph-name="Rcommaaccent" unicode="&#x156;" horiz-adv-x="592" 
d="M339 -60v-84l-29 -78h-45l23 71h-35v91h86zM551 496c0 -85 -45 -151 -122 -177l138 -319h-98l-127 303h-184v-303h-88v686h276c135 0 205 -77 205 -190zM343 606h-185v-223h185c70 0 116 45 116 113s-41 110 -116 110z" />
    <glyph glyph-name="Sacute" unicode="&#x15a;" horiz-adv-x="547" 
d="M273 698c119 0 215 -56 215 -193v-12h-91v15c0 70 -53 109 -122 109c-72 0 -127 -30 -127 -96c0 -164 356 -82 356 -323c0 -154 -99 -210 -232 -210c-125 0 -231 55 -231 206c0 7 1 17 1 20h91c0 -1 -1 -15 -1 -21c0 -84 58 -124 136 -124c92 0 144 40 144 114
c0 173 -357 83 -357 331c0 126 98 184 218 184zM391 880l-108 -129h-69l86 132h90z" />
    <glyph glyph-name="Scedilla" unicode="&#x15e;" horiz-adv-x="547" 
d="M273 698c119 0 215 -56 215 -193v-12h-91v15c0 70 -53 109 -122 109c-72 0 -127 -30 -127 -96c0 -164 356 -82 356 -323c0 -147 -90 -204 -214 -209l-3 -25c43 -3 81 -19 81 -65c0 -67 -64 -81 -104 -81c-29 0 -60 3 -84 8v49h76c22 0 36 5 36 24c0 16 -8 24 -34 24h-33
l10 67c-109 10 -194 68 -194 204c0 7 1 17 1 20h91c0 -1 -1 -15 -1 -21c0 -84 58 -124 136 -124c92 0 144 40 144 114c0 173 -357 83 -357 331c0 126 98 184 218 184z" />
    <glyph glyph-name="Scircumflex" unicode="&#x15c;" horiz-adv-x="547" 
d="M273 698c119 0 215 -56 215 -193v-12h-91v15c0 70 -53 109 -122 109c-72 0 -127 -30 -127 -96c0 -164 356 -82 356 -323c0 -154 -99 -210 -232 -210c-125 0 -231 55 -231 206c0 7 1 17 1 20h91c0 -1 -1 -15 -1 -21c0 -84 58 -124 136 -124c92 0 144 40 144 114
c0 173 -357 83 -357 331c0 126 98 184 218 184zM313 882l85 -135h-80l-44 79l-45 -79h-80l86 135h78z" />
    <glyph glyph-name="Tbar" unicode="&#x166;" horiz-adv-x="501" 
d="M481 686v-80h-187v-213h131v-73h-131v-320h-88v320h-129v73h129v213h-187v80h462z" />
    <glyph glyph-name="Tcaron" unicode="&#x164;" horiz-adv-x="501" 
d="M375 883l-86 -135h-78l-85 135h80l44 -79l45 79h80zM19 606v80h462v-80h-187v-606h-88v606h-187z" />
    <glyph glyph-name="Tcommaaccent" unicode="&#x162;" horiz-adv-x="501" 
d="M293 -60v-84l-29 -78h-44l22 71h-34v91h85zM19 606v80h462v-80h-187v-606h-88v606h-187z" />
    <glyph glyph-name="Ubreve" unicode="&#x16c;" horiz-adv-x="592" 
d="M522 686v-463c0 -154 -85 -235 -226 -235s-226 81 -226 235v463h88v-468c0 -97 52 -149 138 -149s138 52 138 149v468h88zM356 883h64c0 -45 -47 -97 -124 -97c-76 0 -124 52 -124 97h65c3 -14 25 -33 59 -33s58 19 60 33z" />
    <glyph glyph-name="Uhungarumlaut" unicode="&#x170;" horiz-adv-x="592" 
d="M522 686v-463c0 -154 -85 -235 -226 -235s-226 81 -226 235v463h88v-468c0 -97 52 -149 138 -149s138 52 138 149v468h88zM482 883l1 -3l-84 -129h-68l62 132h89zM352 883l1 -3l-84 -129h-69l62 132h90z" />
    <glyph glyph-name="Umacron" unicode="&#x16a;" horiz-adv-x="592" 
d="M522 686v-463c0 -154 -85 -235 -226 -235s-226 81 -226 235v463h88v-468c0 -97 52 -149 138 -149s138 52 138 149v468h88zM421 831v-72h-250v72h250z" />
    <glyph glyph-name="Uogonek" unicode="&#x172;" horiz-adv-x="592" 
d="M522 686v-463c0 -113 -46 -186 -125 -218c-12 -14 -27 -40 -27 -67c0 -28 12 -55 46 -55h31v-51c-21 -9 -41 -14 -61 -14c-43 0 -94 21 -94 90c0 35 11 60 27 81c-7 0 -15 -1 -23 -1c-141 0 -226 81 -226 235v463h88v-468c0 -97 52 -149 138 -149s138 52 138 149v468h88z
" />
    <glyph glyph-name="Uring" unicode="&#x16e;" horiz-adv-x="592" 
d="M522 686v-463c0 -154 -85 -235 -226 -235s-226 81 -226 235v463h88v-468c0 -97 52 -149 138 -149s138 52 138 149v468h88zM296 915c54 0 96 -44 96 -96c0 -53 -43 -96 -96 -96c-52 0 -96 42 -96 96c0 53 43 96 96 96zM296 870c-28 0 -51 -23 -51 -51s23 -51 51 -51
c27 0 51 23 51 51s-24 51 -51 51z" />
    <glyph glyph-name="Utilde" unicode="&#x168;" horiz-adv-x="592" 
d="M522 686v-463c0 -154 -85 -235 -226 -235s-226 81 -226 235v463h88v-468c0 -97 52 -149 138 -149s138 52 138 149v468h88zM384 883h58c0 -46 -25 -104 -85 -104c-44 0 -76 31 -115 31c-18 0 -31 -8 -34 -31h-58c0 46 25 104 85 104c43 0 76 -30 115 -30c18 0 31 7 34 30z
" />
    <glyph glyph-name="Wacute" unicode="&#x1e82;" horiz-adv-x="774" 
d="M605 0h-114l-84 465c-8 46 -19 138 -19 138h-4s-11 -92 -19 -138l-82 -465h-114l-159 686h93l105 -474c9 -40 21 -122 21 -122h4s7 62 17 122l79 474h122l85 -474c9 -50 18 -122 18 -122h4s11 77 21 122l105 474h80zM504 880l-107 -129h-69l86 132h89z" />
    <glyph glyph-name="Wcircumflex" unicode="&#x174;" horiz-adv-x="774" 
d="M764 686l-159 -686h-114l-84 465c-8 46 -19 138 -19 138h-4s-11 -92 -19 -138l-82 -465h-114l-159 686h93l105 -474c9 -40 21 -122 21 -122h4s7 62 17 122l79 474h122l85 -474c9 -50 18 -122 18 -122h4s11 77 21 122l105 474h80zM427 882l85 -135h-80l-44 79l-45 -79h-80
l86 135h78z" />
    <glyph glyph-name="Wdieresis" unicode="&#x1e84;" horiz-adv-x="774" 
d="M764 686l-159 -686h-114l-84 465c-8 46 -19 138 -19 138h-4s-11 -92 -19 -138l-82 -465h-114l-159 686h93l105 -474c9 -40 21 -122 21 -122h4s7 62 17 122l79 474h122l85 -474c9 -50 18 -122 18 -122h4s11 77 21 122l105 474h80zM506 883v-95h-88v95h88zM355 883v-95h-86
v95h86z" />
    <glyph glyph-name="Wgrave" unicode="&#x1e80;" horiz-adv-x="774" 
d="M605 0h-114l-84 465c-8 46 -19 138 -19 138h-4s-11 -92 -19 -138l-82 -465h-114l-159 686h93l105 -474c9 -40 21 -122 21 -122h4s7 62 17 122l79 474h122l85 -474c9 -50 18 -122 18 -122h4s11 77 21 122l105 474h80zM447 751h-69l-108 129l1 3h90z" />
    <glyph glyph-name="Ycircumflex" unicode="&#x176;" horiz-adv-x="547" 
d="M539 686l-221 -402v-284h-88v284l-222 402h97l174 -318h4l171 318h85zM313 882l85 -135h-80l-44 79l-45 -79h-80l86 135h78z" />
    <glyph glyph-name="Ygrave" unicode="&#x1ef2;" horiz-adv-x="547" 
d="M318 284v-284h-88v284l-222 402h97l174 -318h4l171 318h85zM333 751h-69l-108 129l1 3h90z" />
    <glyph glyph-name="Zacute" unicode="&#x179;" horiz-adv-x="501" 
d="M368 880l-108 -129h-69l86 132h90zM479 0h-459v38l326 568h-305v80h431v-38l-327 -568h334v-80z" />
    <glyph glyph-name="Zdotaccent" unicode="&#x17b;" horiz-adv-x="501" 
d="M294 883v-95h-87v95h87zM479 0h-459v38l326 568h-305v80h431v-38l-327 -568h334v-80z" />
    <glyph glyph-name="abreve" unicode="&#x103;" 
d="M223 538c106 0 159 -54 159 -147v-295c0 -25 14 -35 28 -35h32v-57c-9 -5 -28 -12 -54 -12c-43 0 -73 26 -83 65h-5c-27 -43 -73 -69 -128 -69c-52 0 -138 21 -138 148c0 145 113 176 266 176v68c0 50 -16 85 -83 85c-62 0 -81 -43 -81 -83v-12h-81c-1 6 -1 13 -1 22
c0 96 70 146 169 146zM300 191v48c-107 0 -180 -16 -180 -98c0 -60 25 -80 71 -80c52 0 109 43 109 130zM288 723h64c0 -22 -12 -47 -33 -65c-21 -19 -52 -32 -91 -32c-76 0 -124 52 -124 97h65c2 -7 8 -15 18 -22c10 -6 24 -11 41 -11c34 0 58 19 60 33z" />
    <glyph glyph-name="aeacute" unicode="&#x1fd;" horiz-adv-x="729" 
d="M504 538c115 0 173 -71 173 -247v-52h-285c1 -123 37 -178 115 -178c52 0 89 45 89 118h81c0 -118 -70 -191 -172 -191c-73 0 -127 24 -160 80c-37 -49 -91 -80 -152 -80c-65 0 -153 21 -153 148c0 145 113 176 266 176v68c0 50 -16 85 -83 85c-62 0 -81 -43 -81 -83v-12
h-81c-1 6 -1 13 -1 22c0 96 70 146 169 146c64 0 110 -21 135 -60c33 41 79 60 140 60zM306 183v56c-107 0 -180 -16 -180 -98c0 -60 25 -80 71 -80c52 0 109 40 109 122zM504 465c-73 0 -104 -52 -111 -153h198c0 100 -30 153 -87 153zM482 720l-107 -129h-70l86 132h90z
" />
    <glyph glyph-name="amacron" unicode="&#x101;" 
d="M223 538c106 0 159 -54 159 -147v-295c0 -25 14 -35 28 -35h32v-57c-9 -5 -28 -12 -54 -12c-43 0 -73 26 -83 65h-5c-27 -43 -73 -69 -128 -69c-52 0 -138 21 -138 148c0 145 113 176 266 176v68c0 50 -16 85 -83 85c-62 0 -81 -43 -81 -83v-12h-81c-1 6 -1 13 -1 22
c0 96 70 146 169 146zM300 191v48c-107 0 -180 -16 -180 -98c0 -60 25 -80 71 -80c52 0 109 43 109 130zM354 671v-72h-251v72h251z" />
    <glyph glyph-name="aogonek" unicode="&#x105;" 
d="M223 538c106 0 159 -54 159 -147v-295c0 -25 14 -35 28 -35h32v-57c-2 -1 -5 -3 -9 -4c-11 -15 -23 -38 -23 -62c0 -28 12 -55 46 -55h31v-51c-21 -9 -41 -14 -61 -14c-43 0 -94 21 -94 90c0 39 14 65 32 87c-30 8 -51 30 -59 62h-5c-27 -43 -73 -69 -128 -69
c-52 0 -138 21 -138 148c0 145 113 176 266 176v68c0 50 -16 85 -83 85c-62 0 -81 -43 -81 -83v-12h-81c-1 6 -1 13 -1 22c0 96 70 146 169 146zM300 191v48c-107 0 -180 -16 -180 -98c0 -60 25 -80 71 -80c52 0 109 43 109 130z" />
    <glyph glyph-name="aringacute" unicode="&#x1fb;" 
d="M229 745c54 0 95 -40 95 -90c0 -51 -42 -90 -95 -90s-97 38 -97 90c0 51 43 90 97 90zM229 701c-28 0 -52 -19 -52 -46s24 -47 52 -47c26 0 50 20 50 47s-24 46 -50 46zM223 538c106 0 159 -54 159 -147v-295c0 -25 14 -35 28 -35h32v-57c-9 -5 -28 -12 -54 -12
c-43 0 -73 26 -83 65h-5c-27 -43 -73 -69 -128 -69c-52 0 -138 21 -138 148c0 145 113 176 266 176v68c0 50 -16 85 -83 85c-62 0 -81 -43 -81 -83v-12h-81c-1 6 -1 13 -1 22c0 96 70 146 169 146zM300 191v48c-107 0 -180 -16 -180 -98c0 -60 25 -80 71 -80
c52 0 109 43 109 130zM361 883l1 -3l-97 -112h-69l75 115h90z" />
    <glyph glyph-name="cacute" unicode="&#x107;" horiz-adv-x="410" 
d="M216 538c114 0 161 -73 161 -207h-85c0 91 -17 134 -76 134c-65 0 -94 -62 -94 -183v-38c0 -121 28 -183 94 -183c59 0 80 47 80 134h81c0 -110 -45 -207 -161 -207c-124 0 -180 86 -180 275s57 275 180 275zM332 720l-107 -129h-70l86 132h90z" />
    <glyph glyph-name="ccaron" unicode="&#x10d;" horiz-adv-x="410" 
d="M216 538c114 0 161 -73 161 -207h-85c0 91 -17 134 -76 134c-65 0 -94 -62 -94 -183v-38c0 -121 28 -183 94 -183c59 0 80 47 80 134h81c0 -110 -45 -207 -161 -207c-124 0 -180 86 -180 275s57 275 180 275zM330 723l-86 -135h-78l-85 135h80l44 -79l45 79h80z" />
    <glyph glyph-name="ccircumflex" unicode="&#x109;" horiz-adv-x="410" 
d="M216 538c114 0 161 -73 161 -207h-85c0 91 -17 134 -76 134c-65 0 -94 -62 -94 -183v-38c0 -121 28 -183 94 -183c59 0 80 47 80 134h81c0 -110 -45 -207 -161 -207c-124 0 -180 86 -180 275s57 275 180 275zM245 722l85 -135h-80l-44 79l-45 -79h-80l86 135h78z" />
    <glyph glyph-name="cdotaccent" unicode="&#x10b;" horiz-adv-x="410" 
d="M216 538c114 0 161 -73 161 -207h-85c0 91 -17 134 -76 134c-65 0 -94 -62 -94 -183v-38c0 -121 28 -183 94 -183c59 0 80 47 80 134h81c0 -110 -45 -207 -161 -207c-124 0 -180 86 -180 275s57 275 180 275zM249 723v-95h-87v95h87z" />
    <glyph glyph-name="dcaron" unicode="&#x10f;" horiz-adv-x="504" 
d="M396 723v-723h-62l-11 61h-5c-25 -48 -67 -73 -115 -73c-100 0 -163 83 -163 276c0 191 70 274 157 274c51 0 94 -23 112 -62h5v247h82zM220 465c-63 0 -94 -52 -94 -183v-38c0 -131 31 -183 94 -183s94 62 94 183v34c0 124 -31 187 -94 187zM536 686v-99l-49 -133h-51
l40 124h-40v108h100z" />
    <glyph glyph-name="dcroat" unicode="&#x111;" horiz-adv-x="453" 
d="M396 723v-72h58v-68h-58v-583h-62l-11 61h-5c-25 -48 -67 -73 -115 -73c-100 0 -163 83 -163 276c0 191 70 274 157 274c51 0 94 -23 112 -62h5v107h-111v68h111v72h82zM220 465c-63 0 -94 -52 -94 -183v-38c0 -131 31 -183 94 -183s94 62 94 183v34
c0 124 -31 187 -94 187z" />
    <glyph glyph-name="dotlessi" unicode="&#x131;" horiz-adv-x="228" 
d="M155 526v-526h-82v526h82z" />
    <glyph glyph-name="ebreve" unicode="&#x115;" 
d="M240 538c115 0 173 -71 173 -247v-52h-285c1 -123 37 -178 115 -178c52 0 89 45 89 118h81c0 -118 -70 -191 -172 -191c-131 0 -199 80 -199 275c0 189 66 275 198 275zM240 465c-73 0 -104 -52 -111 -153h198c0 100 -30 153 -87 153zM288 723h64c0 -22 -12 -47 -33 -65
c-21 -19 -52 -32 -91 -32c-76 0 -124 52 -124 97h65c2 -7 8 -15 18 -22c10 -6 24 -11 41 -11c34 0 58 19 60 33z" />
    <glyph glyph-name="ecaron" unicode="&#x11b;" 
d="M240 538c115 0 173 -71 173 -247v-52h-285c1 -123 37 -178 115 -178c52 0 89 45 89 118h81c0 -118 -70 -191 -172 -191c-131 0 -199 80 -199 275c0 189 66 275 198 275zM240 465c-73 0 -104 -52 -111 -153h198c0 100 -30 153 -87 153zM353 723l-86 -135h-79l-84 135h80
l44 -79l45 79h80z" />
    <glyph glyph-name="edotaccent" unicode="&#x117;" 
d="M240 538c115 0 173 -71 173 -247v-52h-285c1 -123 37 -178 115 -178c52 0 89 45 89 118h81c0 -118 -70 -191 -172 -191c-131 0 -199 80 -199 275c0 189 66 275 198 275zM240 465c-73 0 -104 -52 -111 -153h198c0 100 -30 153 -87 153zM272 723v-95h-87v95h87z" />
    <glyph glyph-name="emacron" unicode="&#x113;" 
d="M240 538c115 0 173 -71 173 -247v-52h-285c1 -123 37 -178 115 -178c52 0 89 45 89 118h81c0 -118 -70 -191 -172 -191c-131 0 -199 80 -199 275c0 189 66 275 198 275zM240 465c-73 0 -104 -52 -111 -153h198c0 100 -30 153 -87 153zM354 671v-72h-251v72h251z" />
    <glyph glyph-name="eng" unicode="&#x14b;" 
d="M266 538c79 0 130 -42 130 -159v-440c0 -60 -24 -121 -104 -121c-24 0 -52 6 -69 12v57h44c31 0 47 17 47 48v438c0 73 -30 92 -74 92c-52 0 -98 -53 -98 -144v-321h-82v526h62l11 -61h6c29 52 75 73 127 73z" />
    <glyph glyph-name="eogonek" unicode="&#x119;" 
d="M240 538c115 0 173 -71 173 -247v-52h-285c1 -123 37 -178 115 -178c52 0 89 45 89 118h81c0 -83 -35 -143 -90 -172c-12 -14 -29 -41 -29 -69s12 -55 45 -55h32v-51c-21 -9 -41 -14 -61 -14c-43 0 -94 21 -94 90c0 35 11 60 27 80h-2c-131 0 -199 80 -199 275
c0 189 66 275 198 275zM240 465c-73 0 -104 -52 -111 -153h198c0 100 -30 153 -87 153z" />
    <glyph glyph-name="gbreve" unicode="&#x11f;" 
d="M364 611h72c0 -63 -33 -112 -88 -126c29 -30 47 -72 47 -124c0 -109 -66 -176 -168 -177h-55c-27 0 -48 -21 -48 -47s22 -47 48 -47h150c76 0 124 -56 124 -123c0 -83 -54 -149 -154 -149h-149c-86 0 -130 56 -130 125c0 51 26 96 68 112c-27 17 -43 48 -43 79
c0 43 30 75 74 91c-38 31 -61 77 -61 136c0 110 65 177 172 177c27 0 54 -7 76 -19c47 25 60 59 65 92zM301 12h-145c-42 0 -61 -27 -61 -61s20 -62 61 -62h145c35 0 62 28 62 62s-20 61 -62 61zM222 470c-58 0 -89 -42 -89 -109c0 -70 31 -109 89 -109s90 42 90 109
c0 70 -32 109 -90 109zM288 723h64c0 -22 -12 -47 -33 -65c-21 -19 -52 -32 -91 -32c-76 0 -124 52 -124 97h65c2 -7 8 -15 18 -22c10 -6 24 -11 41 -11c34 0 58 19 60 33z" />
    <glyph glyph-name="gcircumflex" unicode="&#x11d;" 
d="M369 611h67c0 -63 -33 -112 -88 -126c29 -30 47 -72 47 -124c0 -109 -66 -176 -168 -177h-55c-27 0 -48 -21 -48 -47s22 -47 48 -47h150c76 0 124 -56 124 -123c0 -83 -54 -149 -154 -149h-149c-86 0 -130 56 -130 125c0 51 26 96 68 112c-27 17 -43 48 -43 79
c0 43 30 75 74 91c-38 31 -61 77 -61 136c0 110 65 177 172 177c27 0 54 -7 76 -19c51 25 68 44 70 92zM301 12h-145c-42 0 -61 -27 -61 -61s20 -62 61 -62h145c35 0 62 28 62 62s-20 61 -62 61zM222 470c-58 0 -89 -42 -89 -109c0 -70 31 -109 89 -109s90 42 90 109
c0 70 -32 109 -90 109zM268 722l85 -135h-80l-44 79l-45 -79h-80l85 135h79z" />
    <glyph glyph-name="gcommaaccent" unicode="&#x123;" 
d="M364 611h72c0 -63 -33 -112 -88 -126c29 -30 47 -72 47 -124c0 -109 -66 -176 -168 -177h-55c-27 0 -48 -21 -48 -47s22 -47 48 -47h150c76 0 124 -56 124 -123c0 -83 -54 -149 -154 -149h-149c-86 0 -130 56 -130 125c0 51 26 96 68 112c-27 17 -43 48 -43 79
c0 43 30 75 74 91c-38 31 -61 77 -61 136c0 110 65 177 172 177c27 0 54 -7 76 -19c47 25 60 59 65 92zM301 12h-145c-42 0 -61 -27 -61 -61s20 -62 61 -62h145c35 0 62 28 62 62s-20 61 -62 61zM222 470c-58 0 -89 -42 -89 -109c0 -70 31 -109 89 -109s90 42 90 109
c0 70 -32 109 -90 109zM170 595v84l30 78h44l-22 -71h34v-91h-86z" />
    <glyph glyph-name="gdotaccent" unicode="&#x121;" 
d="M364 611h72c0 -63 -33 -112 -88 -126c29 -30 47 -72 47 -124c0 -109 -66 -176 -168 -177h-55c-27 0 -48 -21 -48 -47s22 -47 48 -47h150c76 0 124 -56 124 -123c0 -83 -54 -149 -154 -149h-149c-86 0 -130 56 -130 125c0 51 26 96 68 112c-27 17 -43 48 -43 79
c0 43 30 75 74 91c-38 31 -61 77 -61 136c0 110 65 177 172 177c27 0 54 -7 76 -19c47 25 60 59 65 92zM301 12h-145c-42 0 -61 -27 -61 -61s20 -62 61 -62h145c35 0 62 28 62 62s-20 61 -62 61zM222 470c-58 0 -89 -42 -89 -109c0 -70 31 -109 89 -109s90 42 90 109
c0 70 -32 109 -90 109zM272 723v-95h-87v95h87z" />
    <glyph glyph-name="hbar" unicode="&#x127;" 
d="M142 723v-72h108v-68h-108v-112h6c27 47 66 67 118 67c79 0 130 -42 130 -159v-379h-82v373c0 73 -30 92 -74 92c-52 0 -98 -53 -98 -144v-321h-82v583h-60v68h60v72h82z" />
    <glyph glyph-name="hcircumflex" unicode="&#x125;" 
d="M142 723v-252h6c27 47 66 67 118 67c79 0 130 -42 130 -159v-379h-82v373c0 73 -30 92 -74 92c-52 0 -98 -53 -98 -144v-321h-82v723h82zM143 882l85 -135h-80l-44 79l-45 -79h-81l86 135h79z" />
    <glyph glyph-name="ibreve" unicode="&#x12d;" horiz-adv-x="228" 
d="M155 526v-526h-82v526h82zM174 723h64c0 -22 -12 -47 -33 -65c-21 -19 -52 -32 -91 -32c-76 0 -124 52 -124 97h65c2 -7 8 -15 18 -22c11 -6 25 -11 41 -11c34 0 58 19 60 33z" />
    <glyph glyph-name="ij" unicode="&#x133;" horiz-adv-x="364" 
d="M132 526v-526h-82v526h82zM132 723v-98h-82v98h82zM314 526v-587c0 -60 -24 -121 -104 -121c-24 0 -52 6 -69 12v57h44c31 0 47 17 47 48v591h82zM314 723v-98h-82v98h82z" />
    <glyph glyph-name="imacron" unicode="&#x12b;" horiz-adv-x="228" 
d="M155 526v-526h-82v526h82zM240 671v-72h-251v72h251z" />
    <glyph glyph-name="iogonek" unicode="&#x12f;" horiz-adv-x="182" 
d="M132 526v-526h-6c-11 -15 -24 -38 -24 -62c0 -28 12 -55 45 -55h32v-51c-21 -9 -41 -14 -61 -14c-43 0 -94 21 -94 90c0 42 16 69 37 92h-11v526h82zM136 723v-95h-88v95h88z" />
    <glyph glyph-name="itilde" unicode="&#x129;" horiz-adv-x="228" 
d="M155 526v-526h-82v526h82zM202 723h58c0 -46 -25 -104 -85 -104c-43 0 -76 31 -115 31c-18 0 -31 -8 -34 -31h-58c0 23 6 49 20 69c14 21 35 35 65 35c22 0 41 -8 59 -15c19 -8 37 -16 56 -16c18 0 31 8 34 31z" />
    <glyph glyph-name="jcircumflex" unicode="&#x135;" horiz-adv-x="182" 
d="M132 526v-587c0 -60 -24 -121 -104 -121c-24 0 -52 6 -69 12v57h44c31 0 47 17 47 48v591h82zM130 722l86 -135h-80l-44 79l-46 -79h-80l86 135h78z" />
    <glyph glyph-name="kcommaaccent" unicode="&#x137;" horiz-adv-x="410" 
d="M142 723v-441l170 244h91l-155 -216l163 -310h-93l-120 240l-56 -61v-179h-82v723h82zM248 -60v-84l-29 -78h-45l23 71h-34v91h85z" />
    <glyph glyph-name="kgreenlandic" unicode="&#x138;" horiz-adv-x="408" 
d="M403 526l-155 -216l163 -310h-93l-120 240l-56 -61v-179h-82v526h82v-244l170 244h91z" />
    <glyph glyph-name="lacute" unicode="&#x13a;" horiz-adv-x="182" 
d="M132 0h-82v723h82v-723zM208 880l-107 -129h-69l86 132h90v-3z" />
    <glyph glyph-name="lcaron" unicode="&#x13e;" horiz-adv-x="239" 
d="M132 723v-723h-82v723h82zM272 686v-99l-48 -133h-52l40 124h-40v108h100z" />
    <glyph glyph-name="lcommaaccent" unicode="&#x13c;" horiz-adv-x="182" 
d="M132 723v-723h-82v723h82zM134 -60v-84l-29 -78h-44l22 71h-34v91h85z" />
    <glyph glyph-name="ldot" unicode="&#x140;" horiz-adv-x="323" 
d="M132 723v-723h-82v723h82zM273 399v-111h-101v111h101z" />
    <glyph glyph-name="longs" unicode="&#x17f;" horiz-adv-x="182" 
d="M159 731c24 0 52 -6 69 -12v-57h-44c-31 0 -47 -17 -47 -48v-614h-82v453h-46v73h46v84c0 60 24 121 104 121z" />
    <glyph glyph-name="lslash" unicode="&#x142;" horiz-adv-x="182" 
d="M132 723v-332l87 77v-72l-87 -77v-319h-82v246l-71 -62v71l71 63v405h82z" />
    <glyph glyph-name="nacute" unicode="&#x144;" 
d="M266 538c79 0 130 -42 130 -159v-379h-82v373c0 73 -30 92 -74 92c-52 0 -98 -53 -98 -144v-321h-82v526h62l11 -61h6c29 52 75 73 127 73zM345 720l-107 -129h-70l86 132h90z" />
    <glyph glyph-name="napostrophe" unicode="&#x149;" horiz-adv-x="573" 
d="M133 685v-84l-29 -78h-45l23 71h-35v91h86zM383 538c79 0 130 -42 130 -159v-379h-82v373c0 73 -30 92 -75 92c-51 0 -97 -53 -97 -144v-321h-82v526h62l11 -61h6c29 52 75 73 127 73z" />
    <glyph glyph-name="ncaron" unicode="&#x148;" 
d="M266 538c79 0 130 -42 130 -159v-379h-82v373c0 73 -30 92 -74 92c-52 0 -98 -53 -98 -144v-321h-82v526h62l11 -61h6c29 52 75 73 127 73zM353 723l-86 -135h-79l-84 135h80l44 -79l45 79h80z" />
    <glyph glyph-name="ncommaaccent" unicode="&#x146;" 
d="M266 538c79 0 130 -42 130 -159v-379h-82v373c0 73 -30 92 -74 92c-52 0 -98 -53 -98 -144v-321h-82v526h62l11 -61h6c29 52 75 73 127 73zM271 -60v-84l-29 -78h-45l23 71h-34v91h85z" />
    <glyph glyph-name="obreve" unicode="&#x14f;" 
d="M228 538c123 0 188 -86 188 -275s-65 -275 -188 -275s-188 86 -188 275s65 275 188 275zM228 465c-68 0 -102 -62 -102 -183v-38c0 -121 34 -183 102 -183s102 62 102 183v38c0 121 -34 183 -102 183zM288 723h64c0 -22 -12 -47 -33 -65c-21 -19 -52 -32 -91 -32
c-76 0 -124 52 -124 97h65c2 -7 8 -15 18 -22c10 -6 24 -11 41 -11c34 0 58 19 60 33z" />
    <glyph glyph-name="ohungarumlaut" unicode="&#x151;" 
d="M228 538c123 0 188 -86 188 -275s-65 -275 -188 -275s-188 86 -188 275s65 275 188 275zM228 465c-68 0 -102 -62 -102 -183v-38c0 -121 34 -183 102 -183s102 62 102 183v38c0 121 -34 183 -102 183zM415 723l1 -3l-84 -129h-69l62 132h90zM284 723l1 -3l-84 -129h-69
l62 132h90z" />
    <glyph glyph-name="omacron" unicode="&#x14d;" 
d="M228 538c123 0 188 -86 188 -275s-65 -275 -188 -275s-188 86 -188 275s65 275 188 275zM228 465c-68 0 -102 -62 -102 -183v-38c0 -121 34 -183 102 -183s102 62 102 183v38c0 121 -34 183 -102 183zM354 671v-72h-251v72h251z" />
    <glyph glyph-name="oslashacute" unicode="&#x1ff;" horiz-adv-x="501" 
d="M438 558l-48 -87c32 -45 48 -114 48 -208c0 -189 -65 -275 -188 -275c-42 0 -78 10 -106 31l-27 -51h-55l47 87c-31 45 -47 113 -47 208c0 189 65 275 188 275c42 0 77 -10 105 -31l28 51h55zM341 380l-157 -289c16 -20 38 -30 66 -30c68 0 102 62 102 183v38
c0 39 -4 72 -11 98zM250 465c-68 0 -102 -62 -102 -183v-38c0 -39 3 -72 10 -99l158 290c-17 20 -39 30 -66 30zM368 720l-108 -129h-69l86 132h90z" />
    <glyph glyph-name="racute" unicode="&#x155;" horiz-adv-x="273" 
d="M228 538c22 0 39 -8 39 -8v-85h-27c-52 0 -98 -31 -98 -124v-321h-82v526h62l11 -69h6c13 40 39 81 89 81zM210 720l-107 -129h-70l86 132h90z" />
    <glyph glyph-name="rcaron" unicode="&#x159;" horiz-adv-x="273" 
d="M228 538c22 0 39 -8 39 -8v-85h-27c-52 0 -98 -31 -98 -124v-321h-82v526h62l11 -69h6c13 40 39 81 89 81zM247 723l-86 -135h-78l-86 135h81l44 -79l45 79h80z" />
    <glyph glyph-name="rcommaaccent" unicode="&#x157;" horiz-adv-x="273" 
d="M228 538c22 0 39 -8 39 -8v-85h-27c-52 0 -98 -31 -98 -124v-321h-82v526h62l11 -69h6c13 40 39 81 89 81zM152 -60v-84l-29 -78h-45l23 71h-35v91h86z" />
    <glyph glyph-name="sacute" unicode="&#x15b;" horiz-adv-x="410" 
d="M209 538c98 0 151 -66 151 -144c0 -7 -1 -17 -1 -19h-85v9c0 41 -17 82 -73 82c-58 0 -71 -43 -71 -72c0 -115 240 -48 240 -244c0 -113 -71 -162 -168 -162c-121 0 -169 76 -169 154c0 14 1 20 1 22h86v-10c0 -66 38 -94 86 -94c43 0 79 27 79 78
c0 132 -240 61 -240 250c0 93 64 150 164 150zM322 720l-107 -129h-69l85 132h90z" />
    <glyph glyph-name="scedilla" unicode="&#x15f;" horiz-adv-x="410" 
d="M209 538c98 0 151 -66 151 -144c0 -7 -1 -17 -1 -19h-85v9c0 41 -17 82 -73 82c-58 0 -71 -43 -71 -72c0 -115 240 -48 240 -244c0 -106 -62 -154 -149 -161l-3 -25c43 -3 81 -19 81 -65c0 -67 -63 -81 -104 -81c-28 0 -60 3 -84 8v49h76c22 0 36 5 36 24
c0 16 -8 24 -34 24h-33l10 67c-95 13 -133 82 -133 152c0 14 1 20 1 22h86v-10c0 -66 38 -94 86 -94c43 0 79 27 79 78c0 132 -240 61 -240 250c0 93 64 150 164 150z" />
    <glyph glyph-name="scircumflex" unicode="&#x15d;" horiz-adv-x="410" 
d="M209 538c98 0 151 -66 151 -144c0 -7 -1 -17 -1 -19h-85v9c0 41 -17 82 -73 82c-58 0 -71 -43 -71 -72c0 -115 240 -48 240 -244c0 -113 -71 -162 -168 -162c-121 0 -169 76 -169 154c0 14 1 20 1 22h86v-10c0 -66 38 -94 86 -94c43 0 79 27 79 78
c0 132 -240 61 -240 250c0 93 64 150 164 150zM245 722l85 -135h-80l-44 79l-45 -79h-80l86 135h78z" />
    <glyph glyph-name="tbar" unicode="&#x167;" horiz-adv-x="229" 
d="M141 672v-146h71v-73h-71v-104h66v-68h-66v-172c0 -31 16 -48 47 -48h24v-57c-14 -8 -39 -14 -59 -14c-72 0 -94 61 -94 121v170h-43v68h43v104h-45v73h45l18 146h64z" />
    <glyph glyph-name="tcaron" unicode="&#x165;" horiz-adv-x="307" 
d="M141 672v-146h71v-73h-71v-344c0 -31 16 -48 47 -48h24v-57c-14 -8 -39 -14 -59 -14c-72 0 -94 61 -94 121v342h-45v73h45l18 146h64zM353 686v-99l-49 -133h-52l40 124h-40v108h101z" />
    <glyph glyph-name="tcommaaccent" unicode="&#x163;" horiz-adv-x="228" 
d="M141 672v-146h71v-73h-71v-344c0 -31 16 -48 47 -48h24v-57c-14 -8 -39 -14 -59 -14c-72 0 -94 61 -94 121v342h-45v73h45l18 146h64zM157 -60v-84l-29 -78h-45l23 71h-34v91h85z" />
    <glyph glyph-name="ubreve" unicode="&#x16d;" 
d="M396 526v-526h-62l-11 61h-6c-29 -52 -75 -73 -127 -73c-79 0 -130 42 -130 159v379h82v-373c0 -73 30 -92 74 -92c52 0 98 53 98 144v321h82zM288 723h64c0 -22 -12 -47 -33 -65c-21 -19 -52 -32 -91 -32c-76 0 -124 52 -124 97h65c2 -7 8 -15 18 -22
c10 -6 24 -11 41 -11c34 0 58 19 60 33z" />
    <glyph glyph-name="uhungarumlaut" unicode="&#x171;" 
d="M396 526v-526h-62l-11 61h-6c-29 -52 -75 -73 -127 -73c-79 0 -130 42 -130 159v379h82v-373c0 -73 30 -92 74 -92c52 0 98 53 98 144v321h82zM415 723l1 -3l-84 -129h-69l62 132h90zM284 723l1 -3l-84 -129h-69l62 132h90z" />
    <glyph glyph-name="umacron" unicode="&#x16b;" 
d="M396 526v-526h-62l-11 61h-6c-29 -52 -75 -73 -127 -73c-79 0 -130 42 -130 159v379h82v-373c0 -73 30 -92 74 -92c52 0 98 53 98 144v321h82zM354 671v-72h-251v72h251z" />
    <glyph glyph-name="uni207F" unicode="&#x207f;" horiz-adv-x="299" 
d="M176 735c54 0 89 -29 89 -110v-256h-59v252c0 48 -19 61 -48 61c-34 0 -63 -35 -63 -95v-218h-60v358h46l8 -41c18 35 51 49 87 49z" />
    <glyph glyph-name="uogonek" unicode="&#x173;" 
d="M396 526v-526h-6c-11 -15 -24 -38 -24 -62c0 -28 12 -55 45 -55h32v-51c-21 -9 -41 -14 -61 -14c-43 0 -94 21 -94 90c0 47 21 76 44 100l-9 53h-6c-29 -52 -75 -73 -127 -73c-79 0 -130 42 -130 159v379h82v-373c0 -73 30 -92 74 -92c52 0 98 53 98 144v321h82z" />
    <glyph glyph-name="uring" unicode="&#x16f;" 
d="M396 526v-526h-62l-11 61h-6c-29 -52 -75 -73 -127 -73c-79 0 -130 42 -130 159v379h82v-373c0 -73 30 -92 74 -92c52 0 98 53 98 144v321h82zM228 754c54 0 96 -44 96 -95c0 -54 -43 -97 -96 -97c-52 0 -96 42 -96 97c0 53 43 95 96 95zM228 709c-28 0 -51 -22 -51 -50
s23 -52 51 -52c27 0 51 24 51 52s-24 50 -51 50z" />
    <glyph glyph-name="utilde" unicode="&#x169;" 
d="M396 526v-526h-62l-11 61h-6c-29 -52 -75 -73 -127 -73c-79 0 -130 42 -130 159v379h82v-373c0 -73 30 -92 74 -92c52 0 98 53 98 144v321h82zM316 723h58c0 -46 -25 -104 -85 -104c-43 0 -76 31 -115 31c-18 0 -31 -8 -34 -31h-58c0 23 6 49 20 69c14 21 35 35 65 35
c22 0 41 -8 59 -15c19 -8 37 -16 56 -16c18 0 31 8 34 31z" />
    <glyph glyph-name="wacute" unicode="&#x1e83;" horiz-adv-x="592" 
d="M459 0h-91l-55 300c-10 54 -16 121 -16 121h-4s-6 -66 -16 -121l-54 -300h-91l-131 526h90l66 -296c10 -43 21 -125 21 -125h4s7 71 16 125l53 296h95l54 -296c9 -53 16 -125 16 -125h4s8 65 21 125l66 296h83zM413 720l-107 -129h-70l86 132h90z" />
    <glyph glyph-name="wcircumflex" unicode="&#x175;" horiz-adv-x="592" 
d="M590 526l-131 -526h-91l-55 300c-10 54 -16 121 -16 121h-4s-6 -66 -16 -121l-54 -300h-91l-131 526h90l66 -296c10 -43 21 -125 21 -125h4s7 71 16 125l53 296h95l54 -296c9 -53 16 -125 16 -125h4s8 65 21 125l66 296h83zM335 722l86 -135h-80l-44 79l-46 -79h-80
l86 135h78z" />
    <glyph glyph-name="wdieresis" unicode="&#x1e85;" horiz-adv-x="592" 
d="M590 526l-131 -526h-91l-55 300c-10 54 -16 121 -16 121h-4s-6 -66 -16 -121l-54 -300h-91l-131 526h90l66 -296c10 -43 21 -125 21 -125h4s7 71 16 125l53 296h95l54 -296c9 -53 16 -125 16 -125h4s8 65 21 125l66 296h83zM415 723v-95h-88v95h88zM264 723v-95h-87v95
h87z" />
    <glyph glyph-name="wgrave" unicode="&#x1e81;" horiz-adv-x="592" 
d="M459 0h-91l-55 300c-10 54 -16 121 -16 121h-4s-6 -66 -16 -121l-54 -300h-91l-131 526h90l66 -296c10 -43 21 -125 21 -125h4s7 71 16 125l53 296h95l54 -296c9 -53 16 -125 16 -125h4s8 65 21 125l66 296h83zM355 591h-68l-109 129l1 3h91z" />
    <glyph glyph-name="ycircumflex" unicode="&#x177;" horiz-adv-x="410" 
d="M401 526l-134 -499c-31 -115 -78 -209 -170 -209c-23 0 -42 2 -59 8v57h29c44 0 85 27 104 117l-161 526h90l116 -408h4l98 408h83zM245 722l85 -135h-80l-44 79l-45 -79h-80l86 135h78z" />
    <glyph glyph-name="ygrave" unicode="&#x1ef3;" horiz-adv-x="410" 
d="M401 526l-134 -499c-31 -115 -78 -209 -170 -209c-23 0 -42 2 -59 8v57h29c44 0 85 27 104 117l-161 526h90l116 -408h4l98 408h83zM265 591h-69l-109 129l1 3h91z" />
    <glyph glyph-name="zacute" unicode="&#x17a;" horiz-adv-x="410" 
d="M370 488l-232 -415h245v-73h-357v39l231 414h-215v73h328v-38zM322 720l-107 -129h-69l85 132h90z" />
    <glyph glyph-name="zdotaccent" unicode="&#x17c;" horiz-adv-x="410" 
d="M370 526v-38l-232 -415h245v-73h-357v39l231 414h-215v73h328zM249 723v-95h-87v95h87z" />
    <glyph glyph-name="uniFB01" unicode="&#xfb01;" horiz-adv-x="410" 
d="M159 731c24 0 52 -6 69 -12v-57h-44c-31 0 -47 -17 -47 -48v-88h91v-73h-91v-453h-82v453h-46v73h46v84c0 60 24 121 104 121zM360 526v-526h-82v526h82zM360 723v-98h-82v98h82z" />
    <glyph glyph-name="uniFB02" unicode="&#xfb02;" horiz-adv-x="410" 
d="M159 731c24 0 52 -6 69 -12v-57h-44c-31 0 -47 -17 -47 -48v-88h91v-73h-91v-453h-82v453h-46v73h46v84c0 60 24 121 104 121zM360 723v-723h-82v723h82z" />
    <glyph glyph-name="Delta" unicode="&#x2206;" horiz-adv-x="559" 
d="M16 0v38l209 648h113l210 -648v-38h-532zM277 589l-160 -505h319l-155 505h-4z" />
    <glyph glyph-name="Omega" unicode="&#x2126;" horiz-adv-x="768" 
d="M384 698c168 0 270 -117 270 -355c0 -117 -34 -204 -93 -263c22 1 43 4 68 4h25v-84h-238v61c91 19 146 98 146 240v67c0 167 -68 249 -178 249s-178 -82 -178 -249v-63c0 -143 55 -224 145 -244v-61h-237v84h25c16 0 39 -3 67 -4c-59 59 -92 146 -92 263
c0 238 102 355 270 355z" />
    <glyph glyph-name="pi" unicode="&#x3c0;" horiz-adv-x="556" 
d="M538 526l-8 -73h-78v-297c0 -82 5 -126 13 -156h-80c-9 16 -15 67 -15 147v306h-157c-6 -129 -33 -364 -65 -453h-81c33 106 61 324 64 453c-56 0 -86 -4 -107 -13l-12 56c23 19 67 30 145 30h381z" />
    <glyph glyph-name="fraction" unicode="&#x2044;" horiz-adv-x="137" 
d="M304 698l-415 -710h-63l416 710h62z" />
    <glyph glyph-name="oneeighth" unicode="&#x215b;" horiz-adv-x="684" 
d="M530 174c-34 0 -52 -25 -52 -64c0 -40 18 -64 52 -64s51 24 51 64c0 39 -17 64 -51 64zM530 408c70 0 107 -53 107 -117c0 -35 -15 -67 -41 -88c36 -21 48 -53 48 -93c0 -66 -33 -122 -114 -122c-82 0 -115 56 -115 122c0 40 16 74 48 94c-25 21 -40 52 -40 87
c0 64 37 117 107 117zM530 350c-27 0 -45 -22 -45 -59c0 -38 18 -60 45 -60s45 22 45 60c0 37 -18 59 -45 59zM591 698l-415 -710h-63l416 710h62zM171 686v-344h73v-58h-214v58h79v258h-80v43c31 4 82 22 113 43h29z" />
    <glyph glyph-name="threeeighths" unicode="&#x215c;" horiz-adv-x="684" 
d="M530 174c-34 0 -52 -25 -52 -64c0 -40 18 -64 52 -64s51 24 51 64c0 39 -17 64 -51 64zM585 698l-415 -710h-63l416 710h62zM530 408c70 0 107 -53 107 -117c0 -35 -15 -67 -41 -88c36 -21 48 -53 48 -93c0 -66 -33 -122 -114 -122c-82 0 -115 56 -115 122
c0 40 16 74 48 94c-25 21 -40 52 -40 87c0 64 37 117 107 117zM530 350c-27 0 -45 -22 -45 -59c0 -38 18 -60 45 -60s45 22 45 60c0 37 -18 59 -45 59zM155 698c66 0 110 -41 110 -115c0 -45 -18 -70 -48 -89c31 -16 54 -49 54 -96c0 -75 -47 -119 -114 -119
c-76 0 -118 48 -118 125v11h64v-13c0 -44 17 -66 50 -66s55 20 55 65c0 49 -27 62 -56 62h-35v57h36c26 0 49 19 49 60c0 43 -22 61 -46 61c-26 0 -47 -20 -47 -63v-13h-63v18c0 70 45 115 109 115z" />
    <glyph glyph-name="fiveeighths" unicode="&#x215d;" horiz-adv-x="684" 
d="M537 174c-34 0 -52 -25 -52 -64c0 -40 18 -64 52 -64s51 24 51 64c0 39 -17 64 -51 64zM537 408c70 0 107 -53 107 -117c0 -35 -15 -67 -41 -88c36 -21 48 -53 48 -93c0 -66 -33 -122 -114 -122c-82 0 -115 56 -115 122c0 40 16 74 48 94c-25 21 -40 52 -40 87
c0 64 37 117 107 117zM537 350c-27 0 -45 -22 -45 -59c0 -38 18 -60 45 -60s45 22 45 60c0 37 -18 59 -45 59zM589 698l-415 -710h-63l416 710h62zM252 686v-64h-140l-6 -100c14 14 35 27 62 27c56 0 100 -44 100 -134c0 -91 -44 -143 -116 -143c-71 0 -118 49 -118 132h64
c0 -46 24 -74 54 -74s52 27 52 85c0 49 -20 77 -48 77c-22 0 -41 -17 -54 -43l-57 10l14 227h193z" />
    <glyph glyph-name="seveneighths" unicode="&#x215e;" horiz-adv-x="684" 
d="M541 174c-34 0 -52 -25 -52 -64c0 -40 18 -64 52 -64s51 24 51 64c0 39 -17 64 -51 64zM541 408c70 0 107 -53 107 -117c0 -35 -15 -67 -41 -88c36 -21 48 -53 48 -93c0 -66 -33 -122 -114 -122c-82 0 -115 56 -115 122c0 40 16 74 48 94c-25 21 -40 52 -40 87
c0 64 37 117 107 117zM541 350c-27 0 -45 -22 -45 -59c0 -38 18 -60 45 -60s45 22 45 60c0 37 -18 59 -45 59zM573 698l-415 -710h-63l416 710h62zM295 686v-38l-1 -4c-53 -80 -119 -198 -119 -322c0 -10 1 -23 2 -36h-70c0 136 59 256 109 337h-157v63h236z" />
    <glyph glyph-name="exclamdbl" unicode="&#x203c;" 
d="M275 686h113c-5 -57 -17 -334 -26 -515h-62c-8 171 -15 344 -25 515zM167 108v-108h-100v108h100zM382 108v-108h-100v108h100zM60 686h113c-5 -57 -17 -334 -26 -515h-62c-8 171 -15 344 -25 515z" />
    <glyph glyph-name="minute" unicode="&#x2032;" horiz-adv-x="157" 
d="M138 686l1 -3l-47 -157h-69l25 160h90z" />
    <glyph glyph-name="second" unicode="&#x2033;" horiz-adv-x="291" 
d="M265 686l1 -3l-47 -157h-69l25 160h90zM138 686l1 -3l-47 -157h-69l25 160h90z" />
    <glyph glyph-name="underscoredbl" unicode="&#x2017;" horiz-adv-x="500" 
d="M478 -71v-53h-455v53h455zM478 -164v-53h-455v53h455z" />
    <glyph glyph-name="uni203E" unicode="&#x203e;" horiz-adv-x="500" 
d="M501 844v-53h-501v53h501z" />
    <glyph glyph-name="quotereversed" unicode="&#x201b;" horiz-adv-x="182" 
d="M141 686v-108h-40l40 -124h-52l-48 133v99h100z" />
    <glyph glyph-name="franc" unicode="&#x20a3;" horiz-adv-x="504" 
d="M491 457v-85h-27c-52 0 -98 -31 -98 -124v-248h-82v304h-136v-304h-88v686h338v-80h-250v-222h136v69h62l11 -69h6c13 40 39 81 89 81c22 0 39 -8 39 -8z" />
    <glyph glyph-name="lira" unicode="&#x20a4;" 
d="M252 698c98 0 161 -51 161 -194v-13h-82v16c0 81 -28 118 -79 118s-78 -34 -78 -110v-92h133v-72h-133v-50h133v-71h-133l-10 -151h249v-79h-383v79h61v151h-72v71h72v50h-72v72h72v76c0 133 60 199 161 199z" />
    <glyph glyph-name="peseta" unicode="&#x20a7;" horiz-adv-x="953" 
d="M545 672v-146h148c11 4 22 7 34 9c13 2 26 3 39 3c98 0 151 -66 151 -144c0 -7 -1 -17 -1 -19h-85v9c0 41 -17 81 -73 81c-58 0 -70 -42 -70 -71c0 -115 239 -48 239 -244c0 -113 -71 -162 -168 -162c-72 0 -118 26 -143 64v-48c-14 -8 -39 -14 -59 -14
c-72 0 -94 56 -94 111v352h-26c-13 -104 -87 -172 -203 -172h-76v-281h-88v686h164c118 0 187 -64 202 -160h27l18 146h64zM591 164h86v-10c0 -66 38 -93 86 -93c43 0 78 26 78 77c0 132 -239 61 -239 250c0 24 4 46 12 65h-69v-344c0 -31 14 -48 42 -48h23
c-14 24 -20 52 -20 81c0 14 1 20 1 22zM231 606h-73v-245h73c70 0 116 47 116 123c0 74 -41 122 -116 122z" />
    <glyph glyph-name="approxequal" unicode="&#x2248;" horiz-adv-x="549" 
d="M512 420v-94s-45 -74 -138 -74c-36 0 -68 16 -100 31c-32 16 -64 31 -101 31c-81 0 -138 -74 -138 -74v94s45 74 138 74c36 0 68 -15 100 -31c32 -15 64 -31 101 -31c81 0 138 74 138 74zM512 207v-94s-45 -74 -138 -74c-36 0 -68 16 -100 31c-32 16 -64 31 -101 31
c-81 0 -138 -74 -138 -74v94s45 74 138 74c36 0 68 -15 100 -31c32 -15 64 -31 101 -31c81 0 138 74 138 74z" />
    <glyph glyph-name="equivalence" unicode="&#x2261;" horiz-adv-x="478" 
d="M435 516v-84h-392v84h392zM435 90v-83h-392v83h392zM435 303v-84h-392v84h392z" />
    <glyph glyph-name="greaterequal" unicode="&#x2265;" horiz-adv-x="549" 
d="M79 604l392 -197v-107l-392 -196v90l311 160l-311 160v90zM470 83v-83h-392v83h392z" />
    <glyph glyph-name="infinity" unicode="&#x221e;" horiz-adv-x="713" 
d="M517 453c92 0 148 -70 148 -156s-55 -155 -147 -155c-71 0 -120 45 -162 96c-43 -51 -92 -96 -162 -96c-92 0 -147 69 -147 155s56 156 148 156c69 0 118 -46 161 -97c42 51 91 97 161 97zM195 377c-40 0 -74 -37 -74 -82s33 -81 73 -81c45 0 79 37 115 83
c-35 44 -70 80 -114 80zM517 377c-45 0 -79 -36 -115 -80c36 -46 71 -83 116 -83c40 0 73 36 73 81s-34 82 -74 82z" />
    <glyph glyph-name="integral" unicode="&#x222b;" horiz-adv-x="274" 
d="M249 859v-49c-49 0 -87 -14 -87 -57c0 0 28 -629 28 -782c0 -95 -71 -112 -157 -112v50c49 0 85 14 85 58c0 0 -27 626 -27 780c0 94 72 112 158 112z" />
    <glyph glyph-name="intersection" unicode="&#x2229;" horiz-adv-x="722" 
d="M360 676c146 0 265 -108 265 -274v-402h-74v395c0 130 -85 215 -191 215s-191 -85 -191 -215v-395h-73v402c0 166 118 274 264 274z" />
    <glyph glyph-name="lessequal" unicode="&#x2264;" horiz-adv-x="549" 
d="M470 604v-90l-311 -160l311 -160v-90l-392 196v107zM471 83v-83h-392v83h392z" />
    <glyph glyph-name="minus" unicode="&#x2212;" horiz-adv-x="479" 
d="M435 297v-84h-392v84h392z" />
    <glyph glyph-name="notequal" unicode="&#x2260;" horiz-adv-x="549" 
d="M425 484l-42 -82h91v-84h-134l-65 -129h199v-83h-241l-41 -81h-61l41 81h-90v83h132l65 129h-197v84h240l42 82h61z" />
    <glyph glyph-name="orthogonal" unicode="&#x221f;" horiz-adv-x="979" 
d="M251 625v-559h551v-66h-625v625h74z" />
    <glyph glyph-name="partialdiff" unicode="&#x2202;" horiz-adv-x="494" 
d="M222 735c108 0 214 -102 214 -352c0 -247 -78 -395 -219 -395c-106 0 -161 100 -161 216c0 152 86 245 179 245c65 0 104 -43 117 -69h4c1 6 1 25 1 34c0 142 -62 252 -145 252c-44 0 -75 -16 -98 -34v74c27 16 60 29 108 29zM248 382c-61 0 -107 -84 -107 -181
c0 -84 31 -140 83 -140c71 0 116 116 125 238c-11 37 -47 83 -101 83z" />
    <glyph glyph-name="product" unicode="&#x220f;" horiz-adv-x="823" 
d="M717 723v-80h-83v-771h-81v771h-284v-771h-81v771h-82v80h611z" />
    <glyph glyph-name="radical" unicode="&#x221a;" horiz-adv-x="549" 
d="M548 857l-162 -1005h-90c-57 147 -113 294 -169 441l-77 -30l-20 60l162 68c41 -116 85 -231 127 -347c10 -28 16 -53 21 -74l137 887h71z" />
    <glyph glyph-name="summation" unicode="&#x2211;" horiz-adv-x="713" 
d="M645 723v-78h-429v-4l262 -326l-283 -351v-4h467v-88h-575v63l290 364l-281 357v67h549z" />
    <glyph glyph-name="uni2219" unicode="&#x2219;" horiz-adv-x="273" 
d="M186 399v-111h-101v111h101z" />
    <glyph glyph-name="arrowboth" unicode="&#x2194;" horiz-adv-x="1000" 
d="M762 426l197 -163v-21l-197 -163h-42l58 137h-550l53 -137h-42l-197 163v21l197 163h42l-53 -137h550l-58 137h42z" />
    <glyph glyph-name="arrowdown" unicode="&#x2193;" horiz-adv-x="500" 
d="M287 710v-737l137 58v-42l-163 -197h-21l-163 197v42l137 -58v737h73z" />
    <glyph glyph-name="arrowleft" unicode="&#x2190;" horiz-adv-x="1000" 
d="M281 426l-58 -137h737v-73h-737l58 -137h-42l-197 163v21l197 163h42z" />
    <glyph glyph-name="arrowright" unicode="&#x2192;" horiz-adv-x="1000" 
d="M762 426l197 -163v-21l-197 -163h-42l58 137h-737v73h737l-58 137h42z" />
    <glyph glyph-name="arrowup" unicode="&#x2191;" horiz-adv-x="500" 
d="M261 710l163 -197v-42l-137 58v-737h-73v737l-137 -58v42l163 197h21z" />
    <glyph glyph-name="arrowupdn" unicode="&#x2195;" horiz-adv-x="500" 
d="M260 711l163 -197v-42l-137 53v-550l137 58v-42l-163 -197h-21l-163 197v42l137 -58v550l-137 -53v42l163 197h21z" />
    <glyph glyph-name="estimated" unicode="&#x212e;" horiz-adv-x="600" 
d="M302 538c159 0 257 -120 257 -285v-5h-406v-165c37 -34 87 -53 149 -53c88 0 156 42 190 109l34 -21c-42 -80 -120 -130 -224 -130c-160 0 -257 116 -257 275s97 275 257 275zM302 496c-62 0 -112 -20 -149 -54v-152h298v151c-38 35 -88 55 -149 55z" />
    <glyph glyph-name="commaaccent" unicode="&#xf6c3;" horiz-adv-x="273" 
d="M181 -60v-84l-29 -78h-45l23 71h-34v91h85z" />
    <glyph glyph-name="uni02C9" unicode="&#x2c9;" horiz-adv-x="500" 
d="M501 844v-53h-501v53h501z" />
    <glyph glyph-name="breve" unicode="&#x2d8;" horiz-adv-x="273" 
d="M194 723h64c0 -22 -12 -47 -33 -65c-21 -19 -52 -32 -91 -32c-76 0 -123 52 -123 97h64c2 -7 8 -15 18 -22c11 -6 25 -11 41 -11c34 0 58 19 60 33z" />
    <glyph glyph-name="caron" unicode="&#x2c7;" horiz-adv-x="273" 
d="M259 723l-86 -135h-78l-85 135h80l44 -79l45 79h80z" />
    <glyph glyph-name="dotaccent" unicode="&#x2d9;" horiz-adv-x="273" 
d="M180 723v-95h-87v95h87z" />
    <glyph glyph-name="hungarumlaut" unicode="&#x2dd;" horiz-adv-x="273" 
d="M286 723l1 -3l-84 -129h-69l62 132h90zM156 723l1 -3l-84 -129h-69l62 132h90z" />
    <glyph glyph-name="ogonek" unicode="&#x2db;" horiz-adv-x="273" 
d="M180 12v-4c-12 -14 -30 -42 -30 -70s12 -55 45 -55h32v-51c-21 -9 -41 -14 -61 -14c-43 0 -94 21 -94 90c0 49 23 78 48 104h60z" />
    <glyph glyph-name="ring" unicode="&#x2da;" horiz-adv-x="273" 
d="M139 754c54 0 96 -44 96 -95c0 -54 -43 -97 -96 -97c-52 0 -96 42 -96 97c0 53 43 95 96 95zM139 709c-28 0 -51 -22 -51 -50s23 -52 51 -52c27 0 51 24 51 52s-24 50 -51 50z" />
    <glyph glyph-name="AEacute" unicode="&#x1fc;" horiz-adv-x="820" 
d="M625 880l-108 -129h-69l86 132h90zM783 0h-330l-34 153h-273l-59 -153h-88l280 686h498v-80h-367l49 -215h274v-80h-256l52 -231h254v-80zM298 543l-121 -310h225l-68 310c-7 23 -11 62 -11 62h-4s-13 -40 -21 -62z" />
    <glyph glyph-name="afii00208" unicode="&#x2015;" horiz-adv-x="820" 
d="M715 308v-75h-613v75h613z" />
    <glyph glyph-name="afii61248" unicode="&#x2105;" horiz-adv-x="758" 
d="M611 698l-415 -710h-63l416 710h62zM179 698c82 0 116 -55 116 -156h-69c0 65 -11 95 -47 95c-42 0 -61 -40 -61 -121v-25c0 -80 19 -120 61 -120c36 0 50 33 50 95h66c0 -83 -32 -156 -116 -156c-91 0 -131 60 -131 194c0 133 42 194 131 194zM575 315
c-43 0 -65 -40 -65 -121v-25c0 -81 22 -121 65 -121c44 0 66 40 66 121v25c0 81 -22 121 -66 121zM575 376c89 0 135 -62 135 -195s-46 -194 -135 -194c-88 0 -134 61 -134 194s46 195 134 195z" />
    <glyph glyph-name="afii61289" unicode="&#x2113;" horiz-adv-x="349" 
d="M207 735c70 0 104 -65 104 -153c0 -118 -67 -234 -168 -346v-38c0 -102 39 -141 87 -141c27 0 50 12 69 30v-73c-25 -17 -50 -26 -82 -26c-103 0 -140 81 -142 180v14l-34 -32v70c11 11 21 21 33 35v253c0 171 67 227 133 227zM208 671c-32 0 -65 -40 -65 -163v-190
c63 84 112 176 112 265c0 55 -14 88 -47 88z" />
    <glyph glyph-name="afii61352" unicode="&#x2116;" horiz-adv-x="880" 
d="M707 636c-42 0 -63 -42 -63 -122v-26c0 -80 21 -122 63 -122c43 0 63 42 63 122v26c0 80 -20 122 -63 122zM707 698c88 0 135 -61 135 -197s-47 -197 -135 -197s-135 61 -135 197s47 197 135 197zM516 686v-686h-73l-257 437c-17 29 -44 92 -44 92l-3 -1s4 -63 4 -91
v-437h-79v686h76l255 -431c15 -26 42 -92 42 -92l3 1s-3 69 -3 91v431h79zM831 264v-62h-247v62h247z" />
    <glyph glyph-name="arrowupdnbse" unicode="&#x21a8;" horiz-adv-x="500" 
d="M260 711l163 -197v-42l-137 53v-550l137 58v-42l-163 -197h-21l-163 197v42l137 -58v550l-137 -53v42l163 197h21zM425 -255v-48h-350v48h350z" />
    <glyph glyph-name="house" unicode="&#x2302;" horiz-adv-x="600" 
d="M300 563l225 -253v-310h-450v310zM300 468l-161 -181v-227h323v227z" />
    <glyph glyph-name="integralbt" unicode="&#x2321;" horiz-adv-x="604" 
d="M257 859h74c7 -440 14 -917 14 -997c0 -94 -72 -112 -158 -112v49c49 0 87 14 87 57c0 0 -9 522 -17 1003z" />
    <glyph glyph-name="integraltp" unicode="&#x2320;" horiz-adv-x="604" 
d="M417 859v-49c-49 0 -87 -14 -87 -57c0 0 9 -522 17 -1003h-74c-7 440 -14 917 -14 997c0 94 72 112 158 112z" />
    <glyph glyph-name="revlogicalnot" unicode="&#x2310;" horiz-adv-x="479" 
d="M435 453v-93h-312v-163h-84v256h396z" />
    <glyph glyph-name="uni2215" unicode="&#x2215;" horiz-adv-x="137" 
d="M304 698l-415 -710h-63l416 710h62z" />
    </font>
</defs>
</svg>
