<?xml version="1.0" standalone="no"?>
<!DOCTYPE svg PUBLIC "-//W3C//DTD SVG 1.1//EN" "http://www.w3.org/Graphics/SVG/1.1/DTD/svg11.dtd" >
<svg xmlns="http://www.w3.org/2000/svg" xmlns:xlink="http://www.w3.org/1999/xlink" version="1.1">
<metadata>
Created by FontForge 20150318 at Mon Oct 26 14:22:58 2015
 By uniteet7
Archivo Narrow was designed to be used simultaneously in print and digital platforms. The technical and aesthetic characteristics of the font are both crafted for high performance typography.
</metadata>
<defs>
<font id="ArchivoNarrow-Bold" horiz-adv-x="456" >
  <font-face 
    font-family="Archivo Narrow"
    font-weight="700"
    font-stretch="normal"
    units-per-em="1000"
    panose-1="2 0 0 0 0 0 0 0 0 0"
    ascent="800"
    descent="-200"
    x-height="526"
    cap-height="686"
    bbox="-166 -263 960 957"
    underline-thickness="24"
    underline-position="-25"
    stemh="110"
    stemv="120"
    unicode-range="U+000D-FB02"
  />
<missing-glyph horiz-adv-x="228" 
d="M500 700v-700h-500v700h500zM250 305l-170 -255h340zM50 605v-510l170 255zM450 605l-170 -255l170 -255v510zM420 650h-340l170 -255z" />
    <glyph glyph-name=".notdef" horiz-adv-x="228" 
d="M500 700v-700h-500v700h500zM250 305l-170 -255h340zM50 605v-510l170 255zM450 605l-170 -255l170 -255v510zM420 650h-340l170 -255z" />
    <glyph glyph-name="NULL" horiz-adv-x="0" 
 />
    <glyph glyph-name="CR" unicode="&#xd;" horiz-adv-x="0" 
 />
    <glyph glyph-name="space" unicode=" " horiz-adv-x="228" 
 />
    <glyph glyph-name="exclam" unicode="!" horiz-adv-x="273" 
d="M213 686l-36 -489h-82l-35 489h153zM206 137v-137h-138v137h138z" />
    <glyph glyph-name="quotedbl" unicode="&#x22;" horiz-adv-x="389" 
d="M348 686v-147l-21 -132h-79l-22 132v147h122zM167 686v-147l-21 -132h-79l-22 132v147h122z" />
    <glyph glyph-name="numbersign" unicode="#" 
d="M432 698l-44 -194h62v-84h-81l-31 -141h73v-84h-92l-44 -195h-88l44 195h-75l-44 -195h-88l44 195h-63v84h82l31 141h-74v84h93l44 194h88l-44 -194h75l44 194h88zM281 420h-75l-31 -141h75z" />
    <glyph glyph-name="dollar" unicode="$" 
d="M253 723v-106c88 -8 154 -60 154 -142c0 -11 -1 -22 -1 -23h-110c0 40 -17 64 -43 74v-129c76 -20 167 -44 167 -159c0 -117 -70 -162 -167 -169v-118h-55v118c-105 9 -165 73 -165 166c0 5 1 12 1 12h110v-7c0 -46 25 -70 54 -79v143c-74 21 -157 46 -157 154
c0 96 67 149 157 158v107h55zM253 286v-127c29 7 57 26 57 64c0 33 -24 50 -57 63zM198 414v112c-28 -9 -47 -30 -47 -58s19 -43 47 -54z" />
    <glyph glyph-name="percent" unicode="%" horiz-adv-x="729" 
d="M173 698c86 0 138 -42 138 -181s-52 -180 -138 -180s-138 42 -138 180c0 139 52 181 138 181zM173 625c-40 0 -49 -41 -49 -100v-15c0 -59 9 -100 49 -100s49 41 49 100v15c0 59 -9 100 -49 100zM557 349c86 0 138 -42 138 -181s-52 -180 -138 -180s-138 42 -138 180
c0 139 52 181 138 181zM557 276c-40 0 -49 -41 -49 -100v-15c0 -59 9 -100 49 -100s49 41 49 100v15c0 59 -9 100 -49 100zM618 686l-419 -686h-85l418 686h86z" />
    <glyph glyph-name="ampersand" unicode="&#x26;" horiz-adv-x="592" 
d="M279 698c129 0 219 -74 219 -188v-28h-120v19c0 64 -35 96 -101 96c-64 0 -102 -35 -102 -92c0 -66 41 -106 98 -106h41v-101h-38c-61 0 -115 -22 -115 -108c0 -69 43 -101 110 -101c72 0 107 37 107 102v208h199v-101h-79v-104c0 -125 -80 -206 -229 -206
c-136 0 -233 74 -233 196c0 91 50 146 117 168v4c-59 29 -103 73 -103 154c0 122 92 188 229 188z" />
    <glyph glyph-name="quotesingle" unicode="'" horiz-adv-x="195" 
d="M159 686v-147l-21 -132h-79l-22 132v147h122z" />
    <glyph glyph-name="parenleft" unicode="(" horiz-adv-x="273" 
d="M179 735h79c-66 -122 -118 -289 -118 -445s52 -325 118 -447h-79c-96 123 -149 281 -149 445s53 324 149 447z" />
    <glyph glyph-name="parenright" unicode=")" horiz-adv-x="273" 
d="M15 735h79c96 -123 149 -283 149 -447s-53 -322 -149 -445h-79c66 122 118 291 118 447s-52 323 -118 445z" />
    <glyph glyph-name="asterisk" unicode="*" horiz-adv-x="319" 
d="M199 686l-10 -101l84 58l39 -66l-93 -44l93 -42l-39 -68l-84 60l10 -102h-78l10 102l-84 -60l-39 68l93 42l-93 44l39 66l84 -59l-10 102h78z" />
    <glyph glyph-name="plus" unicode="+" horiz-adv-x="479" 
d="M290 511v-204h155v-104h-155v-203h-103v203h-154v104h154v204h103z" />
    <glyph glyph-name="comma" unicode="," horiz-adv-x="228" 
d="M183 137v-125l-66 -168h-72l55 156h-55v137h138z" />
    <glyph glyph-name="hyphen" unicode="-" horiz-adv-x="273" 
d="M257 329v-118h-241v118h241z" />
    <glyph glyph-name="period" unicode="." horiz-adv-x="228" 
d="M183 137v-137h-138v137h138z" />
    <glyph glyph-name="slash" unicode="/" horiz-adv-x="228" 
d="M228 735l-141 -784h-86l142 784h85z" />
    <glyph glyph-name="zero" unicode="0" 
d="M228 698c123 0 198 -76 198 -355s-75 -355 -198 -355c-124 0 -198 76 -198 355s74 355 198 355zM228 597c-61 0 -73 -69 -73 -219v-70c0 -150 12 -219 73 -219s73 69 73 219v70c0 150 -12 219 -73 219z" />
    <glyph glyph-name="one" unicode="1" 
d="M314 686v-585h141v-101h-415v101h154v428h-155v80c56 6 152 37 216 77h59z" />
    <glyph glyph-name="two" unicode="2" 
d="M239 698c102 0 184 -52 184 -178c0 -181 -198 -325 -240 -408h243v-112h-393v24c0 215 264 309 264 497c0 32 -14 74 -63 74c-50 0 -69 -48 -69 -104v-41h-123s-3 16 -3 40c0 147 93 208 200 208z" />
    <glyph glyph-name="three" unicode="3" 
d="M225 698c113 0 189 -66 189 -188c0 -81 -38 -125 -89 -154v-4c58 -22 101 -77 101 -168c0 -122 -82 -196 -198 -196c-131 0 -203 81 -203 206v18h125v-21c0 -65 26 -102 76 -102c45 0 75 32 75 101c0 86 -39 108 -82 108h-33v101h35c38 0 68 35 68 106
c0 64 -24 92 -63 92c-41 0 -64 -32 -64 -96v-19h-125v28c0 114 78 188 188 188z" />
    <glyph glyph-name="four" unicode="4" 
d="M181 698h120c-38 -178 -151 -388 -189 -442h143v154c26 52 54 133 67 186h53v-340h70v-101h-70v-155h-120v155h-247v96c72 127 133 295 173 447z" />
    <glyph glyph-name="five" unicode="5" 
d="M404 686v-112h-226l-10 -162c20 16 50 34 98 34c93 0 167 -71 167 -222s-77 -236 -201 -236c-122 0 -202 85 -202 225h125c0 -76 28 -125 77 -125c46 0 77 46 77 136c0 80 -30 124 -70 124c-37 0 -59 -25 -74 -58l-116 16l23 380h332z" />
    <glyph glyph-name="six" unicode="6" 
d="M228 698c127 0 180 -96 180 -223h-123c0 77 -15 122 -61 122c-62 0 -68 -86 -70 -220c23 34 62 54 106 54c111 0 166 -94 166 -221c0 -137 -80 -222 -189 -222c-129 0 -207 81 -207 335c0 286 74 375 198 375zM232 333c-48 0 -71 -50 -71 -123c0 -69 23 -121 71 -121
s70 52 70 121c0 73 -22 123 -70 123z" />
    <glyph glyph-name="seven" unicode="7" 
d="M433 686v-81c-90 -136 -202 -344 -202 -554c0 -19 0 -27 1 -51h-133c0 220 99 435 204 574h-280v112h410z" />
    <glyph glyph-name="eight" unicode="8" 
d="M228 698c122 0 184 -86 184 -191c0 -65 -25 -122 -75 -155c63 -31 89 -90 89 -164c0 -110 -58 -200 -198 -200s-198 90 -198 200c0 74 26 133 88 164c-50 33 -74 90 -74 155c0 105 62 191 184 191zM228 301c-48 0 -74 -38 -74 -107s26 -106 74 -106s74 37 74 106
s-26 107 -74 107zM228 598c-40 0 -62 -34 -62 -99s22 -99 62 -99s63 34 63 99s-23 99 -63 99z" />
    <glyph glyph-name="nine" unicode="9" 
d="M219 698c129 0 207 -81 207 -335c0 -286 -74 -375 -198 -375c-127 0 -180 96 -180 223h123c0 -77 15 -122 61 -122c62 0 68 86 70 220c-23 -34 -62 -54 -106 -54c-111 0 -166 94 -166 221c0 137 80 222 189 222zM224 597c-48 0 -70 -52 -70 -121c0 -73 22 -123 70 -123
s71 50 71 123c0 69 -23 121 -71 121z" />
    <glyph glyph-name="colon" unicode=":" horiz-adv-x="273" 
d="M193 137v-137h-138v137h138zM193 526v-137h-138v137h138z" />
    <glyph glyph-name="semicolon" unicode=";" horiz-adv-x="273" 
d="M192 137v-125l-66 -168h-72l55 156h-55v137h138zM193 526v-137h-138v137h138z" />
    <glyph glyph-name="less" unicode="&#x3c;" horiz-adv-x="479" 
d="M446 531v-118l-311 -152l311 -152v-118l-412 206v127z" />
    <glyph glyph-name="equal" unicode="=" horiz-adv-x="479" 
d="M445 412v-104h-412v104h412zM445 199v-103h-412v103h412z" />
    <glyph glyph-name="greater" unicode="&#x3e;" horiz-adv-x="479" 
d="M34 531l412 -207v-127l-412 -206v118l311 152l-311 152v118z" />
    <glyph glyph-name="question" unicode="?" horiz-adv-x="501" 
d="M260 698c119 0 193 -73 193 -178c0 -88 -31 -133 -62 -170c-32 -37 -63 -66 -63 -125v-28h-126v43c0 60 30 95 60 131s60 74 60 138c0 20 -8 82 -70 82c-67 0 -77 -68 -77 -105c0 -16 1 -27 1 -27h-126s-3 23 -3 35c0 112 70 204 213 204zM335 137v-137h-138v137h138z
" />
    <glyph glyph-name="at" unicode="@" horiz-adv-x="800" 
d="M412 698c209 0 364 -109 364 -377c0 -227 -116 -299 -199 -299c-66 0 -89 26 -104 63h-5c-27 -39 -57 -63 -120 -63c-45 0 -120 24 -120 134c0 129 98 167 237 167v50c0 33 -8 59 -50 59c-45 0 -57 -27 -57 -50v-13h-106c-1 5 -1 11 -1 20c0 79 63 132 161 132
c111 0 163 -52 163 -141v-228c0 -27 11 -38 30 -38c46 0 98 51 98 208c0 217 -120 307 -292 307c-193 0 -313 -120 -313 -368c0 -229 89 -345 282 -345c45 0 125 14 160 32v-74c-41 -16 -118 -27 -160 -27c-219 0 -355 126 -355 415c0 319 178 436 387 436zM465 217v27
c-64 0 -125 -16 -125 -78c0 -32 16 -53 53 -53c52 0 72 48 72 104z" />
    <glyph glyph-name="A" unicode="A" horiz-adv-x="592" 
d="M370 686l221 -686h-131l-42 135h-253l-41 -135h-124l221 686h149zM294 571h-4s-10 -61 -20 -93l-70 -229h183l-69 229c-11 36 -20 93 -20 93z" />
    <glyph glyph-name="B" unicode="B" horiz-adv-x="592" 
d="M60 0v686h295c108 0 187 -69 187 -170c0 -79 -46 -135 -105 -156v-4c68 -21 121 -84 121 -172c0 -115 -93 -184 -203 -184h-295zM328 295h-140v-181h146c53 0 93 30 93 86c0 53 -32 95 -99 95zM326 572h-138v-164h132c61 0 91 39 91 85c0 52 -34 79 -85 79z" />
    <glyph glyph-name="C" unicode="C" horiz-adv-x="592" 
d="M307 698c143 0 252 -81 252 -267h-131c0 106 -49 157 -121 157c-95 0 -141 -83 -141 -220v-50c0 -137 47 -220 145 -220c74 0 123 50 123 156h125c0 -180 -107 -266 -252 -266c-172 0 -273 113 -273 355s101 355 273 355z" />
    <glyph glyph-name="D" unicode="D" horiz-adv-x="592" 
d="M283 0h-223v686h223c171 0 275 -112 275 -333c0 -235 -104 -353 -275 -353zM271 572h-83v-458h83c95 0 155 71 155 214v50c0 129 -60 194 -155 194z" />
    <glyph glyph-name="E" unicode="E" horiz-adv-x="547" 
d="M503 0h-443v686h437v-114h-309v-164h265v-114h-265v-180h315v-114z" />
    <glyph glyph-name="F" unicode="F" horiz-adv-x="501" 
d="M188 0h-128v686h403v-114h-275v-173h235v-114h-235v-285z" />
    <glyph glyph-name="G" unicode="G" horiz-adv-x="638" 
d="M325 698c138 0 262 -88 262 -252h-131c0 93 -61 142 -135 142c-107 0 -155 -83 -155 -220v-50c0 -140 49 -220 156 -220c78 0 134 65 134 165h-154v110h285v-373h-83l-22 76c-44 -58 -111 -88 -183 -88c-168 0 -265 111 -265 355c0 242 106 355 291 355z" />
    <glyph glyph-name="H" unicode="H" horiz-adv-x="592" 
d="M404 0v294h-216v-294h-128v686h128v-278h216v278h128v-686h-128z" />
    <glyph glyph-name="I" unicode="I" horiz-adv-x="228" 
d="M178 686v-686h-128v686h128z" />
    <glyph glyph-name="J" unicode="J" 
d="M9 216h127v-43c0 -48 23 -75 67 -75c43 0 65 27 65 75v513h128v-523c0 -114 -69 -175 -193 -175s-194 61 -194 175v53z" />
    <glyph glyph-name="K" unicode="K" horiz-adv-x="592" 
d="M189 686v-351l251 351h143l-203 -279l209 -407h-144l-149 306l-107 -131v-175h-129v686h129z" />
    <glyph glyph-name="L" unicode="L" horiz-adv-x="501" 
d="M60 0v686h128v-566h290v-120h-418z" />
    <glyph glyph-name="M" unicode="M" horiz-adv-x="683" 
d="M630 0h-118v437c0 31 5 110 5 110h-4l-120 -547h-111l-121 547h-4s5 -83 5 -110v-437h-109v686h180l85 -378c10 -45 27 -155 27 -155h4s14 115 23 155l84 378h174v-686z" />
    <glyph glyph-name="N" unicode="N" horiz-adv-x="592" 
d="M532 0h-114l-212 378c-8 14 -31 64 -31 64l-4 -3s2 -39 2 -57v-382h-113v686h113l212 -378c11 -17 31 -64 31 -64l3 3s-1 46 -1 57v382h114v-686z" />
    <glyph glyph-name="O" unicode="O" horiz-adv-x="638" 
d="M319 698c177 0 285 -113 285 -355s-108 -355 -285 -355s-285 113 -285 355s108 355 285 355zM319 588c-102 0 -153 -83 -153 -220v-50c0 -137 51 -220 153 -220s153 83 153 220v50c0 137 -51 220 -153 220z" />
    <glyph glyph-name="P" unicode="P" horiz-adv-x="547" 
d="M305 266h-117v-266h-128v686h245c142 0 215 -87 215 -206c0 -129 -86 -214 -215 -214zM292 572h-104v-193h104c62 0 96 38 96 101c0 56 -35 92 -96 92z" />
    <glyph glyph-name="Q" unicode="Q" horiz-adv-x="638" 
d="M34 343c0 242 108 355 285 355s285 -113 285 -355c0 -172 -55 -278 -149 -326l132 -141h-157l-99 112h-12c-177 0 -285 113 -285 355zM166 368v-50c0 -137 51 -220 153 -220s153 83 153 220v50c0 137 -51 220 -153 220s-153 -83 -153 -220z" />
    <glyph glyph-name="R" unicode="R" horiz-adv-x="592" 
d="M321 286h-133v-286h-128v686h287c139 0 210 -83 210 -196c0 -83 -44 -147 -115 -176l132 -314h-139zM334 572h-146v-173h141c62 0 90 34 90 91c0 50 -26 82 -85 82z" />
    <glyph glyph-name="S" unicode="S" horiz-adv-x="547" 
d="M273 698c122 0 223 -61 223 -202v-12h-131v9c0 58 -35 95 -93 95c-62 0 -96 -31 -96 -73c0 -139 333 -57 333 -309c0 -157 -100 -218 -242 -218c-126 0 -237 72 -237 213c0 8 1 17 1 22h133c0 -2 -1 -11 -1 -16c0 -65 40 -109 110 -109c77 0 104 41 104 81
c0 163 -333 66 -333 327c0 130 108 192 229 192z" />
    <glyph glyph-name="T" unicode="T" horiz-adv-x="501" 
d="M485 686v-114h-170v-572h-128v572h-170v114h468z" />
    <glyph glyph-name="U" unicode="U" horiz-adv-x="592" 
d="M61 215v471h128v-467c0 -79 39 -121 107 -121s108 42 108 121v467h128v-471c0 -149 -89 -227 -236 -227s-235 78 -235 227z" />
    <glyph glyph-name="V" unicode="V" horiz-adv-x="547" 
d="M547 686l-209 -686h-129l-209 686h132l144 -491h4l142 491h125z" />
    <glyph glyph-name="W" unicode="W" horiz-adv-x="774" 
d="M773 686l-149 -686h-129l-93 437c-8 35 -14 97 -14 97h-4s-8 -68 -14 -97l-92 -437h-129l-149 686h127l82 -422c6 -30 13 -96 13 -96h4s7 67 13 96l83 422h145l82 -422c5 -27 13 -96 13 -96h4s6 62 13 96l84 422h110z" />
    <glyph glyph-name="X" unicode="X" horiz-adv-x="547" 
d="M528 686l-177 -324l195 -362h-142l-134 259h-4l-133 -259h-133l194 360l-176 326h143l115 -224h4l115 224h133z" />
    <glyph glyph-name="Y" unicode="Y" horiz-adv-x="547" 
d="M547 686l-209 -427v-259h-128v259l-210 427h135l140 -301h4l139 301h129z" />
    <glyph glyph-name="Z" unicode="Z" horiz-adv-x="501" 
d="M473 686v-50l-282 -522h289v-114h-464v49l282 523h-261v114h436z" />
    <glyph glyph-name="bracketleft" unicode="[" horiz-adv-x="273" 
d="M248 735v-95h-83v-706h83v-95h-199v896h199z" />
    <glyph glyph-name="backslash" unicode="\" horiz-adv-x="228" 
d="M86 735l142 -784h-86l-141 784h85z" />
    <glyph glyph-name="bracketright" unicode="]" horiz-adv-x="273" 
d="M224 735v-896h-199v95h83v706h-83v95h199z" />
    <glyph glyph-name="asciicircum" unicode="^" horiz-adv-x="479" 
d="M295 686l157 -392h-110l-101 270l-99 -270h-110l156 392h107z" />
    <glyph glyph-name="underscore" unicode="_" 
d="M455 -63v-69h-455v69h455z" />
    <glyph glyph-name="grave" unicode="`" horiz-adv-x="273" 
d="M142 723l86 -132h-99l-108 129l1 3h120z" />
    <glyph glyph-name="a" unicode="a" 
d="M217 538c122 0 179 -57 179 -155v-259c0 -25 14 -35 28 -35h24v-85c-13 -7 -35 -16 -71 -16c-48 0 -81 28 -93 69h-5c-30 -42 -63 -69 -133 -69c-49 0 -132 26 -132 148c0 142 108 184 261 184v55c0 36 -9 65 -55 65c-49 0 -63 -30 -63 -55v-15h-117c-1 6 -1 13 -1 22
c0 88 70 146 178 146zM275 203v30c-70 0 -138 -18 -138 -86c0 -36 18 -59 59 -59c57 0 79 53 79 115z" />
    <glyph glyph-name="b" unicode="b" horiz-adv-x="501" 
d="M172 65h-5l-12 -65h-100v723h120v-251h5c19 42 64 66 117 66c93 0 163 -83 163 -274s-65 -276 -169 -276c-50 0 -93 26 -119 77zM175 280v-36c0 -95 22 -147 80 -147s80 52 80 147v38c0 95 -22 147 -80 147s-80 -54 -80 -149z" />
    <glyph glyph-name="c" unicode="c" 
d="M236 538c112 0 184 -63 184 -210h-123c0 74 -20 109 -61 109c-51 0 -70 -54 -70 -155v-38c0 -101 20 -155 74 -155c43 0 61 37 61 109h119c0 -147 -70 -210 -180 -210c-137 0 -199 86 -199 275s65 275 195 275z" />
    <glyph glyph-name="d" unicode="d" horiz-adv-x="501" 
d="M446 723v-723h-100l-12 65h-5c-26 -51 -69 -77 -119 -77c-104 0 -169 85 -169 276s70 274 163 274c53 0 98 -24 117 -66h5v251h120zM246 429c-58 0 -80 -52 -80 -147v-38c0 -95 22 -147 80 -147s80 52 80 147v36c0 95 -22 149 -80 149z" />
    <glyph glyph-name="e" unicode="e" 
d="M233 538c127 0 190 -86 190 -275v-30h-267c1 -94 22 -147 81 -147c41 0 67 37 67 100h119c0 -135 -79 -198 -186 -198c-135 0 -206 86 -206 275s72 275 202 275zM233 440c-51 0 -72 -44 -76 -120h140c0 76 -20 120 -64 120z" />
    <glyph glyph-name="f" unicode="f" horiz-adv-x="273" 
d="M186 731c28 0 67 -6 87 -12v-89h-49c-27 0 -42 -15 -42 -43v-61h91v-101h-91v-425h-120v425h-53v101h53v64c0 70 28 141 124 141z" />
    <glyph glyph-name="g" unicode="g" horiz-adv-x="501" 
d="M387 614h99c0 -75 -32 -118 -85 -134c27 -30 42 -72 42 -121c0 -108 -68 -179 -195 -179h-50c-21 0 -36 -14 -36 -32s13 -31 31 -31h182c66 0 120 -53 120 -137c0 -98 -76 -162 -170 -162h-193c-64 0 -116 49 -116 121c0 52 29 86 67 107c-26 16 -42 43 -42 79
c0 46 35 77 77 92c-42 31 -64 80 -64 142c0 108 68 179 194 179c33 0 63 -5 88 -15c40 29 51 72 51 91zM325 6h-140c-27 0 -48 -22 -48 -48c0 -30 21 -49 48 -49h135c30 0 54 19 54 49s-22 48 -49 48zM248 449c-49 0 -74 -34 -74 -90s25 -90 74 -90c50 0 75 34 75 90
s-25 90 -75 90z" />
    <glyph glyph-name="h" unicode="h" horiz-adv-x="501" 
d="M175 723v-253h4c23 33 65 68 127 68c81 0 140 -45 140 -169v-369h-120v336c0 68 -26 93 -69 93c-47 0 -82 -46 -82 -105v-324h-120v723h120z" />
    <glyph glyph-name="i" unicode="i" horiz-adv-x="228" 
d="M174 526v-526h-120v526h120zM174 723v-109h-120v109h120z" />
    <glyph glyph-name="j" unicode="j" horiz-adv-x="228" 
d="M174 526v-567c0 -70 -26 -141 -122 -141c-30 0 -68 6 -89 12v89h44c31 0 47 17 47 48v559h120zM174 723v-109h-120v109h120z" />
    <glyph glyph-name="k" unicode="k" 
d="M174 723v-406l147 209h128l-156 -214l164 -312h-133l-106 218l-44 -54v-164h-120v723h120z" />
    <glyph glyph-name="l" unicode="l" horiz-adv-x="228" 
d="M174 723v-723h-120v723h120z" />
    <glyph glyph-name="m" unicode="m" horiz-adv-x="729" 
d="M547 538c75 0 130 -42 130 -169v-369h-120v336c0 68 -19 93 -59 93c-39 0 -73 -39 -73 -97v-332h-118v336c0 68 -20 93 -60 93c-41 0 -72 -43 -72 -105v-324h-120v526h100l12 -65h6c25 41 67 77 125 77c52 0 92 -22 113 -77c27 41 73 77 136 77z" />
    <glyph glyph-name="n" unicode="n" horiz-adv-x="501" 
d="M306 538c81 0 140 -45 140 -169v-369h-120v336c0 68 -26 93 -69 93c-47 0 -82 -46 -82 -105v-324h-120v526h100l12 -65h6c27 41 70 77 133 77z" />
    <glyph glyph-name="o" unicode="o" horiz-adv-x="501" 
d="M251 538c140 0 210 -86 210 -275s-70 -275 -210 -275s-210 86 -210 275s70 275 210 275zM251 437c-62 0 -85 -54 -85 -155v-38c0 -101 23 -155 85 -155s85 54 85 155v38c0 101 -23 155 -85 155z" />
    <glyph glyph-name="p" unicode="p" horiz-adv-x="501" 
d="M291 538c104 0 169 -85 169 -276s-70 -274 -163 -274c-53 0 -98 24 -117 66h-5v-227h-120v699h100l12 -65h5c26 51 69 77 119 77zM255 429c-58 0 -80 -52 -80 -147v-36c0 -95 22 -149 80 -149s80 52 80 147v38c0 95 -22 147 -80 147z" />
    <glyph glyph-name="q" unicode="q" horiz-adv-x="501" 
d="M329 461h5l12 65h100v-699h-120v227h-5c-19 -42 -64 -66 -117 -66c-93 0 -163 83 -163 274s65 276 169 276c50 0 93 -26 119 -77zM326 246v36c0 95 -22 147 -80 147s-80 -52 -80 -147v-38c0 -95 22 -147 80 -147s80 54 80 149z" />
    <glyph glyph-name="r" unicode="r" horiz-adv-x="319" 
d="M266 538c31 0 50 -8 50 -8v-116h-43c-52 0 -98 -28 -98 -121v-293h-120v526h100l14 -77h6c14 44 38 89 91 89z" />
    <glyph glyph-name="s" unicode="s" 
d="M229 538c100 0 178 -53 178 -143c0 -11 -1 -22 -1 -23h-122c0 24 -6 41 -16 52s-25 16 -43 16c-37 0 -62 -20 -62 -52c0 -102 257 -22 257 -230c0 -128 -84 -170 -196 -170c-121 0 -191 67 -191 167c0 5 1 12 1 12h122v-7c1 -56 38 -74 72 -74c32 0 70 14 70 57
c0 111 -257 32 -257 235c0 107 83 160 188 160z" />
    <glyph glyph-name="t" unicode="t" horiz-adv-x="273" 
d="M182 674v-148h76v-101h-76v-293c0 -28 15 -43 42 -43h34v-89c-17 -6 -49 -12 -72 -12c-96 0 -124 71 -124 141v296h-53v101h53l18 148h102z" />
    <glyph glyph-name="u" unicode="u" horiz-adv-x="501" 
d="M446 526v-526h-100l-12 65h-6c-27 -41 -70 -77 -133 -77c-81 0 -140 45 -140 169v369h120v-336c0 -68 24 -93 69 -93c47 0 82 44 82 103v326h120z" />
    <glyph glyph-name="v" unicode="v" 
d="M452 526l-163 -526h-122l-163 526h126l68 -226c12 -40 33 -158 33 -158h4s16 112 30 158l67 226h120z" />
    <glyph glyph-name="w" unicode="w" horiz-adv-x="638" 
d="M637 526l-127 -526h-121l-52 251c-11 53 -15 130 -15 130h-6s-4 -75 -15 -129l-51 -252h-121l-128 526h120l50 -216c16 -71 21 -165 21 -165h4s7 89 22 164l45 217h120l45 -218c11 -51 22 -163 22 -163h4s14 104 26 163l46 218h111z" />
    <glyph glyph-name="x" unicode="x" 
d="M443 526l-142 -251l150 -275h-135l-89 174h-5c-29 -57 -59 -117 -89 -174h-128l152 272l-140 254h136c25 -50 51 -104 78 -153h5c26 49 53 103 78 153h129z" />
    <glyph glyph-name="y" unicode="y" 
d="M452 526l-144 -499c-33 -114 -85 -209 -186 -209c-48 0 -78 8 -78 9v92h54c34 0 67 23 81 81l-175 526h127l79 -247c13 -40 28 -137 28 -137h4s13 91 25 136l65 248h120z" />
    <glyph glyph-name="z" unicode="z" horiz-adv-x="410" 
d="M385 526v-50l-205 -375h212v-101h-374v51l204 374h-192v101h355z" />
    <glyph glyph-name="braceleft" unicode="{" horiz-adv-x="319" 
d="M298 735v-77c-35 0 -79 -10 -79 -61c0 -66 -5 -129 -7 -196c-2 -68 -30 -108 -108 -108v-10c78 0 105 -40 108 -108c2 -67 7 -130 7 -196c0 -51 43 -61 79 -61v-77c-103 0 -197 22 -197 148v193c0 45 -41 60 -77 60v92c36 0 77 15 77 60v193c0 126 94 148 197 148z" />
    <glyph glyph-name="bar" unicode="|" horiz-adv-x="230" 
d="M160 723v-896h-90v896h90z" />
    <glyph glyph-name="braceright" unicode="}" horiz-adv-x="319" 
d="M21 658v77c103 0 197 -22 197 -148v-193c0 -45 41 -60 77 -60v-92c-36 0 -77 -15 -77 -60v-193c0 -126 -94 -148 -197 -148v77c36 0 79 10 79 61c0 66 5 129 7 196c3 68 30 108 108 108v10c-78 0 -106 40 -108 108c-2 67 -7 130 -7 196c0 51 -44 61 -79 61z" />
    <glyph glyph-name="asciitilde" unicode="~" horiz-adv-x="479" 
d="M452 402v-120s-41 -73 -123 -73c-64 0 -113 61 -179 61c-72 0 -123 -73 -123 -73v120s41 73 123 73c64 0 113 -61 179 -61c72 0 123 73 123 73z" />
    <glyph glyph-name="Euro" unicode="&#x20ac;" 
d="M360 698c25 0 51 -3 74 -10v-100c-20 6 -41 9 -64 9c-87 0 -148 -53 -176 -138h180v-81h-195c-1 -12 -1 -23 -1 -35s0 -24 1 -35h195v-81h-180c28 -86 89 -138 176 -138c23 0 44 3 64 9v-99c-24 -7 -48 -11 -74 -11c-150 0 -255 91 -290 239h-60v81h49c-1 11 -1 23 -1 35
s0 23 1 35h-49v81h60c35 148 140 239 290 239z" />
    <glyph glyph-name="quotesinglbase" unicode="&#x201a;" horiz-adv-x="228" 
d="M183 137v-125l-66 -168h-72l55 156h-55v137h138z" />
    <glyph glyph-name="florin" unicode="&#x192;" 
d="M362 731c28 0 66 -6 85 -12l-13 -89h-49c-27 0 -44 -15 -48 -43l-14 -100h91l-14 -101h-91l-60 -427c-10 -70 -49 -141 -145 -141c-28 0 -66 6 -85 12l13 89h49c27 0 44 15 48 43l60 424h-73l14 101h73l14 103c10 70 49 141 145 141z" />
    <glyph glyph-name="quotedblbase" unicode="&#x201e;" horiz-adv-x="410" 
d="M366 137v-125l-66 -168h-72l55 156h-55v137h138zM183 137v-125l-66 -168h-72l55 156h-55v137h138z" />
    <glyph glyph-name="ellipsis" unicode="&#x2026;" horiz-adv-x="820" 
d="M752 137v-137h-138v137h138zM206 137v-137h-138v137h138zM479 137v-137h-138v137h138z" />
    <glyph glyph-name="dagger" unicode="&#x2020;" 
d="M281 686l-17 -183l166 17v-113l-166 18l20 -598h-114l20 598l-165 -18v113l165 -17l-17 183h108z" />
    <glyph glyph-name="daggerdbl" unicode="&#x2021;" 
d="M281 686l-17 -183l166 17v-113l-166 18l20 -165l-20 -169l166 18v-113l-166 17l17 -186h-108l17 186l-165 -17v113l165 -18l-20 169l20 165l-165 -18v113l165 -17l-17 183h108z" />
    <glyph glyph-name="circumflex" unicode="&#x2c6;" horiz-adv-x="273" 
d="M184 723l85 -135h-90l-44 69l-45 -69h-90l86 135h98z" />
    <glyph glyph-name="perthousand" unicode="&#x2030;" horiz-adv-x="820" 
d="M427 349c77 0 123 -42 123 -181s-46 -180 -123 -180s-123 42 -123 180c0 139 46 181 123 181zM427 276c-28 0 -34 -28 -34 -100v-15c0 -72 6 -100 34 -100s34 28 34 100v15c0 72 -6 100 -34 100zM125 698c77 0 123 -42 123 -181s-46 -180 -123 -180s-123 42 -123 180
c0 139 46 181 123 181zM125 625c-28 0 -34 -28 -34 -100v-15c0 -72 6 -100 34 -100s34 28 34 100v15c0 72 -6 100 -34 100zM697 349c77 0 123 -42 123 -181s-46 -180 -123 -180s-123 42 -123 180c0 139 46 181 123 181zM697 276c-28 0 -34 -28 -34 -100v-15
c0 -72 6 -100 34 -100s34 28 34 100v15c0 72 -6 100 -34 100zM421 686l-223 -686h-69l222 686h70z" />
    <glyph glyph-name="Scaron" unicode="&#x160;" horiz-adv-x="547" 
d="M273 698c122 0 223 -61 223 -202v-12h-131v9c0 58 -35 95 -93 95c-62 0 -96 -31 -96 -73c0 -139 333 -57 333 -309c0 -157 -100 -218 -242 -218c-126 0 -237 72 -237 213c0 8 1 17 1 22h133c0 -2 -1 -11 -1 -16c0 -65 40 -109 110 -109c77 0 104 41 104 81
c0 163 -333 66 -333 327c0 130 108 192 229 192zM408 883l-85 -135h-98l-86 135h90l45 -69l44 69h90z" />
    <glyph glyph-name="guilsinglleft" unicode="&#x2039;" horiz-adv-x="273" 
d="M246 526l-108 -200l108 -200h-91l-136 200l136 200h91z" />
    <glyph glyph-name="OE" unicode="&#x152;" horiz-adv-x="820" 
d="M30 343c0 242 87 355 228 355c61 0 112 -24 150 -74v62h377v-114h-249v-164h206v-114h-206v-180h256v-114h-384v61c-38 -50 -89 -73 -150 -73c-141 0 -228 113 -228 355zM162 368v-50c0 -157 41 -220 122 -220c82 0 123 63 123 220v50c0 157 -41 220 -123 220
c-81 0 -122 -63 -122 -220z" />
    <glyph glyph-name="Zcaron" unicode="&#x17d;" horiz-adv-x="501" 
d="M473 686v-50l-282 -522h289v-114h-464v49l282 523h-261v114h436zM385 883l-85 -135h-98l-86 135h90l45 -69l44 69h90z" />
    <glyph glyph-name="quoteleft" unicode="&#x2018;" horiz-adv-x="228" 
d="M183 686l-55 -156h55v-137h-138v125l66 168h72z" />
    <glyph glyph-name="quoteright" unicode="&#x2019;" horiz-adv-x="228" 
d="M183 686v-125l-66 -168h-72l55 156h-55v137h138z" />
    <glyph glyph-name="quotedblleft" unicode="&#x201c;" horiz-adv-x="410" 
d="M365 686l-55 -156h55v-137h-138v125l66 168h72zM182 686l-55 -156h55v-137h-138v125l66 168h72z" />
    <glyph glyph-name="quotedblright" unicode="&#x201d;" horiz-adv-x="410" 
d="M366 686v-125l-66 -168h-72l55 156h-55v137h138zM183 686v-125l-66 -168h-72l55 156h-55v137h138z" />
    <glyph glyph-name="bullet" unicode="&#x2022;" horiz-adv-x="287" 
d="M143 467c67 0 121 -56 121 -123s-54 -124 -121 -124s-120 57 -120 124s53 123 120 123z" />
    <glyph glyph-name="endash" unicode="&#x2013;" 
d="M456 319v-98h-456v98h456z" />
    <glyph glyph-name="emdash" unicode="&#x2014;" horiz-adv-x="820" 
d="M820 319v-98h-820v98h820z" />
    <glyph glyph-name="tilde" unicode="&#x2dc;" horiz-adv-x="273" 
d="M238 723h66c0 -55 -28 -122 -99 -122c-48 0 -87 37 -132 37c-21 0 -35 -10 -39 -37h-66c0 28 7 58 23 82c16 23 40 40 75 40c25 0 47 -9 68 -18c22 -10 43 -19 65 -19c21 0 35 9 39 37z" />
    <glyph glyph-name="trademark" unicode="&#x2122;" horiz-adv-x="820" 
d="M730 686v-404h-72v293h-4l-66 -293h-67l-65 293h-5v-293h-66v404h111l63 -283h4l63 283h104zM353 686v-67h-101v-337h-75v337h-100v67h276z" />
    <glyph glyph-name="scaron" unicode="&#x161;" 
d="M229 538c100 0 178 -53 178 -143c0 -11 -1 -22 -1 -23h-122c0 24 -6 41 -16 52s-25 16 -43 16c-37 0 -62 -20 -62 -52c0 -102 257 -22 257 -230c0 -128 -84 -170 -196 -170c-121 0 -191 67 -191 167c0 5 1 12 1 12h122v-7c1 -56 38 -74 72 -74c32 0 70 14 70 57
c0 111 -257 32 -257 235c0 107 83 160 188 160zM363 723l-85 -135h-98l-86 135h90l45 -69l44 69h90z" />
    <glyph glyph-name="guilsinglright" unicode="&#x203a;" horiz-adv-x="273" 
d="M118 526l136 -200l-136 -200h-91l108 200l-108 200h91z" />
    <glyph glyph-name="oe" unicode="&#x153;" horiz-adv-x="774" 
d="M539 538c127 0 190 -86 190 -275v-30h-267c1 -94 22 -147 81 -147c41 0 67 37 67 100h119c0 -135 -79 -198 -186 -198c-62 0 -110 21 -144 65c-35 -44 -84 -65 -148 -65c-140 0 -210 86 -210 275s70 275 210 275c64 0 113 -21 147 -66c34 45 81 66 141 66zM251 437
c-62 0 -85 -54 -85 -155v-38c0 -101 23 -155 85 -155s85 54 85 155v38c0 101 -23 155 -85 155zM539 440c-51 0 -72 -44 -76 -120h140c0 76 -20 120 -64 120z" />
    <glyph glyph-name="zcaron" unicode="&#x17e;" horiz-adv-x="410" 
d="M385 526v-50l-205 -375h212v-101h-374v51l204 374h-192v101h355zM340 723l-85 -135h-98l-86 135h90l45 -69l44 69h90z" />
    <glyph glyph-name="Ydieresis" unicode="&#x178;" horiz-adv-x="547" 
d="M547 686l-209 -427v-259h-128v259l-210 427h135l140 -301h4l139 301h129zM236 883v-109h-100v109h100zM411 883v-109h-100v109h100z" />
    <glyph glyph-name="uni00A0" unicode="&#xa0;" horiz-adv-x="228" 
 />
    <glyph glyph-name="exclamdown" unicode="&#xa1;" horiz-adv-x="273" 
d="M177 329l36 -489h-153l35 489h82zM206 526v-137h-138v137h138z" />
    <glyph glyph-name="cent" unicode="&#xa2;" 
d="M262 723v-106c97 -10 158 -74 158 -209h-111c0 61 -16 97 -47 108v-348c35 10 51 47 51 110h107c0 -137 -61 -201 -158 -209v-118h-55v119c-114 13 -166 100 -166 273c0 174 55 261 166 273v107h55zM207 172v343c-38 -16 -53 -69 -53 -153v-38c0 -83 16 -135 53 -152z
" />
    <glyph glyph-name="sterling" unicode="&#xa3;" 
d="M252 698c110 0 181 -65 181 -194v-13h-119v26c0 53 -24 80 -62 80c-37 0 -60 -24 -60 -72v-136h120v-101h-121l-11 -180h246v-108h-406v108h51v180h-62v101h62v110c0 133 68 199 181 199z" />
    <glyph glyph-name="currency" unicode="&#xa4;" 
d="M228 577c46 0 90 -19 125 -49l42 42l60 -62l-49 -49c18 -35 28 -74 28 -117c0 -44 -11 -84 -29 -119l50 -49l-61 -61l-42 42c-35 -29 -78 -47 -124 -47c-47 0 -90 18 -125 47l-42 -42l-61 61l50 50c-18 34 -28 75 -28 118c0 42 9 81 27 116l-49 50l60 62l42 -42
c35 30 78 49 126 49zM228 487c-67 0 -122 -64 -122 -145c0 -80 55 -144 122 -144c66 0 121 64 121 144c0 81 -55 145 -121 145z" />
    <glyph glyph-name="yen" unicode="&#xa5;" 
d="M451 686l-128 -301h105v-82h-140v-69h140v-81h-140v-153h-120v153h-140v81h139v70h-139v81h105l-129 301h131l94 -263h4l93 263h125z" />
    <glyph glyph-name="brokenbar" unicode="&#xa6;" horiz-adv-x="230" 
d="M160 723v-372h-90v372h90zM160 199v-372h-90v372h90z" />
    <glyph glyph-name="section" unicode="&#xa7;" 
d="M239 698c100 0 178 -53 178 -143c0 -11 -1 -22 -1 -23h-122c0 24 -6 41 -16 52s-25 16 -43 16c-37 0 -62 -20 -62 -52c0 -134 258 -99 258 -300c0 -54 -23 -107 -65 -143c30 -30 51 -69 51 -127c0 -107 -81 -160 -188 -160c-100 0 -178 53 -178 143c0 11 1 22 1 23h122
c0 -23 6 -40 16 -52c10 -11 25 -16 43 -16c37 0 62 20 62 52c0 134 -258 99 -258 300c0 53 23 106 65 143c-30 29 -51 68 -51 127c0 107 81 160 188 160zM176 359c-12 -16 -21 -36 -21 -56c0 -80 69 -109 136 -147c13 16 22 36 22 57c0 80 -70 108 -137 146z" />
    <glyph glyph-name="dieresis" unicode="&#xa8;" horiz-adv-x="273" 
d="M274 723v-109h-100v109h100zM99 723v-109h-100v109h100z" />
    <glyph glyph-name="copyright" unicode="&#xa9;" horiz-adv-x="604" 
d="M302 698c178 0 286 -139 286 -355s-108 -355 -286 -355s-286 139 -286 355s108 355 286 355zM304 553c85 0 149 -48 149 -158h-87c0 56 -25 83 -62 83c-49 0 -73 -45 -73 -120v-29c0 -75 25 -120 76 -120c37 0 62 26 62 82h84c0 -106 -63 -157 -149 -157
c-101 0 -161 66 -161 209s60 210 161 210zM302 643c-143 0 -230 -117 -230 -300s87 -300 230 -300s230 117 230 300s-87 300 -230 300z" />
    <glyph glyph-name="ordfeminine" unicode="&#xaa;" horiz-adv-x="303" 
d="M151 734c82 0 121 -38 121 -105v-170c0 -17 9 -24 19 -24h16v-62c-9 -4 -24 -10 -48 -10c-32 0 -54 19 -62 46h-4c-20 -28 -43 -46 -90 -46c-33 0 -89 17 -89 100c0 95 71 124 172 124v37c0 22 -5 40 -33 40c-30 0 -38 -18 -38 -33v-10h-83c-1 4 -1 8 -1 14
c0 60 47 99 120 99zM186 508v20c-43 0 -85 -12 -85 -58c0 -22 11 -36 36 -36c35 0 49 34 49 74z" />
    <glyph glyph-name="guillemotleft" unicode="&#xab;" 
d="M429 526l-108 -200l108 -200h-91l-136 200l136 200h91zM246 526l-108 -200l108 -200h-91l-136 200l136 200h91z" />
    <glyph glyph-name="logicalnot" unicode="&#xac;" horiz-adv-x="479" 
d="M445 463v-276h-104v163h-312v113h416z" />
    <glyph glyph-name="uni00AD" unicode="&#xad;" horiz-adv-x="273" 
d="M257 329v-118h-241v118h241z" />
    <glyph glyph-name="registered" unicode="&#xae;" horiz-adv-x="604" 
d="M302 698c178 0 286 -139 286 -355s-108 -355 -286 -355s-286 139 -286 355s108 355 286 355zM302 643c-143 0 -230 -117 -230 -300s87 -300 230 -300s230 117 230 300s-87 300 -230 300zM174 546h158c65 0 113 -42 113 -102c0 -53 -28 -82 -63 -95v-4
c20 -7 59 -30 59 -108c0 -50 11 -66 29 -72v-20c-6 -4 -27 -8 -39 -8c-38 0 -76 15 -76 77c0 73 -30 91 -59 91h-36v-165h-86v406zM304 468h-44v-86h41c33 0 56 19 56 46c0 25 -21 40 -53 40z" />
    <glyph glyph-name="macron" unicode="&#xaf;" horiz-adv-x="273" 
d="M264 686v-87h-255v87h255z" />
    <glyph glyph-name="degree" unicode="&#xb0;" horiz-adv-x="400" 
d="M198 698c79 0 142 -63 142 -142s-63 -142 -142 -142s-142 63 -142 142s63 142 142 142zM198 629c-41 0 -74 -32 -74 -73s33 -74 74 -74s73 33 73 74s-32 73 -73 73z" />
    <glyph glyph-name="plusminus" unicode="&#xb1;" horiz-adv-x="549" 
d="M325 595v-174h155v-104h-155v-173h-103v173h-154v104h154v174h103zM480 103v-103h-412v103h412z" />
    <glyph glyph-name="twosuperior" unicode="&#xb2;" horiz-adv-x="273" 
d="M139 734c62 0 112 -31 112 -108c0 -97 -86 -156 -136 -232h138v-74h-238v18c0 64 39 108 76 151c42 47 77 87 77 138c0 17 -7 37 -32 37c-24 0 -35 -25 -35 -55v-28h-79s-3 13 -3 27c0 90 56 126 120 126z" />
    <glyph glyph-name="threesuperior" unicode="&#xb3;" horiz-adv-x="273" 
d="M135 734c68 0 115 -40 115 -114c0 -45 -21 -70 -51 -90c32 -16 57 -49 57 -99c0 -74 -49 -119 -119 -119c-79 0 -123 49 -123 125v15h82v-17c0 -35 13 -54 40 -54c22 0 38 16 38 54c0 46 -21 58 -42 58h-25v67h26c18 0 34 19 34 57c0 34 -12 48 -31 48
c-21 0 -33 -16 -33 -50v-16h-82v21c0 69 47 114 114 114z" />
    <glyph glyph-name="acute" unicode="&#xb4;" horiz-adv-x="273" 
d="M254 723l1 -3l-108 -129h-99l86 132h120z" />
    <glyph glyph-name="mu" unicode="&#xb5;" horiz-adv-x="501" 
d="M446 526v-526h-100l-12 65h-6c-23 -41 -60 -77 -113 -77c-14 0 -28 3 -40 8v-169h-120v699h120v-336c0 -68 24 -93 69 -93c47 0 82 44 82 103v326h120z" />
    <glyph glyph-name="paragraph" unicode="&#xb6;" 
d="M449 686v-76h-48v-783h-81v783h-53v-783h-80v423c-96 13 -169 104 -169 217c0 121 85 219 192 219h239z" />
    <glyph glyph-name="periodcentered" unicode="&#xb7;" horiz-adv-x="228" 
d="M174 409v-131h-121v131h121z" />
    <glyph glyph-name="cedilla" unicode="&#xb8;" horiz-adv-x="273" 
d="M155 11l-5 -44c43 -3 79 -22 79 -68c0 -67 -66 -81 -109 -81c-28 0 -60 3 -84 8v49h71c22 0 36 5 36 24c0 16 -8 24 -34 24h-33l11 88h68z" />
    <glyph glyph-name="onesuperior" unicode="&#xb9;" horiz-adv-x="273" 
d="M187 723v-334h66v-69h-220v69h74v233h-75v56c30 4 82 23 115 45h40z" />
    <glyph glyph-name="ordmasculine" unicode="&#xba;" horiz-adv-x="299" 
d="M152 734c95 0 142 -58 142 -186s-47 -186 -142 -186s-142 58 -142 186s47 186 142 186zM152 661c-39 0 -53 -35 -53 -100v-26c0 -65 14 -100 53 -100s53 35 53 100v26c0 65 -14 100 -53 100z" />
    <glyph glyph-name="guillemotright" unicode="&#xbb;" 
d="M301 526l136 -200l-136 -200h-91l108 200l-108 200h91zM118 526l136 -200l-136 -200h-91l108 200l-108 200h91z" />
    <glyph glyph-name="onequarter" unicode="&#xbc;" horiz-adv-x="684" 
d="M592 698l-395 -710h-67l396 710h66zM187 686v-334h66v-69h-220v69h74v233h-75v56c30 4 82 23 115 45h40zM499 414h79c-22 -102 -80 -217 -106 -256h68v37c16 30 43 98 52 131h27v-168h42v-69h-42v-89h-79v89h-143v61c41 73 77 173 102 264z" />
    <glyph glyph-name="onehalf" unicode="&#xbd;" horiz-adv-x="684" 
d="M587 698l-395 -710h-67l396 710h66zM187 686v-334h66v-69h-220v69h74v233h-75v56c30 4 82 23 115 45h40zM549 414c62 0 112 -31 112 -108c0 -97 -86 -156 -136 -232h138v-74h-238v18c0 64 39 108 76 151c42 47 77 87 77 138c0 17 -7 37 -32 37c-24 0 -35 -25 -35 -55v-28
h-79s-3 13 -3 27c0 90 56 126 120 126z" />
    <glyph glyph-name="threequarters" unicode="&#xbe;" horiz-adv-x="684" 
d="M588 698l-395 -710h-67l396 710h66zM150 698c68 0 115 -40 115 -114c0 -45 -21 -70 -51 -90c32 -16 57 -49 57 -99c0 -74 -49 -119 -119 -119c-79 0 -123 49 -123 125v15h82v-17c0 -35 13 -54 40 -54c22 0 38 16 38 54c0 46 -21 58 -42 58h-25v67h26c18 0 34 19 34 57
c0 34 -12 48 -31 48c-21 0 -33 -16 -33 -50v-16h-82v21c0 69 47 114 114 114zM496 414h79c-22 -102 -80 -217 -106 -256h68v37c16 30 43 98 52 131h27v-168h42v-69h-42v-89h-79v89h-143v61c41 73 77 173 102 264z" />
    <glyph glyph-name="questiondown" unicode="&#xbf;" horiz-adv-x="501" 
d="M299 329v-43c0 -60 -30 -95 -60 -131s-60 -73 -60 -138c0 -20 8 -82 70 -82c67 0 77 68 77 105c0 16 -1 27 -1 27h126s3 -23 3 -35c0 -112 -70 -204 -213 -204c-119 0 -193 73 -193 178c0 89 31 133 63 170c31 37 62 67 62 125v28h126zM304 526v-137h-138v137h138z" />
    <glyph glyph-name="Agrave" unicode="&#xc0;" horiz-adv-x="592" 
d="M370 686l221 -686h-131l-42 135h-253l-41 -135h-124l221 686h149zM294 571h-4s-10 -61 -20 -93l-70 -229h183l-69 229c-11 36 -20 93 -20 93zM279 883l86 -132h-99l-108 129l1 3h120z" />
    <glyph glyph-name="Aacute" unicode="&#xc1;" horiz-adv-x="592" 
d="M370 686l221 -686h-131l-42 135h-253l-41 -135h-124l221 686h149zM294 571h-4s-10 -61 -20 -93l-70 -229h183l-69 229c-11 36 -20 93 -20 93zM433 883l1 -3l-108 -129h-99l86 132h120z" />
    <glyph glyph-name="Acircumflex" unicode="&#xc2;" horiz-adv-x="592" 
d="M370 686l221 -686h-131l-42 135h-253l-41 -135h-124l221 686h149zM294 571h-4s-10 -61 -20 -93l-70 -229h183l-69 229c-11 36 -20 93 -20 93zM346 883l85 -135h-90l-45 69l-45 -69h-89l86 135h98z" />
    <glyph glyph-name="Atilde" unicode="&#xc3;" horiz-adv-x="592" 
d="M370 686l221 -686h-131l-42 135h-253l-41 -135h-124l221 686h149zM294 571h-4s-10 -61 -20 -93l-70 -229h183l-69 229c-11 36 -20 93 -20 93zM398 883h66c0 -55 -28 -122 -99 -122c-48 0 -87 37 -132 37c-21 0 -35 -10 -39 -37h-66c0 55 28 122 98 122
c49 0 88 -37 133 -37c21 0 35 9 39 37z" />
    <glyph glyph-name="Adieresis" unicode="&#xc4;" horiz-adv-x="592" 
d="M370 686l221 -686h-131l-42 135h-253l-41 -135h-124l221 686h149zM294 571h-4s-10 -61 -20 -93l-70 -229h183l-69 229c-11 36 -20 93 -20 93zM259 883v-109h-100v109h100zM434 883v-109h-101v109h101z" />
    <glyph glyph-name="Aring" unicode="&#xc5;" horiz-adv-x="592" 
d="M370 686l221 -686h-131l-42 135h-253l-41 -135h-124l221 686h149zM294 571h-4s-10 -61 -20 -93l-70 -229h183l-69 229c-11 36 -20 93 -20 93zM296 913c54 0 96 -44 96 -96c0 -53 -43 -96 -96 -96c-52 0 -96 42 -96 96c0 53 43 96 96 96zM296 863c-26 0 -46 -20 -46 -46
s20 -46 46 -46c25 0 46 20 46 46s-21 46 -46 46z" />
    <glyph glyph-name="AE" unicode="&#xc6;" horiz-adv-x="820" 
d="M777 0h-330l-33 135h-253l-50 -135h-119l263 686h516v-114h-333l40 -164h249v-114h-221l44 -180h227v-114zM313 546l-110 -297h184l-70 297h-4z" />
    <glyph glyph-name="Ccedilla" unicode="&#xc7;" horiz-adv-x="592" 
d="M307 698c143 0 252 -81 252 -267h-131c0 106 -49 157 -121 157c-95 0 -141 -83 -141 -220v-50c0 -137 47 -220 145 -220c74 0 123 50 123 156h125c0 -170 -96 -256 -229 -265l-2 -22c43 -3 79 -22 79 -68c0 -67 -66 -81 -109 -81c-28 0 -60 3 -84 8v49h71
c22 0 36 5 36 24c0 16 -8 24 -34 24h-33l8 68c-145 18 -228 131 -228 352c0 242 101 355 273 355z" />
    <glyph glyph-name="Egrave" unicode="&#xc8;" horiz-adv-x="547" 
d="M256 883l86 -132h-99l-108 129l1 3h120zM503 0h-443v686h437v-114h-309v-164h265v-114h-265v-180h315v-114z" />
    <glyph glyph-name="Eacute" unicode="&#xc9;" horiz-adv-x="547" 
d="M411 883l1 -3l-108 -129h-99l86 132h120zM503 0h-443v686h437v-114h-309v-164h265v-114h-265v-180h315v-114z" />
    <glyph glyph-name="Ecircumflex" unicode="&#xca;" horiz-adv-x="547" 
d="M323 883l85 -135h-90l-44 69l-45 -69h-90l86 135h98zM503 0h-443v686h437v-114h-309v-164h265v-114h-265v-180h315v-114z" />
    <glyph glyph-name="Edieresis" unicode="&#xcb;" horiz-adv-x="547" 
d="M236 883v-109h-100v109h100zM411 883v-109h-100v109h100zM503 0h-443v686h437v-114h-309v-164h265v-114h-265v-180h315v-114z" />
    <glyph glyph-name="Igrave" unicode="&#xcc;" horiz-adv-x="228" 
d="M178 686v-686h-128v686h128zM97 883l86 -132h-99l-108 129l1 3h120z" />
    <glyph glyph-name="Iacute" unicode="&#xcd;" horiz-adv-x="228" 
d="M178 686v-686h-128v686h128zM251 883l1 -3l-107 -129h-100l86 132h120z" />
    <glyph glyph-name="Icircumflex" unicode="&#xce;" horiz-adv-x="228" 
d="M178 686v-686h-128v686h128zM164 883l85 -135h-90l-44 69l-45 -69h-91l87 135h98z" />
    <glyph glyph-name="Idieresis" unicode="&#xcf;" horiz-adv-x="228" 
d="M178 686v-686h-128v686h128zM77 883v-109h-100v109h100zM252 883v-109h-100v109h100z" />
    <glyph glyph-name="Eth" unicode="&#xd0;" horiz-adv-x="592" 
d="M10 312v85h50v289h223c171 0 275 -112 275 -333c0 -235 -104 -353 -275 -353h-223v312h-50zM271 572h-83v-175h125v-85h-125v-198h83c95 0 155 71 155 214v50c0 129 -60 194 -155 194z" />
    <glyph glyph-name="Ntilde" unicode="&#xd1;" horiz-adv-x="592" 
d="M398 883h66c0 -55 -28 -122 -99 -122c-48 0 -87 37 -132 37c-21 0 -35 -10 -39 -37h-66c0 55 28 122 98 122c49 0 88 -37 133 -37c21 0 35 9 39 37zM532 0h-114l-212 378c-8 14 -31 64 -31 64l-4 -3s2 -39 2 -57v-382h-113v686h113l212 -378c11 -17 31 -64 31 -64l3 3
s-1 46 -1 57v382h114v-686z" />
    <glyph glyph-name="Ograve" unicode="&#xd2;" horiz-adv-x="638" 
d="M319 698c177 0 285 -113 285 -355s-108 -355 -285 -355s-285 113 -285 355s108 355 285 355zM319 588c-102 0 -153 -83 -153 -220v-50c0 -137 51 -220 153 -220s153 83 153 220v50c0 137 -51 220 -153 220zM302 883l86 -132h-99l-108 129l1 3h120z" />
    <glyph glyph-name="Oacute" unicode="&#xd3;" horiz-adv-x="638" 
d="M319 698c177 0 285 -113 285 -355s-108 -355 -285 -355s-285 113 -285 355s108 355 285 355zM319 588c-102 0 -153 -83 -153 -220v-50c0 -137 51 -220 153 -220s153 83 153 220v50c0 137 -51 220 -153 220zM457 883l1 -3l-108 -129h-100l86 132h121z" />
    <glyph glyph-name="Ocircumflex" unicode="&#xd4;" horiz-adv-x="638" 
d="M319 698c177 0 285 -113 285 -355s-108 -355 -285 -355s-285 113 -285 355s108 355 285 355zM319 588c-102 0 -153 -83 -153 -220v-50c0 -137 51 -220 153 -220s153 83 153 220v50c0 137 -51 220 -153 220zM369 883l85 -135h-90l-44 69l-45 -69h-90l86 135h98z" />
    <glyph glyph-name="Otilde" unicode="&#xd5;" horiz-adv-x="638" 
d="M319 698c177 0 285 -113 285 -355s-108 -355 -285 -355s-285 113 -285 355s108 355 285 355zM319 588c-102 0 -153 -83 -153 -220v-50c0 -137 51 -220 153 -220s153 83 153 220v50c0 137 -51 220 -153 220zM421 883h67c0 -55 -29 -122 -99 -122c-48 0 -87 37 -132 37
c-22 0 -35 -10 -39 -37h-67c0 55 29 122 99 122c49 0 87 -37 133 -37c21 0 34 9 38 37z" />
    <glyph glyph-name="Odieresis" unicode="&#xd6;" horiz-adv-x="638" 
d="M319 698c177 0 285 -113 285 -355s-108 -355 -285 -355s-285 113 -285 355s108 355 285 355zM319 588c-102 0 -153 -83 -153 -220v-50c0 -137 51 -220 153 -220s153 83 153 220v50c0 137 -51 220 -153 220zM282 883v-109h-100v109h100zM457 883v-109h-100v109h100z" />
    <glyph glyph-name="multiply" unicode="&#xd7;" horiz-adv-x="479" 
d="M392 474l72 -72l-146 -146l146 -145l-72 -72l-146 146l-145 -146l-72 72l146 145l-146 146l72 72l145 -146z" />
    <glyph glyph-name="Oslash" unicode="&#xd8;" horiz-adv-x="638" 
d="M599 723l-71 -113c49 -58 76 -147 76 -267c0 -242 -108 -355 -285 -355c-60 0 -112 13 -155 39l-40 -64h-84l70 112c-49 58 -76 147 -76 268c0 242 108 355 285 355c60 0 112 -13 155 -40l41 65h84zM453 490l-225 -361c23 -20 54 -31 91 -31c102 0 153 83 153 220v50
c0 47 -6 89 -19 122zM319 588c-102 0 -153 -83 -153 -220v-50c0 -48 6 -90 18 -124l226 362c-23 21 -54 32 -91 32z" />
    <glyph glyph-name="Ugrave" unicode="&#xd9;" horiz-adv-x="592" 
d="M279 883l86 -132h-99l-108 129l1 3h120zM61 215v471h128v-467c0 -79 39 -121 107 -121s108 42 108 121v467h128v-471c0 -149 -89 -227 -236 -227s-235 78 -235 227z" />
    <glyph glyph-name="Uacute" unicode="&#xda;" horiz-adv-x="592" 
d="M433 883l1 -3l-108 -129h-99l86 132h120zM61 215v471h128v-467c0 -79 39 -121 107 -121s108 42 108 121v467h128v-471c0 -149 -89 -227 -236 -227s-235 78 -235 227z" />
    <glyph glyph-name="Ucircumflex" unicode="&#xdb;" horiz-adv-x="592" 
d="M346 883l85 -135h-90l-45 69l-45 -69h-89l86 135h98zM61 215v471h128v-467c0 -79 39 -121 107 -121s108 42 108 121v467h128v-471c0 -149 -89 -227 -236 -227s-235 78 -235 227z" />
    <glyph glyph-name="Udieresis" unicode="&#xdc;" horiz-adv-x="592" 
d="M259 883v-109h-100v109h100zM434 883v-109h-101v109h101zM61 215v471h128v-467c0 -79 39 -121 107 -121s108 42 108 121v467h128v-471c0 -149 -89 -227 -236 -227s-235 78 -235 227z" />
    <glyph glyph-name="Yacute" unicode="&#xdd;" horiz-adv-x="547" 
d="M547 686l-209 -427v-259h-128v259l-210 427h135l140 -301h4l139 301h129zM411 883l1 -3l-108 -129h-99l86 132h120z" />
    <glyph glyph-name="Thorn" unicode="&#xde;" horiz-adv-x="547" 
d="M305 144h-117v-144h-128v686h128v-122h117c142 0 215 -87 215 -206c0 -129 -86 -214 -215 -214zM292 450h-104v-193h104c62 0 96 38 96 101c0 56 -35 92 -96 92z" />
    <glyph glyph-name="germandbls" unicode="&#xdf;" horiz-adv-x="501" 
d="M254 735c114 0 198 -70 198 -187c0 -66 -39 -131 -95 -153v-4c68 -25 116 -100 116 -177c0 -129 -88 -214 -200 -214h-65v102h52c51 0 92 52 92 113c0 60 -41 109 -92 109h-52v113h49c41 0 74 49 74 108c0 52 -28 89 -82 89c-53 0 -89 -38 -89 -106v-528h-120v520
c0 153 94 215 214 215z" />
    <glyph glyph-name="agrave" unicode="&#xe0;" 
d="M217 538c122 0 179 -57 179 -155v-259c0 -25 14 -35 28 -35h24v-85c-13 -7 -35 -16 -71 -16c-48 0 -81 28 -93 69h-5c-30 -42 -63 -69 -133 -69c-49 0 -132 26 -132 148c0 142 108 184 261 184v55c0 36 -9 65 -55 65c-49 0 -63 -30 -63 -55v-15h-117c-1 6 -1 13 -1 22
c0 88 70 146 178 146zM275 203v30c-70 0 -138 -18 -138 -86c0 -36 18 -59 59 -59c57 0 79 53 79 115zM200 723l86 -132h-99l-108 129l1 3h120z" />
    <glyph glyph-name="aacute" unicode="&#xe1;" 
d="M217 538c122 0 179 -57 179 -155v-259c0 -25 14 -35 28 -35h24v-85c-13 -7 -35 -16 -71 -16c-48 0 -81 28 -93 69h-5c-30 -42 -63 -69 -133 -69c-49 0 -132 26 -132 148c0 142 108 184 261 184v55c0 36 -9 65 -55 65c-49 0 -63 -30 -63 -55v-15h-117c-1 6 -1 13 -1 22
c0 88 70 146 178 146zM275 203v30c-70 0 -138 -18 -138 -86c0 -36 18 -59 59 -59c57 0 79 53 79 115zM354 723l1 -3l-108 -129h-99l86 132h120z" />
    <glyph glyph-name="acircumflex" unicode="&#xe2;" 
d="M217 538c122 0 179 -57 179 -155v-259c0 -25 14 -35 28 -35h24v-85c-13 -7 -35 -16 -71 -16c-48 0 -81 28 -93 69h-5c-30 -42 -63 -69 -133 -69c-49 0 -132 26 -132 148c0 142 108 184 261 184v55c0 36 -9 65 -55 65c-49 0 -63 -30 -63 -55v-15h-117c-1 6 -1 13 -1 22
c0 88 70 146 178 146zM275 203v30c-70 0 -138 -18 -138 -86c0 -36 18 -59 59 -59c57 0 79 53 79 115zM267 723l85 -135h-90l-45 69l-45 -69h-89l85 135h99z" />
    <glyph glyph-name="atilde" unicode="&#xe3;" 
d="M217 538c122 0 179 -57 179 -155v-259c0 -25 14 -35 28 -35h24v-85c-13 -7 -35 -16 -71 -16c-48 0 -81 28 -93 69h-5c-30 -42 -63 -69 -133 -69c-49 0 -132 26 -132 148c0 142 108 184 261 184v55c0 36 -9 65 -55 65c-49 0 -63 -30 -63 -55v-15h-117c-1 6 -1 13 -1 22
c0 88 70 146 178 146zM275 203v30c-70 0 -138 -18 -138 -86c0 -36 18 -59 59 -59c57 0 79 53 79 115zM319 723h66c0 -55 -28 -122 -99 -122c-48 0 -87 37 -132 37c-21 0 -35 -10 -39 -37h-66c0 28 7 58 23 82c16 23 40 40 75 40c25 0 47 -9 68 -18c22 -10 43 -19 65 -19
c21 0 35 9 39 37z" />
    <glyph glyph-name="adieresis" unicode="&#xe4;" 
d="M217 538c122 0 179 -57 179 -155v-259c0 -25 14 -35 28 -35h24v-85c-13 -7 -35 -16 -71 -16c-48 0 -81 28 -93 69h-5c-30 -42 -63 -69 -133 -69c-49 0 -132 26 -132 148c0 142 108 184 261 184v55c0 36 -9 65 -55 65c-49 0 -63 -30 -63 -55v-15h-117c-1 6 -1 13 -1 22
c0 88 70 146 178 146zM275 203v30c-70 0 -138 -18 -138 -86c0 -36 18 -59 59 -59c57 0 79 53 79 115zM180 723v-109h-100v109h100zM354 723v-109h-100v109h100z" />
    <glyph glyph-name="aring" unicode="&#xe5;" 
d="M217 538c122 0 179 -57 179 -155v-259c0 -25 14 -35 28 -35h24v-85c-13 -7 -35 -16 -71 -16c-48 0 -81 28 -93 69h-5c-30 -42 -63 -69 -133 -69c-49 0 -132 26 -132 148c0 142 108 184 261 184v55c0 36 -9 65 -55 65c-49 0 -63 -30 -63 -55v-15h-117c-1 6 -1 13 -1 22
c0 88 70 146 178 146zM275 203v30c-70 0 -138 -18 -138 -86c0 -36 18 -59 59 -59c57 0 79 53 79 115zM217 753c54 0 96 -44 96 -96c0 -53 -43 -96 -96 -96c-52 0 -96 42 -96 96c0 53 43 96 96 96zM217 703c-26 0 -46 -20 -46 -46s20 -46 46 -46c25 0 46 20 46 46
s-21 46 -46 46z" />
    <glyph glyph-name="ae" unicode="&#xe6;" horiz-adv-x="729" 
d="M500 538c127 0 190 -86 190 -275v-30h-267c1 -94 22 -147 81 -147c41 0 67 37 67 100h119c0 -135 -79 -198 -186 -198c-70 0 -123 23 -157 71c-38 -42 -85 -71 -158 -71c-57 0 -152 26 -152 148c0 142 108 184 261 184v55c0 36 -9 65 -55 65c-49 0 -63 -30 -63 -55v-15
h-117c-1 6 -1 13 -1 22c0 88 70 146 178 146c60 0 105 -18 135 -50c32 34 74 50 125 50zM298 203v30c-70 0 -138 -18 -138 -86c0 -36 18 -59 59 -59c57 0 79 53 79 115zM500 440c-51 0 -72 -44 -76 -120h140c0 76 -20 120 -64 120z" />
    <glyph glyph-name="ccedilla" unicode="&#xe7;" 
d="M236 538c112 0 184 -63 184 -210h-123c0 74 -20 109 -61 109c-51 0 -70 -54 -70 -155v-38c0 -101 20 -155 74 -155c43 0 61 37 61 109h119c0 -137 -61 -200 -158 -209l-2 -22c43 -3 79 -22 79 -68c0 -67 -66 -81 -109 -81c-28 0 -60 3 -84 8v49h71c22 0 36 5 36 24
c0 16 -8 24 -34 24h-32l8 69c-106 17 -154 104 -154 271c0 189 65 275 195 275z" />
    <glyph glyph-name="egrave" unicode="&#xe8;" 
d="M233 538c127 0 190 -86 190 -275v-30h-267c1 -94 22 -147 81 -147c41 0 67 37 67 100h119c0 -135 -79 -198 -186 -198c-135 0 -206 86 -206 275s72 275 202 275zM233 440c-51 0 -72 -44 -76 -120h140c0 76 -20 120 -64 120zM211 723l86 -132h-99l-108 129l1 3h120z" />
    <glyph glyph-name="eacute" unicode="&#xe9;" 
d="M233 538c127 0 190 -86 190 -275v-30h-267c1 -94 22 -147 81 -147c41 0 67 37 67 100h119c0 -135 -79 -198 -186 -198c-135 0 -206 86 -206 275s72 275 202 275zM233 440c-51 0 -72 -44 -76 -120h140c0 76 -20 120 -64 120zM365 723l1 -3l-108 -129h-99l86 132h120z" />
    <glyph glyph-name="ecircumflex" unicode="&#xea;" 
d="M233 538c127 0 190 -86 190 -275v-30h-267c1 -94 22 -147 81 -147c41 0 67 37 67 100h119c0 -135 -79 -198 -186 -198c-135 0 -206 86 -206 275s72 275 202 275zM233 440c-51 0 -72 -44 -76 -120h140c0 76 -20 120 -64 120zM278 723l85 -135h-90l-44 69l-45 -69h-90
l86 135h98z" />
    <glyph glyph-name="edieresis" unicode="&#xeb;" 
d="M233 538c127 0 190 -86 190 -275v-30h-267c1 -94 22 -147 81 -147c41 0 67 37 67 100h119c0 -135 -79 -198 -186 -198c-135 0 -206 86 -206 275s72 275 202 275zM233 440c-51 0 -72 -44 -76 -120h140c0 76 -20 120 -64 120zM191 723v-109h-100v109h100zM366 723v-109
h-100v109h100z" />
    <glyph glyph-name="igrave" unicode="&#xec;" horiz-adv-x="228" 
d="M174 526v-526h-120v526h120zM97 723l86 -132h-99l-108 129l1 3h120z" />
    <glyph glyph-name="iacute" unicode="&#xed;" horiz-adv-x="228" 
d="M174 526v-526h-120v526h120zM251 723l1 -3l-107 -129h-100l86 132h120z" />
    <glyph glyph-name="icircumflex" unicode="&#xee;" horiz-adv-x="228" 
d="M174 526v-526h-120v526h120zM164 723l85 -135h-90l-44 69l-45 -69h-91l87 135h98z" />
    <glyph glyph-name="idieresis" unicode="&#xef;" horiz-adv-x="228" 
d="M174 526v-526h-120v526h120zM77 723v-109h-100v109h100zM252 723v-109h-100v109h100z" />
    <glyph glyph-name="eth" unicode="&#xf0;" horiz-adv-x="501" 
d="M132 723h126c14 -12 31 -28 50 -48l130 12v-73l-75 -7c52 -76 98 -186 98 -344c0 -189 -70 -275 -210 -275s-210 86 -210 275c0 181 70 275 182 275c15 0 34 -3 49 -8l3 4c-10 19 -24 41 -38 61l-129 -11v73l75 7c-20 23 -40 42 -53 55zM251 437c-62 0 -85 -54 -85 -155
v-38c0 -101 23 -155 85 -155s85 54 85 155v38c0 101 -23 155 -85 155z" />
    <glyph glyph-name="ntilde" unicode="&#xf1;" horiz-adv-x="501" 
d="M306 538c81 0 140 -45 140 -169v-369h-120v336c0 68 -26 93 -69 93c-47 0 -82 -46 -82 -105v-324h-120v526h100l12 -65h6c27 41 70 77 133 77zM353 723h66c0 -55 -28 -122 -99 -122c-48 0 -87 37 -132 37c-21 0 -35 -10 -39 -37h-66c0 28 7 58 23 82c16 23 40 40 75 40
c25 0 47 -9 68 -18c22 -10 43 -19 65 -19c21 0 35 9 39 37z" />
    <glyph glyph-name="ograve" unicode="&#xf2;" horiz-adv-x="501" 
d="M251 538c140 0 210 -86 210 -275s-70 -275 -210 -275s-210 86 -210 275s70 275 210 275zM251 437c-62 0 -85 -54 -85 -155v-38c0 -101 23 -155 85 -155s85 54 85 155v38c0 101 -23 155 -85 155zM233 723l86 -132h-99l-108 129l1 3h120z" />
    <glyph glyph-name="oacute" unicode="&#xf3;" horiz-adv-x="501" 
d="M251 538c140 0 210 -86 210 -275s-70 -275 -210 -275s-210 86 -210 275s70 275 210 275zM251 437c-62 0 -85 -54 -85 -155v-38c0 -101 23 -155 85 -155s85 54 85 155v38c0 101 -23 155 -85 155zM388 723l1 -3l-108 -129h-99l86 132h120z" />
    <glyph glyph-name="ocircumflex" unicode="&#xf4;" horiz-adv-x="501" 
d="M251 538c140 0 210 -86 210 -275s-70 -275 -210 -275s-210 86 -210 275s70 275 210 275zM251 437c-62 0 -85 -54 -85 -155v-38c0 -101 23 -155 85 -155s85 54 85 155v38c0 101 -23 155 -85 155zM300 723l85 -135h-90l-44 69l-45 -69h-90l86 135h98z" />
    <glyph glyph-name="otilde" unicode="&#xf5;" horiz-adv-x="501" 
d="M251 538c140 0 210 -86 210 -275s-70 -275 -210 -275s-210 86 -210 275s70 275 210 275zM251 437c-62 0 -85 -54 -85 -155v-38c0 -101 23 -155 85 -155s85 54 85 155v38c0 101 -23 155 -85 155zM353 723h66c0 -55 -28 -122 -99 -122c-48 0 -87 37 -132 37
c-21 0 -35 -10 -39 -37h-66c0 28 7 58 23 82c16 23 40 40 75 40c25 0 47 -9 68 -18c22 -10 43 -19 65 -19c21 0 35 9 39 37z" />
    <glyph glyph-name="odieresis" unicode="&#xf6;" horiz-adv-x="501" 
d="M251 538c140 0 210 -86 210 -275s-70 -275 -210 -275s-210 86 -210 275s70 275 210 275zM251 437c-62 0 -85 -54 -85 -155v-38c0 -101 23 -155 85 -155s85 54 85 155v38c0 101 -23 155 -85 155zM213 723v-109h-100v109h100zM388 723v-109h-100v109h100z" />
    <glyph glyph-name="divide" unicode="&#xf7;" horiz-adv-x="549" 
d="M515 307v-104h-482v104h482zM326 151v-110h-104v110h104zM326 470v-111h-104v111h104z" />
    <glyph glyph-name="oslash" unicode="&#xf8;" horiz-adv-x="501" 
d="M448 558l-44 -81c38 -45 57 -116 57 -214c0 -189 -70 -275 -210 -275c-40 0 -73 7 -102 21l-22 -41h-75l45 82c-37 45 -56 115 -56 213c0 189 70 275 210 275c39 0 72 -7 100 -21l22 41h75zM332 345l-130 -239c13 -11 29 -17 49 -17c62 0 85 54 85 155v38
c0 23 -2 44 -4 63zM251 437c-62 0 -85 -54 -85 -155v-38c0 -23 1 -43 3 -61l129 238c-12 10 -28 16 -47 16z" />
    <glyph glyph-name="ugrave" unicode="&#xf9;" horiz-adv-x="501" 
d="M446 526v-526h-100l-12 65h-6c-27 -41 -70 -77 -133 -77c-81 0 -140 45 -140 169v369h120v-336c0 -68 24 -93 69 -93c47 0 82 44 82 103v326h120zM233 723l86 -132h-99l-108 129l1 3h120z" />
    <glyph glyph-name="uacute" unicode="&#xfa;" horiz-adv-x="501" 
d="M446 526v-526h-100l-12 65h-6c-27 -41 -70 -77 -133 -77c-81 0 -140 45 -140 169v369h120v-336c0 -68 24 -93 69 -93c47 0 82 44 82 103v326h120zM388 723l1 -3l-108 -129h-99l86 132h120z" />
    <glyph glyph-name="ucircumflex" unicode="&#xfb;" horiz-adv-x="501" 
d="M446 526v-526h-100l-12 65h-6c-27 -41 -70 -77 -133 -77c-81 0 -140 45 -140 169v369h120v-336c0 -68 24 -93 69 -93c47 0 82 44 82 103v326h120zM300 723l85 -135h-90l-44 69l-45 -69h-90l86 135h98z" />
    <glyph glyph-name="udieresis" unicode="&#xfc;" horiz-adv-x="501" 
d="M446 526v-526h-100l-12 65h-6c-27 -41 -70 -77 -133 -77c-81 0 -140 45 -140 169v369h120v-336c0 -68 24 -93 69 -93c47 0 82 44 82 103v326h120zM213 723v-109h-100v109h100zM388 723v-109h-100v109h100z" />
    <glyph glyph-name="yacute" unicode="&#xfd;" 
d="M452 526l-144 -499c-33 -114 -85 -209 -186 -209c-48 0 -78 8 -78 9v92h54c34 0 67 23 81 81l-175 526h127l79 -247c13 -40 28 -137 28 -137h4s13 91 25 136l65 248h120zM365 723l1 -3l-108 -129h-99l86 132h120z" />
    <glyph glyph-name="thorn" unicode="&#xfe;" horiz-adv-x="501" 
d="M55 -173v896h120v-257c26 48 68 72 116 72c104 0 169 -85 169 -276s-70 -274 -163 -274c-53 0 -98 24 -117 66h-5v-227h-120zM175 282v-36c0 -95 22 -149 80 -149s80 52 80 147v38c0 95 -22 147 -80 147s-80 -52 -80 -147z" />
    <glyph glyph-name="ydieresis" unicode="&#xff;" 
d="M452 526l-144 -499c-33 -114 -85 -209 -186 -209c-48 0 -78 8 -78 9v92h54c34 0 67 23 81 81l-175 526h127l79 -247c13 -40 28 -137 28 -137h4s13 91 25 136l65 248h120zM191 723v-109h-100v109h100zM366 723v-109h-100v109h100z" />
    <glyph glyph-name="Abreve" unicode="&#x102;" horiz-adv-x="592" 
d="M370 686l221 -686h-131l-42 135h-253l-41 -135h-124l221 686h149zM294 571h-4s-10 -61 -20 -93l-70 -229h183l-69 229c-11 36 -20 93 -20 93zM355 883h75c0 -50 -52 -107 -135 -107c-82 0 -132 57 -132 107h74c3 -14 26 -33 58 -33c35 0 59 19 60 33z" />
    <glyph glyph-name="Amacron" unicode="&#x100;" horiz-adv-x="592" 
d="M370 686l221 -686h-131l-42 135h-253l-41 -135h-124l221 686h149zM294 571h-4s-10 -61 -20 -93l-70 -229h183l-69 229c-11 36 -20 93 -20 93zM424 846v-87h-256v87h256z" />
    <glyph glyph-name="Aogonek" unicode="&#x104;" horiz-adv-x="592" 
d="M370 686l221 -686c-12 -14 -30 -42 -30 -70c0 -26 12 -51 45 -51h22v-55c-23 -9 -44 -14 -66 -14c-46 0 -99 21 -99 90c0 47 20 75 44 100h-47l-42 135h-253l-41 -135h-124l221 686h149zM294 571h-4s-10 -61 -20 -93l-70 -229h183l-69 229c-11 36 -20 93 -20 93z" />
    <glyph glyph-name="Aringacute" unicode="&#x1fa;" horiz-adv-x="611" 
d="M296 821c54 0 96 -43 96 -93c0 -20 -7 -39 -18 -55l217 -673h-131l-42 135h-253l-41 -135h-124l217 674c-11 15 -17 34 -17 54c0 51 43 93 96 93zM294 571h-4s-10 -61 -20 -93l-70 -229h183l-69 229c-11 36 -20 93 -20 93zM296 772c-26 0 -46 -19 -46 -44
c0 -26 20 -45 46 -45c25 0 46 19 46 45c0 25 -21 44 -46 44zM443 957l1 -3l-92 -106h-99l70 109h120z" />
    <glyph glyph-name="Cacute" unicode="&#x106;" horiz-adv-x="592" 
d="M307 698c143 0 252 -81 252 -267h-131c0 106 -49 157 -121 157c-95 0 -141 -83 -141 -220v-50c0 -137 47 -220 145 -220c74 0 123 50 123 156h125c0 -180 -107 -266 -252 -266c-172 0 -273 113 -273 355s101 355 273 355zM444 883l1 -3l-108 -129h-99l86 132h120z" />
    <glyph glyph-name="Ccaron" unicode="&#x10c;" horiz-adv-x="592" 
d="M307 698c143 0 252 -81 252 -267h-131c0 106 -49 157 -121 157c-95 0 -141 -83 -141 -220v-50c0 -137 47 -220 145 -220c74 0 123 50 123 156h125c0 -180 -107 -266 -252 -266c-172 0 -273 113 -273 355s101 355 273 355zM441 883l-85 -135h-98l-86 135h90l45 -69l45 69
h89z" />
    <glyph glyph-name="Ccircumflex" unicode="&#x108;" horiz-adv-x="592" 
d="M307 698c143 0 252 -81 252 -267h-131c0 106 -49 157 -121 157c-95 0 -141 -83 -141 -220v-50c0 -137 47 -220 145 -220c74 0 123 50 123 156h125c0 -180 -107 -266 -252 -266c-172 0 -273 113 -273 355s101 355 273 355zM356 883l85 -135h-89l-45 69l-45 -69h-90l86 135
h98z" />
    <glyph glyph-name="Cdotaccent" unicode="&#x10a;" horiz-adv-x="592" 
d="M307 698c143 0 252 -81 252 -267h-131c0 106 -49 157 -121 157c-95 0 -141 -83 -141 -220v-50c0 -137 47 -220 145 -220c74 0 123 50 123 156h125c0 -180 -107 -266 -252 -266c-172 0 -273 113 -273 355s101 355 273 355zM360 883v-115h-107v115h107z" />
    <glyph glyph-name="Dcaron" unicode="&#x10e;" horiz-adv-x="592" 
d="M388 883l-85 -135h-98l-86 135h90l45 -69l44 69h90zM283 0h-223v686h223c171 0 275 -112 275 -333c0 -235 -104 -353 -275 -353zM271 572h-83v-458h83c95 0 155 71 155 214v50c0 129 -60 194 -155 194z" />
    <glyph glyph-name="Dcroat" unicode="&#x110;" horiz-adv-x="592" 
d="M10 312v85h50v289h223c171 0 275 -112 275 -333c0 -235 -104 -353 -275 -353h-223v312h-50zM271 572h-83v-175h125v-85h-125v-198h83c95 0 155 71 155 214v50c0 129 -60 194 -155 194z" />
    <glyph glyph-name="Ebreve" unicode="&#x114;" horiz-adv-x="547" 
d="M333 883h74c0 -50 -51 -107 -134 -107c-82 0 -133 57 -133 107h74c3 -14 26 -33 59 -33c34 0 58 19 60 33zM503 0h-443v686h437v-114h-309v-164h265v-114h-265v-180h315v-114z" />
    <glyph glyph-name="Ecaron" unicode="&#x11a;" horiz-adv-x="547" 
d="M408 883l-85 -135h-98l-86 135h90l45 -69l44 69h90zM503 0h-443v686h437v-114h-309v-164h265v-114h-265v-180h315v-114z" />
    <glyph glyph-name="Edotaccent" unicode="&#x116;" horiz-adv-x="547" 
d="M327 883v-115h-107v115h107zM503 0h-443v686h437v-114h-309v-164h265v-114h-265v-180h315v-114z" />
    <glyph glyph-name="Emacron" unicode="&#x112;" horiz-adv-x="547" 
d="M401 846v-87h-255v87h255zM503 0h-443v686h437v-114h-309v-164h265v-114h-265v-180h315v-114z" />
    <glyph glyph-name="Eng" unicode="&#x14a;" horiz-adv-x="593" 
d="M415 0l-209 378c-8 14 -31 64 -31 64l-4 -3s2 -39 2 -57v-382h-113v686h113l212 -378c11 -17 31 -64 31 -64l3 3s-1 46 -1 57v382h114v-727c0 -70 -26 -141 -122 -141c-30 0 -66 6 -87 12v89h45c31 0 47 17 47 48v33z" />
    <glyph glyph-name="Eogonek" unicode="&#x118;" horiz-adv-x="547" 
d="M497 686v-114h-309v-164h265v-114h-265v-180h315v-114c-12 -14 -30 -42 -30 -70c0 -26 12 -51 45 -51h22v-55c-23 -9 -44 -14 -66 -14c-46 0 -99 21 -99 90c0 47 20 75 44 100h-359v686h437z" />
    <glyph glyph-name="Gbreve" unicode="&#x11e;" horiz-adv-x="638" 
d="M325 698c138 0 262 -88 262 -252h-131c0 93 -61 142 -135 142c-107 0 -155 -83 -155 -220v-50c0 -140 49 -220 156 -220c78 0 134 65 134 165h-154v110h285v-373h-83l-22 76c-44 -58 -111 -88 -183 -88c-168 0 -265 111 -265 355c0 242 106 355 291 355zM379 883h74
c0 -50 -51 -107 -134 -107c-82 0 -133 57 -133 107h74c3 -14 26 -33 59 -33c34 0 58 19 60 33z" />
    <glyph glyph-name="Gcircumflex" unicode="&#x11c;" horiz-adv-x="638" 
d="M325 698c138 0 262 -88 262 -252h-131c0 93 -61 142 -135 142c-107 0 -155 -83 -155 -220v-50c0 -140 49 -220 156 -220c78 0 134 65 134 165h-154v110h285v-373h-83l-22 76c-44 -58 -111 -88 -183 -88c-168 0 -265 111 -265 355c0 242 106 355 291 355zM369 883l85 -135
h-90l-44 69l-45 -69h-90l86 135h98z" />
    <glyph glyph-name="Gcommaaccent" unicode="&#x122;" horiz-adv-x="638" 
d="M325 698c138 0 262 -88 262 -252h-131c0 93 -61 142 -135 142c-107 0 -155 -83 -155 -220v-50c0 -140 49 -220 156 -220c78 0 134 65 134 165h-154v110h285v-373h-83l-22 76c-44 -58 -111 -88 -183 -88c-168 0 -265 111 -265 355c0 242 106 355 291 355zM365 -55v-112
l-45 -96h-65l36 85h-49v123h123z" />
    <glyph glyph-name="Gdotaccent" unicode="&#x120;" horiz-adv-x="638" 
d="M325 698c138 0 262 -88 262 -252h-131c0 93 -61 142 -135 142c-107 0 -155 -83 -155 -220v-50c0 -140 49 -220 156 -220c78 0 134 65 134 165h-154v110h285v-373h-83l-22 76c-44 -58 -111 -88 -183 -88c-168 0 -265 111 -265 355c0 242 106 355 291 355zM373 883v-115
h-107v115h107z" />
    <glyph glyph-name="Hbar" unicode="&#x126;" horiz-adv-x="592" 
d="M582 577v-87h-50v-490h-128v287h-216v-287h-128v490h-50v87h50v109h128v-109h216v109h128v-109h50zM188 401h216v89h-216v-89z" />
    <glyph glyph-name="Hcircumflex" unicode="&#x124;" horiz-adv-x="592" 
d="M346 883l85 -135h-90l-45 69l-45 -69h-89l86 135h98zM404 0v294h-216v-294h-128v686h128v-278h216v278h128v-686h-128z" />
    <glyph glyph-name="IJ" unicode="&#x132;" horiz-adv-x="684" 
d="M178 686v-686h-128v686h128zM237 216h127v-43c0 -48 23 -75 67 -75c43 0 65 27 65 75v513h128v-523c0 -114 -69 -175 -193 -175s-194 61 -194 175v53z" />
    <glyph glyph-name="Ibreve" unicode="&#x12c;" horiz-adv-x="228" 
d="M178 686v-686h-128v686h128zM174 883h74c0 -50 -51 -107 -134 -107c-82 0 -134 57 -134 107h75c3 -14 26 -33 59 -33c34 0 58 19 60 33z" />
    <glyph glyph-name="Idotaccent" unicode="&#x130;" horiz-adv-x="228" 
d="M178 686v-686h-128v686h128zM168 883v-115h-107v115h107z" />
    <glyph glyph-name="Imacron" unicode="&#x12a;" horiz-adv-x="228" 
d="M178 686v-686h-128v686h128zM242 846v-87h-256v87h256z" />
    <glyph glyph-name="Iogonek" unicode="&#x12e;" horiz-adv-x="228" 
d="M178 686v-686c-11 -14 -30 -42 -30 -70c0 -26 12 -51 45 -51h22v-55c-23 -9 -44 -14 -66 -14c-45 0 -99 21 -99 90c0 47 20 75 44 100h-44v686h128z" />
    <glyph glyph-name="Itilde" unicode="&#x128;" horiz-adv-x="228" 
d="M178 686v-686h-128v686h128zM216 883h67c0 -55 -29 -122 -99 -122c-48 0 -87 37 -132 37c-22 0 -35 -10 -39 -37h-67c0 55 28 122 98 122c50 0 88 -37 134 -37c21 0 34 9 38 37z" />
    <glyph glyph-name="Jcircumflex" unicode="&#x134;" 
d="M395 883l84 -135h-89l-45 69l-45 -69h-90l86 135h99zM9 216h127v-43c0 -48 23 -75 67 -75c43 0 65 27 65 75v513h128v-523c0 -114 -69 -175 -193 -175s-194 61 -194 175v53z" />
    <glyph glyph-name="Kcommaaccent" unicode="&#x136;" horiz-adv-x="592" 
d="M358 -55v-112l-46 -96h-64l35 85h-49v123h124zM189 686v-351l251 351h143l-203 -279l209 -407h-144l-149 306l-107 -131v-175h-129v686h129z" />
    <glyph glyph-name="Lacute" unicode="&#x139;" horiz-adv-x="501" 
d="M264 883l1 -3l-108 -129h-99l86 132h120zM60 0v686h128v-566h290v-120h-418z" />
    <glyph glyph-name="Lcaron" unicode="&#x13d;" horiz-adv-x="501" 
d="M478 686v-125l-66 -168h-72l55 156h-55v137h138zM60 0v686h128v-566h290v-120h-418z" />
    <glyph glyph-name="Lcommaaccent" unicode="&#x13b;" horiz-adv-x="501" 
d="M312 -55v-112l-45 -96h-65l36 85h-49v123h123zM60 0v686h128v-566h290v-120h-418z" />
    <glyph glyph-name="Ldot" unicode="&#x13f;" horiz-adv-x="501" 
d="M420 524v-115h-107v115h107zM60 0v686h128v-566h290v-120h-418z" />
    <glyph glyph-name="Lslash" unicode="&#x141;" horiz-adv-x="501" 
d="M304 550v-97l-116 -103v-230h290v-120h-418v237l-60 -53v95l60 53v354h128v-240z" />
    <glyph glyph-name="Nacute" unicode="&#x143;" horiz-adv-x="592" 
d="M433 883l1 -3l-108 -129h-99l86 132h120zM532 0h-114l-212 378c-8 14 -31 64 -31 64l-4 -3s2 -39 2 -57v-382h-113v686h113l212 -378c11 -17 31 -64 31 -64l3 3s-1 46 -1 57v382h114v-686z" />
    <glyph glyph-name="Ncaron" unicode="&#x147;" horiz-adv-x="592" 
d="M431 883l-85 -135h-98l-86 135h89l45 -69l45 69h90zM532 0h-114l-212 378c-8 14 -31 64 -31 64l-4 -3s2 -39 2 -57v-382h-113v686h113l212 -378c11 -17 31 -64 31 -64l3 3s-1 46 -1 57v382h114v-686z" />
    <glyph glyph-name="Ncommaaccent" unicode="&#x145;" horiz-adv-x="592" 
d="M358 -55v-112l-46 -96h-64l35 85h-49v123h124zM532 0h-114l-212 378c-8 14 -31 64 -31 64l-4 -3s2 -39 2 -57v-382h-113v686h113l212 -378c11 -17 31 -64 31 -64l3 3s-1 46 -1 57v382h114v-686z" />
    <glyph glyph-name="Obreve" unicode="&#x14e;" horiz-adv-x="638" 
d="M319 698c177 0 285 -113 285 -355s-108 -355 -285 -355s-285 113 -285 355s108 355 285 355zM319 588c-102 0 -153 -83 -153 -220v-50c0 -137 51 -220 153 -220s153 83 153 220v50c0 137 -51 220 -153 220zM379 883h74c0 -50 -51 -107 -134 -107c-82 0 -133 57 -133 107
h74c3 -14 26 -33 59 -33c34 0 58 19 60 33z" />
    <glyph glyph-name="Ohungarumlaut" unicode="&#x150;" horiz-adv-x="638" 
d="M319 698c177 0 285 -113 285 -355s-108 -355 -285 -355s-285 113 -285 355s108 355 285 355zM319 588c-102 0 -153 -83 -153 -220v-50c0 -137 51 -220 153 -220s153 83 153 220v50c0 137 -51 220 -153 220zM369 883l1 -3l-84 -129h-79l62 132h100zM509 883l1 -3l-84 -129
h-79l62 132h100z" />
    <glyph glyph-name="Omacron" unicode="&#x14c;" horiz-adv-x="638" 
d="M319 698c177 0 285 -113 285 -355s-108 -355 -285 -355s-285 113 -285 355s108 355 285 355zM319 588c-102 0 -153 -83 -153 -220v-50c0 -137 51 -220 153 -220s153 83 153 220v50c0 137 -51 220 -153 220zM447 846v-87h-255v87h255z" />
    <glyph glyph-name="Oslashacute" unicode="&#x1fe;" horiz-adv-x="638" 
d="M599 723l-71 -113c49 -58 76 -147 76 -267c0 -242 -108 -355 -285 -355c-60 0 -112 13 -155 39l-40 -64h-84l70 112c-49 58 -76 147 -76 268c0 242 108 355 285 355c60 0 112 -13 155 -40l41 65h84zM453 490l-225 -361c23 -20 54 -31 91 -31c102 0 153 83 153 220v50
c0 47 -6 89 -19 122zM319 588c-102 0 -153 -83 -153 -220v-50c0 -48 6 -90 18 -124l226 362c-23 21 -54 32 -91 32zM457 883l1 -3l-108 -129h-100l86 132h121z" />
    <glyph glyph-name="Racute" unicode="&#x154;" horiz-adv-x="592" 
d="M433 883l1 -3l-108 -129h-99l86 132h120zM321 286h-133v-286h-128v686h287c139 0 210 -83 210 -196c0 -83 -44 -147 -115 -176l132 -314h-139zM334 572h-146v-173h141c62 0 90 34 90 91c0 50 -26 82 -85 82z" />
    <glyph glyph-name="Rcaron" unicode="&#x158;" horiz-adv-x="592" 
d="M431 883l-85 -135h-98l-86 135h89l45 -69l45 69h90zM321 286h-133v-286h-128v686h287c139 0 210 -83 210 -196c0 -83 -44 -147 -115 -176l132 -314h-139zM334 572h-146v-173h141c62 0 90 34 90 91c0 50 -26 82 -85 82z" />
    <glyph glyph-name="Rcommaaccent" unicode="&#x156;" horiz-adv-x="592" 
d="M358 -55v-112l-46 -96h-64l35 85h-49v123h124zM321 286h-133v-286h-128v686h287c139 0 210 -83 210 -196c0 -83 -44 -147 -115 -176l132 -314h-139zM334 572h-146v-173h141c62 0 90 34 90 91c0 50 -26 82 -85 82z" />
    <glyph glyph-name="Sacute" unicode="&#x15a;" horiz-adv-x="547" 
d="M273 698c122 0 223 -61 223 -202v-12h-131v9c0 58 -35 95 -93 95c-62 0 -96 -31 -96 -73c0 -139 333 -57 333 -309c0 -157 -100 -218 -242 -218c-126 0 -237 72 -237 213c0 8 1 17 1 22h133c0 -2 -1 -11 -1 -16c0 -65 40 -109 110 -109c77 0 104 41 104 81
c0 163 -333 66 -333 327c0 130 108 192 229 192zM411 883l1 -3l-108 -129h-99l86 132h120z" />
    <glyph glyph-name="Scedilla" unicode="&#x15e;" horiz-adv-x="547" 
d="M273 698c122 0 223 -61 223 -202v-12h-131v9c0 58 -35 95 -93 95c-62 0 -96 -31 -96 -73c0 -139 333 -57 333 -309c0 -147 -88 -209 -216 -217l-2 -22c43 -3 79 -22 79 -68c0 -67 -66 -81 -109 -81c-28 0 -60 3 -84 8v49h71c22 0 36 5 36 24c0 16 -8 24 -34 24h-33l8 68
c-108 13 -195 84 -195 210c0 8 1 17 1 22h133c0 -2 -1 -11 -1 -16c0 -65 40 -109 110 -109c77 0 104 41 104 81c0 163 -333 66 -333 327c0 130 108 192 229 192z" />
    <glyph glyph-name="Scircumflex" unicode="&#x15c;" horiz-adv-x="547" 
d="M273 698c122 0 223 -61 223 -202v-12h-131v9c0 58 -35 95 -93 95c-62 0 -96 -31 -96 -73c0 -139 333 -57 333 -309c0 -157 -100 -218 -242 -218c-126 0 -237 72 -237 213c0 8 1 17 1 22h133c0 -2 -1 -11 -1 -16c0 -65 40 -109 110 -109c77 0 104 41 104 81
c0 163 -333 66 -333 327c0 130 108 192 229 192zM323 883l85 -135h-90l-44 69l-45 -69h-90l86 135h98z" />
    <glyph glyph-name="Tbar" unicode="&#x166;" horiz-adv-x="501" 
d="M427 393v-87h-112v-306h-128v306h-113v87h113v179h-170v114h468v-114h-170v-179h112z" />
    <glyph glyph-name="Tcaron" unicode="&#x164;" horiz-adv-x="501" 
d="M485 686v-114h-170v-572h-128v572h-170v114h468zM385 883l-85 -135h-98l-86 135h90l45 -69l44 69h90z" />
    <glyph glyph-name="Tcommaaccent" unicode="&#x162;" horiz-adv-x="501" 
d="M485 686v-114h-170v-572h-128v572h-170v114h468zM312 -55v-112l-45 -96h-65l36 85h-49v123h123z" />
    <glyph glyph-name="Ubreve" unicode="&#x16c;" horiz-adv-x="592" 
d="M355 883h75c0 -50 -52 -107 -135 -107c-82 0 -132 57 -132 107h74c3 -14 26 -33 58 -33c35 0 59 19 60 33zM61 215v471h128v-467c0 -79 39 -121 107 -121s108 42 108 121v467h128v-471c0 -149 -89 -227 -236 -227s-235 78 -235 227z" />
    <glyph glyph-name="Uhungarumlaut" unicode="&#x170;" horiz-adv-x="592" 
d="M345 883l1 -3l-84 -129h-79l62 132h100zM485 883l1 -3l-84 -129h-79l62 132h100zM61 215v471h128v-467c0 -79 39 -121 107 -121s108 42 108 121v467h128v-471c0 -149 -89 -227 -236 -227s-235 78 -235 227z" />
    <glyph glyph-name="Umacron" unicode="&#x16a;" horiz-adv-x="592" 
d="M424 846v-87h-256v87h256zM61 215v471h128v-467c0 -79 39 -121 107 -121s108 42 108 121v467h128v-471c0 -149 -89 -227 -236 -227s-235 78 -235 227z" />
    <glyph glyph-name="Uogonek" unicode="&#x172;" horiz-adv-x="592" 
d="M532 686v-463c0 -113 -46 -187 -127 -218c-12 -14 -30 -42 -30 -70c0 -26 12 -51 45 -51h22v-55c-23 -9 -44 -14 -66 -14c-46 0 -99 21 -99 90c0 36 12 62 29 83h-10c-147 0 -235 81 -235 235v463h128v-459c0 -84 39 -129 107 -129s108 45 108 129v459h128z" />
    <glyph glyph-name="Uring" unicode="&#x16e;" horiz-adv-x="592" 
d="M296 913c54 0 96 -44 96 -96c0 -53 -43 -96 -96 -96c-52 0 -96 42 -96 96c0 53 43 96 96 96zM296 863c-26 0 -46 -20 -46 -46s20 -46 46 -46c25 0 46 20 46 46s-21 46 -46 46zM61 215v471h128v-467c0 -79 39 -121 107 -121s108 42 108 121v467h128v-471
c0 -149 -89 -227 -236 -227s-235 78 -235 227z" />
    <glyph glyph-name="Utilde" unicode="&#x168;" horiz-adv-x="592" 
d="M398 883h66c0 -55 -28 -122 -99 -122c-48 0 -87 37 -132 37c-21 0 -35 -10 -39 -37h-66c0 55 28 122 98 122c49 0 88 -37 133 -37c21 0 35 9 39 37zM61 215v471h128v-467c0 -79 39 -121 107 -121s108 42 108 121v467h128v-471c0 -149 -89 -227 -236 -227
s-235 78 -235 227z" />
    <glyph glyph-name="Wacute" unicode="&#x1e82;" horiz-adv-x="774" 
d="M773 686l-149 -686h-129l-93 437c-8 35 -14 97 -14 97h-4s-8 -68 -14 -97l-92 -437h-129l-149 686h127l82 -422c6 -30 13 -96 13 -96h4s7 67 13 96l83 422h145l82 -422c5 -27 13 -96 13 -96h4s6 62 13 96l84 422h110zM524 883l1 -3l-108 -129h-99l86 132h120z" />
    <glyph glyph-name="Wcircumflex" unicode="&#x174;" horiz-adv-x="774" 
d="M773 686l-149 -686h-129l-93 437c-8 35 -14 97 -14 97h-4s-8 -68 -14 -97l-92 -437h-129l-149 686h127l82 -422c6 -30 13 -96 13 -96h4s7 67 13 96l83 422h145l82 -422c5 -27 13 -96 13 -96h4s6 62 13 96l84 422h110zM437 883l85 -135h-90l-44 69l-45 -69h-90l86 135h98z
" />
    <glyph glyph-name="Wdieresis" unicode="&#x1e84;" horiz-adv-x="774" 
d="M773 686l-149 -686h-129l-93 437c-8 35 -14 97 -14 97h-4s-8 -68 -14 -97l-92 -437h-129l-149 686h127l82 -422c6 -30 13 -96 13 -96h4s7 67 13 96l83 422h145l82 -422c5 -27 13 -96 13 -96h4s6 62 13 96l84 422h110zM350 883v-109h-100v109h100zM525 883v-109h-100v109
h100z" />
    <glyph glyph-name="Wgrave" unicode="&#x1e80;" horiz-adv-x="774" 
d="M773 686l-149 -686h-129l-93 437c-8 35 -14 97 -14 97h-4s-8 -68 -14 -97l-92 -437h-129l-149 686h127l82 -422c6 -30 13 -96 13 -96h4s7 67 13 96l83 422h145l82 -422c5 -27 13 -96 13 -96h4s6 62 13 96l84 422h110zM370 883l86 -132h-99l-108 129l1 3h120z" />
    <glyph glyph-name="Ycircumflex" unicode="&#x176;" horiz-adv-x="547" 
d="M547 686l-209 -427v-259h-128v259l-210 427h135l140 -301h4l139 301h129zM323 883l85 -135h-90l-44 69l-45 -69h-90l86 135h98z" />
    <glyph glyph-name="Ygrave" unicode="&#x1ef2;" horiz-adv-x="547" 
d="M547 686l-209 -427v-259h-128v259l-210 427h135l140 -301h4l139 301h129zM256 883l86 -132h-99l-108 129l1 3h120z" />
    <glyph glyph-name="Zacute" unicode="&#x179;" horiz-adv-x="501" 
d="M473 686v-50l-282 -522h289v-114h-464v49l282 523h-261v114h436zM388 883l1 -3l-108 -129h-99l86 132h120z" />
    <glyph glyph-name="Zdotaccent" unicode="&#x17b;" horiz-adv-x="501" 
d="M473 686v-50l-282 -522h289v-114h-464v49l282 523h-261v114h436zM304 883v-115h-107v115h107z" />
    <glyph glyph-name="abreve" unicode="&#x103;" 
d="M217 538c122 0 179 -57 179 -155v-259c0 -25 14 -35 28 -35h24v-85c-13 -7 -35 -16 -71 -16c-48 0 -81 28 -93 69h-5c-30 -42 -63 -69 -133 -69c-49 0 -132 26 -132 148c0 142 108 184 261 184v55c0 36 -9 65 -55 65c-49 0 -63 -30 -63 -55v-15h-117c-1 6 -1 13 -1 22
c0 88 70 146 178 146zM275 203v30c-70 0 -138 -18 -138 -86c0 -36 18 -59 59 -59c57 0 79 53 79 115zM276 723h75c0 -50 -52 -107 -135 -107c-82 0 -133 57 -133 107h75c2 -7 8 -15 18 -22c10 -6 24 -11 40 -11c34 0 58 19 60 33z" />
    <glyph glyph-name="aeacute" unicode="&#x1fd;" horiz-adv-x="729" 
d="M500 538c127 0 190 -86 190 -275v-30h-267c1 -94 22 -147 81 -147c41 0 67 37 67 100h119c0 -135 -79 -198 -186 -198c-70 0 -123 23 -157 71c-38 -42 -85 -71 -158 -71c-57 0 -152 26 -152 148c0 142 108 184 261 184v55c0 36 -9 65 -55 65c-49 0 -63 -30 -63 -55v-15
h-117c-1 6 -1 13 -1 22c0 88 70 146 178 146c60 0 105 -18 135 -50c32 34 74 50 125 50zM298 203v30c-70 0 -138 -18 -138 -86c0 -36 18 -59 59 -59c57 0 79 53 79 115zM500 440c-51 0 -72 -44 -76 -120h140c0 76 -20 120 -64 120zM502 723l1 -3l-108 -129h-99l86 132h120z
" />
    <glyph glyph-name="amacron" unicode="&#x101;" 
d="M217 538c122 0 179 -57 179 -155v-259c0 -25 14 -35 28 -35h24v-85c-13 -7 -35 -16 -71 -16c-48 0 -81 28 -93 69h-5c-30 -42 -63 -69 -133 -69c-49 0 -132 26 -132 148c0 142 108 184 261 184v55c0 36 -9 65 -55 65c-49 0 -63 -30 -63 -55v-15h-117c-1 6 -1 13 -1 22
c0 88 70 146 178 146zM275 203v30c-70 0 -138 -18 -138 -86c0 -36 18 -59 59 -59c57 0 79 53 79 115zM345 686v-87h-256v87h256z" />
    <glyph glyph-name="aogonek" unicode="&#x105;" 
d="M217 538c122 0 179 -57 179 -155v-259c0 -25 14 -35 28 -35h24v-85c-11 -14 -30 -42 -30 -70c0 -26 12 -51 45 -51h22v-55c-23 -9 -44 -14 -66 -14c-45 0 -99 21 -99 90c0 39 14 65 32 87c-35 8 -58 32 -68 66h-5c-30 -42 -63 -69 -133 -69c-49 0 -132 26 -132 148
c0 142 108 184 261 184v55c0 36 -9 65 -55 65c-49 0 -63 -30 -63 -55v-15h-117c-1 6 -1 13 -1 22c0 88 70 146 178 146zM275 203v30c-70 0 -138 -18 -138 -86c0 -36 18 -59 59 -59c57 0 79 53 79 115z" />
    <glyph glyph-name="aringacute" unicode="&#x1fb;" horiz-adv-x="500" 
d="M217 538c122 0 179 -57 179 -155v-259c0 -25 14 -35 28 -35h24v-85c-13 -7 -35 -16 -71 -16c-48 0 -81 28 -93 69h-5c-30 -42 -63 -69 -133 -69c-49 0 -132 26 -132 148c0 142 108 184 261 184v55c0 36 -9 65 -55 65c-49 0 -63 -30 -63 -55v-15h-117c-1 6 -1 13 -1 22
c0 88 70 146 178 146zM275 203v30c-70 0 -138 -18 -138 -86c0 -36 18 -59 59 -59c57 0 79 53 79 115zM217 747c54 0 96 -43 96 -93c0 -51 -43 -93 -96 -93c-52 0 -96 41 -96 93c0 51 43 93 96 93zM217 698c-26 0 -46 -19 -46 -44c0 -26 20 -45 46 -45c25 0 46 19 46 45
c0 25 -21 44 -46 44zM369 883l1 -3l-97 -112h-99l75 115h120z" />
    <glyph glyph-name="cacute" unicode="&#x107;" 
d="M236 538c112 0 184 -63 184 -210h-123c0 74 -20 109 -61 109c-51 0 -70 -54 -70 -155v-38c0 -101 20 -155 74 -155c43 0 61 37 61 109h119c0 -147 -70 -210 -180 -210c-137 0 -199 86 -199 275s65 275 195 275zM375 723v-3l-107 -129h-100l86 132h121z" />
    <glyph glyph-name="ccaron" unicode="&#x10d;" 
d="M236 538c112 0 184 -63 184 -210h-123c0 74 -20 109 -61 109c-51 0 -70 -54 -70 -155v-38c0 -101 20 -155 74 -155c43 0 61 37 61 109h119c0 -147 -70 -210 -180 -210c-137 0 -199 86 -199 275s65 275 195 275zM372 723l-85 -135h-98l-86 135h90l45 -69l44 69h90z" />
    <glyph glyph-name="ccircumflex" unicode="&#x109;" 
d="M236 538c112 0 184 -63 184 -210h-123c0 74 -20 109 -61 109c-51 0 -70 -54 -70 -155v-38c0 -101 20 -155 74 -155c43 0 61 37 61 109h119c0 -147 -70 -210 -180 -210c-137 0 -199 86 -199 275s65 275 195 275zM287 723l85 -135h-90l-44 69l-45 -69h-90l86 135h98z" />
    <glyph glyph-name="cdotaccent" unicode="&#x10b;" 
d="M236 538c112 0 184 -63 184 -210h-123c0 74 -20 109 -61 109c-51 0 -70 -54 -70 -155v-38c0 -101 20 -155 74 -155c43 0 61 37 61 109h119c0 -147 -70 -210 -180 -210c-137 0 -199 86 -199 275s65 275 195 275zM291 723v-115h-107v115h107z" />
    <glyph glyph-name="dcaron" unicode="&#x10f;" horiz-adv-x="589" 
d="M446 723v-723h-100l-12 65h-5c-26 -51 -69 -77 -119 -77c-104 0 -169 85 -169 276s70 274 163 274c53 0 98 -24 117 -66h5v251h120zM246 429c-58 0 -80 -52 -80 -147v-38c0 -95 22 -147 80 -147s80 52 80 147v36c0 95 -22 149 -80 149zM615 686v-125l-66 -168h-72l55 156
h-55v137h138z" />
    <glyph glyph-name="dcroat" unicode="&#x111;" horiz-adv-x="504" 
d="M500 670v-87h-54v-583h-100l-12 65h-5c-26 -51 -69 -77 -119 -77c-104 0 -169 85 -169 276s70 274 163 274c53 0 98 -24 117 -66h5v111h-132v87h132v53h120v-53h54zM246 429c-58 0 -80 -52 -80 -147v-38c0 -95 22 -147 80 -147s80 52 80 147v36c0 95 -22 149 -80 149z
" />
    <glyph glyph-name="dotlessi" unicode="&#x131;" horiz-adv-x="228" 
d="M174 526v-526h-120v526h120z" />
    <glyph glyph-name="ebreve" unicode="&#x115;" 
d="M233 538c127 0 190 -86 190 -275v-30h-267c1 -94 22 -147 81 -147c41 0 67 37 67 100h119c0 -135 -79 -198 -186 -198c-135 0 -206 86 -206 275s72 275 202 275zM233 440c-51 0 -72 -44 -76 -120h140c0 76 -20 120 -64 120zM288 723h74c0 -50 -51 -107 -134 -107
c-82 0 -133 57 -133 107h74c2 -7 8 -15 18 -22c11 -6 25 -11 41 -11c34 0 58 19 60 33z" />
    <glyph glyph-name="ecaron" unicode="&#x11b;" 
d="M233 538c127 0 190 -86 190 -275v-30h-267c1 -94 22 -147 81 -147c41 0 67 37 67 100h119c0 -135 -79 -198 -186 -198c-135 0 -206 86 -206 275s72 275 202 275zM233 440c-51 0 -72 -44 -76 -120h140c0 76 -20 120 -64 120zM363 723l-85 -135h-98l-86 135h90l45 -69
l44 69h90z" />
    <glyph glyph-name="edotaccent" unicode="&#x117;" 
d="M233 538c127 0 190 -86 190 -275v-30h-267c1 -94 22 -147 81 -147c41 0 67 37 67 100h119c0 -135 -79 -198 -186 -198c-135 0 -206 86 -206 275s72 275 202 275zM233 440c-51 0 -72 -44 -76 -120h140c0 76 -20 120 -64 120zM282 723v-115h-107v115h107z" />
    <glyph glyph-name="emacron" unicode="&#x113;" 
d="M233 538c127 0 190 -86 190 -275v-30h-267c1 -94 22 -147 81 -147c41 0 67 37 67 100h119c0 -135 -79 -198 -186 -198c-135 0 -206 86 -206 275s72 275 202 275zM233 440c-51 0 -72 -44 -76 -120h140c0 76 -20 120 -64 120zM356 686v-87h-255v87h255z" />
    <glyph glyph-name="eng" unicode="&#x14b;" horiz-adv-x="501" 
d="M306 538c81 0 140 -45 140 -169v-410c0 -70 -26 -141 -122 -141c-30 0 -68 6 -89 12v89h44c31 0 47 17 47 48v369c0 68 -26 93 -69 93c-47 0 -82 -46 -82 -105v-324h-120v526h100l12 -65h6c27 41 70 77 133 77z" />
    <glyph glyph-name="eogonek" unicode="&#x119;" 
d="M233 538c127 0 190 -86 190 -275v-30h-267c1 -94 22 -147 81 -147c41 0 67 37 67 100h119c0 -95 -39 -154 -99 -181c-12 -14 -30 -42 -30 -70c0 -26 12 -51 45 -51h22v-55c-23 -9 -44 -14 -66 -14c-45 0 -99 21 -99 90c0 37 12 62 29 83c-127 5 -194 91 -194 275
c0 189 72 275 202 275zM233 440c-51 0 -72 -44 -76 -120h140c0 76 -20 120 -64 120z" />
    <glyph glyph-name="gbreve" unicode="&#x11f;" horiz-adv-x="501" 
d="M387 614h99c0 -75 -32 -118 -85 -134c27 -30 42 -72 42 -121c0 -108 -68 -179 -195 -179h-50c-21 0 -36 -14 -36 -32s13 -31 31 -31h182c66 0 120 -53 120 -137c0 -98 -76 -162 -170 -162h-193c-64 0 -116 49 -116 121c0 52 29 86 67 107c-26 16 -42 43 -42 79
c0 46 35 77 77 92c-42 31 -64 80 -64 142c0 108 68 179 194 179c33 0 63 -5 88 -15c40 29 51 72 51 91zM325 6h-140c-27 0 -48 -22 -48 -48c0 -30 21 -49 48 -49h135c30 0 54 19 54 49s-22 48 -49 48zM248 449c-49 0 -74 -34 -74 -90s25 -90 74 -90c50 0 75 34 75 90
s-25 90 -75 90zM310 723h74c0 -50 -51 -107 -134 -107c-82 0 -133 57 -133 107h74c2 -7 8 -15 18 -22c11 -6 25 -11 41 -11c34 0 58 19 60 33z" />
    <glyph glyph-name="gcircumflex" unicode="&#x11d;" horiz-adv-x="501" 
d="M408 614h78c0 -75 -32 -118 -85 -134c27 -30 42 -72 42 -121c0 -108 -68 -179 -195 -179h-50c-21 0 -36 -14 -36 -32s13 -31 31 -31h182c66 0 120 -53 120 -137c0 -98 -76 -162 -170 -162h-193c-64 0 -116 49 -116 121c0 52 29 86 67 107c-26 16 -42 43 -42 79
c0 46 35 77 77 92c-42 31 -64 80 -64 142c0 108 68 179 194 179c33 0 63 -5 88 -15c74 3 72 72 72 91zM325 6h-140c-27 0 -48 -22 -48 -48c0 -30 21 -49 48 -49h135c30 0 54 19 54 49s-22 48 -49 48zM248 449c-49 0 -74 -34 -74 -90s25 -90 74 -90c50 0 75 34 75 90
s-25 90 -75 90zM300 723l85 -135h-90l-44 69l-45 -69h-90l86 135h98z" />
    <glyph glyph-name="gcommaaccent" unicode="&#x123;" horiz-adv-x="501" 
d="M387 614h99c0 -75 -32 -118 -85 -134c27 -30 42 -72 42 -121c0 -108 -68 -179 -195 -179h-50c-21 0 -36 -14 -36 -32s13 -31 31 -31h182c66 0 120 -53 120 -137c0 -98 -76 -162 -170 -162h-193c-64 0 -116 49 -116 121c0 52 29 86 67 107c-26 16 -42 43 -42 79
c0 46 35 77 77 92c-42 31 -64 80 -64 142c0 108 68 179 194 179c33 0 63 -5 88 -15c40 29 51 72 51 91zM325 6h-140c-27 0 -48 -22 -48 -48c0 -30 21 -49 48 -49h135c30 0 54 19 54 49s-22 48 -49 48zM248 449c-49 0 -74 -34 -74 -90s25 -90 74 -90c50 0 75 34 75 90
s-25 90 -75 90zM288 798l-36 -85h49v-123h-124v112l46 96h65z" />
    <glyph glyph-name="gdotaccent" unicode="&#x121;" horiz-adv-x="501" 
d="M387 614h99c0 -75 -32 -118 -85 -134c27 -30 42 -72 42 -121c0 -108 -68 -179 -195 -179h-50c-21 0 -36 -14 -36 -32s13 -31 31 -31h182c66 0 120 -53 120 -137c0 -98 -76 -162 -170 -162h-193c-64 0 -116 49 -116 121c0 52 29 86 67 107c-26 16 -42 43 -42 79
c0 46 35 77 77 92c-42 31 -64 80 -64 142c0 108 68 179 194 179c33 0 63 -5 88 -15c40 29 51 72 51 91zM325 6h-140c-27 0 -48 -22 -48 -48c0 -30 21 -49 48 -49h135c30 0 54 19 54 49s-22 48 -49 48zM248 449c-49 0 -74 -34 -74 -90s25 -90 74 -90c50 0 75 34 75 90
s-25 90 -75 90zM304 723v-115h-107v115h107z" />
    <glyph glyph-name="hbar" unicode="&#x127;" horiz-adv-x="501" 
d="M306 670v-87h-131v-113h4c23 33 65 68 127 68c81 0 140 -45 140 -169v-369h-120v336c0 68 -26 93 -69 93c-47 0 -82 -46 -82 -105v-324h-120v583h-55v87h55v53h120v-53h131z" />
    <glyph glyph-name="hcircumflex" unicode="&#x125;" horiz-adv-x="501" 
d="M175 723v-253h4c23 33 65 68 127 68c81 0 140 -45 140 -169v-369h-120v336c0 68 -26 93 -69 93c-47 0 -82 -46 -82 -105v-324h-120v723h120zM162 883l85 -135h-90l-44 69l-45 -69h-90l86 135h98z" />
    <glyph glyph-name="ibreve" unicode="&#x12d;" horiz-adv-x="228" 
d="M174 526v-526h-120v526h120zM174 723h74c0 -50 -51 -107 -134 -107c-82 0 -134 57 -134 107h75c2 -7 8 -15 18 -22c11 -6 25 -11 41 -11c34 0 58 19 60 33z" />
    <glyph glyph-name="ij" unicode="&#x133;" 
d="M402 526v-567c0 -70 -26 -141 -122 -141c-30 0 -68 6 -89 12v89h44c31 0 47 17 47 48v559h120zM174 526v-526h-120v526h120zM174 723v-109h-120v109h120zM402 723v-109h-120v109h120z" />
    <glyph glyph-name="imacron" unicode="&#x12b;" horiz-adv-x="228" 
d="M174 526v-526h-120v526h120zM242 686v-87h-256v87h256z" />
    <glyph glyph-name="iogonek" unicode="&#x12f;" horiz-adv-x="228" 
d="M174 526v-526c-12 -14 -30 -42 -30 -70c0 -26 12 -51 45 -51h22v-55c-23 -9 -44 -14 -66 -14c-46 0 -99 21 -99 90c0 47 20 75 44 100h-36v526h120zM168 723v-115h-107v115h107z" />
    <glyph glyph-name="itilde" unicode="&#x129;" horiz-adv-x="228" 
d="M174 526v-526h-120v526h120zM216 723h67c0 -55 -29 -122 -99 -122c-48 0 -87 37 -132 37c-22 0 -35 -10 -39 -37h-67c0 28 7 58 23 82c16 23 40 40 75 40c25 0 47 -9 69 -18c21 -10 42 -19 65 -19c21 0 34 9 38 37z" />
    <glyph glyph-name="jcircumflex" unicode="&#x135;" horiz-adv-x="228" 
d="M174 526v-567c0 -70 -26 -141 -122 -141c-30 0 -68 6 -89 12v89h44c31 0 47 17 47 48v559h120zM166 723l84 -135h-89l-45 69l-45 -69h-90l86 135h99z" />
    <glyph glyph-name="kcommaaccent" unicode="&#x137;" 
d="M174 723v-406l147 209h128l-156 -214l164 -312h-133l-106 218l-44 -54v-164h-120v723h120zM290 -55v-112l-45 -96h-65l35 85h-48v123h123z" />
    <glyph glyph-name="kgreenlandic" unicode="&#x138;" horiz-adv-x="457" 
d="M449 526l-156 -214l164 -312h-133l-106 218l-44 -54v-164h-120v526h120v-209l147 209h128z" />
    <glyph glyph-name="lacute" unicode="&#x13a;" horiz-adv-x="228" 
d="M174 723v-723h-120v723h120zM251 883l1 -3l-107 -129h-100l86 132h120z" />
    <glyph glyph-name="lcaron" unicode="&#x13e;" horiz-adv-x="316" 
d="M174 723v-723h-120v723h120zM364 686v-125l-66 -168h-72l55 156h-55v137h138z" />
    <glyph glyph-name="lcommaaccent" unicode="&#x13c;" horiz-adv-x="228" 
d="M174 723v-723h-120v723h120zM176 -55v-112l-45 -96h-65l36 85h-49v123h123z" />
    <glyph glyph-name="ldot" unicode="&#x140;" horiz-adv-x="334" 
d="M174 723v-723h-120v723h120zM334 409v-131h-121v131h121z" />
    <glyph glyph-name="longs" unicode="&#x17f;" horiz-adv-x="228" 
d="M186 731c28 0 67 -6 87 -12v-89h-49c-27 0 -42 -15 -42 -43v-587h-120v425h-53v101h53v64c0 70 28 141 124 141z" />
    <glyph glyph-name="lslash" unicode="&#x142;" horiz-adv-x="228" 
d="M174 723v-289l79 71v-97l-79 -70v-338h-120v231l-68 -60v96l68 60v396h120z" />
    <glyph glyph-name="nacute" unicode="&#x144;" horiz-adv-x="501" 
d="M306 538c81 0 140 -45 140 -169v-369h-120v336c0 68 -26 93 -69 93c-47 0 -82 -46 -82 -105v-324h-120v526h100l12 -65h6c27 41 70 77 133 77zM388 723l1 -3l-108 -129h-99l86 132h120z" />
    <glyph glyph-name="napostrophe" unicode="&#x149;" horiz-adv-x="676" 
d="M481 538c81 0 140 -45 140 -169v-369h-120v336c0 68 -26 93 -69 93c-47 0 -82 -46 -82 -105v-324h-120v526h100l12 -65h6c27 41 70 77 133 77zM191 686v-112l-45 -95h-65l35 84h-49v123h124z" />
    <glyph glyph-name="ncaron" unicode="&#x148;" horiz-adv-x="501" 
d="M306 538c81 0 140 -45 140 -169v-369h-120v336c0 68 -26 93 -69 93c-47 0 -82 -46 -82 -105v-324h-120v526h100l12 -65h6c27 41 70 77 133 77zM385 723l-85 -135h-98l-86 135h90l45 -69l44 69h90z" />
    <glyph glyph-name="ncommaaccent" unicode="&#x146;" horiz-adv-x="501" 
d="M306 538c81 0 140 -45 140 -169v-369h-120v336c0 68 -26 93 -69 93c-47 0 -82 -46 -82 -105v-324h-120v526h100l12 -65h6c27 41 70 77 133 77zM312 -55v-112l-45 -96h-65l36 85h-49v123h123z" />
    <glyph glyph-name="obreve" unicode="&#x14f;" horiz-adv-x="501" 
d="M251 538c140 0 210 -86 210 -275s-70 -275 -210 -275s-210 86 -210 275s70 275 210 275zM251 437c-62 0 -85 -54 -85 -155v-38c0 -101 23 -155 85 -155s85 54 85 155v38c0 101 -23 155 -85 155zM310 723h74c0 -50 -51 -107 -134 -107c-82 0 -133 57 -133 107h74
c2 -7 8 -15 18 -22c11 -6 25 -11 41 -11c34 0 58 19 60 33z" />
    <glyph glyph-name="ohungarumlaut" unicode="&#x151;" horiz-adv-x="501" 
d="M251 538c140 0 210 -86 210 -275s-70 -275 -210 -275s-210 86 -210 275s70 275 210 275zM251 437c-62 0 -85 -54 -85 -155v-38c0 -101 23 -155 85 -155s85 54 85 155v38c0 101 -23 155 -85 155zM300 723l1 -3l-84 -129h-79l62 132h100zM440 723l1 -3l-84 -129h-79l62 132
h100z" />
    <glyph glyph-name="omacron" unicode="&#x14d;" horiz-adv-x="501" 
d="M251 538c140 0 210 -86 210 -275s-70 -275 -210 -275s-210 86 -210 275s70 275 210 275zM251 437c-62 0 -85 -54 -85 -155v-38c0 -101 23 -155 85 -155s85 54 85 155v38c0 101 -23 155 -85 155zM378 686v-87h-255v87h255z" />
    <glyph glyph-name="oslashacute" unicode="&#x1ff;" horiz-adv-x="501" 
d="M448 558l-44 -81c38 -45 57 -116 57 -214c0 -189 -70 -275 -210 -275c-40 0 -73 7 -102 21l-22 -41h-75l45 82c-37 45 -56 115 -56 213c0 189 70 275 210 275c39 0 72 -7 100 -21l22 41h75zM332 345l-130 -239c13 -11 29 -17 49 -17c62 0 85 54 85 155v38
c0 23 -2 44 -4 63zM251 437c-62 0 -85 -54 -85 -155v-38c0 -23 1 -43 3 -61l129 238c-12 10 -28 16 -47 16zM388 723l1 -3l-108 -129h-99l86 132h120z" />
    <glyph glyph-name="racute" unicode="&#x155;" horiz-adv-x="319" 
d="M266 538c31 0 50 -8 50 -8v-116h-43c-52 0 -98 -28 -98 -121v-293h-120v526h100l14 -77h6c14 44 38 89 91 89zM249 723l1 -3l-108 -129h-100l86 132h121z" />
    <glyph glyph-name="rcaron" unicode="&#x159;" horiz-adv-x="319" 
d="M266 538c31 0 50 -8 50 -8v-116h-43c-52 0 -98 -28 -98 -121v-293h-120v526h100l14 -77h6c14 44 38 89 91 89zM246 723l-85 -135h-98l-86 135h90l45 -69l44 69h90z" />
    <glyph glyph-name="rcommaaccent" unicode="&#x157;" horiz-adv-x="319" 
d="M266 538c31 0 50 -8 50 -8v-116h-43c-52 0 -98 -28 -98 -121v-293h-120v526h100l14 -77h6c14 44 38 89 91 89zM183 -55v-112l-46 -96h-65l36 85h-49v123h124z" />
    <glyph glyph-name="sacute" unicode="&#x15b;" 
d="M229 538c100 0 178 -53 178 -143c0 -11 -1 -22 -1 -23h-122c0 24 -6 41 -16 52s-25 16 -43 16c-37 0 -62 -20 -62 -52c0 -102 257 -22 257 -230c0 -128 -84 -170 -196 -170c-121 0 -191 67 -191 167c0 5 1 12 1 12h122v-7c1 -56 38 -74 72 -74c32 0 70 14 70 57
c0 111 -257 32 -257 235c0 107 83 160 188 160zM365 723l1 -3l-108 -129h-99l86 132h120z" />
    <glyph glyph-name="scedilla" unicode="&#x15f;" 
d="M229 538c100 0 178 -53 178 -143c0 -11 -1 -22 -1 -23h-122c0 24 -6 41 -16 52s-25 16 -43 16c-37 0 -62 -20 -62 -52c0 -102 257 -22 257 -230c0 -119 -73 -163 -172 -169l-2 -22c43 -3 79 -22 79 -68c0 -67 -66 -81 -109 -81c-29 0 -60 3 -84 8v49h71c22 0 36 5 36 24
c0 16 -9 24 -34 24h-33l8 68c-94 14 -147 76 -147 164c0 5 1 12 1 12h122v-7c1 -56 38 -74 72 -74c32 0 70 14 70 57c0 111 -257 32 -257 235c0 107 83 160 188 160z" />
    <glyph glyph-name="scircumflex" unicode="&#x15d;" 
d="M229 538c100 0 178 -53 178 -143c0 -11 -1 -22 -1 -23h-122c0 24 -6 41 -16 52s-25 16 -43 16c-37 0 -62 -20 -62 -52c0 -102 257 -22 257 -230c0 -128 -84 -170 -196 -170c-121 0 -191 67 -191 167c0 5 1 12 1 12h122v-7c1 -56 38 -74 72 -74c32 0 70 14 70 57
c0 111 -257 32 -257 235c0 107 83 160 188 160zM278 723l85 -135h-90l-44 69l-45 -69h-90l86 135h98z" />
    <glyph glyph-name="tbar" unicode="&#x167;" horiz-adv-x="273" 
d="M254 349v-87h-72v-130c0 -28 15 -43 42 -43h34v-89c-17 -6 -49 -12 -72 -12c-96 0 -124 71 -124 141v133h-51v87h51v76h-53v101h53l18 148h102v-148h76v-101h-76v-76h72z" />
    <glyph glyph-name="tcaron" unicode="&#x165;" horiz-adv-x="393" 
d="M182 674v-148h76v-101h-76v-293c0 -28 15 -43 42 -43h34v-89c-17 -6 -49 -12 -72 -12c-96 0 -124 71 -124 141v296h-53v101h53l18 148h102zM438 686v-125l-54 -136h-72l43 124h-55v137h138z" />
    <glyph glyph-name="tcommaaccent" unicode="&#x163;" horiz-adv-x="273" 
d="M182 674v-148h76v-101h-76v-293c0 -28 15 -43 42 -43h34v-89c-17 -6 -49 -12 -72 -12c-96 0 -124 71 -124 141v296h-53v101h53l18 148h102zM199 -55v-112l-46 -96h-65l36 85h-49v123h124z" />
    <glyph glyph-name="ubreve" unicode="&#x16d;" horiz-adv-x="501" 
d="M446 526v-526h-100l-12 65h-6c-27 -41 -70 -77 -133 -77c-81 0 -140 45 -140 169v369h120v-336c0 -68 24 -93 69 -93c47 0 82 44 82 103v326h120zM310 723h74c0 -50 -51 -107 -134 -107c-82 0 -133 57 -133 107h74c2 -7 8 -15 18 -22c11 -6 25 -11 41 -11
c34 0 58 19 60 33z" />
    <glyph glyph-name="uhungarumlaut" unicode="&#x171;" horiz-adv-x="501" 
d="M446 526v-526h-100l-12 65h-6c-27 -41 -70 -77 -133 -77c-81 0 -140 45 -140 169v369h120v-336c0 -68 24 -93 69 -93c47 0 82 44 82 103v326h120zM300 723l1 -3l-84 -129h-79l62 132h100zM440 723l1 -3l-84 -129h-79l62 132h100z" />
    <glyph glyph-name="umacron" unicode="&#x16b;" horiz-adv-x="501" 
d="M446 526v-526h-100l-12 65h-6c-27 -41 -70 -77 -133 -77c-81 0 -140 45 -140 169v369h120v-336c0 -68 24 -93 69 -93c47 0 82 44 82 103v326h120zM378 686v-87h-255v87h255z" />
    <glyph glyph-name="uni207F" unicode="&#x207f;" horiz-adv-x="325" 
d="M200 734c55 0 94 -30 94 -114v-248h-86v226c0 43 -15 59 -41 59c-29 0 -50 -29 -50 -67v-218h-86v354h72l8 -43h4c17 27 44 51 85 51z" />
    <glyph glyph-name="uogonek" unicode="&#x173;" horiz-adv-x="501" 
d="M446 526v-526c-12 -14 -30 -42 -30 -70c0 -26 12 -51 45 -51h22v-55c-23 -9 -44 -14 -66 -14c-46 0 -99 21 -99 90c0 47 20 75 44 100h-16l-12 65h-6c-27 -41 -70 -77 -133 -77c-81 0 -140 45 -140 169v369h120v-336c0 -68 24 -93 69 -93c47 0 82 44 82 103v326h120z" />
    <glyph glyph-name="uring" unicode="&#x16f;" horiz-adv-x="501" 
d="M446 526v-526h-100l-12 65h-6c-27 -41 -70 -77 -133 -77c-81 0 -140 45 -140 169v369h120v-336c0 -68 24 -93 69 -93c47 0 82 44 82 103v326h120zM251 753c54 0 96 -44 96 -96c0 -53 -43 -96 -96 -96c-52 0 -96 42 -96 96c0 53 43 96 96 96zM251 703
c-26 0 -46 -20 -46 -46s20 -46 46 -46c25 0 46 20 46 46s-21 46 -46 46z" />
    <glyph glyph-name="utilde" unicode="&#x169;" horiz-adv-x="501" 
d="M446 526v-526h-100l-12 65h-6c-27 -41 -70 -77 -133 -77c-81 0 -140 45 -140 169v369h120v-336c0 -68 24 -93 69 -93c47 0 82 44 82 103v326h120zM353 723h66c0 -55 -28 -122 -99 -122c-48 0 -87 37 -132 37c-21 0 -35 -10 -39 -37h-66c0 28 7 58 23 82
c16 23 40 40 75 40c25 0 47 -9 68 -18c22 -10 43 -19 65 -19c21 0 35 9 39 37z" />
    <glyph glyph-name="wacute" unicode="&#x1e83;" horiz-adv-x="638" 
d="M637 526l-127 -526h-121l-52 251c-11 53 -15 130 -15 130h-6s-4 -75 -15 -129l-51 -252h-121l-128 526h120l50 -216c16 -71 21 -165 21 -165h4s7 89 22 164l45 217h120l45 -218c11 -51 22 -163 22 -163h4s14 104 26 163l46 218h111zM457 723l1 -3l-108 -129h-100l86 132
h121z" />
    <glyph glyph-name="wcircumflex" unicode="&#x175;" horiz-adv-x="638" 
d="M637 526l-127 -526h-121l-52 251c-11 53 -15 130 -15 130h-6s-4 -75 -15 -129l-51 -252h-121l-128 526h120l50 -216c16 -71 21 -165 21 -165h4s7 89 22 164l45 217h120l45 -218c11 -51 22 -163 22 -163h4s14 104 26 163l46 218h111zM369 723l85 -135h-90l-44 69l-45 -69
h-90l86 135h98z" />
    <glyph glyph-name="wdieresis" unicode="&#x1e85;" horiz-adv-x="638" 
d="M637 526l-127 -526h-121l-52 251c-11 53 -15 130 -15 130h-6s-4 -75 -15 -129l-51 -252h-121l-128 526h120l50 -216c16 -71 21 -165 21 -165h4s7 89 22 164l45 217h120l45 -218c11 -51 22 -163 22 -163h4s14 104 26 163l46 218h111zM282 723v-109h-100v109h100zM457 723
v-109h-100v109h100z" />
    <glyph glyph-name="wgrave" unicode="&#x1e81;" horiz-adv-x="638" 
d="M637 526l-127 -526h-121l-52 251c-11 53 -15 130 -15 130h-6s-4 -75 -15 -129l-51 -252h-121l-128 526h120l50 -216c16 -71 21 -165 21 -165h4s7 89 22 164l45 217h120l45 -218c11 -51 22 -163 22 -163h4s14 104 26 163l46 218h111zM302 723l86 -132h-99l-108 129l1 3
h120z" />
    <glyph glyph-name="ycircumflex" unicode="&#x177;" 
d="M452 526l-144 -499c-33 -114 -85 -209 -186 -209c-48 0 -78 8 -78 9v92h54c34 0 67 23 81 81l-175 526h127l79 -247c13 -40 28 -137 28 -137h4s13 91 25 136l65 248h120zM278 723l85 -135h-90l-44 69l-45 -69h-90l86 135h98z" />
    <glyph glyph-name="ygrave" unicode="&#x1ef3;" 
d="M452 526l-144 -499c-33 -114 -85 -209 -186 -209c-48 0 -78 8 -78 9v92h54c34 0 67 23 81 81l-175 526h127l79 -247c13 -40 28 -137 28 -137h4s13 91 25 136l65 248h120zM211 723l86 -132h-99l-108 129l1 3h120z" />
    <glyph glyph-name="zacute" unicode="&#x17a;" horiz-adv-x="410" 
d="M385 526v-50l-205 -375h212v-101h-374v51l204 374h-192v101h355zM342 723l1 -3l-108 -129h-99l86 132h120z" />
    <glyph glyph-name="zdotaccent" unicode="&#x17c;" horiz-adv-x="410" 
d="M385 526v-50l-205 -375h212v-101h-374v51l204 374h-192v101h355zM259 723v-115h-107v115h107z" />
    <glyph glyph-name="uniFB01" unicode="&#xfb01;" horiz-adv-x="501" 
d="M186 731c28 0 67 -6 87 -12v-89h-49c-27 0 -42 -15 -42 -43v-61h91v-101h-91v-425h-120v425h-53v101h53v64c0 70 28 141 124 141zM447 526v-526h-120v526h120zM447 723v-109h-120v109h120z" />
    <glyph glyph-name="uniFB02" unicode="&#xfb02;" horiz-adv-x="501" 
d="M186 731c28 0 67 -6 87 -12v-89h-49c-27 0 -42 -15 -42 -43v-61h91v-101h-91v-425h-120v425h-53v101h53v64c0 70 28 141 124 141zM447 723v-723h-120v723h120z" />
    <glyph glyph-name="Delta" unicode="&#x2206;" horiz-adv-x="589" 
d="M365 686l203 -631v-55h-555v55l203 631h149zM289 541h-4l-131 -427h266z" />
    <glyph glyph-name="Omega" unicode="&#x2126;" horiz-adv-x="768" 
d="M383 698c177 0 284 -113 284 -355c0 -112 -39 -192 -99 -243c29 4 59 14 75 14h24v-114h-246v81c77 20 115 98 115 215v72c0 137 -51 220 -153 220s-154 -83 -154 -220v-72c0 -116 40 -193 116 -214v-82h-247v114h25c15 0 44 -10 74 -14c-60 51 -99 131 -99 243
c0 242 108 355 285 355z" />
    <glyph glyph-name="pi" unicode="&#x3c0;" horiz-adv-x="628" 
d="M581 526l-8 -101h-83v-269c0 -82 5 -126 13 -156h-118c-9 16 -15 67 -15 147v278h-110c-7 -120 -33 -342 -65 -425h-119c33 100 61 305 64 425c-62 0 -85 -4 -108 -13l-12 84c26 19 74 30 160 30h401z" />
    <glyph glyph-name="fraction" unicode="&#x2044;" horiz-adv-x="137" 
d="M296 698l-395 -710h-67l396 710h66z" />
    <glyph glyph-name="oneeighth" unicode="&#x215b;" horiz-adv-x="684" 
d="M537 169c-24 0 -38 -20 -38 -57c0 -38 14 -57 38 -57c25 0 38 19 38 57c0 37 -13 57 -38 57zM537 409c74 0 112 -52 112 -116c0 -36 -14 -69 -39 -89c32 -20 47 -55 47 -96c0 -67 -35 -121 -120 -121s-120 54 -120 121c0 41 15 75 47 95c-24 21 -39 56 -39 90
c0 64 38 116 112 116zM537 341c-21 0 -31 -17 -31 -53c0 -34 10 -52 31 -52s31 18 31 52c0 36 -10 53 -31 53zM584 698l-395 -710h-67l396 710h66zM187 686v-334h66v-69h-220v69h74v233h-75v56c30 4 82 23 115 45h40z" />
    <glyph glyph-name="threeeighths" unicode="&#x215c;" horiz-adv-x="684" 
d="M537 170c-24 0 -38 -20 -38 -57c0 -38 14 -57 38 -57c25 0 38 19 38 57c0 37 -13 57 -38 57zM537 410c74 0 112 -52 112 -116c0 -36 -14 -69 -39 -89c32 -20 47 -55 47 -96c0 -67 -35 -121 -120 -121s-120 54 -120 121c0 41 15 75 47 95c-24 21 -39 56 -39 90
c0 64 38 116 112 116zM537 342c-21 0 -31 -17 -31 -53c0 -34 10 -52 31 -52s31 18 31 52c0 36 -10 53 -31 53zM580 698l-395 -710h-67l396 710h66zM144 686c68 0 115 -40 115 -114c0 -45 -21 -70 -51 -90c32 -16 57 -49 57 -99c0 -74 -49 -119 -119 -119
c-79 0 -123 49 -123 125v15h82v-17c0 -35 13 -54 40 -54c22 0 38 16 38 54c0 46 -21 58 -42 58h-25v67h26c18 0 34 19 34 57c0 34 -12 48 -31 48c-21 0 -33 -16 -33 -50v-16h-82v21c0 69 47 114 114 114z" />
    <glyph glyph-name="fiveeighths" unicode="&#x215d;" horiz-adv-x="684" 
d="M537 169c-24 0 -38 -20 -38 -57c0 -38 14 -57 38 -57c25 0 38 19 38 57c0 37 -13 57 -38 57zM537 409c74 0 112 -52 112 -116c0 -36 -14 -69 -39 -89c32 -20 47 -55 47 -96c0 -67 -35 -121 -120 -121s-120 54 -120 121c0 41 15 75 47 95c-24 21 -39 56 -39 90
c0 64 38 116 112 116zM537 341c-21 0 -31 -17 -31 -53c0 -34 10 -52 31 -52s31 18 31 52c0 36 -10 53 -31 53zM578 698l-395 -710h-67l396 710h66zM252 686v-75h-132l-4 -82c10 7 30 17 51 17c57 0 103 -43 103 -133s-48 -141 -122 -141s-123 49 -123 130h83
c0 -38 14 -63 40 -63c23 0 39 25 39 74c0 43 -15 68 -35 68s-32 -15 -40 -36l-75 12l13 229h202z" />
    <glyph glyph-name="seveneighths" unicode="&#x215e;" horiz-adv-x="684" 
d="M537 169c-24 0 -38 -20 -38 -57c0 -38 14 -57 38 -57c25 0 38 19 38 57c0 37 -13 57 -38 57zM537 409c74 0 112 -52 112 -116c0 -36 -14 -69 -39 -89c32 -20 47 -55 47 -96c0 -67 -35 -121 -120 -121s-120 54 -120 121c0 41 15 75 47 95c-24 21 -39 56 -39 90
c0 64 38 116 112 116zM537 341c-21 0 -31 -17 -31 -53c0 -34 10 -52 31 -52s31 18 31 52c0 36 -10 53 -31 53zM553 698l-395 -710h-67l396 710h66zM290 686v-53c-52 -80 -117 -194 -117 -316v-34h-86v5c0 123 54 241 113 323h-157v75h247z" />
    <glyph glyph-name="exclamdbl" unicode="&#x203c;" horiz-adv-x="546" 
d="M486 686l-36 -489h-82l-35 489h153zM206 137v-137h-138v137h138zM479 137v-137h-138v137h138zM213 686l-36 -489h-82l-35 489h153z" />
    <glyph glyph-name="minute" unicode="&#x2032;" horiz-adv-x="195" 
d="M158 686l1 -3l-47 -177h-89l25 180h110z" />
    <glyph glyph-name="second" unicode="&#x2033;" horiz-adv-x="389" 
d="M309 686l1 -3l-47 -177h-89l25 180h110zM158 686l1 -3l-47 -177h-89l25 180h110z" />
    <glyph glyph-name="underscoredbl" unicode="&#x2017;" horiz-adv-x="500" 
d="M500 -88v-51h-500v51h500zM500 -175v-51h-500v51h500z" />
    <glyph glyph-name="uni203E" unicode="&#x203e;" horiz-adv-x="500" 
d="M500 860v-69h-500v69h500z" />
    <glyph glyph-name="quotereversed" unicode="&#x201b;" horiz-adv-x="228" 
d="M183 686v-137h-55l55 -156h-72l-66 168v125h138z" />
    <glyph glyph-name="franc" unicode="&#x20a3;" horiz-adv-x="504" 
d="M499 481v-116h-13c-52 0 -98 -28 -98 -121v-244h-120v285h-100v-285h-128v686h353v-114h-225v-173h100v78h100l14 -77h6c12 44 34 89 81 89c19 0 30 -8 30 -8z" />
    <glyph glyph-name="lira" unicode="&#x20a4;" 
d="M252 698c110 0 181 -65 181 -194v-5h-119v18c0 53 -24 80 -62 80c-37 0 -60 -24 -60 -72v-91h114v-85h-114v-41h114v-85h-115l-11 -115h246v-108h-406v108h51v115h-62v85h62v41h-62v85h62v65c0 133 68 199 181 199z" />
    <glyph glyph-name="peseta" unicode="&#x20a7;" horiz-adv-x="960" 
d="M50 686h156c123 0 194 -66 211 -160h19l29 148h87v-148h144c10 4 21 7 33 9s25 3 38 3c105 0 155 -75 155 -137c0 -9 -1 -29 -1 -29h-116v13c-1 33 -15 55 -42 55c-33 0 -45 -24 -45 -44c0 -103 215 -63 215 -240c0 -111 -60 -168 -164 -168c-63 0 -111 19 -141 55v-43
c-16 -6 -46 -12 -68 -12c-96 0 -124 71 -124 141v296h-21c-21 -98 -100 -159 -209 -159h-28v-266h-128v686zM193 572h-15v-193h15c62 0 96 38 96 101c0 56 -35 92 -96 92zM606 425h-54v-293c0 -28 15 -43 42 -43h8c-5 17 -8 36 -8 57c0 12 2 20 2 20h116v-16
c0 -37 19 -64 53 -64c30 0 50 19 50 49c0 111 -214 59 -214 250c0 13 2 27 5 40z" />
    <glyph glyph-name="approxequal" unicode="&#x2248;" horiz-adv-x="549" 
d="M520 430v-120s-48 -73 -143 -73c-37 0 -70 15 -103 31c-33 15 -66 30 -104 30c-84 0 -143 -73 -143 -73v120s48 73 143 73c37 0 70 -15 103 -30c33 -16 66 -31 104 -31c84 0 143 73 143 73zM520 219v-120s-48 -73 -143 -73c-37 0 -70 15 -103 31c-33 15 -66 30 -104 30
c-84 0 -143 -73 -143 -73v120s48 73 143 73c37 0 70 -15 103 -30c33 -16 66 -31 104 -31c84 0 143 73 143 73z" />
    <glyph glyph-name="equivalence" unicode="&#x2261;" horiz-adv-x="478" 
d="M445 546v-104h-412v104h412zM445 120v-103h-412v103h412zM445 333v-104h-412v104h412z" />
    <glyph glyph-name="greaterequal" unicode="&#x2265;" horiz-adv-x="549" 
d="M69 684l412 -207v-127l-412 -206v118l311 152l-311 152v118zM481 103v-103h-412v103h412z" />
    <glyph glyph-name="infinity" unicode="&#x221e;" horiz-adv-x="713" 
d="M512 457c82 0 152 -58 152 -155c0 -104 -74 -164 -152 -164c-41 0 -100 11 -158 94c-45 -56 -90 -94 -158 -94c-78 0 -149 61 -149 158c0 96 68 161 157 161c67 0 115 -31 158 -90c30 32 72 90 150 90zM206 375c-35 0 -65 -27 -65 -78c0 -41 29 -76 68 -76
c42 0 76 37 100 72l-3 5c-30 45 -52 77 -100 77zM503 375c-40 0 -67 -35 -97 -73l-3 -4c47 -65 72 -77 105 -77c40 0 62 43 62 75c0 45 -26 79 -67 79z" />
    <glyph glyph-name="integral" unicode="&#x222b;" horiz-adv-x="274" 
d="M259 859v-69c-43 0 -77 -14 -77 -57c0 0 28 -613 28 -762c0 -95 -86 -112 -187 -112v70c43 0 75 14 75 58c0 0 -27 610 -27 760c0 94 87 112 188 112z" />
    <glyph glyph-name="intersection" unicode="&#x2229;" horiz-adv-x="722" 
d="M359 686c156 0 279 -118 280 -276l2 -410h-120v410c0 100 -72 169 -161 169s-161 -69 -161 -169v-410h-120v410c0 158 125 276 280 276z" />
    <glyph glyph-name="lessequal" unicode="&#x2264;" horiz-adv-x="549" 
d="M481 684v-118l-311 -152l311 -152v-118l-412 206v127zM481 103v-103h-412v103h412z" />
    <glyph glyph-name="minus" unicode="&#x2212;" horiz-adv-x="479" 
d="M445 307v-104h-412v104h412z" />
    <glyph glyph-name="notequal" unicode="&#x2260;" horiz-adv-x="549" 
d="M435 484l-37 -72h86v-104h-138l-56 -109h194v-103h-246l-36 -71h-81l36 71h-85v103h137l56 109h-193v104h245l37 72h81z" />
    <glyph glyph-name="orthogonal" unicode="&#x221f;" horiz-adv-x="979" 
d="M275 625v-515h527v-110h-645v625h118z" />
    <glyph glyph-name="partialdiff" unicode="&#x2202;" horiz-adv-x="494" 
d="M222 735c118 0 234 -102 234 -352c0 -247 -86 -395 -239 -395c-120 0 -181 100 -181 216c0 152 91 245 189 245c58 0 95 -41 107 -65h4c1 6 1 25 1 34c0 122 -58 218 -135 218c-48 0 -83 -16 -108 -34v104c31 16 72 29 128 29zM248 352c-49 0 -87 -69 -87 -151
c0 -66 23 -111 63 -111c59 0 98 92 105 189c-9 33 -37 73 -81 73z" />
    <glyph glyph-name="product" unicode="&#x220f;" horiz-adv-x="823" 
d="M727 723v-102h-83v-749h-121v749h-224v-749h-121v749h-82v102h631z" />
    <glyph glyph-name="radical" unicode="&#x221a;" horiz-adv-x="549" 
d="M558 857l-162 -1005h-110c-57 147 -113 294 -169 441l-77 -30l-20 60l172 68c41 -116 85 -231 127 -347c10 -28 16 -53 21 -74l137 887h81z" />
    <glyph glyph-name="summation" unicode="&#x2211;" horiz-adv-x="713" 
d="M655 723v-98h-389v-4l242 -306l-253 -321v-4h417v-118h-595v63l290 364l-281 357v67h569z" />
    <glyph glyph-name="uni2219" unicode="&#x2219;" horiz-adv-x="273" 
d="M198 411v-135h-125v135h125z" />
    <glyph glyph-name="arrowboth" unicode="&#x2194;" horiz-adv-x="1000" 
d="M763 436l197 -173v-21l-197 -173h-52l53 129h-526l53 -129h-52l-197 173v21l197 173h52l-53 -129h526l-53 129h52z" />
    <glyph glyph-name="arrowdown" unicode="&#x2193;" horiz-adv-x="500" 
d="M306 711v-722l130 53v-52l-174 -197h-21l-173 197v52l130 -53v722h108z" />
    <glyph glyph-name="arrowleft" unicode="&#x2190;" horiz-adv-x="1000" 
d="M291 436l-53 -130h722v-108h-722l53 -130h-52l-197 174v21l197 173h52z" />
    <glyph glyph-name="arrowright" unicode="&#x2192;" horiz-adv-x="1000" 
d="M763 436l197 -174v-21l-197 -173h-52l53 130h-722v108h722l-53 130h52z" />
    <glyph glyph-name="arrowup" unicode="&#x2191;" horiz-adv-x="500" 
d="M262 711l173 -197v-52l-129 53v-722h-109v722l-129 -53v52l173 197h21z" />
    <glyph glyph-name="arrowupdn" unicode="&#x2195;" horiz-adv-x="500" 
d="M260 711l173 -197v-52l-130 53v-526l130 53v-52l-173 -197h-21l-174 197v52l130 -53v526l-130 -53v52l174 197h21z" />
    <glyph glyph-name="estimated" unicode="&#x212e;" horiz-adv-x="600" 
d="M302 538c159 0 257 -120 257 -285v-5h-406v-165c37 -34 87 -53 149 -53c88 0 156 42 190 109l34 -21c-42 -80 -120 -130 -224 -130c-160 0 -257 116 -257 275s97 275 257 275zM302 496c-62 0 -112 -20 -149 -54v-152h298v151c-38 35 -88 55 -149 55z" />
    <glyph glyph-name="commaaccent" unicode="&#xf6c3;" horiz-adv-x="273" 
d="M197 -55v-112l-46 -96h-65l36 85h-49v123h124z" />
    <glyph glyph-name="uni02C9" unicode="&#x2c9;" horiz-adv-x="500" 
d="M500 860v-69h-500v69h500z" />
    <glyph glyph-name="breve" unicode="&#x2d8;" horiz-adv-x="273" 
d="M194 723h74c0 -50 -51 -107 -134 -107c-82 0 -133 57 -133 107h74c2 -7 8 -15 18 -22c11 -6 25 -11 41 -11c34 0 58 19 60 33z" />
    <glyph glyph-name="caron" unicode="&#x2c7;" horiz-adv-x="273" 
d="M269 723l-85 -135h-98l-86 135h90l45 -69l44 69h90z" />
    <glyph glyph-name="dotaccent" unicode="&#x2d9;" horiz-adv-x="273" 
d="M190 723v-115h-107v115h107z" />
    <glyph glyph-name="hungarumlaut" unicode="&#x2dd;" horiz-adv-x="273" 
d="M306 723l1 -3l-84 -129h-79l62 132h100zM166 723l1 -3l-84 -129h-79l62 132h100z" />
    <glyph glyph-name="ogonek" unicode="&#x2db;" horiz-adv-x="273" 
d="M188 12l2 -4c-12 -14 -30 -42 -30 -70c0 -26 12 -51 45 -51h22v-55c-23 -9 -44 -14 -66 -14c-46 0 -99 21 -99 90c0 49 23 78 48 104h78z" />
    <glyph glyph-name="ring" unicode="&#x2da;" horiz-adv-x="273" 
d="M139 753c54 0 96 -44 96 -96c0 -53 -43 -96 -96 -96c-52 0 -96 42 -96 96c0 53 43 96 96 96zM139 703c-26 0 -46 -20 -46 -46s20 -46 46 -46c25 0 46 20 46 46s-21 46 -46 46z" />
    <glyph glyph-name="AEacute" unicode="&#x1fc;" horiz-adv-x="820" 
d="M547 883l1 -3l-108 -129h-99l86 132h120zM777 0h-330l-33 135h-253l-50 -135h-119l263 686h516v-114h-333l40 -164h249v-114h-221l44 -180h227v-114zM313 546l-110 -297h184l-70 297h-4z" />
    <glyph glyph-name="afii00208" unicode="&#x2015;" horiz-adv-x="820" 
d="M715 318v-95h-613v95h613z" />
    <glyph glyph-name="afii61248" unicode="&#x2105;" horiz-adv-x="790" 
d="M618 698l-415 -710h-77l416 710h76zM177 698c79 0 129 -44 129 -148h-86c0 52 -15 77 -43 77c-36 0 -50 -38 -50 -110v-26c0 -72 14 -110 52 -110c31 0 43 26 43 77h84c0 -104 -49 -148 -127 -148c-96 0 -140 61 -140 194s46 194 138 194zM576 375c99 0 148 -61 148 -194
s-49 -194 -148 -194s-148 61 -148 194s49 194 148 194zM576 304c-44 0 -60 -38 -60 -110v-26c0 -72 16 -110 60 -110s60 38 60 110v26c0 72 -16 110 -60 110z" />
    <glyph glyph-name="afii61289" unicode="&#x2113;" horiz-adv-x="490" 
d="M275 735c90 0 144 -53 144 -153c0 -91 -82 -206 -191 -310v-74c0 -81 35 -111 77 -111c39 0 71 12 99 30v-103c-34 -17 -68 -26 -112 -26c-131 0 -184 81 -184 182c-18 -13 -35 -26 -53 -38v89c16 12 34 26 53 42v245c0 171 81 227 167 227zM288 651
c-29 0 -60 -36 -60 -143v-127c57 66 102 139 102 202c0 43 -13 68 -42 68z" />
    <glyph glyph-name="afii61352" unicode="&#x2116;" horiz-adv-x="914" 
d="M777 488v26c0 67 -15 104 -48 104c-32 0 -48 -37 -48 -104v-26c0 -67 16 -104 48 -104c33 0 48 37 48 104zM869 501c0 -136 -49 -197 -140 -197s-140 61 -140 197s49 197 140 197s140 -61 140 -197zM606 180v84h247v-84h-247zM532 0h-114l-212 378c-8 14 -31 64 -31 64
l-4 -3s2 -39 2 -57v-382h-113v686h113l212 -378c11 -17 31 -64 31 -64l3 3s-1 46 -1 57v382h114v-686z" />
    <glyph glyph-name="arrowupdnbse" unicode="&#x21a8;" horiz-adv-x="500" 
d="M260 711l173 -197v-52l-130 53v-419l130 53v-52l-173 -197h-21l-174 197v52l130 -53v419l-130 -53v52l174 197h21zM433 -147v-86h-367v86h367z" />
    <glyph glyph-name="house" unicode="&#x2302;" horiz-adv-x="600" 
d="M300 563l225 -253v-310h-450v310zM300 428l-133 -151v-188h266v188z" />
    <glyph glyph-name="integralbt" unicode="&#x2321;" horiz-adv-x="604" 
d="M237 859h114c7 -440 14 -917 14 -997c0 -94 -87 -112 -188 -112v69c43 0 77 14 77 57c0 0 -9 512 -17 983z" />
    <glyph glyph-name="integraltp" unicode="&#x2320;" horiz-adv-x="604" 
d="M427 859v-69c-43 0 -77 -14 -77 -57c0 0 9 -512 17 -983h-114c-7 440 -14 917 -14 997c0 94 87 112 188 112z" />
    <glyph glyph-name="revlogicalnot" unicode="&#x2310;" horiz-adv-x="479" 
d="M450 463v-113h-312v-163h-104v276h416z" />
    <glyph glyph-name="uni2215" unicode="&#x2215;" horiz-adv-x="137" 
d="M296 698l-395 -710h-67l396 710h66z" />
    </font>
</defs>
</svg>
