<?xml version="1.0" standalone="no"?>
<!DOCTYPE svg PUBLIC "-//W3C//DTD SVG 1.1//EN" "http://www.w3.org/Graphics/SVG/1.1/DTD/svg11.dtd" >
<svg xmlns="http://www.w3.org/2000/svg">
<metadata></metadata>
<defs>
<font id="nexa_rust_extrasfree" horiz-adv-x="1028" >
<font-face units-per-em="2048" ascent="1638" descent="-410" />
<missing-glyph horiz-adv-x="1228" />
<glyph unicode=" "  horiz-adv-x="1228" />
<glyph unicode="&#x09;" horiz-adv-x="1228" />
<glyph unicode="&#xa0;" horiz-adv-x="1228" />
<glyph unicode="A" d="M840 549l-27 33l-4 28v21l-4 26l-4 19l-8 24l-27 23l-47 4h-23l-24 -4l-29 4l-37 14l-18 15l-21 16l-16 23l-25 18h-37l-18 -16l-14 -19l-23 -16l-16 -19l-39 -16l-23 -2l-30 2h-19l-24 -4l-29 2l-25 -23l-4 -22l-2 -23l-8 -24v-25l-6 -20l-27 -39l-16 -21l-19 -10 l-20 -18l-23 -15l-2 -39l9 -18l18 -20l12 -21l15 -27l8 -45l-4 -22l-2 -19l-4 -24l-11 -29l-2 -22l15 -27l24 -10l27 -4l16 -15l25 -2l24 -12l33 -31l8 -24l15 -17l10 -22l10 -25l43 -10l21 6l24 8l29 11l22 12h50l22 -14l27 -9l22 -12l25 -2l39 12l12 21l16 24l11 23l14 20 l35 31l24 12l31 9l25 10l18 6l23 37l-7 26l3 27l-13 23l2 22l2 49l19 25l12 20l14 29l13 18l-11 43l-18 11l-20 14zM743 682l9 -2v-6l-9 2l-8 4zM449 674l-3 -6l-10 -2l-8 -2l-6 4l-2 2v4l6 2l6 -2h6l6 4zM528 657l-4 -2h-4v4l4 9l4 -4v-7zM373 635l8 -8h-16l-9 18l4 8l9 -2 l2 -2v-4zM287 643l12 6l-6 -8h-14l-3 4l7 2zM659 649l9 -4l2 -10l-2 -2h-9l-8 -4l-8 4l8 6l2 8zM408 600v4l2 6l6 -4l4 -4v-6l-4 -2h-6zM627 602l2 -2l2 -4l-2 -4h-6l-5 -4v-6l-6 -11l-10 -6h-2l-2 2l6 8l8 7l2 6l2 8l5 6h6zM270 590l-6 -4h-8l-4 6l2 6h8zM649 578h4l2 -5 v-2h-8l-2 2zM483 571h6v-4l-2 -4l-6 -10l-8 -6l-4 -4l-4 6l-6 4v8l4 6l6 -2l10 2zM408 514h-7l5 4h6zM449 479l-3 -4h-4l-2 2l2 4h4zM260 434l10 -6l4 -8l-2 -4h-4l-8 8v10zM342 301l14 -10v-15l-8 -2l-8 9l-12 4v12l6 6zM414 260l12 -4v-4l-2 -4h-12l-11 8zM377 233l6 -2 l4 -12l-6 -14l-10 10v12zM453 152l4 2l6 -2l-2 -7l-4 -4l-6 -4l-5 2v8zM528 109l-4 -3l-4 5l-2 4l6 6l6 -2v-6zM424 70l10 -7v-12l-10 6l-6 9l2 4h4z" />
<glyph unicode="B" d="M897 557l-18 39l-23 8l-20 17l-19 12l-35 39l-10 22l-6 25l-10 18l-37 25l-55 -4l-19 4l-47 12l-23 10l-22 19l-23 14l-41 -4l-18 -10l-20 -19l-21 -6l-45 -20l-31 4l-20 -4l-31 2l-29 -23l-14 -18l-12 -27l-10 -18l-27 -37l-21 -21l-26 -12l-19 -10l-22 -41l4 -21l6 -24 l6 -31l-6 -41l-10 -26l-17 -21l-4 -22v-43l39 -37l13 -21l24 -45l2 -28v-23l8 -25l27 -26l18 -8l31 -9l19 -8l45 -22l14 -23l18 -22l15 -15l41 -10l69 16l54 5l22 -13l21 -6l24 -4l39 12l19 21l14 14l20 23l37 26l25 6l31 4l18 11l27 28l4 29l8 19l-2 30l26 43l15 21l18 12 l13 20l8 48l-8 20l-17 21l-8 24l-10 47l10 23l4 24v31zM301 662l2 -3h4l-4 -8l-6 -6v10zM324 561v-10l-5 -6l-4 10l-8 4v6l6 6h11l2 -4zM377 541l2 2l2 -2v-4l-4 -5l-2 3v2zM362 508l9 -8l4 -13l-2 -2h-2l-6 7l-5 10l-12 8l-4 4v6l4 4h4l2 -4v-4l2 -6zM260 442l6 -2v-8h-4 l-6 6zM354 369l6 -11v-6l-6 -2l-6 -4l-8 2l-4 6l4 6v11l-2 4l2 4h2l4 -4zM233 344l-6 -4l-2 -2l-2 2l-2 6l6 4v6l-2 6l4 5l7 -5l-3 -10v-8zM293 322l4 -3l2 -4l-2 -6h-10l-4 4l4 6zM416 317h2l4 -2v-4l-2 -2h-2l-2 2v6zM793 303l4 -4v-4l-4 -2h-5l-6 6l2 2l2 4zM369 287l2 4 l2 -4v-6zM248 285l10 4l-6 -17l-19 -2l-6 6l4 9h17zM811 258l8 6l15 -2l-9 -8l-10 -4l-4 2v6zM743 244l5 -4v-7l-3 -6l-8 2l-2 9l-2 4l6 4zM627 238h4l4 -5l-4 -10l-10 -8v12zM217 209l-2 6l8 -6l-2 -8l-4 -6h-4v4l4 4v6zM639 190l14 3l13 -11l-13 -8l-12 4l-4 6zM563 170 l15 10l12 -4v-8l-8 -6l-9 -10l-12 2l-4 8zM260 170l6 4v-16l-8 -2l-6 4l4 8zM420 133l12 2l2 -4v-4l-10 -6l-10 4z" />
<glyph unicode="C" horiz-adv-x="909" d="M127 823l-25 -24l2 -27l5 -20l-3 -27l7 -23l2 -26l6 -21l2 -30l8 -23l6 -20l4 -29l6 -18l3 -23l8 -31l8 -22l2 -23l10 -20l10 -25l5 -20l12 -23l4 -29l6 -22l27 -43l6 -23l14 -18l12 -20l21 -21l12 -25l17 -22l14 -16l16 -21l23 -16l10 -21l19 -20l20 -15l16 -16l29 2 l23 23l14 16l16 18l21 15l14 20l12 15l23 26l10 15l14 22l17 16l10 25l17 20l6 19l22 45l15 27l4 24l8 25l10 22l6 23l12 22l7 31v25l10 20l2 29l12 22l-2 23l8 28l9 23l4 23v32l6 23l2 29l2 24l2 21v16l-21 10l-22 6l-27 -2l-30 2l-25 -6l-51 4l-27 -4h-18l-33 2l-18 2 l-27 -4h-29l-53 4l-18 -4l-82 6l-27 -4h-20l-29 -2l-21 4l-26 2l-27 -2h-49zM530 735h7l-5 -8l-6 -6v8zM553 637v-10l-4 -6l-4 10l-8 4v6l6 6h10l2 -4zM606 616h4v-4l-2 -4h-4v4zM592 584l8 -9l4 -12l-2 -2h-2l-6 6l-4 8l-12 9l-5 6v6l9 4l4 -4l-2 -6l2 -4zM492 518l4 -2v-8 h-4l-7 6l2 2zM584 444l6 -10v-6l-6 -2l-6 -4l-7 2l-6 4l4 6v12l-2 5l2 4h2l4 -4zM463 420l-4 -6h-6l-2 8l6 4v6l-2 6l4 4l6 -4l-2 -10v-8zM522 397l6 -6l-2 -6l-6 -2l-4 2l-4 4l4 4zM647 393l4 -2v-4l-4 -4l-2 4v4zM598 360l2 7l2 -5v-6zM477 360l10 5l-6 -17l-18 -2l-6 6 l4 8h16zM446 285l-2 6l9 -6l-2 -11l-5 -4h-4v4l4 5v6zM489 246l7 2v-15l-9 -2l-4 5l2 6z" />
<glyph unicode="D" horiz-adv-x="913" d="M659 754l-51 2l-20 4l-23 6l-28 6l-19 12l-20 7l-25 16l-31 2l-24 -14l-17 -13l-24 -10l-27 -12h-22l-23 -6h-53l-19 4l-30 6l-23 10l-20 6l-43 27l-15 -4v-29l11 -22v-23l6 -27l-4 -18l6 -27l4 -22l10 -25v-24l10 -27v-18l5 -27l6 -27l12 -22l4 -27l10 -18l4 -23l13 -22 l4 -23l6 -26l12 -23l23 -47l6 -18l16 -25l13 -20l16 -19l12 -20l15 -23l22 -22l14 -17l15 -20l22 -19l13 -16l20 -21l18 -16l31 6l17 21l14 16l16 18l17 17l22 20l17 15l12 20l16 19l10 20l17 21l14 20l13 25l14 24l20 39l4 27l9 24l14 21l2 22l12 25l6 29l11 22l4 23l4 24 l4 27l8 26l4 27l8 25l2 22l7 23l4 30l4 50l8 24l-2 23l2 22l-12 -10l-21 -12l-26 -17l-19 -8l-26 -4zM260 621l-4 -9l-6 -6v8l4 9zM664 606v-4l-2 -2h-7l-2 4v4l2 2zM676 571l8 4h10l-8 -8l-8 -2l-4 2zM621 561l2 -6l2 -4l-4 -4l-7 2l-2 10l4 2h5zM530 551l-4 -8l-8 -6v10 l4 8zM283 504l-2 6l-9 2l-2 8l6 6l9 2l4 -4l-2 -6l4 -10l-4 -8zM535 516h10l10 -6l-10 -8l-10 4l-3 4zM348 500h-4v8h6v-6zM481 508l13 -4v-6l-9 -6l-6 -9l-10 2l-4 7zM354 459l2 -2l-4 -2l-8 4l-2 4l-4 4l-14 4l-7 2v6l2 4l5 2l4 -2v-6l4 -4h6l6 -4l4 -2l2 -2l2 2l10 2 l3 -2v-4zM266 373l4 -6v-2l-4 -5l-4 2l-6 5l6 6h4zM459 356v2l4 2v-6h-2zM387 346l6 -2l4 -4l-4 -6l-2 -2v-4l-8 -4h-4l-2 2l-2 6l-4 6l-6 6v4l2 2l6 -2h10zM444 311l5 -4h-7l-2 4h4zM319 238l-2 -2h-2l-6 6l-2 4v4l-4 8l-4 2l-2 4v8l6 -2l4 -8l12 -12v-12zM371 256l-6 -2 v12l2 4h8l4 -6l-4 -6zM375 215l16 -16l-2 -9l-4 -10l-10 -2l-6 4l-2 4l-2 2l4 5l6 10v12zM539 176l4 -6l-6 -6l-11 2l-4 4l-2 4v2h19zM481 133l8 -4v-6l-8 2l-6 6h-16l10 6z" />
<glyph unicode="E" horiz-adv-x="1054" d="M940 737l-39 27l-24 45l-13 14l-22 -8l-25 -8l-49 4l-27 8l-24 4l-23 11h-18l-53 4l-27 -11h-27l-20 -6l-45 -2l-27 4l-24 4l-25 7h-49l-23 -7l-24 -8l-21 -2l-22 -4l-56 -6l-20 12l-27 4l-6 -10l-33 -49l-38 -27l-7 -24l29 -17l25 13l28 -25l17 -20l20 -17l8 -26l11 -23 l4 -23l2 -45l-6 -24l-4 -23l-7 -26l-8 -23l-12 -26l-8 -17l-13 -22l-6 -29l-10 -33l4 -26l2 -27l8 -21l11 -24l26 -45l13 -25l14 -18l22 -12l17 -19l43 -24l26 -11l25 -8l23 -8l28 -2l21 -8l24 -6l27 -11l43 6l49 13l25 4l22 10l23 2l24 10l29 9l45 22l18 16l19 25l14 14 l14 23l11 24l14 25l10 21l6 26l5 27l4 22l-11 37l-10 27l-12 14l-10 25l-11 20l-6 29l-6 22l-4 21v69l4 23l8 25l6 20l17 23l16 14l29 29l27 -13l34 21zM354 723l11 -6v-4l-5 -2l-10 2l-8 8zM580 666l2 -4v-5l-11 -6l-12 2l8 9zM477 655h27l8 -12l-6 -6l-12 2l-13 -2l-6 10z M557 600l-6 12v6l6 3l12 -7l2 -16zM743 610l2 -4l3 -6l-3 -4l-4 2l-6 4l2 6zM664 598h4l4 -4l-4 -12l-6 -2l-5 6l2 8zM297 561l-4 -10l-8 -8v12l2 4l4 4zM750 535h10l10 -11l-12 -2l-10 4l-3 4zM330 414l-8 12l-11 4l-2 8l8 8l11 3l4 -5l-2 -8l4 -12l-2 -4zM403 414l-4 2v8 l4 2l5 -2v-4l-2 -4zM406 375l8 -13l-4 -4l-7 4l-4 3l-4 4l-2 4l-20 6l-6 4v8l2 4l6 2l4 -4v-6l4 -6h8l6 -2zM305 260l4 -6v-4l-4 -4l-6 4l-6 2l2 4l4 4h6zM537 242l2 2l4 2l2 -2v-2l-2 -2l-4 -2zM446 229l13 -4l4 -4l-4 -6l-4 -8l-9 -6l-4 2h-4l-2 8l-4 8l-2 2l-6 4v6l4 2 l4 -2h6l6 -2h2zM522 186l4 -4h-8l-2 4h6zM735 145l2 -4l4 -4l-4 -4l-4 -2l-10 2l-4 2l-6 12h10zM348 111v-17h-6l-2 4l-4 4l-2 7v4l-2 4l-4 6l-2 2l-7 4l3 10l8 -2l2 -6l2 -4l2 -2l4 -2zM432 119h-8v4l-2 4l2 4v4l6 2l4 -2h2l4 -6l-4 -8zM545 72l10 -4v-7l-10 2l-8 7l-21 2 h2l12 6l7 -2z" />
<glyph unicode="F" horiz-adv-x="833" d="M696 41q31 -7 33 -16q5 -21 -3.5 -43t-23.5 -23q-103 -3 -196 78q-30 27 -72 2q-57 -37 -113 -39.5t-98 22.5t-71 70q-114 186 43 506q14 25 8 59q-31 149 -31 287q0 69 20.5 122t53 78t74 20.5t81.5 -42.5q34 -33 41.5 -81t-11.5 -111t-41.5 -113.5t-61.5 -124.5 l-17 -35l-8 -16q-15 -27 -6 -57q48 -172 139 -318q15 -27 39.5 -24.5t36.5 32.5q75 205 10 420q-6 16 14.5 26.5t44.5 7t29 -20.5q71 -282 -55 -531q-20 -39 18 -74q62 -49 123 -61zM254 991q-7 -86 -2 -149q4 -56 12 -78q7 -10 12.5 -8.5t8.5 6.5l2 2q28 50 48.5 112.5 t24 119.5t-29.5 73q-29 13 -50 -9t-26 -69zM315 92q40 0 58 4q24 7 28.5 29.5t-10.5 42.5q-62 91 -115 229q-14 36 -39 21q-29 -20 -36 -78q-11 -103 17.5 -173.5t96.5 -74.5z" />
<glyph unicode="G" horiz-adv-x="843" d="M610 776q111 -5 164 -67t10 -156q-28 -68 -125 -94q-40 -14 -30 -56q14 -47 20 -90t1 -94.5t-26 -91.5t-68.5 -73t-119.5 -48q-75 -16 -140 16.5t-106 95.5t-64 146.5t-23.5 166.5t24 158t72.5 118q25 25 0 57q-32 33 -47 88.5t-8.5 114.5t27 112.5t61 89.5t92.5 39 q67 4 113.5 -15.5t68 -55.5t25.5 -82t-10.5 -96t-43.5 -97q-14 -24 -54 -19q-35 4 -39 24q-2 7 1 14q36 87 39.5 143.5t-18 77.5t-62.5 18q-36 -3 -62.5 -38t-35 -84t-6 -98.5t25.5 -86.5t60 -43q28 -3 37 -21.5t-2.5 -37.5t-32.5 -23q-43 -6 -73.5 -43t-41.5 -91.5 t-11 -118.5t17 -126.5t43 -113.5t67 -80.5t89 -26.5q66 5 100.5 47.5t34 108t-24.5 147.5q-14 42 -39 39l-18 -4q-36 -5 -57 -34.5t-29 -63.5q-1 -11 -21.5 -11.5t-39.5 10.5t-17 27q7 49 39.5 89t91.5 53q159 24 199 39q50 18 65 53q15 40 -8 81t-92 48q-12 0 -15.5 15 t3 30t20.5 14z" />
<glyph unicode="H" horiz-adv-x="1699" d="M633 369q-58 39 -66 108q-3 39 -24 60q-37 32 -49 88q-9 36 -43 39q-336 18 -349 124q-12 77 121 115q126 37 420 41q18 0 21 7t-5 22q-26 57 39 96t152 39q254 0 420 -168q22 -25 55 -16q125 34 198.5 -53t73.5 -275q0 -112 -30.5 -194t-90.5 -116t-149 15q-29 17 -57 0 q-101 -60 -221 -85t-227.5 1.5t-151.5 110.5q-13 23 -37 41zM1516 596q0 148 -44 209t-129 39q0 -3 5 -8q1 -1 4 -4.5t5 -6.5t3.5 -8.5t1.5 -11.5q0 -20 -23 -33q-37 -18 -57 16q-144 238 -432 238q-109 0 -108 -24q0 -16 51 -46q25 -14 47 -14q42 -3 39 -43q-3 -42 -43 -39 q-412 15 -592 -37q-108 -28 -16 -50q134 -33 507 -31q47 0 94 1q43 0 43 -41q0 -40 -41 -40q-102 -6 -206 -3q-24 0 -35 -14.5t0 -34.5q27 -37 86 -48.5t170 -6.5q42 3 45 -39q3 -40 -41 -43q-62 -3 -115 0q-31 2 -44 -19q-12 -21 14 -32q52 -22 165 -16q42 3 45 -37 q3 -43 -38 -43q-49 -3 -99 0q87 -58 244.5 -29.5t259.5 115.5q21 15 39 12q7 -2 15 -8.5t12 -12.5l4 -6q12 -25 30 -30q67 -27 100.5 34t33.5 195z" />
<glyph unicode="I" horiz-adv-x="2045" d="M1919 614q-27 -19 -115.5 -82t-145.5 -103.5t-152.5 -103t-184.5 -116.5q-22 -10 -48 7.5t-31 41t18 39.5q141 68 401 244q26 17 19 35.5t-38 13.5q-232 -33 -388 -43t-447 -2q-31 0 -51 -23q-107 -140 -303 -282q-34 -25 -66 -5q-28 17 -17 43q5 13 19 23 q149 111 232 197q19 20 14.5 35.5t-29.5 15.5h-31q-25 3 -51 -17q-2 -2 -54.5 -43t-72 -55.5t-63.5 -46t-79.5 -52.5t-70.5 -38q-38 -19 -67 5q-24 19 -11 39q5 8 15 13q109 54 250 152q25 17 18.5 35t-37.5 20q-127 4 -178 12q-2 0 -8.5 0.5t-9 1l-7.5 1.5t-7.5 2.5 t-5.5 4.5t-5 7q-13 20 -2.5 56t37.5 36q124 -21 174 -27q31 -3 40 14.5t-13 37.5q-80 71 -217 172q-13 9 -7 32.5t24.5 34.5t43.5 -4q130 -98 305 -278q20 -23 51 -23l58 -2q26 0 34 13.5t-6 35.5q-57 90 -119.5 161.5t-158.5 137.5q-23 16 -3 41q21 28 58 23q20 -3 37 -17 q172 -144 299 -368q18 -27 51 -27q329 2 498 9t434 32q-97 -1 -218.5 95.5t-215.5 225.5q-3 4 -8 10t-7.5 9.5t-5 9.5t-2.5 12q0 21 17.5 42.5t38.5 21.5q4 0 8 -1.5t7 -3t6.5 -5.5t5 -6t6 -7.5t5.5 -7.5q126 -171 245 -257.5t267 -96.5q25 -2 37.5 -23t7.5 -46t-24 -38z " />
<glyph unicode="J" horiz-adv-x="2045" d="M127 614q-19 13 -24 38t7 46t37 23q148 10 267 96.5t245 257.5q1 1 4.5 5.5t4.5 6t4 5t4.5 5t4.5 4t5 3t5.5 1.5t6.5 1q21 0 38.5 -21.5t17.5 -42.5q0 -8 -3 -14t-10.5 -15t-9.5 -12q-94 -129 -215.5 -225.5t-218.5 -95.5q265 -25 434 -32t498 -9q33 0 51 27 q127 224 299 368q36 31 77 9q29 -15 26 -38q-1 -11 -11 -18q-96 -66 -158.5 -137.5t-119.5 -161.5q-14 -22 -6 -35.5t34 -13.5l58 2q31 0 51 23q175 180 305 278q22 17 43.5 4t24.5 -34.5t-7 -32.5q-137 -101 -217 -172q-22 -20 -13 -37.5t40 -14.5q50 6 174 27 q27 0 37.5 -36t-2.5 -56q-2 -4 -5 -7t-5.5 -4.5t-7.5 -2.5l-7.5 -1.5t-9 -1t-8.5 -0.5q-51 -8 -178 -12q-31 -2 -37.5 -20t18.5 -35q141 -98 250 -152q30 -15 15 -40q-15 -26 -49 -25q-15 1 -29 8q-35 17 -70.5 38t-79.5 52.5t-63.5 46t-72 55.5t-54.5 43q-26 20 -52 17h-30 q-25 0 -29.5 -15.5t14.5 -35.5q83 -86 232 -197q34 -26 16 -54q-17 -24 -51 -19q-15 2 -29 12q-196 142 -303 282q-20 23 -51 23q-291 -8 -447.5 2t-388.5 43q-31 5 -37.5 -13.5t19.5 -35.5q260 -176 401 -244q23 -16 18 -39.5t-31 -41t-48 -7.5q-89 54 -184.5 116.5 t-152.5 103t-145.5 103.5t-115.5 82z" />
<glyph unicode="K" horiz-adv-x="1957" d="M1849 362q-91 -119 -249 -144t-285 65q-23 17 -45 2q-104 -68 -224.5 -78t-225.5 31t-181 120q-19 19 -43 13q-66 -17 -132 -16.5t-122 15t-103 42t-79 64t-47 82.5t-10 96t35.5 106t86.5 110q21 21 44 10t28 -34t-4 -35q-54 -50 -78 -102t-17.5 -94t32.5 -79.5t73 -59.5 t104 -33t125 1q36 6 23 43q-35 81 -40.5 178.5t18.5 183.5t86.5 147t152.5 67q177 14 239 -96q53 -93 5 -232q-49 -142 -174 -243q-44 -36 -94 -62q-17 -9 -19.5 -22t10.5 -25q63 -50 141 -75.5t166 -17.5t162 54q28 17 9 45q-60 92 -76 192.5t27 181t145 99.5 q123 25 170 -55t15.5 -202.5t-116.5 -221.5q-11 -10 -10 -23t14 -22q103 -55 215.5 -30.5t180.5 108.5q20 32 49 13q25 -17 24 -47q0 -11 -6 -20zM791 983q-66 -1 -112 -52.5t-62 -124t-10 -154t34 -142.5q13 -32 47 -12q128 62 205 184q70 112 53 201q-18 88 -119 99 q-17 2 -36 1zM1278 451q9 -15 22 -15.5t23 13.5q77 100 95 209q17 102 -36 127q-27 13 -69 1q-59 -17 -79.5 -76t-6.5 -128t51 -131z" />
<glyph unicode="L" horiz-adv-x="1957" d="M109 362q-16 25 6 55q21 28 45 15q9 -5 16 -16q68 -84 180 -108.5t215 30.5q13 9 14 22t-10 23q-85 99 -116.5 221.5t16 202.5t170.5 55q102 -19 145 -99.5t27 -181t-76 -192.5q-19 -28 9 -45q74 -46 162 -54t166 17.5t141 75.5q13 12 10.5 25t-19.5 22q-144 74 -227 216 q-79 134 -60 251.5t130 153.5q57 18 133 12q90 -6 152.5 -67t86.5 -147t18.5 -183.5t-40.5 -178.5q-13 -37 22 -43q77 -11 147.5 3t115.5 50t65 84t-2 109t-86 121q-12 10 -3.5 34.5t27.5 34.5t44 -10q56 -54 86.5 -110t35.5 -106t-10 -96t-47 -82.5t-79 -64t-103 -42 t-122 -15t-132 16.5q-24 6 -43 -13q-76 -79 -181 -120t-225.5 -31t-224.5 78q-22 15 -45 -2q-127 -90 -285 -65t-249 144zM1167 983q-123 4 -151 -85q-26 -83 37 -196q67 -120 188 -189q14 -8 29 -15q34 -20 47 12q28 61 34 142.5t-10 154t-62 124t-112 52.5zM680 451 q37 62 51 131t-6.5 128t-79.5 76q-88 25 -105 -51q-18 -76 37 -191q24 -51 58 -95q10 -14 23 -13.5t22 15.5z" />
<glyph unicode="M" horiz-adv-x="1781" d="M1329 508q-43 -21 -4 -49q102 -81 115 -266q1 -27 -5 -29.5t-26 16.5q-23 20 -67.5 27.5t-90 12t-92 19t-86.5 61.5t-61 128q-8 34 -41 43q-123 44 -238 168q-19 18 -24 15.5t-2 -29.5q13 -93 -35 -203q-13 -30 -47 -33h-9q-24 -2 -51 21q-11 10 -36.5 32t-45 40 t-44.5 45t-40 55.5t-26 63.5t-9 78t17 89q8 22 0 36t-29 15q-101 5 -192 -14q-40 -10 -54 22q-8 19 -1.5 33.5t24.5 18.5q50 14 114 18.5t140 -1.5t153.5 -36t135.5 -82h2q26 -26 59 0q38 31 75 47t66 19.5t58.5 -4t48.5 -17.5t41 -29.5t31.5 -30t24.5 -28.5q3 -4 5 -6 q4 -5 9.5 -8.5t9.5 -4.5t12 -3.5t12 -3.5q17 -6 17 -20.5t-19 -31.5q-82 -79 -168 -96q-27 -5 -30.5 -15t20.5 -22q154 -79 352 15q29 14 29 53q-2 72 14 125.5t42.5 82t61 50t66 32.5t61 27.5t42.5 36.5q5 7 10.5 16.5t8 12.5t5.5 2q13 -4 21 -35q17 -62 19 -115.5 t-6.5 -92.5t-30.5 -73t-44.5 -55.5t-58.5 -43t-61.5 -32.5t-63.5 -26q-12 -5 -45 -21q-3 -2 -39 -20zM1591 801q6 26 -11.5 36t-43.5 -1q-12 -6 -36.5 -16t-33.5 -14.5t-24 -15.5t-20.5 -23t-11 -32t-5.5 -47q0 -24 14.5 -33.5t36.5 0.5q54 26 88 60t47 86zM961 692 q15 4 21.5 13.5t4.5 21.5t-12 25q-18 22 -30.5 33t-32 20.5t-43 4t-52.5 -25.5q-20 -12 -20 -29.5t20 -29.5q71 -51 144 -33zM569 524q19 -15 35 -9.5t19 28.5q12 78 -19 133t-98 106q-17 16 -35.5 6t-24.5 -40q-6 -40 0.5 -72.5t29.5 -61.5t40 -45t53 -45zM1143 438 q-24 2 -34 -12t-1 -37q8 -20 19 -34t20 -21.5t27 -12.5t28 -6.5t36.5 -3.5t39.5 -4q27 -3 37 12.5t-8 40.5q-52 68 -164 78z" />
<glyph unicode="N" horiz-adv-x="1781" d="M453 508q-36 18 -39 20q-33 16 -45 21q-38 15 -63.5 26t-61.5 32.5t-58.5 43t-44.5 55.5t-30.5 73t-6.5 92.5t19 115.5q8 31 20 35q2 1 3.5 0t4 -4t4.5 -6.5t6 -9.5t7 -11q13 -20 42.5 -36.5t61 -27.5t66 -32.5t61 -50t42.5 -82t14 -125.5q0 -39 28 -53q198 -94 353 -15 q24 12 20 22t-31 15q-86 17 -168 96q-19 17 -19 31.5t17 20.5q4 1 12 3.5t12 3.5t9.5 4.5t9.5 8.5q50 59 84 82q123 82 267 -33q33 -26 59 0h2q58 52 135.5 82t153.5 36t140 1.5t114 -18.5q18 -4 24 -18.5t-2 -33.5q-14 -31 -53 -22q-91 19 -192 14q-21 -1 -29 -15t0 -36 q15 -46 17 -89t-9 -78t-26 -63.5t-40 -55.5t-44.5 -45t-45 -40t-36.5 -32q-27 -24 -52 -21h-8q-34 3 -47 33q-48 110 -35 203q3 27 -2 29.5t-24 -15.5q-115 -124 -238 -168q-33 -9 -41 -43q-21 -81 -61 -128t-86.5 -61.5t-92 -19t-90 -12t-67.5 -27.5q-20 -19 -26 -16.5 t-5 29.5q13 185 115 266q39 28 -4 49zM190 801q23 -93 136 -146q22 -10 36.5 -0.5t14.5 33.5q0 27 -5.5 47t-11 32t-20.5 23t-24 15.5t-33.5 14.5t-36.5 16q-26 11 -44 1t-12 -36zM821 692q73 -18 144 33q20 12 20 29.5t-20 29.5q-29 20 -52.5 25.5t-43 -4t-32 -20.5 t-30.5 -33q-10 -13 -12 -25t4.5 -21.5t21.5 -13.5zM1212 524q36 29 53 45t40 45t29.5 61.5t0.5 72.5q-6 30 -24 40t-35 -6q-67 -51 -98 -106t-19 -133q3 -23 18.5 -28.5t34.5 9.5zM639 438q-112 -10 -164 -78q-18 -25 -8 -40.5t37 -12.5q13 2 39.5 4t36.5 3.5t28 6.5 t27 12.5t20 21.5t19 34q9 23 -1 37t-34 12z" />
<glyph unicode="O" horiz-adv-x="1701" d="M805 858q23 39 71.5 51t86.5 -10q37 -22 50.5 -69t-9.5 -87l-3 -4q-18 -27 -10 -57q21 -73 -12 -143q-16 -36 6 -58q31 -31 47 -45q95 -83 242 -104q22 -3 34.5 8t6.5 31q-9 35 -37 57q-17 13 -51 6q-16 -4 -25 -4q-43 0 -79 36t-36 79q0 45 35.5 79.5t79.5 34.5 t79.5 -34.5t35.5 -79.5v-6q-3 -33 18 -54q50 -42 64 -118q6 -42 43 -39q60 6 100 18q39 9 53 -22q17 -42 -22 -54q-56 -15 -125 -21t-152 -0.5t-168 37.5t-149 89q-20 17 -43.5 39.5t-34 33.5t-40 42t-32.5 34q-23 23 -49 23q-8 0 -24 -4q-35 -8 -25 -47q6 -18 6 -35 q0 -54 -43.5 -98t-97.5 -44t-97.5 44t-43.5 98t43.5 97.5t97.5 43.5q11 0 35 -4q27 -11 57 4q9 33 -24 45q-109 37 -252 -24q-32 -14 -29 -35q2 -6 2 -19q0 -54 -43.5 -97.5t-97.5 -43.5t-98 43.5t-44 97.5q0 60 52 105q25 22 4 49q-23 33 -23 65q0 44 37.5 81.5t81.5 37.5 q40 0 80 -35q23 -23 53 -18q70 10 137.5 -17.5t108.5 -78.5q21 -24 45 -31q94 -29 186 -121q12 -11 25 -14t21.5 4t9.5 22q2 14 -5 39q-7 23 -41 31l-26 12q-38 22 -51.5 71t8.5 87zM922 829q-14 9 -29 5q-26 -10 -23 -41q3 -14 19 -23q12 -6 25 -2.5t20 16.5q14 29 -12 45z M217 788q0 -15 11 -25.5t26 -10.5t26 10.5t11 25.5t-11 26t-26 11t-26 -11t-11 -26zM457 723q19 6 27.5 16t3 19.5t-24.5 13.5q-35 7 -64 2q-23 -5 -41 -37l-12 -18q-24 -31 -24 -35l2 -2q10 -7 45 10q54 21 88 31zM244 510q26 0 42.5 16.5t16.5 42.5t-16.5 43t-42.5 17 t-43 -17t-17 -43t17 -42.5t43 -16.5zM1169 545q0 -13 9.5 -23t23.5 -10t23.5 10t9.5 23q0 15 -9 24t-24 9t-24 -9t-9 -24zM596 401q26 0 42.5 17t16.5 43q0 8 -4 24q-10 20 -28 27q-13 8 -21 8h-6q-26 0 -42.5 -16.5t-16.5 -42.5t16.5 -43t42.5 -17z" />
<glyph unicode="P" horiz-adv-x="1701" d="M897 858q22 -38 8.5 -87t-51.5 -71l-27 -12q-34 -8 -41 -31t-4 -39q1 -23 19 -26.5t37 14.5q92 92 186 121q24 7 45 31q41 51 108.5 78.5t137.5 17.5q30 -5 53 18q40 35 80 35q44 0 81.5 -37.5t37.5 -81.5q0 -32 -23 -65q-21 -27 4 -49q51 -44 51 -105q0 -54 -43.5 -97.5 t-97.5 -43.5t-97.5 43.5t-43.5 97.5q0 13 2 19q3 21 -29 35q-143 61 -252 24q-15 -5 -21 -16.5t-5 -20.5l2 -8q30 -15 57 -4q24 4 35 4q54 0 97.5 -43.5t43.5 -97.5t-43.5 -98t-97.5 -44t-97.5 44t-43.5 98q0 17 6 35q10 39 -25 47q-16 4 -24 4q-27 0 -50 -23 q-9 -9 -33.5 -35t-38 -40t-35.5 -35.5t-42 -38.5q-64 -57 -149 -89t-168 -37.5t-152 0.5t-125 21q-40 13 -23 54q14 32 54 22q40 -12 100 -18q37 -3 43 39q14 76 64 118q21 21 18 54v6q0 45 35.5 79.5t79.5 34.5q43 0 78.5 -34.5t35.5 -79.5q0 -43 -35.5 -79t-78.5 -36 q-9 0 -25 4q-34 7 -51 -6q-28 -22 -37 -57q-6 -20 6.5 -31t34.5 -8q147 21 242 104q16 14 47 45q22 22 6 58q-33 70 -12 143q8 29 -11 57q-2 2 -2 4q-23 40 -9.5 87t50.5 69q38 22 86.5 10t71.5 -51zM780 829q-26 -16 -12 -45q7 -13 20 -16.5t25 2.5q14 9 18 23q3 31 -22 41 q-15 4 -29 -5zM1485 788q0 15 -11 26t-26 11t-26 -11t-11 -26t11 -25.5t26 -10.5t26 10.5t11 25.5zM1245 723q34 -10 88 -31q35 -17 45 -10q5 3 -13 26q-6 7 -9 11l-13 18q-18 33 -40 37q-29 5 -64 -2q-19 -4 -24.5 -13.5t3 -19.5t27.5 -16zM1458 510q26 0 43 16.5t17 42.5 t-17 43t-43 17t-42.5 -17t-16.5 -43t16.5 -42.5t42.5 -16.5zM532 545q0 33 -32 33q-15 0 -24 -9t-9 -24q0 -13 9.5 -23t23.5 -10q13 0 22.5 9.5t9.5 23.5zM1106 401q26 0 42.5 17t16.5 43t-16.5 42.5t-42.5 16.5h-6q-8 0 -21 -8q-18 -7 -28 -27q-4 -16 -4 -24 q0 -26 16.5 -43t42.5 -17z" />
<glyph unicode="Q" horiz-adv-x="833" d="M696 41q31 -7 33 -16q5 -21 -3.5 -43t-23.5 -23q-103 -3 -196 78q-30 27 -72 2q-57 -37 -113 -39.5t-98 22.5t-71 70q-114 186 43 506q14 25 8 59q-31 149 -31 287q0 69 20.5 122t53 78t74 20.5t81.5 -42.5q34 -33 41.5 -81t-11.5 -111t-41.5 -113.5t-61.5 -124.5 l-17 -35l-8 -16q-15 -27 -6 -57q48 -172 139 -318q15 -27 39.5 -24.5t36.5 32.5q75 205 10 420q-6 16 14.5 26.5t44.5 7t29 -20.5q71 -282 -55 -531q-20 -39 18 -74q62 -49 123 -61zM254 991q-7 -86 -2 -149q4 -56 12 -78q7 -10 12.5 -8.5t8.5 6.5l2 2q28 50 48.5 112.5 t24 119.5t-29.5 73q-29 13 -50 -9t-26 -69zM315 92q40 0 58 4q24 7 28.5 29.5t-10.5 42.5q-62 91 -115 229q-14 36 -39 21q-29 -20 -36 -78q-11 -103 17.5 -173.5t96.5 -74.5z" />
<glyph unicode="R" horiz-adv-x="841" d="M702 96q30 0 36 -28q7 -30 -21 -48q-15 -10 -37 -10q-59 0 -129 53q-38 30 -72 -4q-56 -55 -122.5 -58.5t-118 28.5t-82.5 82q-128 197 59 516q16 27 4 65q-69 189 -40 349q21 122 88 156q63 32 139 -32q147 -124 -56 -487q-19 -27 -6 -64q63 -160 121 -276 q15 -32 42 -28.5t34 40.5q18 83 4 146t-60 47q-15 -5 -28.5 12t-14 36t10.5 27q115 55 160 -33q43 -83 6 -241q-15 -63 -41 -125q-16 -41 22 -74q56 -46 102 -49zM352 1104q-52 43 -77 -33q-24 -73 -9 -197q6 -37 36 -33t49 42q6 11 9 24q35 164 -8 197zM334 80 q54 -6 100 43q27 27 6 67q-59 97 -135 289q-15 36 -46 17q-33 -20 -48 -78q-32 -128 6 -227.5t117 -110.5z" />
<glyph unicode="S" horiz-adv-x="905" d="M610 776q111 -5 164 -67t10 -156q-28 -68 -125 -94q-40 -14 -30 -56q14 -47 20 -90t1 -94.5t-26 -91.5t-68.5 -73t-119.5 -48q-75 -16 -140 16.5t-106 95.5t-64 146.5t-23.5 166.5t24 158t72.5 118q25 25 0 57q-32 33 -47 88.5t-8.5 114.5t27 112.5t61 89.5t92.5 39 q67 4 113.5 -15.5t68 -55.5t25.5 -82t-10.5 -96t-43.5 -97q-14 -24 -54 -19q-35 4 -39 24q-2 7 1 14q36 87 39.5 143.5t-18 77.5t-62.5 18q-36 -3 -62.5 -38t-35 -84t-6 -98.5t25.5 -86.5t60 -43q28 -3 37 -21.5t-2.5 -37.5t-32.5 -23q-43 -6 -73.5 -43t-41.5 -91.5 t-11 -118.5t17 -126.5t43 -113.5t67 -80.5t89 -26.5q66 5 100.5 47.5t34 108t-24.5 147.5q-14 42 -39 39l-18 -4q-36 -5 -57 -34.5t-29 -63.5q-1 -11 -21.5 -11.5t-39.5 10.5t-17 27q7 49 39.5 89t91.5 53q159 24 199 39q50 18 65 53q15 40 -8 81t-92 48q-12 0 -15.5 15 t3 30t20.5 14z" />
<glyph unicode="T" horiz-adv-x="876" d="M522 803q72 49 130 48t93 -47t29 -118q-4 -58 -27 -94t-75 -70q-33 -20 -21 -57q17 -53 20 -109.5t-10 -112t-40 -103t-75.5 -83.5t-111.5 -51q-70 -17 -132.5 11t-104 85.5t-67 136.5t-28.5 159.5t20 158.5t71 129q22 22 2 55q-26 43 -33 116t5.5 146t53.5 131.5 t103 69.5q84 16 133 -32t45.5 -135t-58.5 -179q-14 -24 -50 -20q-31 3 -34 23q-1 6 2 13q70 176 28 225q-17 20 -50 11q-52 -15 -70.5 -92t-3 -153.5t48.5 -96.5q26 -16 24.5 -47t-22.5 -39q-98 -41 -116.5 -201t46.5 -290.5t171 -98.5q103 30 141 115t10 203q-13 42 -22 39 q-13 -3 -35 -17q-24 -14 -39 -27t-23.5 -30t-12 -27t-9.5 -35q-4 -14 -23 -18.5t-36.5 3.5t-16.5 24q13 134 144 192q66 29 106 52.5t59 45.5t24 39t5 43q1 27 -17 52.5t-53.5 30.5t-87.5 -42q-9 -7 -18 17q-10 35 8 51z" />
<glyph unicode="U" horiz-adv-x="1171" d="M983 741q-100 -153 -181 -356.5t-100 -390.5q-2 -26 -16 -33t-31 12q-81 83 -162.5 179.5t-167.5 213.5t-146 236.5t-73 212.5q-11 83 7.5 150.5t57.5 108.5t93.5 63.5t113 21.5t118 -24t106.5 -66q29 -26 53 -8q64 49 131.5 71.5t123.5 17.5t97 -36t56.5 -81.5 t-3.5 -127t-77 -164.5zM911 799q85 132 53 207q-23 56 -98 49q-98 -8 -203 -114q-7 -8 -14 -15q-32 -32 -55 8q-27 48 -71 78.5t-91 40t-94 -0.5t-82 -36.5t-53 -75t-10 -109.5q17 -125 131 -300t270 -353q17 -20 34 -10t25 43q42 160 112.5 317t145.5 271z" />
<glyph unicode="V" horiz-adv-x="1490" d="M1288 950l94 -544q26 -118 -57 -130q-59 -7 -202 -22.5t-220 -25.5t-192 -27.5t-210.5 -41t-183.5 -53.5q-19 -4 -34.5 -4.5t-26.5 4t-19.5 9t-14.5 16t-9 17.5t-6 21t-3.5 20.5t-2.5 21.5l-97 618q-14 93 74 103q374 -22 975 90q71 7 100 -9.5t35 -62.5zM221 797 l567 -320q73 -51 117 25l244 338q35 45 23.5 72t-72.5 20q-546 -97 -869 -72q-26 -3 -33 -15.5t1 -25.5t22 -22zM1280 561l-37 168q-8 40 -22 46t-45 -32l-66 -88q-8 -9 -6 -21t12 -18l92 -59q58 -31 68 -24q9 5 4 28zM217 643l45 -295q3 -15 12.5 -21t21 -2t21.5 15 l168 172q12 12 10 25.5t-14 21.5l-211 121q-22 12 -39 0t-14 -37zM1278 358q25 6 22 33l-8 41q0 9 -8 17l-211 120q-8 6 -17.5 4t-15.5 -10l-100 -135q-23 -32 -43.5 -48t-46.5 -16.5t-57 19.5l-205 115q-18 11 -29 -4l-270 -265q-7 -10 -4 -20q0 -9 8 -13t20 -1 q118 38 255.5 66t230 40.5t250.5 30t229 26.5z" />
<glyph unicode="W" horiz-adv-x="1349" d="M1020 895l-4 -18q-4 -19 6 -28t33 -7q64 4 113 -20t71.5 -77.5t-6.5 -138.5q-25 -71 -49 -124.5t-57 -109t-74.5 -87t-87.5 -33.5q-40 0 -43 -37q-1 -10 -2 -29.5t-2 -29.5q0 -32 -9 -50q-54 -99 -325 -106q-287 -7 -338 102q-8 16 -8 48q-8 309 -113 731q-2 11 -16 47 q-7 21 -7 37q-2 52 36 90t106.5 59.5t149.5 32t177 12.5q95 2 175 -5t149.5 -25t109 -54.5t39.5 -87.5q2 -17 -6 -45q-2 -4 -8 -20.5t-10 -26.5zM197 961q6 -17 22 -27q42 -25 139.5 -38.5t219.5 -10.5q116 1 211 18.5t137 42.5q20 11 24 31q5 22 -10 35q-36 28 -137.5 44 t-229.5 13q-130 -3 -231.5 -24.5t-134.5 -51.5q-14 -14 -10 -32zM281 815q-23 4 -33 -6t-6 -33q22 -92 41 -205q6 -32 32 -43q114 -43 261 -41.5t251 33.5q29 9 35 43q15 114 39 223q6 24 -4.5 34.5t-34.5 4.5q-118 -29 -282 -32q-189 -4 -299 22zM1141 608q40 90 -8.5 127 t-124.5 4q-27 -11 -33 -43q-17 -90 -39 -311q-3 -21 4 -34t21 -11q22 3 41.5 16.5t33 29.5t29 46t25 51.5t26 62.5t25.5 62zM809 350q32 8 35 45v2q2 23 -9.5 33t-33.5 4q-105 -25 -225 -26.5t-224 28.5q-23 8 -35.5 2t-9.5 -26l2 -13q3 -36 35 -47q115 -37 240 -34t225 32z M582 92q172 3 231 43q15 10 18 45q0 34 3 68q1 23 -11 32t-35 1q-91 -29 -203 -33t-218 26q-46 16 -43 -30q2 -25 2 -72q0 -25 4 -33q32 -53 252 -47z" />
<glyph unicode="X" horiz-adv-x="1249" d="M1118 762q-16 -27 -6 -57q35 -87 35 -183q0 -163 -98 -301q-21 -27 -7 -55l50 -90q16 -22 2 -39q-4 -6 -8 -10.5t-6 -5.5l-3 -1l-2 -2q-36 -17 -57 17l-31 57q-20 36 -57 10q-139 -102 -305 -102q-171 0 -310 104q-38 26 -55 -10l-33 -57q-20 -35 -55 -17q-35 21 -14 56 l49 88q14 28 -4 55q-101 138 -101 303q0 96 35 183q9 27 -6 57q-29 47 -29 96q0 72 56.5 129t128.5 57q45 0 96 -28q25 -17 57 -6q84 34 185 34q98 0 182 -34q30 -10 57 6q45 28 97 28q72 0 129 -57t57 -129q0 -49 -29 -96zM625 82q183 0 311.5 128t128.5 312t-128.5 312.5 t-311.5 128.5q-185 0 -313 -128.5t-128 -312.5t128 -312t313 -128zM184 858q26 -21 49 6q17 22 52 49q42 38 26 47q-1 1 -2 1q-6 2 -22 2q-43 0 -73 -30.5t-30 -74.5zM961 963q-21 -27 6 -50q30 -27 49 -51q33 -39 45 -29q1 1 2 3q2 6 2 22q0 44 -30 74.5t-74 30.5zM666 834 v-187q0 -26 26 -49q35 -35 35 -76q0 -39 -31.5 -71.5t-70.5 -32.5h-7q-38 3 -53 -12l-20 -21q-29 -29 -58 0t0 57l19 19q22 22 16 41q-2 8 -2 20q0 44 37 76q27 24 27 49v187q0 40 41 40t41 -40zM625 500q20 0 20 22q0 23 -20 23q-9 0 -16 -7t-7 -16t7 -15.5t16 -6.5z" />
<glyph unicode="Y" horiz-adv-x="1384" d="M1225 885l-172 -340q-12 -24 2 -47l219 -361q13 -20 4.5 -31.5t-31.5 -5.5l-426 111q-25 6 -47 -8l-381 -236q-20 -13 -32 -4.5t-7 31.5l72 336q7 29 -20 47l-287 192q-20 14 -17 27.5t27 19.5l340 78q28 6 35 35l71 330q4 23 19.5 26.5t30.5 -14.5l188 -250 q17 -23 47 -14l334 115q23 7 32.5 -4t-1.5 -33zM1079 283l-127 209q-13 24 -4 51l96 184q11 22 1 33t-33 4l-185 -64q-29 -9 -47 15l-110 145q-14 19 -28 15t-19 -27l-41 -195q-10 -29 -37 -32l-193 -48q-23 -5 -26.5 -19t16.5 -26l164 -110q27 -18 18 -47l-39 -189 q-5 -23 7 -31.5t32 3.5l234 147q23 15 49 6l246 -63q23 -6 31.5 6.5t-5.5 32.5z" />
<glyph unicode="Z" horiz-adv-x="1386" d="M1149 856q-3 -37 29 -51q40 -20 66 -49t35.5 -59.5t1 -61.5t-33 -54.5t-71 -38t-109.5 -14.5q-22 0 -9 -21q5 -9 17 -20q23 -23 41 -47q61 -88 51 -158t-70.5 -112t-138.5 -35q-37 3 -51 -29q-25 -48 -61 -76.5t-73 -30t-69.5 18.5t-53 72t-19.5 127q0 23 -24 6 q-8 -6 -17 -16q-23 -23 -47 -41q-88 -61 -158 -51t-112 70.5t-35 138.5q3 37 -29 51q-48 25 -76.5 61t-30 73t18 69.5t71.5 53t127 19.5q21 0 4 25q-6 8 -14 16q-23 23 -41 47q-61 88 -51 158t70 112t137 35q37 -3 51 29q21 40 50 66.5t60 36t61.5 1t54.5 -33t38.5 -71 t14.5 -109.5q0 -22 21 -9q9 5 20 17q20 23 47 43q88 60 158.5 50t113 -70.5t35.5 -137.5zM522 952q-3 -21 -11.5 -24.5t-25.5 8.5q-27 18 -56 23.5t-53.5 -0.5t-43 -22t-26 -38t-1.5 -51.5t29 -59.5q92 -126 274 -151q42 -6 45 39q1 25 10 127.5t9 159.5q1 107 -42 129 q-34 18 -68 -29q-29 -41 -40 -111zM891 948q-60 -44 -99 -117.5t-51 -156.5q-9 -42 37 -45q30 -2 130.5 -10.5t158.5 -8.5q107 -1 130 42q18 32 -26 64q-50 35 -143 40q-18 0 -19.5 5t11.5 17q32 32 42.5 70.5t-1 67.5t-34.5 48t-60 16t-76 -32zM494 231q118 89 147 275 q6 42 -37 45q-34 2 -131.5 10t-153.5 8q-108 1 -130 -42q-18 -33 30 -66q41 -28 111 -39q21 -3 24 -11.5t-8 -27.5q-27 -41 -26.5 -85t25 -69t63 -30t86.5 32zM860 227q3 22 11.5 25.5t25.5 -8.5q41 -27 85.5 -26.5t70 24.5t30.5 62.5t-32 86.5q-92 126 -281 152 q-41 6 -41 -2v-6q-16 -184 -16 -318q-1 -108 42 -130q33 -18 66 29q28 40 39 111z" />
<glyph unicode="a" horiz-adv-x="901" d="M139 662l21 -11l-17 -16l-10 -41l-4 -23l6 -16l10 -20l21 -9l-6 -18l2 -16l28 -31l19 -21l-2 -18l24 -29l23 -6h16l9 -27l2 -24l-13 -14l4 -35l15 -11l14 -22l4 -21l12 -18v-27l2 -24l21 -33l10 -22v-23l27 -27l14 -2l2 -22l6 -21l9 -16l8 -14l18 -17h33l16 13l13 18 l6 16l6 15v30l47 25l6 14l4 23l23 24l20 35l-8 27l10 26l19 37l10 25l16 12l17 33l16 25l21 10l16 33l6 36l14 27v25l9 26l24 31l-2 18l-8 17l6 22l25 37l-2 21l-15 24l-12 19l12 20l-2 23l-8 12l-12 16l-15 19l-69 35l-19 18l-18 6l-16 6l-29 11l-25 22l-22 6l-21 2l-16 -2 l-23 -18l-2 14l2 21l7 18l-9 41v23l-8 18l-4 18l14 15l15 -4l33 -4l16 -19l27 -31l22 -2l18 -8l41 -12l33 -2l23 4l18 4l17 14l-17 6l-22 -2l-19 -4l-30 6l-58 17l-26 26l18 17l35 14l8 31l-6 16l-27 21l-16 -4l-35 -15l-12 -32l-21 -15l-39 8l-26 23l-4 16l-15 23l-8 16 l-8 15l-29 12l-12 -29l10 -16l15 -41l6 -14l24 -74l-2 -19l6 -22v-43l-16 -17h-25l-18 -14l-14 4l-37 -18l-25 -23l-16 6l-15 -2l-24 -26l-21 -15l-22 -6l-14 -10l-15 -45l10 -16l-45 6l-16 -8l-16 -11l-9 -37l4 -16l15 -14zM578 1077l-7 2l11 17l18 8v-17zM569 860l-4 -10 l-4 2v6l2 4l2 2zM420 811l-6 -6v12l2 8v4h4l10 5l8 2l6 2l5 -7l-7 -12l-2 -8l-2 -2h-2l-6 2h-10zM618 819l-2 -4l-2 -2l-6 -4h-12l2 2v2l2 2l4 6l4 2l6 2v-2zM330 768l-8 8v6l2 9l10 6l2 2l8 2l6 2l2 2h4l13 4l4 2l-2 -4l-2 -10v-11l-2 -4l-2 -2l-9 -6l-8 -4l-2 -2h-16z M500 811l8 -8l-6 -2l-4 -2h-11l-2 4l2 4l5 2l6 2h2zM291 782l-6 -2h-6l2 6l4 5l6 4l4 2h4v-6zM397 760v8l-2 10l6 6l5 7l2 2l2 -11v-18l-2 -8h-5zM551 770h4l8 -4l-6 -6h-20l-13 -4l-8 10l2 8l8 2l17 2zM606 768v-2l-2 -4l-2 -8h-4v4l-2 4l2 4v6l2 2zM383 723l-4 -2l-6 -2 l-6 4l-7 2l-4 -2l-4 -4h-10l-2 4v6l-4 10l2 9v6l2 2l2 6l4 4l10 -4l11 -14l16 -13l6 4l4 2l13 -4l2 2h4l4 -4l2 -4l-4 -4l-4 -2l-4 4l-5 2l-6 -4zM647 752l-4 2l-2 6l4 6l4 -2l4 -4l2 -6l-4 -2h-4zM285 762h10l-4 -6l-2 -2l-4 -2h-6l4 6zM279 715v6l-3 6l7 2l6 4l2 4l4 4 l2 7v6l12 4l2 -2l2 -4v-9l-2 -6l-6 -4l-4 -6h-2l-6 -6l-4 -6h-10zM250 719l-2 6v8l6 6l6 9l2 -9v-8l-2 -6l-2 -8h-4zM489 735l-10 -6h-12l8 8l10 2zM305 721l4 2l8 2l7 -10l-2 -6l-3 -4v-9l3 -8v-12l8 -8l-11 4h-4l-4 2h-4l-12 4l-6 8v4l2 8l4 9l4 6l2 6l2 2h2zM651 719l4 4 l7 2l4 -4v-4l-4 -6l-5 -2l-6 2v8zM242 688l-6 6v8h2l6 3l10 2l6 -5l8 -4h4l2 -2v-8h-32zM729 696l-2 2v2l8 5v-7l-2 -4zM428 692l-4 -6l-2 -2l-6 2v14l4 -2h4zM213 653v21l16 8h4l5 -2l8 -6l10 -8v-15l2 -10v-4l-6 6l-8 6l-8 2l-11 2h-12zM303 662l2 -5v-2l-2 -2h-12l-4 2 l-4 4l-4 9l6 2h8l2 -2l4 -2zM287 621l-2 -3l-6 -12v-4l-3 -4v-2l-2 -2l-2 -4l-12 -10h-4l-4 2l-6 4l-2 -2h-2l-4 -2h-2l-11 -4l-4 -13l2 -8l-4 -4h-4l-4 2l-4 6l-2 6l-4 8l-4 7v2l-9 16l15 2l10 -10l10 4l6 4l2 2l7 8l4 6l4 2h6l2 3l6 4l8 8l13 8l4 2l2 2h10l4 -4l-2 -4 l-6 -6l-4 -6zM422 614l-2 4l2 5l-2 6l4 6h6l6 -6v-4l-6 -2l-4 -9h-4zM315 608l-8 -12l-2 -2v-4l-6 -2h-4l-4 4h-2v6l2 4l2 2l8 4l6 2l12 8l3 -2h2zM410 582l-4 2v4l-3 4l5 2h4l2 -4zM252 545l-6 -6h-15l2 4v6l5 8l6 2l2 -2zM387 535l-6 2v10l-2 4l-4 4l2 4h2l4 -2l8 -2 l10 -10l-4 -4l-4 -6h-6zM342 524l-4 -10l-10 -6l-11 4l-4 12l9 13l8 4l10 -6v-5zM291 528l4 -4l4 -6l-2 -4h-8v2l-2 2l-2 6l2 6zM395 481h-6l-6 2l2 9l6 6l6 -2l6 -4l-2 -7zM344 471l-4 -4l-8 2v8l6 2h6v-8zM446 465v-10h3l2 -2l4 -11l-4 -10l-5 -2h-4l-4 8l4 8l-2 5v2l-6 6 l4 8zM348 463l12 -8l-2 -6v-7l-6 -2l-2 4l-4 2l-8 9zM393 440l-2 -6l-10 -4h-2l-4 4l8 8l6 2l8 2zM444 391v-12l-18 -10l-8 6v10l6 2l10 4h10zM412 377h4l4 -8v-4l-4 -3l-8 3v4l-2 4v4l4 2zM354 362l-2 -4l-4 -2l-6 2l2 4l4 5zM446 354l13 -4l2 -12v-8l-6 -2l-4 6l4 8z M403 305v-2l3 -4l-3 -4h-6l-2 2l-4 2l-2 2v4l2 4v2h6l4 -2zM485 266l7 -2l2 -2l-2 -4l-3 -2l-4 2l-2 4v2zM457 225l6 2v-8l-8 -6h-6l-7 -2l4 6l7 6z" />
<glyph unicode="b" horiz-adv-x="940" d="M838 297l-2 -18v-19l2 -24l-15 -9l-24 25l-4 41l-9 18l-2 23l-10 35l-6 20l-8 21l-8 14l-9 18l-10 23l-4 16l-24 29l-15 12l-14 6l-8 -6l6 -22l20 -39l8 -19l5 -16l12 -18l6 -19l8 -22l8 -15l9 -22l8 -15l10 -22l4 -19l2 -34l-6 -19l-4 -18l-31 -10l-18 8l-17 6l-20 8 l-10 -12l4 -19l12 -20l10 -39l11 -16l4 -25l12 -14l2 -23l-6 -35l-39 -28l-37 2l-16 8l-17 14l-16 6l-17 13l-34 18l-13 16l-20 15l-10 12l-19 14l-16 11l-12 16l-29 31l-8 14l-13 16l-6 17l-14 18l-10 17l-11 20l-10 14l-10 21l-12 39l-4 14l-9 37l-2 21l-6 20l-6 16v25 l-6 16l-8 4l-11 -18l-4 -20l-6 -17v-39l-2 -22l6 -23l4 -37l2 -43l3 -22l-5 -21l5 -22l-11 -39l-6 -19l-10 -14l-33 -18l-14 -25l2 -45v-27l-2 -22l-23 -21l-16 2l-23 19l-10 20v15l-6 20l-10 17l2 43l-2 22v19l4 20v21l-6 36l-6 19l-7 41v65l4 43l3 19l4 20l6 19l6 22 l10 37l25 35l6 47l10 41l8 16l6 21l33 22l25 9l37 -7l20 -6l21 15l8 24l4 21l6 39l10 20l4 14l11 19l4 18l10 23l2 18l18 33l17 18l10 19l8 20l13 19l30 32l21 11l12 14l21 10l34 19l21 -2l20 2l31 -13l16 -41l-4 -24l-8 -37l-8 -18l-6 -23l-8 -18l-7 -15l-8 -39l-12 -18 l-6 -18l-2 -21l-8 -18l-9 -23l-6 -16l-8 -19l-8 -43v-22l2 -19l2 -26l14 -19l19 -2l59 -6l19 -8l24 -4l17 -6l22 -11l35 -18l14 -14l10 -15l13 -14l14 -39l4 -16l6 -23l4 -14l2 -23l2 -20l7 -39l-2 -17zM477 954l8 -6l13 -4l-6 12l-9 2l-4 -2zM475 854l2 6l-4 6l-4 2l-2 -2 l-2 -4v-4l2 -6l6 -2zM430 813v-6l4 -6h4l2 4v8l-4 4h-4zM498 799h-11l-2 -2v-2l4 -4l5 2h2l2 2v4zM420 754l-10 -4l12 -9l8 2v7zM424 719l2 -12l10 -2l2 10v6l-4 4zM426 698l-6 2l-6 -6l4 -2l4 -4l2 2l4 2zM383 670l-8 -6l2 -11l8 -4l12 2l9 8l-3 5l-2 6l-8 4zM322 639l8 -4 l4 2l2 2l-10 10h-13l2 -4zM408 637v-6l2 -2l4 2l4 4v4l-2 4l-6 -2zM238 612l4 9l-2 2l-2 4h-11v-13l2 -4l4 -2zM422 592v-4l6 -2l12 8l-4 4l-4 2h-8zM336 567l14 4l12 2l9 2v13l-4 6h-7l-4 -4l-12 -10l-6 -5l-4 -4zM379 571l-8 -10l-19 -37v-6l4 -4l9 2l4 6l12 13l8 6l6 6 l6 -2l9 6l6 4l18 4l8 -8h11l-2 10l-2 8v9l-7 6l-4 -2v-7l-8 -4h-12l-2 -2l-4 2h-4l-9 9l-14 -2zM268 551l2 2l-2 4l-8 2h-4l-4 -2v-4l-2 -2l6 -6v-4l2 -2h4l2 2v8zM424 500l10 8l-2 6l-2 4l-10 2h-17l-8 4l-6 4l2 -12l4 -12l25 -6l2 2h2zM379 494l-4 4l-2 4l-11 4l-6 -4 l-4 -6l4 -9l9 -2l6 2zM416 475l10 10l-2 7h-8l-13 -7l-12 -8l4 -8l4 4zM240 473v4l-4 2h-5l-2 -4v-6l2 -2l5 2zM358 444l13 -8l6 -12h12l2 14l-8 25l-4 10l-21 -2l-8 -6l-10 -6h10l2 -2l2 -6zM422 459l12 -8v14l-10 6l-4 -2l-2 -2zM180 442l2 -6l6 -2l9 2h4l2 6l-4 11l-6 6 l-3 4l-4 2l-2 -4l2 -4l-2 -6v-5zM395 451l4 -11v-18l7 -4l4 -4h8v10l-6 8l-2 4l2 15l-9 6zM432 430l-2 2l-2 6l-4 -4l-2 -4l2 -2l2 -4l4 2zM455 420l-4 4l-2 4l-5 -8l2 -8l5 -2l4 2v8zM379 346l-2 4v6l12 15l14 4l9 8l2 -4l4 -14l2 -5l22 -8v31l-4 12l-12 4l-10 -4l-4 -12 l-15 14l-6 4h-10l-8 5l-4 -11l4 -12l-11 -10l3 -2v-11l2 -12l2 -10l-4 -4v-10l2 -2h4l2 2l4 2l-2 8v2l2 4zM158 391l-6 -6l6 -6l6 -2l8 2l4 8l-4 4l-6 4zM207 326l-2 2v2l2 10l-6 6l-6 -6l2 -10v-2l-2 -4l-7 -9l2 -10h7l8 8zM406 324h18l-12 12l-17 2l-4 -6l-2 -4zM440 299 h4l9 2l10 2l2 4l-6 6l-2 4l-2 2h-21l4 -2l2 -2v-16zM141 260l9 -8l22 2l4 14l-10 2h-21zM471 258l-8 4h-4l-2 -4l2 -4l4 -4l8 -4v12zM537 236l4 -3h2l4 7l-2 6h-4l-6 -6zM160 199h8l4 8l2 12l-10 8l4 -16l-8 -6v-6zM475 201v6l-12 10l-6 4l-6 -4l-2 -10l10 -6l8 -8l6 2z M532 168v4l-10 4l-10 -4l8 -8l10 2zM498 133l2 6l-6 13l-5 2l-4 -4v-15l9 -8zM176 115l2 6h-2l-4 2l-2 -2h-2v-4l2 -2l4 -2zM553 104l4 5l-2 2l-2 4l-2 2h-6l-2 -4l6 -7zM571 78v4l-2 2h-2l-4 -2l-4 -6v-6h6l4 2zM637 59v11l-6 -2l-2 -5l2 -4l4 -2z" />
<glyph unicode="c" horiz-adv-x="1376" d="M188 915l-20 -4l-43 -4l-23 -8l17 -18l16 -37l6 -37l-2 -19l-10 -36l-6 -21l-4 -18l-6 -19l-11 -41l4 -14l-2 -23l-2 -18v-16l13 -41l12 -15l10 -16l8 -18l13 -19l4 -12l10 -21l29 -26l14 -19l16 -8l17 -14l28 -29l17 -12l12 -13l19 -14l36 -20l19 -13l18 -6l21 -6 l20 -12l15 -10l20 -5l23 -10l34 -8h23l18 -6l23 2l18 -6h37l21 -4h39l18 6l23 -2l16 4l22 4h17l20 2h21l37 12l20 9l19 10l18 8l16 6l15 8l18 8l21 13l18 6l33 18l16 13l17 18l14 8l18 13l19 18l12 10l21 13l22 34l17 13l6 20l16 19l14 36l2 25l9 16l4 47l6 19l-10 33 l-35 22h-41l-17 -10l-22 -8l-16 -8l-21 -5l-16 -8l-19 -6l-53 -31l-20 -12l-37 -16l-17 -11l-18 -14l-21 -8l-39 -12l-20 -11l-14 -4l-19 -6l-18 -8l-21 -6l-18 -4l-23 -6l-37 -2l-18 4l-22 2h-37l-23 2l-18 6l-37 8l-23 8l-18 13l-21 8l-20 4l-16 10l-35 25l-13 12l-14 18 l-12 15l-13 10l-18 16l-14 15l-15 10l-24 35l-15 12l-8 18l-14 17l-10 16l-13 13l-14 38l-2 50l-4 30zM180 764l2 -12l-4 -4l-4 2l-6 12l4 12zM1184 649l4 -2v-4l-4 -4h-6l-2 2l-2 4l6 2zM195 604l8 -8l10 -16l-6 -17l-10 2l-7 13l-10 10l6 12zM1204 578l2 -5l-6 -4l-6 2 l-4 2v7l4 2l6 -2zM1171 541h-6v4l4 8h7v-8zM268 543l15 -2v-4l-2 -7l-13 -2l-12 9zM1126 510l2 -6l2 -4l-2 -6l-2 -5l-2 5l-4 4v10l2 2h4zM229 506h9l8 -14l-4 -17l-15 10l-2 15zM1051 492l-2 2v2l4 4h6l2 -4v-4l-4 -3zM1159 471l-6 2v6l10 10h13l-2 -8l-3 -6zM1108 416 l-4 -2l-6 6v4l2 4l4 6l2 6v2l14 2l2 -6l-6 -10l-2 -10zM334 430l6 -4v-6l-4 -6l-6 -4l-6 2v8l4 6zM1057 424l2 2h4l6 2l-4 -10v-2l-8 -4h-2l-2 4zM995 383l-2 12l-2 11l2 2l6 4l9 8l6 -4v-10l2 -11l-8 -2h-9l-2 -6zM416 401h8v-6l-2 -6l-4 -4l-4 4l-2 6zM367 381l6 4l6 2 l-4 -14l-8 -6l-5 8zM928 348h-2l-6 8l2 6v7l10 6h2l12 4h2l13 4v-12l-3 -13l-8 -6l-8 -4l-2 -2h-8zM893 371l-4 2l2 4l2 2l4 2h6l2 -2v-4l-8 -4h-4zM530 375v-6l-4 -2h-2l-2 2v6l2 4h2zM995 338l-6 2l-4 16l8 17l6 -17v-18h-4zM467 358l4 -4l-2 -6l-4 -2h-2l-8 2l-2 4l2 2 l6 4h6zM807 279l8 -5l4 -8l-4 -4h-10l-10 4l-13 2l-28 15l-4 4l-5 12l3 4l2 2l2 4v4l2 4l-2 2v13l-4 2l-5 4h-4l-2 4l4 6l4 2h3l10 4h2l2 2l4 2l2 -12l-4 -4l-2 -4l2 -10l4 -9l12 -12v-4l-2 -4l4 -2l4 -4l7 -4l8 -6l4 -4h2zM887 348l-4 2l6 6l4 -2l2 -2l-2 -4h-6zM854 336 l-2 2l-2 4l2 4l2 6h8l6 2l-4 -12zM907 346l2 -4v-4l-4 -6l-2 -6l-12 -4h-6l-8 -5l-9 7l4 8h11l4 2h2l2 2l6 8h4zM823 334v-15l-2 -12l-2 -2l-16 -8h-4l2 8l4 6l-2 17l-2 6v6l4 2l6 2l6 -4zM956 326l2 -2l7 -2l8 -5l6 2l6 5l6 -2h6l9 4l6 -4v-5l-2 -4l-9 -2l-6 4l-12 -6 l-10 -4l-2 -2h-6l-7 -2l-6 2l-4 2l-12 -4h-6l-6 2l4 8l-4 11l4 8l4 6l4 4l2 4l10 -4zM852 317l4 -4l-8 -6l-4 4l-13 19l-2 8l7 2l6 -4l4 -4zM735 328v-6l-2 -3h-2l-8 3l-2 6l2 6l2 4zM608 324l4 -2h6l-2 -11l-6 -2h-6l-6 8l2 7h8zM516 322l4 -3v-4l-4 -4l-8 -2l-2 2l-2 4 l6 7h6zM905 303l-6 -4l-4 -4l-4 -6l-2 -8h-2l-10 -11v-4l2 -6l-5 2l-14 14l-4 11l-6 10h4v-2l6 4l4 2h2l11 6l2 2l4 2l6 4h6l8 -2zM575 313h5l2 -10l-7 -12l-4 6l-2 6l4 8zM631 313l4 -4l-2 -4l-4 -4l-2 2l-2 4v4zM694 307l2 -4l-4 -4l-4 2h-6l-2 6l4 4h2zM432 299l12 -6 l5 -14l-13 4l-10 8l2 6zM670 291l6 -2l2 -13l-2 -8l-6 -2l-4 -2l-9 6l-4 11l4 10l9 4zM836 291l10 -10v-11l-4 -2l-4 -4l-13 8l2 13l4 4zM758 264l4 -12l6 -14l-4 -5l-21 21l-4 2l-2 2v6l4 4l7 2h6z" />
<glyph unicode="d" horiz-adv-x="1693" d="M1587 569l4 -20l-2 -41l-4 -19l-6 -22l-4 -16l-10 -19l-17 -35l-16 -10l-31 -31l-16 -14l-19 -16l-10 -11l-35 -26l-18 -10l-21 -9l-20 -6l-14 -8l-21 -12l-20 -6l-39 -17l-19 -4l-22 -4l-19 -6l-22 -6l-21 -2l-18 -4l-19 -7h-18l-41 -6l-20 -2l-19 2h-20l-23 2l-20 -2 l-17 2l-22 -4l-37 2l-21 4l-22 -2l-17 -2l-38 6l-23 9l-25 2l-18 6l-20 2l-23 8l-16 2l-21 6l-22 6l-25 4l-37 15l-16 18l-15 10l-16 15l-20 14l-17 12l-14 13l-19 10l-18 18l-16 9l-19 30l-2 37l2 37v25l-12 32l-8 17l-31 33l-14 14l-19 12l-16 14l-14 15l-31 22l-31 33 l-18 12l-15 13l-16 14l-18 18l-27 33l-8 17l-11 22l-2 41l21 33l22 -12l-2 -19l-14 -22l6 -35l6 -12l23 -33l18 -10l11 -17l16 -8l18 -16l17 -11l16 -14l14 -14l31 -23l14 -16l19 -13l47 -38l16 -13l15 -10l41 -18l39 4l34 -4l19 -15l31 -22l14 -15l24 -14l27 -12l23 -13 l20 -8l17 -10l20 -8l23 -4l36 -21l19 -8l78 -22l24 -3h19l20 -2l21 -4l18 -2l39 -6h41l20 2h62l35 4l24 2l15 2l18 7h23l18 8l16 4h25l35 16l57 29l16 10l21 10l18 9l27 26l10 21l10 16l13 12l8 39l2 19l-4 16l-10 35l2 8l30 -8l9 -14l20 -29zM428 502l2 6l-2 2h-4l-4 -2 l-2 -4l2 -4l4 -2zM467 459l4 -4l6 2l4 4l2 6l-4 2l-6 -2l-4 -4zM485 422l2 4l-2 2v4l-4 2h-2l-4 -4l2 -4l2 -2v-2h6zM539 399l4 4l-2 5v6l-9 6l-4 -12l2 -7l5 -4zM512 369l6 2l4 2l-10 6l-4 -2h-6v-8h10zM567 358l8 -2h15l2 6l-4 11h-4l-6 -2l-5 2h-4v2l-6 -4zM733 252l6 4 l4 4l-2 12l-8 9l10 4l15 8l2 10l4 2l2 4l-4 4l-8 4h-6l-5 11l-12 4l-10 2l-10 4l-2 6l-2 2l-5 2l-2 -2l-2 -4v-6l7 -2l8 -8l6 -2h6l2 -9l4 -8l-2 -16l4 -10l-12 2h-12l-17 -17l6 -4l7 -2h2l14 -6zM610 322v4l-10 4h-10l2 -2l2 -4l4 -5h8zM809 285h6l10 2l4 -4l-2 24l-8 21 l-2 -6v-5l-6 -4l-8 -2l-10 -10l-13 -2l-2 -10l10 -8l9 2h6zM918 326l-5 -4l5 -13l4 -14l2 -6h6l8 4l2 6l-10 10l-4 6zM676 297l16 4l8 14l-4 4l-2 5l-6 -7l-4 -6zM1303 301l4 10l-2 11l-5 2h-2l-2 -11zM838 299l2 -6l4 -8l8 4l6 10l-2 6l-6 6l-8 -4zM930 211l4 6l-2 4l-6 2 l-6 6v13l-2 2l4 4l-2 4l8 6v2l-2 14l-6 7l-5 2l-18 12l-2 2l-16 8l-2 2h-7l-4 -4v-8l6 -4l13 -12l10 -15v-4l-2 -2l10 -14l4 -19l-8 -6v-12l21 4h10zM532 295v6l-4 4h-6l-2 -2v-6h2l4 -4h4zM659 283l7 8l-9 -4l-12 12l-8 -8l-8 -6v-6l12 -3l10 -2zM1016 270l2 11l-6 8l-8 6 l-9 -4l-2 -8l4 -13l11 -4zM1151 279h4l6 2l2 6l-2 4h-4l-6 -4l-2 -6zM1100 266v10l-8 11l-2 -15l4 -8h4zM1223 279v4l-2 2l-9 -2l-4 -7l2 -6h4l7 2zM788 266l5 -4l4 -2l8 6l-4 8h-13l-4 2h-6l-6 3l-10 -7l-2 -4v-4l10 -4l4 2l6 2h4zM836 240l2 8l-4 14l-7 12l-8 -2l2 -6v-16 l8 -12zM868 258l11 12l-15 -2l-8 -2h-4l-8 -22v-2l2 -4l8 -11l12 4v11zM1049 254v6l-2 2l-5 2l-2 -4l-2 -6h2l4 -2zM1077 250v4l-8 8l-12 -4l2 -12l10 2zM989 248l4 4l-2 6h-10l-4 -2l2 -4l6 -4h4zM774 246l6 2l-6 6h-4l-2 -2v-2l4 -4h2zM815 244v4l-2 2h-6l-6 -2l-8 -10 l14 -2zM950 225l2 4l-2 9l-8 2h-4l-2 -7l4 -6l6 -6zM754 229l10 2l-8 7h-11l-2 -2l2 -5l5 -2h4zM1174 223v6l-5 4h-4l-2 -2l-2 -4l4 -2l6 -2h3z" />
<glyph unicode="e" horiz-adv-x="1118" d="M1001 887l15 -25l-6 -31l-33 -26l-41 -6h-45l-39 -19l-18 -12l-13 -14l-30 -29l-13 -10l-14 -15l-14 -18l-13 -12l-24 -33l-13 -19l-6 -16l-10 -16l-12 -17l-27 -53l-4 -16l-6 -21l-10 -47l-4 -16l-7 -47l-2 -39l4 -19l-4 -20l6 -25l-8 -39l-6 -16l-4 -23l-8 -18l-12 -33 l-13 -18l-12 -10l-12 -17l-29 -26l-16 -13l-13 -6l-20 -12l-31 -15l-22 -6l-19 -8l-41 -6l-22 4l-19 -4l-20 4l-39 8l-19 4l-20 9l-33 24l-12 17l-18 12l-19 35l-14 41l-6 16l-7 39v20l-2 19l2 20v19l7 37l2 16l4 22l6 19l8 18l14 39l13 17l10 16l20 31l11 20l26 29l17 12 l14 15l14 8l19 12l14 12l35 23l18 8l21 6l14 8l23 11l16 8l14 4l19 6l39 18l22 3l19 10l20 2l23 6l16 10l25 4l35 19l30 30l15 17l57 53l14 12l10 15l15 16l14 33l8 37l13 39l32 16h17l31 -16l26 -41l14 -33zM729 764l6 -4l-4 12l-8 4h-4l-2 -2l2 -4l4 -4zM674 690v6l-2 4 h-4l-6 -4l-3 -6l3 -6h6zM604 670l6 4l-2 8l-2 2h-4l-4 -6v-8l2 -2zM553 633l2 4l-4 8l-12 6l4 -14l8 -6zM643 621l2 2l-2 4l-6 4l-6 -2v-6l6 -2h6zM465 594l6 8l-4 10l-8 6l-10 3l-9 -9l2 -8l11 -10h12zM539 608v6l-13 4l-10 -10l6 -10l10 6zM506 596l4 6l-2 6h-4l-4 2v-12 h2zM344 598l-2 -4l25 -21l4 -4l8 4l4 5v2l2 4l-4 6h-6l-15 4zM457 569v6l-4 3l-4 -3l-7 -2l-2 -4l4 -2h7zM422 504l2 8l-4 2l-6 -2l-11 4l-4 8l-2 2h-2v6l-2 3v12l-10 10l-10 2h-23l-4 -2l-14 -2l-10 -2h-5l-6 -4l-2 -6l8 -6h19l6 -2h2l18 -5l3 -6l10 -4l8 -2l14 -14l-2 -10 l6 -11l11 13l4 2zM432 522v10l-6 7l-8 -2l-4 -5l2 -6zM289 530l-2 -4l4 -10l6 -2l8 -2l4 10l-2 10l-16 5zM358 479l4 4l-8 11l-8 14l-2 8v8l-10 -10l-6 -8l-2 -2l6 -12l4 -13l4 -4h8l6 -2zM250 520l8 -10l-2 -2l-2 -6l-2 -8v-17l-6 -12l8 -8l14 6v2l4 4l7 12l4 6l6 11l-4 8 l-11 8l-12 2zM330 465l4 6l-4 6l-8 4l-7 4l-8 2l-6 5l-2 -7l-2 -4l6 -2l12 -12h9zM276 444l5 5v2l10 4v12h-10l-5 -6l-16 -17v-12l4 -4l4 -2l8 6v12zM317 446v7l-4 8h-4l-2 -6l-2 -2v-11l2 -6zM248 367l6 10l4 4l4 6l4 4l2 6l-2 6l-4 7l-4 2l-6 2l-6 -4l-6 -2v20l-2 10l-7 6 l-2 7v4l-6 -2l-6 -4l-4 -7l-2 -4l-2 -2h-6l-8 -2l-17 -24l-2 -7l-4 -6l-4 -2h-4l-4 -8v-6l4 -2l6 2l4 8l6 4l4 2l2 2l7 15h10l10 2l14 -8l13 2l-7 -13l-2 -8l-2 -2l9 -12l6 -6l2 -5zM283 432l-2 -6h4l6 2l2 6h-6zM297 401l2 11l-8 -2l-4 -9l2 -4h4zM211 350l-2 10v9l-8 6 l-6 4l-7 -2l-4 -4l6 -6l5 -7l8 -6zM211 317l8 -6l10 -8l7 2v10l2 11l-11 8l-10 6l2 -4l2 -6l-6 -6l-2 -5zM203 258l2 4l-4 12l-4 2l-4 -2l2 -12l4 -8zM184 199v2l2 4l2 6l-2 2l-2 6l-6 12l-4 5l-6 -3l-4 -6l-2 -6l4 -6l4 -2v-2l6 -12h8zM270 225v4l-2 2h-4l-6 -4l2 -4l2 -2 l6 2zM242 160v4l-4 2l-7 2h-12l4 -6l4 -4h13zM203 133v2l-2 4l-2 8l-6 3l-5 -5v-8l-2 -6l7 -6l4 -6l4 8zM262 94l4 4l-8 8h-6v-8l6 -4h4zM285 59l2 7l-2 6l-4 2l-5 -4l-4 -7l2 -8h7zM356 61l2 2l-2 7v4l-4 -2h-4v-6l4 -5h4z" />
<glyph unicode="f" horiz-adv-x="1857" d="M547 705v12l26 28l29 25l6 18l-24 9l-29 6h-20l-29 -6l-25 -4l-28 -7l-21 -6l-22 -10l-21 -6l-29 -12l-24 -17l-21 -10l-18 -8l-16 -10l-19 -13l-16 -12l-21 -8l-14 -10l-27 -17l-20 -20l-8 -19l-11 -16l-16 -12l-18 -43l-11 -29l2 -23l-2 -28l9 -27l8 -20l2 -19l14 -29 l21 -24l16 -12l14 -17l25 -16l43 -14l20 -11l21 -4h18l19 -6l22 -4h17l16 -6l31 -10l33 2l51 -4h28l21 4l20 -2h21l18 -2l23 2l59 -2l43 -5h21l20 -2l21 4l30 3l19 -5l33 -2h18l41 2l20 -2l21 2l33 -4l30 4l29 -2l29 2h63l21 -2l20 2h82l19 -2h40l23 2l20 -2h44l22 2h92 l33 5l22 2l19 6l29 8l30 14l19 13l18 14l21 22l12 25l6 25l2 28v25l-4 20l-4 23l-4 16l-10 31l-17 24l-14 19l-12 14l-19 21l-18 26l-23 23l-22 16l-17 15l-16 8l-21 12l-22 16l-25 19l-20 12l-21 8l-12 11l-20 8l-25 14l-27 10l-24 4l-33 9h-20l-21 4l-31 -4l-28 -11 l-23 -18l-18 -12l-19 -8l-18 -11l-17 -12l-16 -10l-31 -6v12l15 12l18 15l31 20l6 23l-14 18l-21 14l-22 13l-33 6l-31 -4l-45 -15l-24 -18l-11 -10l-24 -21l-15 -12l-16 -8l-18 -13l-19 -10l-16 -14l-27 -8l6 12l13 12l16 15l16 10l15 12l10 21l-12 18l-23 16l-29 9l-20 -3 h-31l-26 -2l-23 -2l-29 -12l-20 -18l-23 -25l-16 -12l-16 -8l-15 -13l-16 -12l-16 -10zM1380 664l2 2l4 2h5v-2l2 -2l-2 -2l-7 -3zM1466 633l-4 8l2 6l4 -2l2 -2l3 -4v-4l8 -4h4l4 -2l-6 -2l-8 -2zM1522 600l-9 -4l-4 6l-4 4l4 10l7 11h12l4 -6l2 -7l-6 -4zM1546 600l-2 4 l6 10l9 4l6 3l-4 -9l-2 -8l-7 -4h-6zM1530 532l-6 -2l-4 5l-2 6v4l-2 2l2 4l2 6l2 2h4l6 -6l-2 -4l-2 -2v-6l2 -4l2 -2zM1649 545l-4 8l4 4h10l6 -6v-2l2 -4l-6 -4h-4zM1335 522l-4 6l4 4h6l7 3l4 4l6 -4l-6 -7l-2 -4v-4l-7 -2zM1436 530l-2 2v3l2 2l4 2l2 -2l4 -2l2 -5 l-4 -4l-4 2l-2 2h-2zM1450 483l-4 2l2 4l20 11l5 -2h2v-4l2 -5l2 -2l-4 -6l-5 -4l-4 2l-2 2l-4 2h-10zM1546 473l-4 -2h-6l-6 2l-4 2v4l2 4v2l6 7l6 2l8 -5v-2l2 -4l-2 -4v-6h-2zM1642 494l3 -2v-11l-3 -4v-4h-4l-4 2l-2 2v8l2 4l2 3zM1665 479l4 2h4l6 -2v-2l4 -2v-6l-2 -2 h-6l-4 2l-2 2l-4 2v6zM1323 453l-4 4l-2 6l8 4l4 -4v-2l-2 -4v-6zM924 428l-6 4l-9 14l17 3l12 -13v-6l-6 -4zM805 436l4 -2v-14l-4 -2h-2l-6 4v14l6 2zM1253 424l-4 4l11 6l6 -2h6l-8 -8h-11zM1030 414l-2 -11l-10 -2l-19 -2l-12 11l6 8h13l14 6zM858 410l-6 -7l-12 5v6 l8 4l6 -2zM1493 375l-6 -4h-4l-4 -2h-2l-7 2v4l-6 12l-2 8l-8 17l8 4l8 -6l9 -9l4 -6l4 -4v-2l6 -6v-8zM1186 395l-4 2l-2 9l2 4l6 2l2 -2l4 -2l4 -9l29 -6l14 -6l6 -14h6l9 -2l4 -4l6 -5l-8 -8l-4 -12l-3 -2l-6 -4l-10 -4l-12 -4l-6 12l2 18l-8 23l-15 2l-12 12h-4z M1669 397l-12 13h8l6 -2l10 -7v-8zM391 399l12 -4v-6l-4 -2h-12l-8 10zM1292 334l-4 2l-2 2l2 14l8 2h4l9 8l4 9h2l4 4l4 2l2 2v14l2 -4l6 -8l6 -12l4 -15v-10l-6 -4l-6 -2l-8 -2l-6 -2h-2l-12 -4h-3l-2 2zM922 389l14 2l-6 -12l-12 -6l-3 2l-2 6zM727 387l8 -2l2 -8l-6 -6 l-4 4l-4 6v4zM1481 283l2 -4l-2 -5l-4 -4h-9l-8 -4l-10 -4v14l2 7l4 4l-2 12l-4 10l-6 8l-8 9v10l-9 6l-8 8l-10 6l-8 6l-10 5l-5 10l5 6h8l18 -4l19 -6l4 -2l10 -4l6 -2l4 -5l6 -2l9 -8l4 -16l-4 -6l-7 -6v-7l-2 -4l2 -2v-14l2 -6l5 -4zM1184 369l-8 -19l-21 -6l8 21l13 16 l4 -4zM1356 362v11l10 6l6 -4l6 -6l-2 -15l-10 -8l-6 8zM1587 365v-13l-8 -8h-2l-4 2l-6 2h-2l-2 8l-4 9l2 4v4l4 4l6 2l8 -4l4 -4zM664 362l-11 -8l-16 -2l8 13l12 8l5 -4zM1067 367l-4 -5l-12 -2l-11 11l13 2l12 -2zM1657 369h14l4 -9l-8 -8l-8 -4l-6 -4l-6 10l2 2l2 6z M854 354l4 -4l4 -6l-2 -4l-4 -2l-8 4v8l2 2zM1624 342v12h6l4 -2l2 -6l-2 -4l-4 -2zM553 344l20 2l11 -12l-4 -8l-15 -2l-14 -5l-10 11l2 10zM1126 313l-28 2l-2 9l18 20l16 -12l13 4zM1413 340l-8 -21l2 -20l2 -6l2 -8l-12 -6h-4l-13 10l-2 2l-2 4l2 14l2 17zM1559 319h-7 l-8 3l-2 6l4 4h6l7 -2l4 -4l-2 -4zM1235 322l6 -7v-14l-6 -6l-6 -4l-15 2l-36 12l20 25l29 -2zM1360 313l4 -8l6 -6v-10l-8 -4l-6 6l-8 6l-5 18l-4 9l11 6l2 -2l2 -6zM1264 309l2 6l8 4l4 5h10l6 -2h4l5 -3l6 3h6l8 -9l-4 -6l-6 -4l-6 2l-4 2l-3 2l-4 -2h-6l-6 -4l-6 -2h-2 l-12 4v4zM657 309l2 -8l5 -8h-17l-10 12v6l4 6zM774 317l6 -4v-8l-2 -6l-6 -4l-6 6v8l2 6zM985 305l-4 -2l-2 -2l-6 2l-4 8l2 2l6 2l6 -2zM1501 305l4 -2l4 -8l-8 -12l-14 14l2 8h12zM1339 285l-4 -4l-4 -7h-22l14 15l6 2l6 4l4 -4v-6zM934 287l12 6l15 -8l-13 -6h-14l-2 4z M1286 291l6 -6l-8 -2h-4l-4 4l-2 4l4 2h4zM1266 268l4 -4h2l-2 -2l-13 -2l-12 4l-2 4l2 2l15 2z" />
<glyph unicode="g" horiz-adv-x="1175" d="M1073 313v-20l-4 -19l2 -22l-2 -23v-34l4 -23l-2 -20v-17l-2 -22v-9l-4 -10l-8 -6l-17 2l-20 4l-37 8l-16 7l-19 2h-10l-31 6l-16 4l-4 8l-6 18l-4 21l-9 6l-4 10l-14 11l-21 2l-8 2l-10 -2l-14 -2l-17 -13l-6 -14l-14 -12l-10 -9l-17 -2l-18 7l-23 2l-20 4l-19 6l-43 4 l-16 4l-21 4h-20l-23 8l-38 4l-37 9l-43 4l-21 6l-20 2l-17 4l-22 8l-25 2l-18 2l-21 6h-16l-19 5l-40 8l-46 6l-18 4l-12 4l-8 12l-3 11l3 20l-3 16l3 19l14 8l10 -4l19 6l12 12l12 17l6 18v13l-6 22l-14 12l-15 9l-18 10l-20 12l-7 18l2 19l2 20v21l-2 20l-2 11v10l2 12 v29l2 22l-2 21l-2 22l2 21l2 24l7 17l14 10l20 4l25 4l18 6l13 6l10 3l16 8l17 2l22 6l21 6l20 4l19 6l20 8l21 5h6l10 4l16 2l11 6l16 2l37 8l20 8l23 4l20 9l17 2l18 8h10l9 4l20 4l6 4l23 4l16 -2l10 -6l7 -4l6 -6l16 -10l6 -5l19 -10l16 -10l18 -12l15 -15l14 -8l23 -14 l14 -10l18 -13l13 -12l18 -10l4 -19l-12 -12l-12 -14l4 -13l-2 -10l12 -12l18 -6l21 -4l8 -2h21l20 2l16 4h13l6 -4l31 -9l8 -6l37 -28l6 -4l8 -13v-12l4 -16l-2 -19l-10 -10l-17 -6l-18 -8l-14 -15l-9 -16l-4 -19l2 -12l-4 -8l4 -21l9 -16l18 -10l14 -8l19 -9l10 -10v-39z M453 782l2 4l-4 5h-2l-3 2l-2 -2v-5l2 -4h7zM236 784v-2l4 -6l6 2l2 2l2 4l-6 4l-6 -2zM618 647l41 12l15 13l14 20l-10 25l-21 28l-32 17l-29 6h-21l-26 -2l-33 -8l-22 -17l-11 -20l-2 -27l11 -18l8 -6h10l27 -13l41 -8l22 -2h18zM299 750l-2 -11l10 4l4 9l-2 4l-4 2z M367 741l4 2l2 2l-2 5h-9l-4 -5l4 -4h5zM408 735v6l-2 4l-5 3l-4 -3v-4l2 -6l4 -2zM203 711v-4h4l8 4l6 6h-6l-6 2l-2 -4zM332 705l-10 10h-11l-2 -4l2 -6l8 -5zM264 711l-6 2l-12 -8l-2 -3l-2 -4l2 -6h6l4 -2l2 4l4 4l8 4v7zM156 668l10 -6l-4 8l2 8l4 6l-2 4l-4 6l-2 4v2 l-2 5h-4l-2 -3l-2 -4l-5 -10v-14l5 -2zM176 623l-12 2l2 -9v-18l2 -6l4 -2l6 -4l10 4l2 6l5 4l4 -8l8 -6l4 -6l10 -2l8 -5l4 11v12l9 8v12l-2 7v4l-2 10l-2 2v2l-3 4v2l-4 6l2 4l2 2l-6 -2h-4v-14l2 -6l4 -10l-2 -2l-4 -7l-2 -4l-4 -4l-14 -2l-8 -8l-2 4l-3 8v4l-4 5l-4 2 h-6zM195 655h-17l6 -6l6 -4h9l8 2v2l2 2l-6 2zM154 561l4 8l-2 11h-6v-9l2 -4zM201 539l-2 6v2l2 2v12l-8 10h-9l-2 -10l6 -8v-4l2 -4l-2 -6l-2 -2l4 -7l5 -2l6 7v4zM178 557l-2 2l-2 4l-2 -2l-2 -4v-2l2 -6l4 4zM238 520l8 4l6 4h-8l-2 4l-4 7h-2l-5 4l-6 4l-2 4l-2 6h-10 l-2 -6l-2 -4l2 -8l2 -7v-4l4 -6l2 -6h8zM621 537v12l-5 4h-4l-4 -12l2 -15zM733 537v2l-2 4h-2l-2 2l-2 -4l-2 -2l-2 -4l-2 -3v-4l2 -2h4l6 4v5zM174 514h4l2 4l-4 8l-6 6l-6 5v-15l6 -6zM180 485h8v2l9 13h2l4 4l4 6l-2 2l-2 4l-2 -2l-4 -2l-7 -2l-8 -4v-2l-4 -4l-2 -6v-2 l2 -5zM244 516l-8 -2h-5l-2 -2l-4 -2l-4 -8h6l6 2l5 2l2 4l4 4v2zM801 516l-4 -6l2 -2v-4l4 -2h4l4 12zM270 442l9 13l-3 2v6l-14 29l-4 6l-8 10l-4 2l-4 -4l-2 -4v-2l2 -2v-9l4 -16l2 -10l-6 -4l2 -8v-9l-8 -16l-5 -2h-6l-6 -10h4l6 -2h2l5 -2l4 -4l2 2h4l2 4l-2 4v8l6 8 l2 2v2h4l2 4h8zM651 494l6 4l5 4l-7 4l-8 4l-12 -4l-2 -6l6 -4l6 -2h6zM424 483v2l-2 7l-2 4l-6 2l-4 4v-10l4 -7l2 -2l4 -2h2zM287 465l2 -4l6 -2h6l4 2v14l-2 8v15l-4 2l-4 -6l-2 -9l-4 -6l-4 -12zM211 457l6 6l4 6l8 4l7 4l-13 4l-8 2l-2 2l-8 -4h-4l-8 -4h-5l-2 -2v-18 l4 -2l13 -4l2 -2l4 4zM586 473v8l-2 2h-13l-8 -6l-12 -12l4 -8l12 -2l4 4l4 6l5 2zM268 412v4l-2 2l-4 2l-4 -2v-4l-2 -2v-9l2 3h2l4 2zM801 406l12 -9l-2 9v8l-10 6h-4l-2 -4zM303 397l-2 6h-2l-4 -4l-2 -4l2 -4h2l4 -2v2l2 2v4zM342 387v4l-2 6l-8 4h-4l-4 -4l-7 -4v-10 l2 -4l5 -4h8l4 2l4 4zM315 344l2 2h2l-4 2l-2 2h-2l-2 2l-4 -4l2 -4l6 -4zM309 319v13l-12 -2v-2l-2 -13l-2 -10l6 2l4 4zM338 309l2 6l-6 -4l-8 -4l-2 -4l-5 -4h11l6 6zM393 289v4l-2 2l-8 -2l-4 -4v-4l4 -2h6zM729 240v18l-2 14l-14 11l-8 2h-31l-15 -17l-2 -10v-18l2 -11 l15 -12l12 -4h19l10 4l8 10zM535 270v11l-5 2h-2l-4 -9l2 -12zM446 260l3 4l-5 2h-6l-4 -2l-2 -2v-4l4 -4l6 2zM381 227v9l-4 2l-2 2l-4 -4l2 -5l4 -4h4z" />
<glyph unicode="h" horiz-adv-x="1259" d="M1151 463l6 14l-4 31l-31 31l-16 10l-16 14l-17 10l-14 17l-21 8l-14 14l-18 11l-21 14l-16 10l-13 12l-20 9l-14 12l-17 10l-22 17l-15 8l-14 10l-20 16l-17 13l-18 12l-15 6l-18 16l-14 9l-21 14l-14 12l-21 13l-16 12l-37 16l-14 2l-17 8l-37 11l-22 2h-21l-24 2h-23 l-39 -8l-20 -11l-18 -10l-19 -6l-16 -14l-17 -6l-22 -11l-15 -10l-20 -12l-18 -8l-19 -13l-20 -8l-15 -12l-18 -6l-23 -13l-24 -26l-27 -39l-6 -23l-14 -14l-6 -41l10 -14l4 -21l12 -14l-4 -37l-6 -16l-12 -17l-9 -41l11 -37l6 -16l6 -37l-8 -37l-17 -49l19 -43l16 -12 l37 -19l62 -10l16 -2l20 -2l41 -6h23l16 -4l45 -6l21 -2l14 -2l41 -4h25l16 -7l23 -4h18l20 -4l19 -2l20 2l23 -8h18l23 -4l22 -2l35 -2l25 -4l16 -4l21 -5h20l21 -2h24l19 -6l20 -2l19 -4l18 -2h20l25 -2l41 -8l14 -2h25l35 8l16 10l19 8l12 29l2 19l-6 20l2 18l-2 23 l-2 18l2 21v22l-2 39v66l4 20l-2 17l2 26zM686 797l-4 -2h-6l-6 4v6l4 4h2l8 -4v-4zM553 803l2 -4v-2l-12 -21l-8 4l-11 2l-4 -2l-4 -4l4 12l2 9l2 4h15zM406 799l2 -2v-4l-7 -2l-4 -5l-12 5l4 4l6 4h11zM436 758l-8 2l-6 10l2 6l4 8l12 4h19l18 3l-2 -5l-2 -8l-6 -14 l-25 -8zM381 764h-4l2 2l4 2l2 2h4l4 -4l-4 -2l-2 -2h-4zM356 754l-2 -2l-4 -2l-4 -7l-4 2l-2 5l4 12l2 2l6 2l8 2l-2 -6zM610 758l-12 -2l-10 2v2l-2 2l4 4l10 2zM496 756l6 4l6 6v-18l-4 -11l-2 -4v-4l-4 2l-6 6l2 8v9zM365 737l2 6h12l2 2l6 3l6 10l13 2l2 -4v-6l-5 -7 l-2 -6l-8 -2l-6 -2h-6l-10 -6l-4 2l-5 4zM502 715l2 -4l2 -2v-4l-2 -5h-6l-4 5l-2 4l-13 -2l-10 -5h-12l-13 9l-4 -2l-6 -2l-12 4l4 10l-2 10l4 8l6 9l4 4l4 2l11 -6l4 -17l14 -14l12 2l6 -2l7 -4zM326 725l-9 6l-2 8l2 2l2 4l9 -4l6 -2h2l10 -16l4 -4l-2 -4l-4 -4l-6 6z M285 731l4 6h8l6 -2h2l4 -4l4 -14l2 -8v-4l-2 -5l-6 -8l-6 -6l-2 -4l-2 8l-2 10l-10 15l-6 10zM643 723l4 -6l-4 -2l-2 -4l-10 2l-6 -2h-4l-5 4l-2 4l2 8l9 2h16zM717 719l-12 -4l-13 4l6 4l4 4h13l2 -2v-6zM391 645l-12 8l-2 2l-2 4l4 9l4 -2l-10 8l-8 6l-9 12l-2 8l8 9 l7 4l4 4l6 4l4 4h18l2 -12l-2 -2l-4 -2l-4 -4l-4 -17l-6 -6l-2 -4h-2l4 -12l4 -2l10 -2l9 -5l6 -4l-2 -4v-2l-2 -4l-2 -2l-7 2zM332 662v-7l-6 -2h-4l-17 -4h-6l-8 -2l-8 -4h-4l-3 -2h-8l-14 4l-2 2l-2 6v4l-4 2v3l-2 4l-2 -2l-2 2l-13 4l-4 -2l-6 -2l-2 -4l-2 -3l-4 -2h-2 l-2 7v4l2 6l2 4l2 2l2 10l4 4v4l4 4v3l4 8l11 -11v-6l-3 -6v-2h5l6 -4l10 -4h20l2 -4l3 -2h4l6 -2h12l6 -2h6l2 -2h9zM350 668l-2 -4l-4 2h-4l-2 2l-4 2l-2 6v8l4 8l8 -4l6 -6v-14zM684 690l10 -10l-2 -6v-8l-12 4l-4 12l4 6h2zM670 684l2 -4l4 -4l-2 -8l-8 -2h-4l-3 6z M760 666l4 -2v-5l-2 -4l-12 2l-11 11h9v6h6l4 -2zM496 655l4 -2v-4l-4 -2l-7 -10l-8 -6l-6 -2l-2 6l-6 6v8l6 4l6 -2h10zM207 631l-2 4v4l12 6l4 4l2 -4l2 -2v-8l-2 -2l-2 -6h-10zM776 641l6 -2v-4l-2 -6l-4 -4h-6l-2 6l4 6zM322 616h-7l-6 2h-16l-2 -2l-6 5l-2 2v2l-2 2v4 l4 4l4 -2h4l6 -4l8 -2l6 -4l6 -2zM856 629v-11l-4 -2h-4l-2 7l2 6h8zM623 621l6 -9v-8l-2 -4l-9 2l-10 -2l-4 4l6 6l4 8zM524 612l4 -2l4 -4l-2 -4l-6 -2l-4 4l-4 2l2 4zM432 588l4 -13l-8 -10l-4 -2h-2l-4 10l4 11v6l-6 6l4 2h4l4 -2l4 -4v-4zM236 573l-5 -2l-4 4v7l4 6 l5 2l4 -4l-2 -6v-7h-2zM279 555l-5 -6l-6 -6h-4l-6 -2l-4 2l-6 4v4l-2 4l2 6l4 4v2l6 2h8l8 -2l2 -6v-4zM221 524h2l8 -8l-4 -4h-2l-6 2v4l-2 2zM416 518v-14l-25 -10l-10 6l2 14h8l15 4h10zM217 485l-6 -4l-4 2v17l2 6l10 -2l2 -8v-7zM414 473l6 -4l8 -6l-2 -6l-4 -4l-4 -2 l-6 -2l-2 2l-4 2l4 4h4l6 2l-2 8l-2 2zM244 459l-4 -2l-7 -4h-10l-4 4v4h4l6 2l9 -2zM1018 430l4 -6l2 -4v-6l-2 -4l-2 -2l-4 2l-2 4v6l2 4zM246 393l2 -4v-8l-4 -2l-4 2l-2 2l-2 4l-3 2v6l5 2zM182 381h-12v2l2 2l6 2zM356 383h4l2 -6l-4 -4l-4 -2l-2 2l-2 6l4 6zM211 334 h4l4 -8v-9l-4 -2h-4l-2 4l-2 3v8zM991 297l2 -4v-10l-2 -7l-2 -2l-4 -2l-6 -2l-2 2l-2 4l2 5v14l2 2l6 2zM276 283l7 -7l-2 -10l-5 -4l-4 -6v16l2 4zM944 258l4 -4v-4l-2 -2h-8l-4 4l-4 6l4 2l2 2zM852 236l2 -3l2 -6v-6h-2l-4 -2l-4 2l-2 6v6l4 5zM967 227v-12l-2 -6l-4 -4 h-5l-2 2h-2l4 12l7 4zM713 217h10l2 -2v-4l-10 -6l-10 6zM795 182h6l2 -8l-4 -4l-4 4l-4 2v4z" />
<glyph unicode="i" horiz-adv-x="1689" d="M1581 1430l6 -19l-2 -39l-22 -49l-15 -16l6 -11l-8 -30l-6 -21l-12 -14l-19 -39l-34 -16l-52 -37v-11l19 -12l-19 -45l-26 -41l-23 -12l-24 -6l-19 -43l2 -31l-2 -18l-8 -31l2 -25l-6 -18l2 -29l-10 -24l4 -27l-15 -41l-18 -41l-20 -6l-23 -21l-20 -12l-15 -14l-41 -35 l-8 -14l-20 -21l-19 -49l-16 -25l-41 -34l-27 -35l-2 -21l-6 -18l-8 -43l2 -23l-4 -18l-4 -23l-2 -49l2 -24l-4 -62l2 -24l-2 -19l14 -49l-4 -25l-17 -4l-28 19l-13 35l3 24l-3 33v16l-6 74l-6 49l-4 25l-8 20l4 27l-4 22l-6 29l-6 25l-11 37l-47 6l-24 -4l-21 -2l-53 4h-23 l-30 12l-27 2l-49 12l-19 -4l-26 -2l-49 25l-31 2l-37 -8l-12 -23l-17 -12l-10 -23l-12 -20l-14 -23l-15 -18l-6 -21l-29 -49l-2 -49l13 -55l14 -19l8 -30l17 -21l6 -20l14 -19l6 -31l19 -41l-4 -18h-19l-31 18l-30 50l-11 20l-20 45l-10 27l-8 14l-13 23l-8 18l-16 33 l-4 14l-15 19l-10 36l20 43l11 29l-2 -2l-21 -6l-24 -23l-31 -26l-27 -41l-14 -25l-14 -32l2 -29l-2 -21l4 -20l-2 -23l2 -30l8 -17l-8 -45l12 -20l-16 -31l-31 18l-2 19l-6 26v29l-4 23l2 28l-2 29l-2 23l-5 22l2 33l3 24l-7 45l9 31l18 35l27 41l20 8l29 47l14 21l4 57 l-18 45l-4 27l-21 16l-6 8l-14 25l-10 27l2 45l20 43l41 22l16 10l23 17l20 6l43 20l21 11l74 14l47 2l20 -2l29 -12l67 -4h21l31 -2h18l25 4l53 -2l22 2l31 -7l49 9l23 10l55 8h82l21 -10h24l49 14l23 6l20 9l23 26l14 21l10 12v39l-20 22l-17 -4l-24 25l-16 24l-5 52 l-12 28l-35 29l-37 29l-10 26l-18 33l-15 21l-8 30l-14 39l8 27l21 18l2 -24v-37h4l14 30l8 9l8 20l3 -16l-5 -53l13 -39l22 -19l13 -2l6 23l-6 34l-7 23l7 27l8 4l10 -21l4 -35l12 -8l13 21l2 24l12 21l10 24v-26l-12 -41v-49l-2 -27l8 -47l10 -25l25 -43l37 -22l12 16 l-4 27v43l2 49l8 18l4 23l11 -29v-18l-3 -25l3 -49l4 -22l2 -29l2 -25l10 -6l10 -14h8l13 -4l10 16h16l17 29l2 18l12 21l4 22l6 53l4 17l9 35l8 -35l-2 -23v-55l-6 -20l-13 -15l15 -16l28 12l17 17l28 40l9 43l6 21l6 25v30l-8 56l-2 16l4 29l8 -21l10 -24l4 -3l-4 48 l-8 26l8 -6l12 -24l17 -50l-2 -16l4 27l10 8l6 -4l2 -31l-14 -43l8 -14l19 12l18 43v24l10 -14v-12l12 -2l7 22l6 37v15zM1513 1253l7 17l-2 8l-21 -18l-18 -46l6 -6zM393 850v-4l2 -6h6l11 -9h10l10 -14v-14l6 -10l8 4l13 10l2 8l6 8l-10 6h-11l-6 11l-12 2l-20 2l-5 6 l-6 2zM481 815l-2 -10l13 -6l34 6v20l-10 19v-10l-14 -7l-10 -10zM614 842l-4 -2l4 -15l2 -12l2 -6l7 -2l6 2l4 4v6l-4 4zM541 825l-4 -8l2 -6l4 -6l8 4l6 8l-8 12zM395 805l4 14l-2 6l-4 2l-8 -14l-4 -14zM567 825l-4 -4l2 -6l6 -6l21 -25l-2 -4v-2l10 -14l2 -16l-8 -7v-12 l18 4h9l4 6v4h-7l-4 9v10l-2 2l2 4v4l7 4l2 4l-2 13l-7 6l-20 14l-21 12h-6zM983 807v10l-4 2h-2l-2 -8l4 -14zM705 782l4 9l-4 10l-7 6l-10 -4l-2 -6l2 -13l10 -6zM838 786l6 2l2 7l-2 4h-4l-4 -4l-5 -7l3 -2h4zM483 782h4l2 2l11 -6l6 6l-4 9l-10 -2l-5 4h-12l-10 -7v-8 l8 -2zM520 791l2 -5v-14l8 -12l7 2l2 6l-7 14l-4 13zM784 776v10l-6 9l-2 -13l4 -8h2zM371 780l2 11l-2 -3l-4 -2l-7 2l-6 5l-4 -11l4 -8l4 -4h4l7 2zM430 766h10l9 10l-3 10l-10 7h-22l-13 -21l15 -2zM567 778l8 13l-24 -5l-8 -22l2 -2v-2l6 -10l12 4l2 4v6zM903 782v4 l-4 2l-6 -2l-4 -4v-6l4 -2l6 2zM313 760l11 4l2 10v2l-2 2l-9 -8zM680 764l4 4l-2 4l-6 2h-4l-4 -2l2 -4l4 -4h6zM735 764l2 6l-4 4l-6 -6l4 -6zM479 766h4l-2 4l-4 2h-2l-4 -2l2 -2l2 -4zM764 760v4l-8 8l-11 -4v-10h11zM516 764v4l-2 2l-10 -2l-8 -10l12 -2zM272 725l2 8 l7 2l2 8l4 11v6l-6 4l-5 -2l-6 -4l-2 -6l-2 -9l-4 -6l2 -6l4 -4zM641 745l2 5l-2 8l-6 2l-4 -2l-2 -4l8 -13zM463 745l8 5l-8 6l-8 -2l-2 -2v-4zM852 735v2l-2 6h-4l-4 -4l4 -4l4 -2zM428 723l2 2l-2 4h-6l-2 -2l2 -4h6zM553 717v4l-6 6h-19l-4 -6l4 -4l7 2h6l6 -4zM694 709 l2 2l-4 4h-4v-6h6zM461 698v4l-4 5v4l-4 -2l-7 -4l-4 -7l-2 -2v-2h2l4 2h7l4 -2zM590 684l6 6l-4 17l-10 2l-2 -9l2 -8v-6zM633 700v7l-6 2h-11l-6 -7l13 3l4 -5h6zM502 688l2 4l-2 6l-6 2l-2 -4l-5 -4l5 -6l6 -4zM369 680l2 4l-4 4v4l-5 2l-2 -6l-4 -4v-4l6 -2zM311 676 l2 2l-6 6l-10 4l4 -10l8 -6zM272 666v12l-4 2h-4l-6 -10l4 -11zM381 631h8l-4 10h-4l-2 -2l-2 -4zM301 616v9l-4 4l-4 -4v-4l2 -5l2 -2zM352 590l2 8l-8 -4l-6 -4l4 -4zM295 584l2 4l-2 4h-10l-4 -6l4 -4h4zM328 530l6 7l-6 4l-4 -2l-2 -4l2 -5h4z" />
<glyph unicode="j" horiz-adv-x="2033" d="M1923 287l8 -17l-14 -10l-27 4l-30 -22l-33 8l-17 49l-4 18l-20 17l-2 -27l-15 -26l-24 8l-21 14l-20 8l-51 4l-27 4l-41 23l-22 6l-23 -4l19 -33l12 -28l12 -25l19 -20l14 -41l6 -19v-67l-4 -25l-16 -2l-23 18l-16 -2l-13 15l-26 59l-13 14l-6 31l-41 17h-49l-29 10 l-43 16l-28 14l-23 15l-39 33l-24 -7l-8 -26l-11 -27l-6 -18l-20 -45l-6 -31l-4 -12l-9 -21l2 -47l2 -22l11 -27l-27 -29l-47 13l-33 34v23l6 31l2 51l-6 51l-10 41l8 25l2 43l-59 22l-51 -6l-25 6l-29 8l-53 2l-31 -8l-65 -33l-19 -4l-24 8l-21 3l-8 -11l-18 -26l-19 -35 l-10 -23l-2 -47l8 -22l2 -19l15 -18l6 -33l20 -33l15 -18l8 -23h-41l-27 9l-45 10l-33 37l-2 24l-24 49l-13 15l-4 26l-20 47l-14 13v39l12 34l10 27l-12 37l-37 2l-23 -21l-16 -22l-37 -31l-18 -6l-19 -12l-24 -8l-31 -35l-14 -19l-11 -20l-16 -19l-14 -16l-15 -22l-10 -19 l-10 -16l-12 -47l4 -19l2 -24l-8 -21l-27 -6l-16 18l-25 37l-12 21l-11 10v25l7 20v25l20 51l29 43l10 31l14 49l-2 12l17 49l12 17l14 18l13 37v29l6 40l2 21l4 18l6 27l6 45l6 14v29l2 47l4 21l7 24l10 21l-6 37l-13 28l-8 37l-4 29l14 45l7 24l32 45l11 15l20 26l49 43 l51 23l39 6l13 -6l-23 -31l-35 -35l-33 -36l-12 -21l-22 -33l-17 -26l-14 -19l-14 -26l8 -21l24 2l27 10l12 15l41 31l21 10l18 12l17 14l43 25l28 14l51 11l45 -5l31 -6l21 6l24 -6h25l28 -8l23 8l23 -10l26 4l25 -4l28 -2l41 16l39 19l25 -2l26 4l23 2l31 -4l24 -2l27 10 l20 2l29 4l29 -2l47 -6l20 -14l17 -15h26l21 -10l22 -14l23 -6l24 -17l17 -2l26 -16l23 -4l18 -17l23 -2l22 -12l25 -12l14 -17l21 21l18 14l33 -10l21 -21l26 -2l29 15l18 -6l35 -29l10 -21l-2 -45l8 -41l11 -37l-2 -32l-2 -17v-32l-7 -19l9 -57l10 -23l4 -30l6 -19l10 -24 l15 -50l8 -22l8 -25l6 -16l13 -49zM1077 995l6 13l-2 12l-4 2h-4l-2 -10zM600 1001l-4 -4l6 -4l8 -6l17 -16h10l8 2l4 4v8l-6 4l-4 4l-4 2l-10 4l-13 5l-10 2zM901 985l-4 -6l2 -4h6l6 4l2 6l-2 4h-4zM741 958l2 13l-6 10l-10 6l-10 -6l-2 -10l6 -13l12 -6zM831 983l-2 -16 l5 -11h4l2 5v10zM981 967l4 6l-2 6l-4 2l-6 -2l-6 -6v-6l6 -2zM653 883l2 6l-2 6h-2l-2 4l-4 4l-4 10l-2 5v6l-2 2l6 12l-8 14l-4 4h-4l-2 2l-19 -2l-14 2l-29 -2l-8 -4l-2 -6l8 -6l8 -2l19 -6l20 -6v-4l2 -4l19 -7l10 -12l2 -2l2 -4l-4 -10l8 -13l4 4l2 5v4zM782 944v6 l-8 4l-2 -6l-2 -4l2 -2l4 -2zM813 938l2 6l-10 8l-12 -4v-14l12 2zM535 942l-7 -8l2 -10l7 -4l8 -7l6 11l-2 14l-6 4h-8zM702 942l-4 -4l4 -4l7 -2h6l4 4l-4 6h-13zM483 895l-10 -10l6 -13l15 2l12 11l24 18l-16 21l-22 14l4 -12l-9 -15zM1309 926v6l-13 2l-14 -2l10 -10h15 zM915 924l-2 -4l-2 -2l7 -7l4 -2l4 2v7l-4 4zM571 874l4 -4l15 -6l10 13l-6 10l-8 16v19l-21 -21zM672 901l2 6l-4 8h-8l-7 -2v-6l13 -12zM561 860l4 6l-2 8l-14 11l-14 8l-5 -8l5 -4l10 -15zM465 807l2 14l-8 10h-17l7 11l8 18l-4 10v13h-13l-12 -9l-12 7l-8 -2l-11 -7 l-41 -22h-14l-4 -14l2 -9l4 -4l8 4v13l2 2l21 4l20 12l15 -2l12 -4l4 -6l6 -8l10 -7l-20 -16l4 -10l6 -12l6 2l4 2l7 2h4zM477 840l2 -2l13 2l6 12l4 2l2 4l12 2l4 10l-10 4l-10 -8h-6l-13 -8l-6 -12zM1458 860l2 8l-6 6l-6 -2l-4 -12l4 -6h8zM879 848h6l6 2l2 8l-4 4l-2 4 l-10 -12zM541 842l2 12l-2 4l-4 2l-9 -10l-2 -14zM1583 838v6l-8 14h-16l4 -16l14 -8zM975 838v8l-8 6l-15 -2l11 -8zM1370 840l2 8l-6 4h-6l-2 -4l4 -12zM647 825l8 13l-6 8l-8 4l-4 -6l-2 -6l4 -9zM510 836l-6 2h-4l-4 -2l-2 -5l4 -2h4l4 2zM727 834v4h-4l-4 -2h-10l-7 2 l-4 -7l-2 -6l6 -6l3 -4h6l8 6l6 10zM391 791l8 -5l-4 11l-4 12l-16 16l-2 -2l-4 -2l-2 -6l6 -10l8 -8zM500 801l6 8l-10 2l-9 -8v-4l2 -2zM846 786l4 5l-2 8l-6 6l-6 -2l-5 -6l-6 -6l4 -5l13 2zM1661 768l6 8l-2 12l-12 5l-13 8l-8 -4l2 -15l17 -10zM1567 786l10 11l-16 2 l-11 -8v-7l4 -2zM756 788l2 5l-2 4h-11l-2 -4l2 -2l7 -3h4zM610 780l2 4h4v11h-4l-4 -2l-2 -5h-4l-4 -4h-10l-6 -8l2 -2l4 -2l12 -2zM1008 772l4 6l-2 8l-4 5l-9 2l-2 -9v-8l6 -4h7zM537 758l6 2l-4 10l-9 8l-6 8l-10 -6l-2 -2l-4 -6v-10l10 -4l12 -4l2 2zM963 780v2l-7 2 l-4 -2v-4l4 -4l5 2zM432 739v27l-12 4l-8 4l-2 2l2 -4l2 -6l-8 -14l20 -17zM627 743v7l-2 2h-2l-7 -7l-2 -4l4 -2l3 2h2l2 2h2zM514 707l6 10l-8 14v-10l-2 -8l-8 -6v-7l6 -2zM920 713l-2 4l-13 4v-10l4 -4l6 2zM389 680l8 12l-2 10l-6 3l-2 -3l-2 -10zM809 678l4 14l-6 13 h-10l4 -15zM928 684v2l-2 2l-11 2h-18l-6 -6v-4l-2 -2v-6l2 -2h2l10 4l8 4l7 2zM647 676l2 6l-2 4l-4 2l-4 -2l-2 -6l6 -6zM360 631l9 10l-4 16l-5 11l-8 -2l-8 -9l6 -12l2 -12zM1745 649l-2 -4l6 -10l12 -4l-2 12l-10 8zM457 627l2 6l-2 2l-4 2l-7 -2l-2 -6l7 -6zM496 612 l2 4l-6 5h-5l-2 -7l4 -6l3 2zM592 602l2 2l-6 6h-13l7 -8l6 -2zM324 584l-2 -15l16 4l6 13l-4 6h-6zM387 565l2 2l-4 13l-10 8v-15l8 -8h4zM350 508l2 6l-4 4l-6 -2l-2 -4v-4l2 -4h6zM330 473v6l-13 4l-6 -6l2 -4l6 -4h7zM344 395l4 2l-4 9h-6l-4 -7v-4l4 -2z" />
<glyph unicode="k" horiz-adv-x="1341" d="M1143 700l8 23l10 29l4 39h9l8 -33l12 -2l10 20l13 23l14 39v24l2 27l6 37l-12 51l-10 20l-5 21l-24 43l-21 14l-43 35l-16 8l-35 21l-22 30l-19 23l-12 20l-33 29l-12 -14v-45l24 -43l-2 -25l-20 -6l-41 -4l-25 -21l-43 -18l-14 -16l-18 -23l-31 -35l-14 -22l-37 -74 l-35 -12l-37 -31l-43 -31l-23 -10l-24 -25l-41 -22l-23 -14l-14 -13l-20 -24l-39 -31l-17 -10l-20 -21l-19 -8l-24 -16l-23 -39l-12 -33l-12 -20l-17 -21l-14 -33l10 -18l35 10l20 -2l-4 -22l-20 -15l-8 -26l-23 -17l-14 -24l-8 -19l-17 -16l-28 -43l-7 -19l7 -20l4 -12 l-13 -25l-20 -14l-21 -39l-2 -10l17 -17l-8 -12l-21 -12l-14 -11l-25 -14l-18 -18l-17 -25l4 -16l13 -27l35 -31l34 -26l41 -21l41 -2l43 2l19 21l12 16l6 33l2 26l15 23l4 16l10 29l12 14l45 -59l27 -29l29 -8l30 23l17 49l12 26l6 17l12 24l35 27h25l26 -8l29 -21l19 -4 l26 -12l23 -19l-4 -8v-14l2 -8l4 -37l14 2l16 31l33 8l19 -2l16 -43l12 2l-2 18l15 17l57 4l53 -13l31 7l24 12l31 -19l6 -2l-12 27l-25 27l-10 14l-26 10l-17 -4l-28 6l-41 21l-19 14l-35 29l-14 28l6 29l17 41l18 12l41 39l18 21l31 41l21 16l10 25l18 18l27 39l4 25 l14 30l8 27l19 35l16 26zM991 961l2 -13l-4 -4h-2l-2 4l-4 4v19l4 -6zM793 942h4l2 -4l2 -6l-4 -6l-9 4v6zM870 938l9 4l8 -4l2 -4l-2 -4l-6 -4l-9 2l-4 4zM1026 885l-2 -4l-2 -2l-6 6l-2 12l8 -6zM834 883l6 -4l2 -5l-4 -4h-7l-8 2l-2 5l4 4zM885 852h4v-8l-2 -2h-2l-2 2v6 zM760 840l4 2h6l6 -8l2 -15l-12 10zM717 823l8 8l8 7l6 -4v-13l-14 -6zM948 831l6 -6l-2 -2l-6 -2l-4 2l-2 4l2 2zM721 805v-4l-2 -6l-6 2l-6 4v6l8 2zM690 764l10 2l11 -6l2 -12v-7l-2 -4l-11 -6l-8 6l-8 13zM653 748v4l2 8l4 4h7l2 -6l-4 -6l-5 -4h-6zM610 731l-4 -2l-6 2 v10l-2 11l8 -2l6 -2l4 -9l-2 -4zM592 639v10l-2 21l-2 4l-4 2l-4 20l-11 19h-14l-10 10l12 6l6 4l4 2l8 8l11 -2l2 -4l-4 -6v-12l10 -10v-4h6l2 -5h14l9 -14v-16l-4 -10l-3 -15l-6 -14l-2 -10l-2 -7l-4 -6l-8 2l-4 6l2 11zM766 715l2 6l4 2l8 -10l8 -13l-14 2zM655 635 l-16 29l-4 8l6 6l12 4l6 -6l-2 -6l2 -19l3 -14l-5 -2h-2zM541 641l-13 6l-4 4v17l13 8l6 -4l4 -4l14 -13l19 -6l-25 -16zM526 608l-12 15l-2 18l6 2l8 -4l9 -18l6 -15l-11 -4zM754 637h4l4 -4v-10h-2v-9l-2 -2v-12h-6l-2 12l-2 6v3l2 2l-2 2l-3 4v2l5 4zM477 610l10 13h15 l4 -5v-4l-12 -6zM637 618l4 -10l-4 -10l-6 -2l-2 4v10zM727 616l4 -2v-8l-2 -2h-6l-4 12h8zM586 608l2 -8v-8l-8 -4l-11 6l-4 6l-2 10l4 2h6zM528 551l-4 -2l-6 -4l-12 8l2 8l2 6l14 11l19 12l4 4v4l2 2l16 -22l4 -15l4 -8v-4l-4 4l-6 4l-16 -6h-17zM504 573l-2 -4l-8 -12 h-9l-6 -2h-4l-6 6l2 2v2l2 2l2 4l12 4l5 5l4 2l4 12l12 2l2 -12l-10 -9v-2zM428 575l4 7l2 4l4 4h2l2 2l4 2v-8l-2 -4v-2l-14 -15h-4l-2 2v2l2 4zM465 582v4l4 2l6 4v-12l-8 -5zM666 559h4l4 -4l-2 -4l-2 -2h-4l-2 6zM432 535v2l17 8l6 -4l4 -4v-5l2 -4v-4l2 -2v-6l-2 -6 v-10l2 -4v-4l-4 -5l-6 -8l-9 -12l-6 10l-2 10l-4 9l-4 16v4l2 10zM504 506l-10 4h-11l-10 2l-8 8v2l2 2h2v2l2 2h2v2h2l8 2l6 3h3l6 -3l6 -4h4l6 -2v-2l2 -4l-4 -4v-2l6 -2l4 -2h2v-2l2 -2v-2l2 -2h4v2h3l6 -6v-4l-2 -2l-2 -5l-5 2h-4l-4 7l-4 2h-6v6zM668 506l-4 6l8 4l8 2 l4 -6l2 -6l-6 -4h-8zM502 465l-17 -12v10l2 10l9 6l6 6l8 -2l2 -2h2zM604 467l4 2l2 4l8 -4l3 -4l4 -6l-7 -4l-4 -4v-2l-4 -9l-8 -2v2l-4 9l-2 2zM457 408v12h2v6l10 6l6 6l4 2l-2 -2v-4l-2 -4l8 -8v-2l2 -2v-2h-4l-6 -6l-8 -2l-4 -2l-4 2h-2zM563 391v2l12 4l-2 -6v-6 l-2 -2l-2 -4l-4 -4l-4 2l-4 4l4 6zM612 379l-2 2l-2 4l-2 6l4 4h6l5 -4l4 -2v-12l-7 2h-6zM494 365l-5 -13l-8 -8h-2v6l-2 8l8 9h2l5 2v-2zM395 350h4l4 -2l3 -2l2 -4l-2 -2v-2h-9l-2 4v8zM473 281v14l8 6l8 8l5 2l4 4l8 -6v-14l-2 -2l-6 -2l-4 -2l-13 -13zM643 305h6l2 -6 l-4 -4l-6 -4h-4l-2 2l-2 4l4 4zM410 268l12 -6l-12 -6l-13 2v8zM444 233l5 -6l-3 -14l-12 -8l-4 16l8 12h6zM760 233l8 -4v-2l4 -2l2 -4h-6l-4 -2h-2l-6 6v8h4zM674 227l4 -2l-2 -4l-12 -4v4l-2 4l6 4zM362 197l3 4l4 4h6v-10l-2 -2l-4 -3h-4l-5 5zM356 162l6 -4v-8h-4l-6 2 l-4 4l-2 6l6 4zM285 117l4 2l2 -2l4 -2v-6l-2 -5l-4 -2l-2 2l-2 5l-4 4z" />
<glyph unicode="l" horiz-adv-x="2080" d="M1974 1067l-12 51l-14 15l-2 22l-17 -4l-12 -10l-10 26l-4 13l-9 28l-20 4l-6 -45l2 -20l-8 -4l-9 26l-10 15l-14 10l-19 -51l2 -17l-10 -16l-26 -2l-2 -55l2 -23l6 -33l-4 -2l-15 23l-12 22l-31 7l-10 -56l14 -39l-12 -10l-18 12l-39 2l-10 -26l-19 -25l-14 -28l-19 -27 l-16 -29l-16 -10l-35 -27l-13 -24l-16 -19l-6 -16l-14 -29l-13 -12l-18 -29l-16 -14l-23 -45l-10 -12l-19 -25l-16 -12l-12 -21l-15 -12l-32 -39l-15 -16l-14 -21l-12 -14l-17 -27l-31 -2l-12 27l-18 14l-21 19l-16 12l-10 18l-39 37l-13 25l-20 18l-10 10l-21 25l-16 14 l-12 21l-39 33l-23 14l-14 12l-27 15l-14 16l-25 16l-20 15l-17 8l-20 20l-25 15l-18 14l-41 29l-21 16l-20 6l-25 21l-20 16l-33 29l-22 18l-13 23l-14 8l-16 22l-21 21l-35 29l-16 26l-12 17l-19 20h-6l12 -22l15 -23l12 -16l16 -25l9 -20l16 -15l-6 -10l-21 21l-20 16 l-25 16l-37 29l-18 12l-23 21l-14 14l-24 12l-17 19l-18 12l-19 21l-6 -11l14 -10l9 -22l14 -17l16 -24l13 -17l37 -28l22 -23l16 -12l17 -23l20 -16l19 -19v-2l-19 17l-39 26l-22 19l-21 8l-20 14l-21 11l-22 22l-14 4l-23 19l-20 16l-25 8l-16 10l-21 17l-24 12l-5 -2 l17 -18l18 -9l19 -26l18 -6l33 -35l22 -15l21 -10l24 -22l15 -8l26 -11l17 -14l20 -21l23 -12l-2 -6l-23 18l-26 13l-25 6l-18 6l-21 8l-29 13l-18 12l-29 10l-22 12l-21 9l-26 16l-17 8l-28 8l-2 -4l18 -10l21 -12l20 -17l21 -10l22 -16l21 -17l38 -16l23 -19l27 -6l20 -10 l25 -16l18 -17l-20 9l-23 4h-29l-22 6l-19 6l-73 22l-49 17l-23 2l-20 8l-7 4l27 -8l25 -12l22 -11l49 -24l19 -12l51 -17l20 -12v-8l-24 8l-31 2l-20 12l-23 4l-31 4l-24 2l-27 5l25 -19l14 -8l23 -2l20 -12l25 -5l-11 -14l5 -12l20 -21l43 -28l14 -13l37 -34l8 -21l35 -24 l19 -19l14 -6l20 -12l27 -41l19 -21l8 -18l12 -21l18 -18l13 -31l26 -28l23 -19l16 -14l25 -21l18 -16l41 -31l15 -20l20 -17l16 -12l17 -18l14 -15l17 -22l18 -15l16 -18l23 -16l16 -11l17 -22l26 -31l13 -20l-13 -31l-22 -4l-23 -15l-22 -6l-29 -12l-25 -2l-22 -4l-49 -17 l-21 -10h-26l-25 -10l-8 -10l49 -23l31 -2h22l54 4l22 -2l23 13l28 12l23 8l43 -16l39 -7l20 3l41 2l27 -2l16 -5h29l18 -6l23 -6l53 -6h23l24 2l25 6l26 4h27l49 17l62 30l20 19l18 14l39 14l37 13h31l33 14l22 19l39 12l19 -4l24 -10l2 -5v-8l13 17l-3 26l-10 27l-37 24 l-55 21l-43 14l-16 27l10 14l12 29l15 26l14 21l10 16l12 25l13 27l18 14l8 18l19 33l24 33l23 24l16 11l17 18l14 25l35 35l30 40l11 15l10 20l10 25l10 22l9 29l16 18l14 52l13 14l8 21l6 30l8 25l8 41l-4 33v20zM596 872l-2 -4h-4l-4 4v9l4 4h2l4 -6v-7zM516 864h-8l-4 2 l6 13l8 2l6 -4v-7zM401 836l-4 2l-4 4v10l10 12l3 -16zM571 827l-4 4v5l8 4h9l4 -4l-2 -5l-6 -4h-9zM655 805l-4 -12l-12 -11v15l6 10h6zM694 780l-14 6l-2 15l6 2l8 -4l10 -8zM700 762v10l5 4l8 -2v-6l-4 -4zM723 733l12 -2l4 -14l-6 -12l-8 -7l-10 4l-4 11l2 12zM766 733 l4 -4l2 -6v-6h-6l-8 8v6zM1565 711l4 10l10 6l-2 -10l-6 -8h-4zM815 721l12 4v-10l2 -8l-6 -5l-6 3l-6 8zM834 588l-15 28l-10 31v6l-2 4l8 17l4 2h10l2 4l7 2v2l2 4l6 8v13l-4 6l2 6l8 2l8 -6l25 -12l-11 -11l-12 -2l-10 -20v-23l-6 -4v-22l4 -27l-2 -2l-4 -8l-4 -2h-2z M913 627v-2l-28 -15l-6 4l-21 11l19 8l6 8l8 6l4 6l4 4l6 -2l6 -6l7 -2l-3 -16zM786 649l7 -2l6 -6l-4 -8l-13 -33h-6v18l-2 17v8l4 6h8zM915 586l-4 -8l-10 4l6 16l8 18l7 5l8 -3l-2 -18zM1487 606l8 -2v-10l-2 -16l-12 -7l-6 7l2 12v12zM967 588h-17l-14 4v4l4 4l14 2z M877 575l-5 -8l-10 -4l-10 4l-2 8l2 9l14 6l13 -4zM1010 555l-11 8l-2 12l13 -4l6 -10l-2 -4zM940 549v4l-12 6l2 12h12l6 -12l4 -2l4 -4l13 -2l8 -12l-4 -2l-4 -5l-17 3l-10 12zM879 532l-11 -8l9 27l16 18l41 -24l6 -17l-12 -8l-13 6h-18zM979 561l-2 -6l-4 2l-2 2l-2 4v6 l6 -2l4 -2v-4zM737 539l-2 6v2l6 2l7 -2v-6l-7 -4zM1444 537l6 -2l2 -7l-10 -10h-15l5 12zM1014 483l-23 19l-2 16l6 12l17 2l10 -10l10 -16l12 -14zM1483 522l8 -10l2 -10l-4 -2h-4l-6 10zM991 420l-2 -8l-6 -2h-4l-4 8l2 10l-21 21l-8 12l2 14l-10 10l-4 15l12 2l10 6 l21 -2l12 -4l-2 -13l-12 -14l-6 -22l10 -13l4 -14zM852 477l-16 -2l-11 10l-4 9l4 6l6 -4l3 -11zM883 477l12 2l8 -10l-6 -8l-6 -12l-8 -7l-11 13l7 20l2 2h2zM1073 426l-6 18l-10 5l24 10l21 -19l-2 -6zM1020 453l22 -7l-18 -10l-20 -6v12zM1405 434l6 -4l4 -2v-6l-6 -2 l-6 2l-4 2v6zM930 383l10 -2l2 -10l-10 -4l-10 10h-2l-13 8l-2 12l2 4l2 2l11 -4l4 -10l2 -4zM1014 385l-4 -12l-6 -2h-9l-4 8l4 8l6 4l9 4zM1171 375h-10l-4 6l4 8h4l2 2l4 -8v-8zM1122 367l-12 4l-8 8v4l4 2l12 -4zM1415 352l2 -2v-4l-6 -2h-4l-4 2l2 4l4 4zM1065 319 l-12 -4h-11l-6 4l2 7l-2 8l6 4l9 2l4 -6l8 -6l6 -2l2 -4l-2 -3h-4zM1122 330l17 -8l4 -17l-8 -4l-13 8l-12 2l-2 15l4 6zM1327 313h6l2 -4v-10l-12 -8v12zM1210 293h-14l4 6l12 8l5 2l4 -8zM1063 268v-2l-4 -4l-2 2l-2 4v6l4 2l6 -6zM1284 254l-4 -2h-4l-6 4l-2 6l6 4l6 -2 l6 -4zM1190 258l4 2l6 -4l8 -4l4 -16l-14 2l-6 6l-8 6v4l2 4h4zM1399 258l2 -6l2 -4l-2 -6l-4 2l-6 4v6zM1321 229l-4 -6l-6 -2l-4 6l2 9l2 6h6l4 -6v-7zM1112 209l6 -2l8 4l7 -6v-8l-7 -9h-6l-2 9l-10 4l2 8h2zM1204 197l-6 4l-2 6l2 4h16v-4l-2 -6zM1260 121l-5 -2l-6 12 v14l11 -10l2 -12z" />
<glyph unicode="m" horiz-adv-x="1648" d="M516 -23l16 -18l15 29v20l10 33v25l6 14v31l23 36l14 21l21 25l14 18l16 20l13 19l20 16l23 45l2 29l-7 35l-20 8l-43 10l-31 2l-53 -2l-25 2l-20 -2l-27 -2l-43 -6l-20 25l8 34l14 25l25 41l22 2l17 25l39 14l22 4l27 -2l22 6h43l31 -2l23 -4l22 4l41 4l10 -26l-10 -21 l-4 -35l6 -35h31l12 15l21 18l16 8l19 -6l-7 -18l9 -33l18 6l14 15l13 18l32 37l15 26l12 21l45 18l23 2l24 -6l29 6l26 7l27 -7l21 2l51 -10l22 -2l47 2l19 -8l31 2l47 -2l18 2l51 4l25 -4l43 31l14 20l-24 19l-52 -4l-38 22l8 27l20 4l19 20h26l17 11l20 26l-10 35l-19 16 l-18 15l-16 12l-35 25l-17 18l-20 8l-21 25l-16 4l-20 14l-17 15l-45 28l-22 8l-21 17l-22 10l-27 16l-22 2l-52 25l-24 6l-19 12l-30 13l-23 10l-49 4l-29 2l-22 10l-23 -2l-26 15l-54 -4l-18 4l-29 -2l-41 20l-18 19l-19 10l-18 -2l-37 30l-55 -4l-23 -4l-14 -14l-21 -19 l-16 -6l-18 -16l-21 -21l-22 -12l-15 -16l-10 -17l-10 -14l-10 -10l-17 -31l-41 -8l-18 -2l-25 10l-20 -4l-45 -4l-27 -10l-27 -13l-32 -34l-29 -41l-8 -9l-17 -47l13 -53l6 -45l14 -45l2 -41l8 -18l21 10l12 -4l2 -31l-6 -16l2 -50l4 -30l-2 -27l15 -37l4 -20l14 -25l4 -24 l18 -33l15 -21l10 -18l14 -25l29 -34l14 -29l15 -14l24 -48l8 -20l17 -18l14 -15l29 -37l16 -12l17 -22l22 -13l19 -24zM754 1057h-13l-12 8l14 4l13 -4l2 -4zM653 1044v7l6 4l9 4h10l14 -2l-14 -15h-2l-8 -2l-11 -2l-2 2zM610 1038l4 4l7 5l20 -9l4 -10l2 -12l4 -8h-2 l-6 -9l-6 9l-8 6l-13 12l-4 2zM506 956v7l6 10l-4 4l2 8h-2l-8 16l-13 7h-8l-4 4l4 10l10 4l7 4l4 4l14 10l6 -16l-8 -14l16 -21l21 -12l2 -6v-4l45 -21l10 -2l8 -10l-4 -8l-8 -2l-37 2l-30 4l-19 6zM606 995l-28 -22l2 24l-7 21l-6 14l15 12l16 -8l2 -4l2 -2zM717 1032 l-8 8l6 2h6l2 -2l2 -6l-4 -2h-4zM760 1024l12 12h16l21 -8l22 -4l-22 -29h-33l-14 13zM735 1014l-2 -6l-14 -11l-19 4l-8 5l-14 -2l-6 10v2l2 2l8 6l14 -8l4 2h9l12 6l14 -4v-6zM928 1014l2 -8l-12 -11l-7 -4l-4 -2l-4 -4l-2 6l-8 2l-2 2l-6 4l-13 -6l15 27h20l13 -4l4 -2h4 zM1057 1006l6 6l8 -6l2 -9l-4 -4h-6l-6 2v11zM481 991v-10l-6 -2l-10 -2l-6 10v6l2 8zM823 924l11 -2l2 -9l-2 -6l-5 -4l-10 4l-4 11l-33 6l-16 4l-8 14l-17 2l-14 10l10 11l4 12l21 14l12 4l8 -12l-2 -22l13 -25l16 -2zM655 956l-6 15v14l2 2l8 2h7l4 2l24 2l17 -10l-4 -16 l-19 -2l-14 -15l-10 -4l-2 -4v-14l-5 24zM836 973l24 8l-8 -23l-14 -18l-7 4l-4 8zM639 940l-10 4l-8 6l2 15l6 12l6 -4l4 -2l4 -4l2 -4l2 -7v-6zM969 942l-13 6l-2 4l4 4l15 2l10 -14zM424 946l8 -2l6 -2l-4 -6l-6 -2l-8 -2l-6 6l4 6zM559 874v-4l-4 -2h-6l-4 6l4 7l-10 6 l-19 10l-10 2l-2 8l4 8l6 5l10 2l7 -9l12 -14l12 -16l-4 -4zM346 920l8 -5l-2 -8v-6h-6l-4 2l-2 2l-2 6zM315 915l4 3l5 -15l-11 -16h-2l-12 2l-4 6zM1108 899l-16 2l12 12l12 5l4 -5v-4zM428 897v-12l-10 -8l-12 2l-13 12l-2 14l10 8l17 -2zM1001 907l21 -2l10 -14l-6 -8 l-14 2l-17 -2l-8 12l2 10zM1180 866l8 -2l6 -4l-2 -8l-4 -2h-6l-6 4l-2 8zM287 864l12 -8l10 -16l-16 4l-8 10v6zM1104 854l4 -18l-18 2l-9 14l2 8l7 4zM1323 850l2 -6l2 -8l-4 -5h-6l-4 7v8zM655 840l-10 -9l-10 -2l-4 5l2 4l10 6zM866 840h8l3 -6l-3 -3h-4l-6 -6l-6 2 l-2 7l2 8l2 2zM750 834l6 -11l-11 2l-6 9v2l2 2zM1221 836h8l4 -9l-2 -6l-4 -8l-6 -2l-7 8l3 10zM496 827l2 -6v-6l-4 -4l-9 4l-2 6v6l6 4zM940 805l-8 4v4l2 2h4l4 -4v-2zM166 807l6 -2l4 -8l-2 -11l-6 -6h-6l-2 8l2 11zM805 791v4l-2 4l4 6h6l4 -2l-2 -6zM254 791l4 -5 l2 -4v-4h-2l-4 -2l-4 2l-8 8l-2 5v6h6l4 -4zM377 791l8 4l8 -11v-14l-10 8zM444 786h2v-12l-10 -8h-8l-2 6l6 12zM969 780v-6l2 -4l-2 -6l-6 -4l-5 4l-8 2h-4l-2 2v2l4 2l6 6l9 2h6zM1077 768l6 -2l4 -8v-4l-2 -2h-8l-6 6v2l-4 2l-2 2l-8 -2l-4 6l6 6l8 -4h6zM1012 754l6 -4 v-9l-4 -4l-4 -6l-6 6l-3 11l5 4zM1110 721l4 6l10 -6l-2 -21l-10 -2l-8 7l2 2v4zM414 717v-12l2 -13l-8 -8h-11l-2 10v19l11 10zM238 715l6 -6l2 -11l-2 -4h-6l-9 4l-2 9l2 8h9zM1165 709l6 -7l-2 -6l-6 2l-2 9l-16 2l12 6zM1245 686l2 -4v-2l-4 -2h-6v6l4 2h4zM264 580 l19 6l14 -4l-4 -9l-14 -2zM344 563h4l4 -2l-2 -12l-8 -8l-2 12z" />
<glyph unicode="n" horiz-adv-x="1077" d="M973 -8l-15 16l-14 21l-16 18l-21 14l-12 23l-14 10l-31 33l-16 18l-21 27l-12 37l18 41l6 20v37l-37 4l-20 -12l-25 -14l-47 -13l-22 -10l-45 -10l-23 4h-26l-45 -4h-27l-25 12l-43 10l-20 11l-39 32l-29 54l-2 26l-2 23l6 55l11 17l12 26l16 17l19 49l12 18l16 19 l13 20l12 23l14 24l10 17l27 38l21 27l12 10l12 21l10 20l21 23l10 26l14 15l11 22l16 17l23 49l2 20l14 23v26l14 21l4 20l5 47l-7 29l-67 23l-49 -17l-23 -12l-24 -4l-39 -33l-23 -12l-20 -19l-19 -12l-12 -14l-25 -19l-16 -22l-19 -19l-16 -10l-22 -20l-37 -21l-23 -18 l-24 -8l-23 -9l-22 -10l-17 -10l-26 -35l22 -41l19 -22l-11 -50l-10 -16l-8 -24l-10 -23l-4 -31l-13 -18l-4 -23l-14 -24v-21l-15 -26l-2 -43l13 -25l2 -31l8 -22l6 -23l8 -24l23 -33l10 -25l12 -26l17 -13l10 -22l39 -35l24 -6l23 -12l14 -17l25 -18l24 -6l43 -25l21 -4 l27 -2h18l27 -12l22 2l23 -11l49 -8l20 -4l27 -8l25 2l24 -6l19 -14l49 -9l22 -20l23 -2l20 -14l23 -19l24 -2l27 -22l18 -3l23 -18l41 6zM573 1077l2 -2v-6l3 -6h-9l-4 6l4 6zM496 1063h6l8 -8l-2 -6l-4 -2l-4 4l-6 4zM481 1026h6l5 -4l-9 -8l-4 2l-2 4zM426 1016l2 -15 l-6 -10l-6 2l-4 4l4 13zM532 979v-4l-2 -4h-4l-2 2v2l2 4h6zM444 973l11 -4l2 -4l-2 -4h-11l-10 6zM383 961l6 -5l-2 -12l-14 -6l-8 -2l-5 6l2 10zM481 905l-12 -2l10 10v9l2 4l6 -4l-2 -7zM371 907l-4 -12l-11 -4l-4 2v4l8 6zM438 895l4 2l4 -2h3l12 -12l-4 -11l-6 2l-9 7 l-6 4v2l-2 4zM334 840v16h10l10 -2l4 -4l-10 -16h-22zM266 817l-6 -12l12 -17l15 -6l4 -10l-8 -6l-15 -8l-10 2l-10 -2l-2 12l6 10l-6 11l2 14l8 20l-4 9l2 8h8l4 -6l-2 -7zM434 815l6 4v2l2 4v9l7 6l4 -4l2 -11l-6 -8h-3l-2 -2l-2 -6l-8 -2v8zM301 819l-16 4l-4 4v7h16 l18 -3zM383 807h6l4 -2l6 -4l-2 -8l-4 -2h-6l-4 8v8zM295 760l-2 12l12 23l25 2l-4 -15l-2 -16l-7 -10l-14 -4zM365 745l4 7l2 6h4l6 -2l4 -8l-2 -5l-8 -4h-8l-5 -2l-2 2l2 4zM266 698l-6 11l6 8v6l6 12l13 6h4l2 -4l-2 -10l-8 -6l-2 -4l-5 -2l2 -13zM240 729l8 10l12 -4 v-14l-10 -12l-14 -19l-19 8l-14 19l10 -2l12 10zM328 737l2 -4l-2 -8l-9 -8l-2 10l7 8zM293 721l2 2l2 4l4 -4v-4l-6 -6l-2 4v4zM381 700l-2 5l2 4l2 2h4v-6l-2 -5h-4zM283 680l-4 2l-3 2l9 8l14 4l-6 -14zM266 659l-10 13l-10 10l8 6l4 -4l14 -8l7 -14l-5 -5zM209 666l-4 6 l-2 6l6 6h10l4 -4l6 -8l-8 -6h-12zM203 590l-2 2l-2 6l-4 27v32l6 2l6 -4l2 -8l16 -33l6 -2l11 -16l14 -10l10 4l13 -4l-7 -11v-2l-2 -10h-2l-4 2l-2 -6l-8 -2l-4 4l2 6l-4 8l-10 5l-2 2v2l-7 -2l-2 2l-10 -2l-2 -2zM270 625l-10 6l-16 4l-17 -2l15 22l26 -4h2l2 -2l7 -12z M352 649l4 2h2l2 -4l-6 -6v-4l-4 -2l-6 4l-2 6l4 4h6zM287 629l-4 8l12 2l2 -4v-4l-4 -4zM186 592l-8 -8l-6 2l-2 6l-6 14l-8 12l6 3l10 -9l12 -10l4 -4zM231 563l7 -2l8 -14h-6l-7 -2l-6 6l2 8zM195 524v4l6 2l2 -2v-12l-6 -2l-4 4zM166 526l10 -8l2 -12l-8 -6l-10 2l-6 8 l-2 8l6 8h8zM172 473h4l2 2l-2 -8l-4 -2l-2 6zM190 446l-6 3h-6v12l12 2l3 -8l2 -4zM193 428v-8l-9 -4h-12l10 10zM260 389l2 2h6l4 -4v-2l-4 -2h-4l-6 2zM213 371l4 -4v-7l-4 -6h-4l-4 2v9l4 6h4zM256 326l4 -4l2 -7l-4 -6l-2 -2l-4 2l-2 6v7zM293 250l-6 -12l-11 -5l-4 3 l-2 2l9 8z" />
<glyph unicode="o" horiz-adv-x="1300" d="M102 16l19 -16l29 14l16 25l18 10l17 21l16 16l14 4l23 19l22 22l19 16l12 11l21 24l16 17l23 16l12 16l22 19l17 24l14 5l10 -15l4 -26l3 -48v-57l2 -27l10 29l6 27l2 26v54l-14 20l-2 14l16 -10l12 -24l15 -19l26 -18l23 -15v17l-27 39l-18 14l-21 10l-16 21l4 26 l14 11l11 18l18 21l22 18l15 14l14 17l25 22l18 15l35 43l18 18l15 6l18 27l12 8l19 27l18 16l17 10l18 25l19 16l16 19l20 18l15 12l18 25l19 10l20 21l21 14l14 16l16 19l13 10l16 18l6 -2l-8 -26l-6 -25l-6 -18l-11 -41h23l-6 -8l-10 -47v-31l10 -8l-8 -37l-2 -31l10 -35 l14 -28l8 -23h29l14 27l13 34l6 13l16 10l12 20l15 23l4 45v47l-12 29l-13 18v19l-2 20l6 -8l17 -20l16 -15l14 -18l17 -15l8 -20l2 8l-37 41l-22 47l-11 8l5 2l34 -28l25 -17l14 -12l17 -18l16 -6l-24 32l-25 25l-14 20l-27 33l-16 14l-35 25l-25 4l4 27l17 16l22 29l17 18 l14 17l-2 14l-14 6l-23 -10l-25 -27l-43 -2l-18 41l-20 27l-17 8l-33 -14l-14 -29l-14 -10l-25 -23l27 -37l26 -22l15 -10l-2 -11l-33 -32l-17 -25l-16 -10l-16 -23l-11 -14l-18 -21l-18 -22l-19 -17l-22 -18l-13 -20l-18 -11l-23 -16l-12 -25l-18 -14l-21 -20l-18 -11 l-13 -16l-24 -23l-10 -18l-21 -14l-18 -17l-15 -18l-22 -25l-16 -16l-17 -10l-41 -41l-43 -35l-12 -17l-14 -30l-19 -19l-24 -18l-15 -17l-20 -8l-15 -26l-20 -15l-16 -16l-17 -21l-12 -22l-12 -16l-19 -23l-16 -14l-17 -17l-18 -20zM971 856v-2l2 -2l-4 -2l-2 2v2zM999 831 l-2 -2l-2 2v3l4 2l2 2l3 -2v-5h-5zM1004 817v-2l2 -2l-2 -2h-3l-2 2v2zM1028 786l-2 2l-2 7l4 6l4 -6v-7zM1006 782v2h6l4 -6h-6zM1038 752l-2 4l-4 4l2 6h4l2 -4l4 -2l3 -2l-3 -6l-4 -2zM993 743v2l4 3h2v-3zM1036 727h-2l-4 4l2 6l4 -4v-6zM1040 694h-6l-4 2l-2 4l-2 7 l2 2l4 -2h6l-2 -9zM1053 684l-4 4l-2 4h8l8 -4v-2l-2 -2h-8zM1055 664l8 2l4 2l4 4l-2 6l2 4v6l2 4h2l2 -2v-4l-2 -4v-20l-2 -3l-2 -4v-6l-2 -4l-4 2h-6l-2 4l-4 4l-2 4zM1034 666l-2 6h2v4l13 -4l4 -13l-2 -2l-2 -4l-7 -2l-4 4l-2 9v2zM1030 649v-6l-2 -4l-2 4zM1051 629 l2 -6h-4l-2 -2l-3 4l3 10l-5 4l2 4l3 2l6 -6v-4zM1067 606h-6l-4 4v15l-2 4l4 8l6 -2v-4l2 -2l4 -8l2 -3v-4l6 -2l-6 -2zM1034 616l-4 5l2 4v2l4 -4v-7h-2zM1028 614l-2 2l-2 5l4 4v-2l2 -2v-5zM1032 606v4l2 2h4l13 -2v-2h-4l-3 -2h-12zM1024 594v6l4 2h4l6 -2l6 -4v-6 l-2 -8l-2 4l-2 -2l-4 2l2 2v2zM1067 596v-4l-2 -2h-4l-4 4l-2 4l2 2h6zM1008 598l4 -6l-2 -2h-2l-2 2v6h2zM1057 584h4l2 -2l-2 -4l-2 -3l-2 -4l-19 -12l-4 -2l-8 4v2l-6 6l-6 2h-4l-2 -2h-2v13l2 4l6 -2v-4l2 -2l4 -3h8l6 3l2 -3h4l7 3l2 2l6 2zM1006 559h-5l-8 2l4 2h11 l4 2l2 -4l-4 -4zM1061 549l-4 -2h-8l-5 -2h-4l-2 2v2l4 6h2l9 -2h4zM1006 530l-5 2h-2l5 5v2l2 2v8h2l4 -4l-2 -6l-4 -4l2 -3zM1010 528l6 -4l2 -4l-2 -4l-6 -2l-4 2l-5 4l3 4zM455 354l4 6h6l-2 -6l-6 -4l-2 2v2zM387 307l6 2l4 -4l-2 -6l-4 -8l-8 -2l-2 4l4 6zM377 276 l4 -2v-4l-6 -4l-10 2l4 6zM373 254l4 8l2 -8v-6h-4zM317 225l7 -6l-2 -4h-5l-2 2l-2 4v2zM303 178h4l4 -2v-2l-2 -2h-6v6zM254 168h2l2 -2l-2 -6l-8 -2l2 6z" />
<glyph unicode="p" horiz-adv-x="1288" d="M1176 793l10 -27l-25 -37l-28 -20l-41 14l-27 33l-14 28l-33 21l-37 12l-27 -18l-22 -11l-27 -24l-10 -10l-10 -29l-29 -29l-18 -12l-27 -22l-12 -19l-43 -39l-11 -8l-22 -25l-12 -12l-19 -22l-18 -15l-15 -24l-20 -13l-16 -14l-19 -18l-16 -19l-33 -33l-18 -20l-19 -25 l-14 -6l-15 -22l-20 -25l-18 -16l-11 -11l-18 -22l-21 -16l-14 -21l-16 -18l-17 -11l-20 -22l-15 -12l-22 -17l-12 -18l-15 -29l-22 -10l-33 -43l-41 -37l-41 10l-31 35l4 49l39 51l23 11l16 20l17 17l20 24l15 14l22 19l18 18l31 29l17 20l20 15l14 20l19 21l16 14l17 19 l18 20l18 18l15 7l18 26l17 8l18 21l37 33l14 20l21 14l14 19l18 22l25 17l19 18l12 19l22 16l31 35l16 16l13 21l16 26l31 23l16 16l19 13l14 20l10 27l23 16l10 27l-14 26l-43 25h-29l-53 -6l-21 -2h-26l-27 10l18 16l27 6l33 9l45 2l26 8l25 -4l51 -4l21 -6l22 -3l47 -22 l13 -21l22 -16l17 -18l24 -39l31 -41l33 -27zM1008 924h10l-2 2l-2 4h-4l-2 2h-4v-6zM973 885v2l-2 2h-4l-4 -4v-4h4l4 2zM930 883l-10 -11l2 -6l4 -6v2l2 4l4 2h6l-4 17h-4v-2zM997 872v5l-2 4l-4 -2h-2l-2 -2l-2 -5l2 -2v-2l2 -2l2 4zM1036 870v7h-10l-4 -3l4 -2l2 -2h8z M1014 844l4 8l-2 4l-2 2h-4l-2 -4v-6l4 -2zM948 819v2l-2 2l-4 2l-4 -4l-8 -2l-4 -6l-13 2l-8 8h-8l10 13l-4 16l-16 -12l-6 -6l2 -9l6 -4l8 2l-2 -8v-10l4 -6v-6l8 2l6 6h9l16 16l6 -2zM936 831l-4 11l-6 10l-2 -6v-6l6 -9h6zM1049 831h2l4 3l-2 4l-2 2h-4v-6zM862 831 l-2 -6l2 2h2l4 4v3l-2 2zM1063 811v4l-4 2l-2 -2l-4 -2v-4l4 -2l2 2zM860 799l-2 -6l8 -2l4 4l4 2l3 2l4 2v12l-2 2l-5 -2l-2 -2v-4l-6 -6zM844 807v-8l2 -2h2l4 6v10zM1102 795l2 2l-2 6h-2l-2 -4zM834 795l-3 -4l5 -5l16 -8l2 4l-10 11zM883 780l4 6l-4 9l-9 -2l-6 -9 l-6 -6l-4 -6l8 -10l15 -6l-4 6l4 8zM817 788l-4 -6l4 -6l6 -8l2 -10l2 2l9 10l-7 16zM846 741v4l-4 5h-17l-12 2v2l-2 2l-12 4l-8 6v8l-5 6l-2 -4l-12 -12v-6h4l2 2l8 -2l5 -4l2 -4l2 -2v-9l8 -6h6l8 2h8l17 4zM858 752l2 4l-2 6l-4 2l-6 2l-2 -6l2 -8l4 -2h4zM778 743l2 2 l-2 5h-10v-2l2 -5l4 -2zM821 713l8 -2l-6 8l-8 6l-4 2l-4 -2l-2 -4l2 -6h4zM760 717v-4h2l4 2l2 2v2l-2 2l-4 -2zM774 690l2 4l-2 4l-8 4h-4l-4 -2v-6l2 -6l8 -2l6 2v2zM735 684h6l-2 4l-2 2h-4v-4zM727 672l4 8l-6 6l-4 -6l-4 -4l2 -4h8zM721 651h6l-4 6l-6 2l-2 -4z M670 639v2l-2 2l-4 -2h-2l-3 -2l5 -2h2zM700 616l2 5l-2 4h-4l-2 -2v-5l2 -4h2zM670 592v6l-2 2l-4 -2l-2 -4l2 -4l2 -2h2zM645 530l2 2l-4 7l-8 4l2 -8l4 -5h4zM477 403l2 11l-8 -4l-6 -7l2 -4h2zM387 328l2 6l-6 4l-8 -2l-2 -10l-4 -9l2 -6l10 2zM340 285v4l-4 4l-10 -2 l-7 -10l13 -2zM367 254v10l-5 8l-6 -8l4 -10h7zM289 209l2 4l-2 4l-6 4l-4 -2l-3 -4l9 -8zM276 150v6l-6 2l-4 -2l-2 -4l2 -2h10zM201 129l4 8l-2 4h-4l-6 -6l-3 -10z" />
<glyph unicode="q" horiz-adv-x="1234" d="M934 913l-33 37l-22 13l-19 18l-24 20l-27 17l-31 -14l-16 -21l-21 -12l-14 -23l-45 -45l-6 -29l18 -26l13 -19l20 -20l16 -14l-4 -33l-20 -19l-17 -20l-10 -21l-24 -16l-11 -12l-22 -23l-14 -18l-33 -33l-21 -12l-12 -21l-16 -22l-23 -21l-14 -8l-21 -20l-16 -25 l-14 -18l-21 -15l-16 -12l-19 -25l-12 -10l-23 -18l-10 -19l-18 -22l-17 -19l-22 -18l-10 -19l-19 -12l-18 -20l-17 -17l-22 -14l-31 -37l-20 -16l-13 -15l-20 -14l-21 -33l15 -24l10 -23l35 -24l20 -19l35 -8l29 14l12 19l23 18l10 29l39 31l14 16l23 14l16 21l12 20l21 21 l16 12l17 16l14 23l24 14l17 11l14 26l14 14l37 35l15 15l18 22l16 12l21 19l18 22l15 15l18 10l17 25l14 12l20 16l13 21l20 16l14 25l19 12l16 22l21 11l12 18l37 6l16 -24l21 -11l18 -18l23 -25l30 9l27 24l21 17l16 8l12 22l15 21l41 35l-19 30l-12 15l-17 20l-16 10 l-14 19l-54 53l-16 19l-18 16l-13 10zM807 936l-2 -2l-4 -2h-10l-3 4l-4 4v8l9 4h4l6 -2l6 -6l-2 -4v-4zM834 928v-6h-3l-2 -2l-4 4l2 2v2l2 2zM877 930v-10l-5 -7l-6 2v5zM850 920l2 -5l-2 -2v-2l-4 2h-8l2 9l4 2l6 -2v-2zM788 920h5l2 -2v-5zM788 891l3 4l2 -2l10 -2h-2 l-2 -2h-4l-2 -2zM920 895l2 -4l-2 -2l-5 -2l-6 2l-2 2l2 4h11zM725 872l2 2v3l4 4l4 6l2 4l2 2h4l2 -4v-2l3 -2v-11l-7 -2h-4l-6 -4l-4 -2l-6 -2l-2 6zM745 840l3 12v4l4 6l2 8l2 2l2 5l2 2l10 4l4 -2l4 -4h10l11 6l6 4h4l2 -4l2 -6v-3l2 -2v-2l2 -4h-8l-8 4l-6 -2l-9 -4 l-10 -10l-4 2l-2 -2l-2 -4l-4 -4v-2l-4 -6l-4 -9l-2 -6l-4 -4l-2 2h-5v10zM885 860h2l2 -4l-2 -4l-2 -2h-2l-2 4l2 4zM942 852l4 -2v-4l-2 -2h-6l-4 2l-2 4l4 4zM805 842l6 -6l-8 -13l-21 -2l-6 8l-6 11l6 -2l8 -2l13 4zM1010 819l2 -4l-4 -6l-9 -4l2 4l3 6l2 2zM811 815 l-4 -6l-2 -6l-12 -4l-5 -4l-6 6l6 4l3 4l10 8h8zM762 801l-8 -2l-4 6l2 6l4 4h4l4 -2l6 -4l-2 -2l-2 -4zM821 778l-12 13l-2 4l2 4h2l8 -4l2 -9v-8zM745 778l3 2l6 4l6 7l8 4h6l4 -4l2 -5l2 -2l2 -6l2 -4v-6l-2 -2l-2 -4h-4l-6 2v2l-2 4l-4 2l-6 4l-2 2l-4 2zM795 772l-2 4 v4l4 4l4 -2l2 -4v-2l-2 -6l2 -8l2 -2v-10l-2 -5h-4l-4 5l-4 8l2 4v6zM817 756h-6l2 6v2l2 2zM784 725h-8l-12 4h-14l-7 -8l-8 -4l-2 -4h-6l-2 2v4l4 4h6l4 6l4 8l2 2l3 4h6l4 2l2 3v2l2 2l4 2l4 -4l8 -5l2 -4l4 -12v-4zM829 743l2 -4l-2 -6l-2 -4l-4 -2l-2 4l2 4l2 6l4 9v-7 zM803 731l4 -12l-4 -8l-2 -2l-2 -4l-4 -5l-9 -12l-4 10l-6 9l2 4l4 12l4 2l2 4l5 2h10zM758 684l-10 10l-3 6l-4 5l2 2h7l8 -9v-14zM760 676l6 -8l4 -9l-8 -14l-2 -2h-4l-4 8l-2 11l10 6v8zM725 635l-2 -8h-6l-4 -2v4l2 4l4 6h4zM678 629l8 2l4 -2v-4l-2 -2l-4 -13h-4l-6 -2 l-2 4l4 9zM629 582l6 8l8 2l4 -4v-4l-8 -4zM664 565l4 8l4 -8v-8h-8v8zM723 565v6l2 2h6l2 -4v-2l-4 -2h-6zM629 541v-4l-2 -5l-4 -2l-5 2v5l3 2l4 2h4zM596 518l-6 6l2 4h4l6 -6l-2 -4h-4zM588 465h-8l-2 4l2 2l4 2l4 -2v-6zM496 344l10 2l-2 -8l-6 -6h-4v4zM430 317l-4 -2 l-4 2v7h8l2 -2zM414 252l-6 4l-2 4l2 4l4 2l8 -8v-4zM338 219l2 -10l-6 -8l-4 8v10h8zM356 188l11 7l10 -2l-4 -11l-13 -2l-4 4v4zM315 160l11 2l4 -6l-6 -9l-2 -10l-9 -2l-6 4l2 6zM227 74h2l2 -4l-6 -9l-8 -2l2 11z" />
<glyph unicode="r" horiz-adv-x="1224" d="M1114 1032l-70 -26l-4 -19l23 -10l-12 -16l-23 -25l-16 -14l-15 -9l-20 -24l-14 -10l-33 -37l-19 -25l-16 -14l-35 -35l-20 -16l-13 -21l-18 -12l-21 -21l-18 -10l-16 -22l-15 -19l-16 -16l-18 -13l-15 -18l-18 -14l-23 -27l-16 -8l-12 -25l-21 -12l-20 -22l-13 -17 l-22 -16l-10 -13l-21 -22l-16 -18l-21 -13l-12 -20l-19 -13l-18 -26l-18 -17l-13 -10l-51 -16l-10 -6l4 -11l-25 -14l-88 -41l17 -37l-62 -20l37 -15l-4 -10l-39 -14l-18 -14l-41 -25l-15 -18h31l10 -15l-6 -12l6 -2l15 -2l8 -33l12 -2l21 47l37 33l10 14l16 12l31 -18l8 78 l4 4l31 -27l26 76l25 2v21l23 47l14 22l16 8l15 21l18 16l37 37l14 23l23 18l16 12l15 17l20 16l33 33l18 25l19 10l16 24l18 17l35 35l13 10l18 20l20 23l15 10l14 21l23 18l18 10l14 17l15 22l22 17l13 22l16 8l16 19l23 14l18 20l15 17l14 24l33 29l20 25l15 -25h14 l16 80zM387 276l2 9l10 2l-4 -8l-4 -5h-2zM352 268l4 -4v-2l-4 -2l-4 2v6h4zM319 219l7 -6v-4l-7 -2l-2 4l-4 4l2 2zM254 180l2 -2l2 -6l-4 -8l-4 8l2 6zM272 154l9 6l10 -2l-4 -8l-11 -3l-4 3v4zM238 129l10 2l2 -4l-4 -8l-2 -8l-8 -2l-5 4l2 6zM164 57h2l2 -2l-4 -6l-8 -2 l2 6z" />
<glyph unicode="s" horiz-adv-x="1171" d="M1075 231l-24 66l-7 25l-6 30l-8 17l-10 26l-8 19l-13 22l-8 27l-4 16l-14 33l-4 14l-8 31l-9 21l-8 22l-18 45l-15 21l-6 20l-12 21l-19 20l-22 43l-4 25l-31 32l-24 11l-7 16l-6 18l-10 17l-6 14l-23 4l-18 23l-35 28l-12 21l-19 20l-2 45l4 35l13 23v24l-19 -6 l-12 -18l-6 -23l-21 -2l-14 13l-18 6v-39l8 -25l2 -35l-4 -24l-13 -31l-14 -14l-35 -27l-39 -8l-20 -8l-21 -15l-18 -14l-25 -12l-28 -33l-15 -14l-14 -29l-6 -14l-14 -25l-11 -12l-12 -31l-12 -20l-6 -21l-21 -35l-12 -30l-25 -41l-8 -21l-10 -33l-8 -16l-6 -29l-15 -14 l-6 -33l-16 -18l-4 -27l-17 -41v-22l-6 -31l-2 -27l-6 -26v-17l-2 -28l-8 -19l-2 -31v-20l-9 -59l7 -17l-3 -22l27 -37l49 6l19 10l24 15l39 36l17 9l14 18l16 12l17 21l14 18l25 45l16 13l4 28l14 15l7 26l8 25l14 24l4 15l12 30l9 43l-4 31v25l-7 20l5 37l8 -35v-16 l10 -23l14 -10l13 29l4 18l14 15l6 28l8 27l21 41l12 16l10 19l6 30l9 17l10 55l-2 25l4 28l-2 19l12 10l2 14l8 17l13 -2l16 43l10 -11l-8 -26l2 -19l-2 -30l-10 -27l-2 -20l-6 -21l2 -31l4 -45l8 -28l16 -13l9 -24l12 -25l4 -22l18 -4l11 30l8 19l12 16l6 31l9 -4l-3 -21 l-4 -22l-10 -31l-2 -23l2 -22l-8 -25l10 -39l8 -30v-17l11 -22l6 -33l12 -20l10 -19l17 -43l18 -24l10 -17l13 -12l12 -23l29 -43l10 -18l29 -43l22 -17l16 -10l13 -20l20 -17l15 -24l18 -19l39 -12l39 19l14 49l2 28l8 33l-10 47l-4 19l-10 30l-2 13l-6 26l-7 23zM639 915 l-12 -59l-19 4l-16 14l-2 39l14 21l8 24h25zM561 858h2l4 -4l-2 -8l-4 -4l-2 -4l-2 6v6zM494 815v-6l-5 -4h-4l-2 4v6l2 2l7 2zM440 793h4l2 -7v-6l-4 -2h-2l-4 6l2 2v5zM479 760h8l2 -2l-4 -4h-4l-2 2v4zM422 731h-8l-8 8l4 2h6l6 -4l2 -4zM412 711l10 4l4 -4l-2 -6l-4 -9 l-8 4v11zM406 684l-5 4l-2 4l2 2h5l4 -2v-6h-2zM375 657l-10 2l-7 5l2 10l7 4h10l6 -6v-8zM379 639l2 6l4 2h4l2 -4l-2 -4l-4 -2h-4zM303 608v4l6 2h6l11 4l6 3l4 -3l2 -4v-6l-4 -4h-6zM381 602l4 6l8 -2l2 -2l2 -4l-12 -4l-4 2v4zM393 588h4l2 -6l-2 -7l-4 -20l-8 4l-4 10 l-16 2h-7l-8 -2l-6 4l-6 -2l-14 -4l-9 -2l-2 -2l-4 -2l-6 2l-2 6l2 4l10 7l9 6l10 6l8 6l8 2l12 -2l2 -2l3 -8h2l2 -4l2 2l2 -2l8 -2l8 2zM358 524l-10 -2h-2l-2 2l-8 6l-8 9v4l2 8l4 10l8 -12l10 -8l8 -6v-7zM309 539h-12l-6 6v8l6 2h6l6 -8v-8zM274 524l-10 4l10 2h11 l16 -6l-2 -10l-2 -12v-4l-2 -6l-8 -9l-11 4l3 11l-3 6l-2 4l-2 2zM338 520l4 -4v-4h-2l-4 -2l-6 -2l-13 6h-6v8h13zM330 502l4 -2l4 -8l-6 -9l-2 2l-2 7v10h2zM303 498l10 2v-8l-4 -7v-4l-2 -2l2 -10l-2 -4l-4 -4l-2 2l-4 2l-2 6v4l4 10l4 4v9zM246 438l-2 -10l-6 -4l-5 -4 l-2 -6h-4l-4 2l-2 2l4 6l6 2l13 31l12 2l2 10l8 6l4 -6l9 -4l4 -14l2 -9l-11 -4l-12 4zM315 465v6l2 2l5 2v-8l-5 -2h-2zM334 455v-4l-4 -9h-4l-2 2l4 11l4 4zM295 406v-3l-8 9l-6 8l4 20l10 9l8 -3l6 -8v-6l-8 -16zM262 406l4 -15l-12 8l-10 11l2 2l6 2zM764 399h2l2 -6v-8 l-6 6zM283 352l-4 -2l-15 15l10 10l-2 8l15 -12zM885 365h2l2 -3v-6h-2l-4 4zM836 344l6 -6v-8l-8 4h-7l-6 4l2 6l6 6h5zM893 330h10l10 -6v-2h-10l-6 4l-8 -2h-12l-3 4v4l3 4h4l2 -4l6 -4zM248 332l2 -2l2 -8l-8 -9l-2 9l2 8zM219 307l2 -8l2 -12l-8 -8l-6 4v10l-2 8l6 6h6 zM281 272h6l4 -4l-4 -4l-4 -2l-4 4zM184 240l9 6h6l2 -4l-4 -9l-13 -4v11zM225 244l8 -6l3 -9l-5 -4l-6 8v11zM1047 236l2 -3v-4h-5v7h3zM971 231l8 -2l4 -4l-2 -4v-8l-8 -2h-6l-2 6l-4 8l-7 2v4l2 2l5 -2h10zM868 229l4 -4v-2l-2 -4l-8 2v2l2 4zM201 190h4l2 -4v-4l-2 -4 l-4 2l-2 2v4zM1028 190l4 -2l2 -6l-4 2zM190 160v-4l-4 -2h-4l-4 2l-2 4l4 4l6 -2zM956 164h9l2 -6l-6 -6h-7v6zM899 150l4 -5v-8l-2 -2h-2l-4 4v6l-2 2v3l-6 2v6h6zM948 113l4 8l6 -12l-10 -15l-8 2l-4 6l6 4zM199 104l2 -4l2 -2l-4 -2h-9v4l5 4h4zM1026 49l6 -6l4 -6 l-4 -6h-6l-2 8v4zM981 39v-6l-2 -2l-4 2l2 6l-10 8l10 -2z" />
<glyph unicode="t" horiz-adv-x="1026" d="M920 367l4 -29v-21l-11 -51l-14 -26l-20 -7l-17 13l-18 -15l-19 -32l-24 -41l-21 -6l-16 -21l-23 -12l-18 -19l-16 -8l-43 -26l-21 -21l-20 -8l-25 -12l-39 -33l-18 -15l-13 -18l-32 8l-11 10l-14 17l-41 35l-27 8l-16 14l-25 6l-40 35l-19 10l-16 21l-23 12l-14 17 l-19 12l-32 41l-13 16l-26 25l-19 -8l-14 2l-12 22l-6 51l-7 29l7 25l10 47l2 14l26 8l9 -30l20 -39l14 -19l35 -29l17 -12l-9 -24l-20 4v-29l35 -27l20 -22l76 -23l51 -6l39 25l10 41l5 22v23l2 20l6 49l-2 25l-2 14l2 25l-2 29l6 26l-4 29l2 22v45l-4 21l4 33l4 24l-4 21 l4 28l-2 21l-4 31v14l-11 25l-41 8l-22 -2l-70 8l-18 8l-25 16v23l6 27l21 26l16 -2l25 17l41 2l26 -6l41 10l19 12l-19 16l-16 35l-10 23l-12 14l-5 47l11 29l22 43l49 16l58 4l47 -30l26 -31l7 -23l-5 -45l-12 -22l-8 -25l-16 -30l-11 -19l13 -18l36 -6l29 2l45 -9l23 4 l18 -10l21 -22l2 -19l4 -22l-23 -25l-26 -14l-19 -4l-43 2l-26 -8l-43 4l-13 -23l2 -31l-2 -16l-2 -31l6 -18v-107l-4 -22l2 -25l2 -26l2 -21v-22l-2 -21l-2 -26l2 -25l2 -27v-49l7 -14l-5 -27l9 -22l10 -47l37 -19l55 6l29 6l45 27l22 8l31 39l2 27h-24l-7 18l17 10l37 27 l32 66l13 16l16 4l12 -18zM457 1044l14 -14l25 -2l34 8l19 -6l22 12v39l-10 21l-29 24h-38l-21 -14l-20 -29zM559 971v8l-4 10l-6 -10l4 -8l2 -2zM514 918v4h-4l-8 -4l4 -7l6 2zM541 856l4 4l-2 4l-6 2l-9 -4l2 -6h11zM541 766l4 2l8 8l-2 10l-10 -6l-4 -10zM504 782l-4 -2 l-2 -4l6 -6l8 -6l-2 12zM537 700l6 9l-4 8l-2 10l-7 2l-8 -8l4 -14l2 -7h9zM510 575l12 3l-8 4l-6 2l6 6l-2 8l-2 2h-4l-2 -8l4 -8l-4 -4v-2zM524 510l-2 2l-2 -4v-4l2 -6h6l2 4l-2 6zM514 457l-2 4l-6 4l-4 -4l4 -6l4 -2h2zM559 459v4h-4l-4 -2l-2 -4l4 -4zM498 408l10 -5 l8 3v2l-2 4h-8zM516 375h8l2 8l-2 6l-2 2l-8 -6zM516 360l2 2v7h-4l-4 -4l2 -3zM506 336l-4 6l-8 4l-9 -4l-4 -8l4 -8h7l8 2l4 4zM510 319v-6l4 -2l2 2l2 4v5l-2 2h-4zM528 291l-2 -6l2 -4h4l5 4l6 4l-8 4zM547 252l10 2l-2 8l-4 8v6l-6 5l-2 -2v-5l-6 -6l-9 -2l-6 2l-2 -2 l-6 6h-2l-12 -4l-4 -4l-9 -18l-8 -21l-2 -4l4 -2l6 2l15 15l8 10l6 -2l12 10l13 4zM479 279l-20 -21l4 -2l20 8l4 2l2 4l-2 4l-4 5h-4zM541 211l4 4l-2 4l-2 6h-23l-10 6l4 -20l10 -2l10 -4zM797 207v14l-9 -8v-6l3 -4h4zM494 199l6 4l-6 6l-9 4l-8 -8l2 -2l2 -4l6 -2z M508 190l2 -4v-2l4 2h14l9 9v2l-2 2l-7 2l-4 -2l-6 -4l-6 -2zM242 184l2 4l-2 5h-2l-4 -3v-8zM276 182l3 6l-3 5l-6 -5l-2 -4l6 -4zM504 160l-2 6v10l-2 4v4l-2 4h-17l-16 -8h10l2 -6l2 -4l8 -8v-6l11 -4l2 4zM737 176l2 4l-2 2h-8v-4l4 -2h4zM530 170l5 -4l4 -2l2 4v4l-4 6 l-2 2h-5l-2 -2l2 -4v-4zM350 162v4l-4 8l-10 2l2 -10l8 -6zM508 168l2 -4v-4l-2 -2v-2l-2 -4v-7l4 -8l4 -2h2l2 4l2 2l-2 6l-2 5v4l2 6l2 4l-2 4l-2 2zM299 162v4l-4 2l-2 2l-4 -2v-4h2v-2l4 -2zM530 143v9l-4 -2l-2 -7l4 -2zM389 133h14l3 6l-7 8h-4l-4 -2l-8 2l-4 -4l4 -8 zM520 104l2 5l-2 6l-4 6h-8l-4 -4l-4 -2l-2 4v4l-2 6l-2 4l-9 6l-4 4l-4 -2l-2 -2l-2 -6l-4 -2l-4 2l-2 -2h-4l-2 4l2 -6v-2l2 -2l4 -2l2 -2l6 2l6 -2l6 -4l7 -2h8l-2 -4l-4 -13v-6l2 -8v-12l12 12l4 6l6 6zM338 131l6 6l-8 2l-8 -4v-4l2 -2zM545 127v4l-2 6l-2 -4l-4 -4v-8 l2 -4l2 2zM721 121v8l-4 4h-4l-4 -4l2 -4l4 -4h6zM627 123l-2 -8l10 4l2 2v6l-2 2h-2zM418 102l4 2l-4 5l-4 2h-8l4 -9h8zM467 96l2 -2v-14l2 2l2 4l2 2v2l2 2l-4 8l-2 6l-4 5v-15zM596 84l2 6l-10 4l-10 -4l-7 -4l2 -6l9 -4l6 6zM645 80l10 4l-8 8h-6l-4 2l-4 -4l2 -6z M362 80v4l-4 2h-2l-2 -2v-4l4 -4zM475 72l4 4l-2 2h-8l-6 -6l-4 -2l-2 2l-4 2l-7 6l-6 -6l-4 -2l-2 -2v-4l2 -3l10 -4l13 -2l2 2l2 4l2 7h6z" />
<glyph unicode="u" horiz-adv-x="1437" d="M1329 557l6 -8v-6l-2 -19l-12 -6l-39 -14l-59 6l-43 10l-41 -16l-13 -21l-8 -24l-4 -17l-10 -32l-6 -13l-4 -28l-11 -25l-10 -20l-18 -15l-8 -18l-5 -27l19 -39l33 -30l45 -29l22 -41l6 -16h-2l-10 -5l-8 -10l-8 -2l-9 6l-36 27l-37 35l-27 30l-35 31l-30 -4l-21 -12 l-14 -23l-21 -6l-22 -16h-25l-20 -8l-49 -11l-17 -4l-24 -18l-7 -35l-6 -49l9 -60l-9 -36l-2 -15v-2h-12l-16 -4l-2 10l-5 -10l-8 23l-2 39l6 57v39l-10 37l-22 24l-23 -4l-22 14l-27 -2l-64 27l-22 10l-21 13l-16 14l-27 6l-36 -16l-62 -74l-37 -27h-14l2 -4h-8l-10 17 l-9 2v4l4 10l25 37l45 39l33 22l22 37v29l-18 22l-12 11l-13 30l-6 21l-14 16l-8 29l-2 16l-7 21l-2 28l-18 27h-39l-45 6l-59 -14l-39 10l-8 4l-5 17l2 10l3 8l-7 6l15 -4l39 14l57 -12l47 8l39 2l18 21l2 30l9 19v20l10 27l12 25l8 20l13 21l8 16l18 25l2 30l-118 119 l-5 27l-4 -4l4 6l13 4l6 4l4 10l8 -12l41 -25l27 -37l39 -36l24 -21l33 10l16 4l27 19l14 10l25 8l25 11l18 12l22 4l27 2l23 4l18 27l12 34l-4 39l-2 54v39l15 20l2 4h16l8 -6l4 2l4 -14l9 -41l-7 -60v-39l9 -34l22 -27l21 -6l26 6l21 -10l22 -13l23 -10l41 -20l18 -8 l23 -17l30 -4l27 23l33 32l35 43l32 19l17 14l2 -4v-6l16 -12v-7l2 7l-2 -19l-24 -33l-41 -39l-39 -28l-17 -25l2 -41l11 -14l16 -25l8 -16l13 -18l10 -21l6 -27l12 -18l2 -27v-22l21 -29l41 2l41 -10l59 16l39 -12zM688 899v-6h6v4l-4 4zM545 889v-4l4 -2h2l2 2v2l-2 4z M590 868v-8l2 2l4 2l2 6l-4 4zM631 870l-2 -2l4 -2h2l4 4l-2 2h-2zM655 870v-8h4l3 2v2l-3 4l-2 2zM844 868l-4 -2l4 -2l4 -4v2h4l4 -2l2 4v2l-8 4zM563 807l-18 -14l-8 -29l18 -31l20 -31l66 -47l37 -18l8 39l8 45l8 37l-10 33l-4 36l-22 21l-29 -12l-25 -11l-20 -4z M606 846h-6l-2 -2l2 -4l6 -2l6 4zM743 793l-6 -35l8 -39l5 -47l14 -27l29 17l41 22l32 16l17 35l20 23l-4 39l-22 6l-25 14l-29 8l-24 17l-25 4l-29 -21zM492 840l-7 -6l2 -7v-6l5 4l4 2h6v15l-4 2l-2 -2zM526 838v-2l4 -2l9 8h-9zM557 836l-4 -5l4 -4l6 -2l4 6l4 5v4l-6 2 l-4 -4zM444 801l-4 -4l2 -4v-5l7 -2l4 2h4v-4l-2 -2v-10l6 -6v-2l2 -4l2 2h2l6 6h4l2 -2l4 2l6 6l7 4l4 -2l4 2v2l-2 2l-4 2l-2 -2h-9l-4 -4h-6l-6 2l-6 6l-8 2l6 7l2 4l2 2l-2 8v8l-4 -4l-4 -2h-2l-4 -4l-5 -2zM485 807l-2 -4l2 -4l2 -6h7v4l-2 6l-3 4l-2 6zM940 803l-4 -6 l2 -9l4 -2h6l8 -4l7 2l-2 7v6l-7 2l-6 4h-8zM418 788v-2h4l2 2l4 7l-2 2h-2l-4 -4zM430 774v4h-4l-2 -2v-2l-2 -2h6zM432 774v-10l-2 -2l-6 -4l2 -4v-2h6l2 6l2 2h2v2l4 4v8l-4 4l-2 -2zM1012 774l-11 -2l9 -8h10l2 4v4l-6 2h-4zM412 766l-4 -8l2 -6l2 -2l4 2v6l-2 4v4h-2z M455 739l-4 9l2 4v4l-7 4l-2 -2l-4 -2l-2 -4v-2l-2 -2l-2 -9v-2l-2 -4h-2v-2l8 -2l6 -2h15l-2 2l-4 2v4l2 2v2zM977 745v-10l6 -6h2l2 4l4 6l-6 11h-4zM403 743v-4l3 -4h20v6h-4l-10 4l-4 -2h-5zM391 731l-2 -8l2 -2l12 -6l9 -8v8l2 8l-6 4l-7 6h-6zM436 723h-8v-6l4 -6h4 l4 2l2 6zM946 721l-24 -16l-33 -23l-27 -37l-24 -31l-19 -32l39 -11l43 -16l39 -4l39 12h25l18 31l-2 20l-23 54l-10 26l-14 21zM520 705l-24 12h-33l-17 -31l-8 -22l-14 -19l-4 -22l-4 -35l18 -19l29 -4l31 -6l41 4l47 2l32 21l-12 26l-27 37l-26 31zM406 678h2l6 6l6 4 l6 6l6 4l4 4l-2 3l-6 2l-2 -2h-2l-6 -3l-4 -2l-6 -2l-5 -2l-2 2h-8l-6 -2l-10 2l-4 7l-6 2v-2l-2 -5v-10l-3 -2l3 -6h4v2l2 2l6 2l6 -2h2l2 -2h2l2 -6h2l8 -2zM1047 674v6l-3 4l-6 -2l-4 -4l-2 -6l4 -2l6 2zM377 670v6l-2 2l-4 -2l-6 -2l2 -2l2 -4h6zM410 668l2 -4l4 -2 l12 6l8 2l-2 2l-8 2h-14v-2l-2 -2v-2zM379 641h2v6h-4l-2 -2l-2 -4l2 -4l4 2v2zM1096 633l2 6l-2 2h-4l-5 -2v-6l3 -4l4 2zM399 623v6l-6 4h-6l-6 -6v-2l2 -4l6 -3h6zM629 612l-2 6v-2h-2v-6l4 -4v6zM367 608l-2 -2l2 -4l4 -2l4 4l-4 2l-2 2h-2zM358 590v-4l4 -2l3 2l4 2 l-2 8l-7 2zM694 592h4v4l-2 2l-2 -2v-4zM666 575l-7 5v2l-2 2h-2l-4 -4v-5l2 -4l6 2l3 -2h4v4zM711 573h-9l-4 -2l-4 4h-4l-2 -2v-2l2 -4h4l6 2h5l6 -2h6v2zM381 569l-8 4l-6 -2v-4h6zM1069 561v2l-2 2l-2 4l-4 2l-2 -2v-8l4 -8l4 4zM373 524h2l2 4l-2 4l-4 3l-4 -5l2 -4z M338 526v2l-2 2l-4 -2l-2 -2l2 -2h2zM723 528l-2 -6l-6 -6h-2v-2l2 -6h4l2 2l6 8zM1016 455l12 26l-22 21l-29 14l-35 10l-45 -6l-45 -12l-35 -8l19 -43l26 -29l27 -33l29 -18l26 -27l33 17l10 18l17 23l6 20zM496 354l53 33l22 41l31 33l14 31l-30 20l-51 2l-37 2l-39 -4 l-25 -2l-20 -23l6 -30l4 -23l16 -22l13 -31l10 -14zM801 510l-2 2l-2 -2h-2v-2l2 -2h4v4zM762 489h4l6 3v6l2 2l-4 4l-6 2l-8 -2h-4v-4h4l2 -4l2 -2zM692 496l-4 2l-2 -2v-2l-2 -2h8v4zM365 485l2 2l-5 9h-4v-9l4 -2h3zM813 473l-2 2l-4 2l2 -4h4zM764 451l-2 4h-6l-2 -4 l2 -5h4zM711 440l2 -2v-4l4 -4v2l2 2v4l-4 4h-2v2l-2 5l-4 -3v-4zM389 432l2 4l-6 2l-8 -4l4 -2h8zM614 248l21 -6l24 -15l33 25l2 31l13 34l-11 35l-6 49l-12 33l-35 -12l-35 -33l-35 -20l-18 -29l-18 -25l6 -28l20 -25l29 -10zM874 266l21 10l10 31l-22 33l-19 31l-35 22 l-32 25l-37 14l-8 -33l-13 -43l-6 -45l12 -28l3 -31l24 -21l29 2l24 11l29 14zM434 319l4 5h-4l-4 2l-6 -2v-7h6zM1006 309l2 2l-2 2h-7v-4l2 -2zM479 272v2l-4 5h-4l-4 -3l2 -2l2 -4h4zM518 270v6h-2l-2 -2v-6h2zM993 262v4l-2 2l-2 4l-4 -2l-2 -2l2 -4l4 -2h4zM883 256v4 l-2 2h-4v-4l2 -4zM969 258v2l-2 2h-2l-4 -2v-4l4 -2zM928 242v6l-2 2h-2l-2 -6v-8zM500 238v2l-4 4h-2l-5 -2v-4h3l4 -2zM559 217l2 6l-2 2h-4l-4 2l-2 -2l2 -8h8zM946 217l6 6l-8 4l-8 -4l-2 -2l4 -4h8zM535 219l2 6h-5l-4 -6v-8l4 4zM682 158v4l-8 8l-4 6l-8 8l2 2v2l-2 7 l-5 4l-2 12l7 4l2 8h-7l-4 -2h-4l-4 2l-4 -4v-4h4l4 -6l-2 -6v-2l2 -2l-2 -2v-2l-6 -5v-10l10 -10l6 -4l2 -2l17 -8h2l2 -2zM831 211l3 8l-3 2h-2l-4 -2l-6 -2h-2v-8l-2 -8l6 6l4 -2h6v6zM750 211l4 2h2v4h-4l-2 2l-7 -4zM571 213v2l-2 2l-4 -2l-2 -2v-2l2 -4zM639 209l-2 4 l-4 4l-2 -2l-2 -4v-4l2 -2h6zM868 211l4 2h-4l-4 2l-6 -4v-4l2 -2l6 4zM907 207v4l-8 2l-4 -4l-4 -2l-4 -6l2 -4h8l2 2l2 4zM682 180l10 2l4 17v4l-4 2l-2 4l-8 -2v-8l-2 -11l-2 -4l-4 -4h8zM813 158v2l-2 4l-2 -2h-4l-8 4l-4 -2h-5l-8 8l-2 10l-6 6l16 5l3 8l4 8h-7l-6 -2 l-4 2h-4l-8 -2l-4 -8l2 -6l8 -5l-2 -2l-4 -2l-6 -8v-8l-4 -4l8 -4l6 2l4 -2l2 -4h10l9 2h8l4 -2h4zM715 201v-2l2 -2l6 2l6 8h-10zM604 199h6l-2 4l-2 2h-4l-2 -2v-2zM702 190l7 -12l2 2h4l-2 4l-2 11l-6 8h-3l-2 -2v-4zM737 201l2 -2h4l2 2l-2 2h-4zM594 184v9l-6 6l-6 -2 l-4 -7l2 -6l4 -4h6zM752 188v7h-7l-6 -5h-2l-4 -2l-6 2l-4 -4l4 -6l6 2h12zM813 182v13l-10 -9v-10l4 -2l2 -2l2 6zM743 166v8l-8 4l-10 -4h-2l-4 -2h-4l-4 -2v2h-2l2 -14l4 -8l4 -7v4l2 5l8 4l6 8l4 2h4zM645 145v11l-2 10l-2 4h-8l-2 -2l-2 -4l6 -6l2 -4l6 -9h2zM700 156 l2 6l-4 8l-6 -2l-4 -8l2 -4l4 -2z" />
<glyph unicode="v" horiz-adv-x="1173" d="M1057 1126l14 -55l-8 -53l-31 -49l-20 -39l-19 -33l-8 -25l-16 -14l-49 -49l-13 -25l-37 -28l-26 -37l2 -53l-8 -25l-25 -35l-31 -24l-22 -11l-35 -30l-14 -54l16 -20l29 -6l24 -2l25 10l22 -10l21 -13l2 -10l2 -30l-4 -21l4 -29l-10 -26v-23l-8 -20l-5 -23l-6 -35 l-12 -16l-6 -25l-17 -16l-8 -22l-18 -29l-33 -33l-12 -25l-25 -14l-16 -10l-19 -10l-26 -17l-21 -10l-51 -2l-14 6l-27 12l-14 21l-23 12l-18 8l-19 19l-20 24l-12 13l-11 20l-18 27l-12 20l-11 17l-8 20l-6 23l-6 26l-4 23l-4 28l-8 23l-2 25l-5 26l2 25l3 26l20 21l23 -4 l22 -2l29 6l22 4l23 -10l20 22l-16 37l-14 21l-31 18l-37 12l-37 41l-8 31l-12 53l14 23l6 14l-47 31l-20 8l-15 18l-43 23l-26 33l-9 26l-10 19l-6 24l-8 21l-4 31l2 18l-25 25l-18 55l-6 12l-9 55l9 27l20 17l6 -33l2 -43l15 -37l4 -2l10 18l8 27l6 -37v-27l23 -45l37 -28 l2 20v25l-8 41l-11 10v43l21 14l6 -16l2 -41l8 16l2 25l6 35l11 32l12 35l16 8l-2 -26l2 -31l-12 -43l4 -24l4 -7v21l10 24l4 17l13 20l8 -28l-2 -23l-2 -18l-10 -45v-29l-13 -18l6 -25l3 -33l8 -33l8 -14l14 -51l8 -14l27 -37l12 -23l19 -18l41 -25l20 25l-8 20l-10 29 l-8 29l-2 43l-2 32l2 25v16l8 25l12 -19l2 -32l6 -13l-2 -28l15 -49l2 -15l8 -24l12 -35l6 -12l6 -25l17 -35h26l13 -14h34l11 10l16 12l12 25l2 31l2 18l-4 29l4 24v74l5 35l-7 24l2 15l13 33l8 -19v-27l8 -26l-2 -45l4 -29v-51l-6 -29l6 -20l17 -19l43 25l22 22l29 37 l10 31l12 16l8 54v22l-6 23l-4 22l-6 53l-6 19l-2 18v25l-6 24l-2 25l16 -27l6 -24l13 -17l10 -20l2 -16l16 -35l15 14l10 51l2 27l18 -2l6 -27l-4 -47l-4 -41l4 -30l19 -17l28 25l17 20l12 41l-2 21l-4 45l-8 20l6 33l18 -19l6 -22l5 -31l12 -30l4 14l6 29l4 32l8 27z M268 829l4 11l-6 20l-24 39l-35 43l-8 -14l12 -21l4 -24l29 -33zM426 641v8l-2 6l-2 -2l-2 -8zM543 618l-2 -2l2 -4l2 -2h2l2 4l-4 4h-2zM479 592l6 -4l7 2l8 -4v8l-6 4l-2 6l-5 2l-6 -6zM532 588v-4l3 -4l6 -2l6 2l8 2l8 -7h8v3l-8 8h-12l-4 -2l-4 2l-4 4h-4zM707 485l2 4 l-2 3l-5 -3l3 -4h2zM639 475l4 6l-4 2l-10 4h-15l-2 -2v-4l6 -2l7 -6v-6l8 -2l6 4v6zM520 479v-4h8l2 2v4l-4 2l-4 -2zM688 440l6 -2l-4 4l-4 2zM508 430v-4l4 -4l4 2l2 2l-2 2h-4zM612 414v-6h6l7 6l-2 4l-5 2h-4zM545 408l6 -5v-2l2 -2v-6l4 -4l4 4v6l-4 7l-6 8h-4z M496 373l-4 8h-5l-2 -2h-2l2 -4l2 -6h7zM455 377l-2 -4l2 -2h4l4 2v2l-2 4l-4 -2h-2zM600 360l-4 -2l2 -8h8l10 12l-6 15l-4 -8zM408 358v-4l4 -4l2 -4l2 6l-2 8v5zM750 358v-2l8 -2h4l6 2l-8 4h-8zM440 346l-4 -4l4 -4h9l-5 6zM369 309v4l-2 4h-2l-3 -2l-4 -6l2 -2h2z M432 295l4 2l2 4l2 2l-2 2l-2 4l-2 8h-6l-2 -2l-2 -6l2 -4l2 -6zM690 287l4 6l-4 6l-4 4l-4 -6v-4l2 -6h6zM627 301l8 -6v-6l2 -4l4 4l-2 6l-4 6h-8zM774 285l-6 6l-2 -2l-2 -6l2 -2l2 -5h4v3l2 2v4zM420 276l-4 3l-2 4l-2 -7v-4l2 -4l2 -2h4l2 2l-2 4v4zM739 248v-8l4 -4h2 l3 2v6l-5 4h-4zM426 215h8l-6 4v6l-2 8h-16l-4 -4l2 -2l8 -12l2 -2zM477 174h17l6 4l4 2h2v4l-4 9l-2 2v4l2 4l-2 4l-8 8l-5 6l2 6l-2 4h-6v-2l-2 -2l2 -4v-10l4 -2l2 -4l-2 -6l-2 -8l-8 -9l-2 -8l-2 2l-6 4l-6 6l-10 -2h-11v-2l6 -10l2 -2l5 -8h2l6 -8h8l4 2l4 8l-2 4v6z M786 231l-4 -4l4 -4h2l5 4v4h-7zM463 221l-19 -6l7 -4l6 -2l12 4l2 4zM719 201h-4l4 -4l2 -4l8 -3v3l-6 6zM532 147l7 -2l6 7l2 8v8l2 6v4l-2 -4l-4 -4h-8l-13 -4l-8 4l-6 -8l4 -8l12 -4zM715 168l-2 -4l6 -6l2 4l8 8l-4 4h-8zM606 147l2 -4v-2l2 -4h4l7 6l-3 4l-4 5l-2 4 l-4 4l-4 8l-2 -8zM678 145v9l-2 4l-8 4h-6l-3 -4l-2 -2l2 -6l3 -5l4 -4h6l4 2zM709 154v4l-2 2h-7v-6l2 -2h5zM512 147l-4 3v2l-8 6l-11 -2l-4 -4l4 -7h11l2 -2l4 -2l2 -4l2 -2h8v8l-4 2zM553 152v-13h4l8 8v7l-2 2v2h-6l-2 -4zM627 78l2 4l-2 2h-6l-5 4l-4 2v14l-2 2l6 7v2 l-4 10l-4 6h-4l-4 4l-6 4l-4 4l-4 2l-6 5l-5 4l-2 -2h-2v-7l4 -6v-2l3 -4l6 -6l2 -4l4 -6l-2 -2v-4l4 -7l6 -6l4 -12l-4 -4l-4 -2l-2 -10h6l12 4h4l4 2h7zM489 133h5l-2 4v2l-3 2h-4v-6zM467 129l8 -2l-4 8l-6 4l-4 -2v-2zM539 113v22h-9v-4l-4 -12l2 -6l2 -4l7 -3zM670 125 l2 2l-4 2h-4l-2 -2h-3l-2 -4l5 -2h4l2 2h2v2zM520 119v4h-10l-6 -2h-6l12 -8l8 4zM571 119l4 4h-20l-2 -2l-4 -6l-6 -9l4 -8l2 -6h10l4 4v4l4 13zM641 92l2 4l-4 6l-2 -2h-6l-2 -2l-2 -4l4 -2l2 -2h4l2 -2l2 2v2z" />
<glyph unicode="w" horiz-adv-x="1359" d="M1061 782l-39 13l-31 8l-24 -6l-23 -4l-22 2l-27 6h-21l-26 -4l-23 4l-26 -4l-21 2l-28 -6l-19 4l-31 -4l-45 2l-22 4h-25l-30 -4l-23 -2l-25 6l-22 2l-25 -2h-45l-28 -4l-23 -2l-27 4l-24 6l-33 -27l-16 -12l-21 -25l-10 -20l-16 -21l-15 -16l-18 -23l-10 -12l-17 -16 l-16 -25l-21 -14l-10 -27l-16 -22l-15 -19l4 -26l17 -21l22 -12l19 -19l18 -20l19 -10l14 -19l23 -22l14 -8l18 -23l17 -20l18 -11l21 -20l18 -14l21 -17l36 -33l19 -12l14 -22l21 -15l22 -14l15 -25l36 -24l19 -17l20 -22l19 -17l16 -14l19 -22l20 -11l18 -14h41l19 14 l12 19l25 10l18 23l19 10l12 14l22 25l21 8l14 22l21 15l18 20l14 13l25 18l16 16l19 21l22 16l17 12l14 17l23 18l16 13l16 26l25 15l14 18l17 10l18 21l21 8l16 18l20 23l23 8l12 25l8 36l-18 21l-16 16l-9 13l-20 18l-10 23l-21 16l-16 27l-14 16l-17 20l-8 21l-23 22 l-8 15zM664 668l6 -4l4 -9l-4 -6l-8 2l-13 6l-12 5l-25 14l-6 8l-4 14l2 2l6 9v2l2 4l-2 2v14l-6 6l-6 2l-2 4l4 7h10l21 6v-13l-8 -8l4 -18l12 -15l-2 -8l12 -14zM784 756l2 -2l-2 -4l-10 -5l-10 7l10 4h10zM909 725l-2 -4l-2 2l-6 2l-8 2l-8 -4l4 10l6 12h12l8 3h5l4 -7 l-9 -10zM813 711l-14 6l-4 10l6 12l14 2l16 -2h17l-12 -24l-11 -2zM594 727l-2 -6h-12l-2 8l2 6l4 4zM1042 725l-2 2l-4 2v4l2 4l2 2h4l5 -4l4 -8v-4h-4zM657 688l9 17v28l12 4l10 -10v-2l2 -4l-4 -12l-2 -13l-14 -4zM723 719l-2 2l-2 4l6 10h8l6 2l-6 -12zM758 725l-4 4 l6 2l2 2l4 -2l2 -4l-4 -2l-2 -2zM719 694l-8 -4l-9 12l-6 15v8l6 4l11 -12l4 -17zM768 719h10l2 -4l-2 -4l-8 -11l-14 -2h-2l-4 2l-11 -4l-6 9l6 8l6 -2l5 -2l4 2h4zM334 717l6 -2v-4l-2 -4h-6l-4 4l-2 4l2 2h6zM457 713h6v-11l-2 -2l-4 -2l-6 -2l-5 4l-6 5l2 4l9 2z M868 709l4 4h2v-8l-2 -9l-4 -8l-2 -8h-2l-6 6l2 16zM543 711l4 -4l4 -2l-4 -5h-6l-6 2l-3 5l5 4h6zM971 702l-4 -2h-9l-2 2h-6l-2 5l4 4h11zM477 709l4 -2l2 -2l-2 -7l-2 -4l-8 4v7zM864 666l4 -7v-4l-4 -4l-6 2l-6 6h-10l-11 -2h-14l-4 7l-4 4l-12 -2l-11 4l5 10v10l12 12 l8 7l8 -9l4 -16l6 -6l7 -8l12 2l4 -4l6 -2h6zM420 690l4 2l4 -8v-16l-4 6l-4 4l-2 10zM528 688l4 -14l-2 -8l-10 -4l-8 6l-6 10l2 10l8 4zM754 692l14 -4v-12l-12 -6l-4 -6l-9 -9l-12 -6v-12l-6 10l-8 10l-4 11l2 10l30 10zM694 678l6 -8l2 -6l-2 -11l-10 -4l-6 4l-4 6l6 13 l4 2zM991 655l-4 2h-14v5l-2 4l2 8h14l8 -4v-4l2 -7l-4 -2zM610 659l8 -28l-4 -2l-8 10l-10 12l-6 4l2 7l4 4l6 2h6zM360 666h7l2 -2v-9l-4 -2l-3 -2l-4 -2l-2 4v6zM297 651h6l4 -4l-2 -4v-4l-6 -4h-4l-2 2v8zM1055 649l4 -6l-2 -4h-4l-6 2l-9 8h4l7 2zM1020 621l2 -7l-4 -4 l-2 -6l-8 8v4l2 7l4 4h6v-6zM1065 573l-2 5l-2 6l4 4l4 -2l2 -4l2 -7l-4 -2h-4zM233 571l15 -6l4 -10l-2 -2h-4l-8 6zM1034 571v-2l-4 -4l-8 -2l4 8h8zM1069 547l6 2l2 -4v-6l-12 -4l-4 2l2 6zM1128 506l7 -2v-6l-5 -4h-4l-2 2v6zM987 477l2 4v6l-2 7l2 6h8l7 -4v-4l-7 -5 l-2 -8zM997 432l4 -4l3 -10l-5 -12l-2 2l-2 8l2 8l-4 6l-2 6v6l2 4h8v-6l-2 -2zM1028 446h2l2 -4l-4 -4h-4v2l2 4zM893 430l4 -4l-2 -4l-4 -2l-2 2v4l-2 4h6zM827 387l7 2v-6l-9 -12l-8 -2h-2l-2 2l2 6l6 2l2 2h2zM924 342v-4l2 -10v-11l-2 -4l-6 2l-7 -2l-6 6v7l6 4l4 6 l3 6l2 2zM797 324l8 -7h10l-12 -10l-15 8l-2 7l7 6zM856 324l2 -5v-4l-4 -2l-6 2l-2 2v7l4 2zM748 274l-7 -6l-4 -2l-4 2l2 4h6l4 11zM895 252l2 6l4 4l-2 -6zM948 258l2 -4l-2 -2h-4l-2 4zM758 227l6 -2l-4 -4l-4 -6h-6l-2 6l4 4z" />
<glyph unicode="x" horiz-adv-x="1083" d="M768 795l-55 6l-25 -8l-20 -2l-29 -17l-43 -29l-21 -10l-12 -16l-12 -27l-25 10l-14 21l-14 14l-17 21l-20 8l-25 14l-26 4l-41 17l-74 -6l-27 2l-22 -13l-19 -8l-26 -14l-15 -12l-16 -17l-18 -22l-17 -17l-10 -22l-8 -21l-13 -26v-27l-2 -23v-53l2 -18l5 -23l12 -53 l14 -22l15 -19l14 -27l16 -20l17 -16l14 -19l22 -18l19 -11l18 -12l39 -33l21 -20l16 -14l23 -17l16 -18l21 -8l12 -15l20 -26l19 -19l18 -14l8 -21l23 -18l8 -23l14 -18l25 4l8 14l14 23l17 22l14 13l17 26l16 11l18 24l21 8l18 27l21 12l20 17l17 12l16 23l39 22l22 16 l19 21l22 14l15 23l18 16l13 17l12 18l18 23l8 26l11 25l10 16l2 27l2 30l-2 48l-4 26l-4 17l-8 26l-9 21l-10 26l-16 21l-15 16l-16 14l-23 13l-18 16l-41 17l-27 8zM778 739l4 -4l2 -4l-2 -2l-2 -4l-4 2l-6 2h-4l-6 4v4l-2 4l4 2l4 5l4 2l4 -5zM786 649l-4 8l-2 11l-2 4v8 l8 18l5 2h6v5h6v4l2 2l4 10l-2 6l-2 8l-6 2l-4 2v6l4 3h6l8 -5l6 -2l2 -2l15 -6l2 -2l6 -4l6 -2l2 -2l-10 -10l-6 2h-9l-4 -10l-4 -9v-18l-2 -4l-2 -2l-4 -2v-11l-2 -10v-8l-2 -12v-6l-2 -5l-4 -2l-2 -2l-4 2l-2 2v7l-2 4v4l-3 4v4l-2 4v4zM709 713l4 2l2 -2h6l2 -2v-2 l-2 -4h-4l-2 -3l-4 -2h-2l-2 2h-2v5l2 4zM705 659l-9 9l2 6v4l2 2h5l6 2l6 -4l4 -6l2 -4l2 -6v-3l-2 -4h-6zM836 653h4l14 11l10 8l10 -8l5 -2l-2 -9l-3 -6v-2l-2 -2v-4l-14 -2l-10 -4h-4l-4 2l-9 6l-4 4l-6 4l8 2zM762 645v-2l-4 -8l-4 -6h-2l2 4l4 12v12l2 5v2l4 4h4l4 -4 l-2 -5l-2 -2l-4 -8v-2zM668 655l2 -4l4 -6l-4 -2h-6l-5 2v8l5 2h4zM182 649l2 2l2 -6v-8l-6 4zM655 621l-12 -5l-4 7l2 8l6 10l10 -6l-2 -6v-8zM887 627l-2 -2l-2 -7l-4 -8l-7 -4l-12 -6l-2 -2l-4 2l-2 4l4 6l4 4v2l6 7l4 8l9 2zM809 612l6 2l8 2l8 -4l-4 -8l-6 -6h-4l-6 -2 l-6 4v2l4 8v2zM305 606l-2 2l-2 4l2 2h2l2 -2v-6h-2zM475 606l4 -4l6 -4l-6 -2l-8 -2h-6l-4 6l2 4zM905 588l2 -6v-4l-2 2l-4 2l-8 6v2l-4 4l-2 4l-2 2l2 4l4 2l2 -2l4 -2l6 -4l2 -2v-8zM254 594l6 -4v-8l-8 4l-6 -2l-6 4l2 8l6 6l4 -2zM641 596l12 -2l13 -10h-15l-10 4v8z M801 569l8 9l8 6l2 2l10 6l13 2l2 -4l4 -4l4 -6l4 -9v-2l4 -8l-4 -6l-2 -6h-6l-8 2l-4 8l-2 2l-5 2l-8 2l-8 8zM311 582h11l10 -9v-2h-10l-7 7l-8 -3l-6 -2l-6 2l-2 5v4l2 2h4l2 -4l6 -2zM578 575l-5 5l-2 6l4 -4l3 -4v-3zM866 545v12l2 8l-2 4l-2 6l8 9l5 -2l4 -7v-4l-2 -6 l2 -4v-6l8 -12l-4 -13h-4l-7 2v3l-4 4zM901 555l2 -4v-4l-2 -2v-2l-4 -2l-2 4v2l-2 2l6 6l2 4v-4zM549 539l2 -2h2v-7l-4 -4l-4 -2h-2l-4 2l-2 2l4 9l4 2h4zM922 537l2 -5l2 -8l-2 -6l-2 -8h-2l-2 -2l-5 4l2 8v6l3 6l4 7v-2zM862 500l-12 -4l-16 6l-11 -2l-12 -2v-4l-4 -5 l-4 -2l-6 -2l-4 -6h-7l-4 4v2l-2 2l6 5h5l4 2l2 2l4 6l2 2l2 4l2 6l2 4h6l8 4v6l8 9l5 -5l4 -2l6 -2l4 -2l6 -8l4 -8v-4zM618 528l3 -4l-3 -4l-4 -4l-4 -2l-2 2h-2v10l2 2l2 4h2l2 3h2l2 -3v-4zM889 506l2 -4l4 -6l-2 -9l-2 -6v-2l-6 -8l-4 -8l-2 -2l-5 -6l-6 -9l-6 13 l-8 14l2 2l2 10l2 9l2 4l2 2l4 2l6 6h13zM465 487l2 -2v-4h-4v4zM389 483l12 -6l-2 -6v-6l-8 -4l-6 2l-2 6l-4 6l-6 2v4l2 2h14zM287 479l4 -2v-4l-2 -2h-8v4l2 2zM821 446l-8 9l-4 6l-4 8l2 2h8l8 -6l6 -6v-10l-2 -7v-4zM453 434l-4 2l-3 4l5 -2zM831 426l7 -10l6 -13 l-2 -4l-6 -6l-5 -8l-4 -4l-6 2l-4 12l-2 8l-2 3l16 8l2 6v6zM379 416l4 -2l2 -4l-6 -7h-6v7l2 6h4zM317 401l5 -6v-6l-5 -4l-4 4v6l-2 2v2l-6 4v7h6zM776 375l-4 -13l-14 -2l4 11l8 8h4zM367 362l4 11l6 -15l-10 -12h-9l-4 8l6 2zM709 373h12l6 -4l-2 -11l-8 -14l-15 -2 l-2 8l7 10zM657 322l5 -5v-6l-13 -8l-14 4l8 12zM444 299l7 -4l4 -6l-4 -6h-7l-2 6v4zM399 291v-6l-2 -4l-4 4l2 6l-10 6h10zM682 285l6 10l6 -12l-2 -13h-4l-4 2zM778 285v-4l2 -2l-8 -5h-6l-2 5l2 6l4 2zM627 250l6 -2v-4l-4 -6l-6 -2l-5 2v4l3 6zM586 229l6 -4l4 -4 l-2 -6l-2 -2h-4l-6 4l-4 4l2 6h2zM596 141h-4l-2 -2h-2l-2 -2l-4 2v4l2 2v2h8z" />
<glyph unicode="y" horiz-adv-x="1619" d="M1104 698l-19 2l-57 -4l-20 2l-45 9l-37 -2l-27 -7l-22 2l-17 5l-26 2l-74 -35l-17 -10l-20 -13l-27 -14l-18 -14l-14 -15l-25 -12l-18 -21l-19 -8l-39 -28l-28 8l-35 12h-17l-26 6l-25 -6l-26 -2l-23 -4l-23 8h-26l-27 -4l-24 2l-21 -4l-22 -2l-29 6h-25l-26 -10 l-31 -15l-4 -34l-12 -23l2 -16l-4 -33l-7 -18l-2 -25l4 -31l-2 -18l5 -33l-3 -29l5 -16l6 -23l12 -53l29 -18l24 -6l27 4l18 2h49l27 -4l23 6h30l23 6l27 -6l18 4l53 -6l25 8l20 4l23 -6l26 12l23 21l43 -4l25 -15l26 -6l27 -4h20l23 -16l28 -2l21 -13l27 -8l22 -2l29 -12 l24 4l19 -12l45 -9l31 15l24 12l23 4l22 10l21 9l24 12l19 29l-9 32l9 17l30 16l19 23l22 28l-12 27l23 39l28 35l-4 41l19 10h24l19 2l22 6l29 10l24 -8l23 12l20 4h25l47 9l23 16l-2 37l-41 20l-27 -4l-47 6l-29 7l-20 2l-29 -5l-23 -2l-24 9l-19 2l-24 2l-51 -4l-23 -9 l-22 2l-27 3l-23 -5l-30 5l-23 -11l-43 4l-28 7l-23 -5l-18 5l-21 2l25 4l28 -4l25 4l49 12h23l51 16l26 37l9 37zM315 510l9 -2l-9 -4l-8 -2v6zM637 496l-6 -4l-8 2l-11 2l-2 6l4 4l7 -4h6l6 2l6 -2v-4zM535 483l-5 2v7l5 4l4 -9l-2 -4h-2zM678 455l8 8l2 10v4l2 2l8 2 l4 -8l-8 -18h-16zM397 477l9 -2l2 -8l8 -6l-8 -4l-9 4h-8l-2 2l2 10zM780 469h-14l-6 8l12 -6l4 4l6 -2zM651 432v-4l-4 -6h-4l-4 2v6l4 4l6 4zM428 424v4l4 2h6l4 -6l2 -8l2 -6l9 -7l4 -8v-2l-2 -2l-11 8l-6 11v6l-6 4h-4zM788 418l9 8h8l2 -6l-4 -6h-8zM1165 414l4 -4 l2 -4v-3l-4 -2h-6l-2 2v7l2 4h4zM408 406l4 -3l2 -2l-4 -2l-2 -2l-5 2v2l3 5h2zM575 399l5 -4l10 -2l6 2l4 -6v-8l-6 -4l-4 -6l-6 4l-6 6l-7 10l-2 4v4h6zM1092 381h4l6 -4l4 -4v-2l-2 -4l-4 -2l-10 10zM657 342h-6l-4 4h6zM602 305l-2 6l4 6l10 15l9 12l6 -4l-4 -14l-2 -17 l-2 -6l-9 -2l-6 2zM1079 334l-2 -2h-4l-2 6l4 4l4 2h4l2 -4l-2 -4zM795 276h-19l-6 5l-4 4h-2l-6 4l-10 6h-3l-6 2l-2 2l-2 10l4 13l4 2l5 4l6 2l8 8v-10l2 -2l6 -4l8 -9l8 -16l2 -2l5 -2l6 -6zM705 305l-5 6l-2 6l2 2l2 5l7 6l6 -2l4 -4l4 -11l-2 -2l-4 -8l-4 -4l-4 4z M623 227l6 9v14l2 2l-4 4v4l-9 6l-2 2l2 17l7 8l37 24l10 5l4 4l8 2l4 -6l-2 -9l-20 -20l-13 -17l4 -8l-12 -16l-2 -21l10 -8v-12l-22 4l-8 -2l-7 6v6zM1001 281l-2 4v4l-2 6v4l2 2l2 8l7 6v2l2 -2l2 -6l4 -8l-2 -2v-8l-2 -6v-2l-6 -4zM207 291v2l6 4l10 2v-2l-4 -4h-2 l-6 -2l-8 -2l2 2h2zM526 297l11 -4l4 -8l-2 -15l-11 -6l-10 2l-4 13l4 10zM723 272l4 7l4 8l4 -4l4 -2v-5l-2 -2l-4 -16l-6 -6l-2 -4l-2 -2l-2 2h-4v8l4 8zM842 242l-13 -4l-6 10l-4 8l-2 8l4 10l-2 7v6l12 -2l13 -6l12 6l12 -6l13 -5l4 -4l6 -2l2 2l4 2h8v-8l-6 -4h-2l-4 2 l-6 -2h-6l-7 2l-6 4l-8 -4l-10 -6zM702 279l5 -13l4 -14l-2 -2v-2l-9 -12l-6 2l-8 2v12l-2 16l-4 8l-6 9l14 -2zM1044 279l7 2h6l2 -2l-4 -7l-2 -2l-9 -2l-6 -2l4 6zM762 274l6 -2l4 -4h6l2 -2l6 -2l5 -2h2l4 -12v-6l-2 -4l-13 4l-2 4l-4 6l-4 2v2l-2 2l-6 -2h-6l-2 6l-2 4 l4 4zM434 256l-4 -12l-2 2l-4 2l-2 10l6 12zM352 252l-2 8v4h6l6 -4l5 -6l-2 -4h-5zM547 256l12 4l4 -4l-2 -4l-4 -4h-6l-6 4zM487 256l5 -4l2 -6v-2l-5 -4l-6 4l-2 6zM741 256l4 -4l3 -4l2 -2v-6l2 -7l-7 3h-4l-2 6l-2 4v6zM285 248h6l2 -2l6 -4v-6l-6 -3h-4l-4 3l-2 6v4z M473 246l2 -13l-12 -2h-8l-4 7l8 10zM604 244h6l2 -6l-10 -15l-4 4l-4 6l2 9zM883 240l4 2l2 2h6v-19l-2 -8l-2 -10l-2 2l-8 12l-2 2zM987 236v6h10l2 2l5 -2h4v-6l2 -5l-6 -4h-13zM770 240h6l4 -4l-4 -3h-6l-4 5zM829 236l13 -9l10 -6v-14l2 -10v-4l-8 4l-10 2l-17 6l-10 8 l-2 12l8 11h14zM780 215l8 -8v-4l-4 -2l-8 2l-6 10h4zM350 197l6 2l2 -2l2 -4l-8 -9l-4 2v4zM969 199h20l-4 -6l-2 -5h-8l-6 2v3l-2 2l2 2v2zM901 186h10l7 2h2l4 -12l6 -12l-2 -2l-4 -2l-4 2l-11 2l-12 6l-2 12v13l4 -5zM1071 184l2 4l4 5h2l2 2h2l2 -5v-6l-2 -2l-4 -8 l-2 -2h-8v4l-2 4z" />
<glyph unicode="z" horiz-adv-x="1619" d="M516 698l-33 -12l9 -37l26 -37l51 -16h23l49 -12l25 -4l28 4l25 -4l-21 -2l-18 -5l-23 5l-28 -7l-43 -4l-23 11l-31 -5l-22 5l-27 -3l-22 -2l-23 9l-51 4l-25 -2l-18 -2l-25 -9l-22 2l-29 5l-20 -2l-29 -7l-47 -6l-27 4l-41 -20l-2 -37l23 -16l47 -9h25l20 -4l23 -12 l24 8l29 -10l22 -6l19 -2h24l19 -10l-4 -41l28 -35l23 -39l-12 -27l22 -28l19 -23l30 -16l9 -17l-9 -32l19 -29l24 -12l21 -9l22 -10l23 -4l24 -12l31 -15l45 9l19 12l24 -4l29 12l22 2l27 8l21 13l28 2l23 16h20l27 4l26 6l25 15l43 4l23 -21l26 -12l23 6l20 -4l25 -8l53 6 l18 -4l27 6l23 -6h30l23 -6l26 4h50l18 -2l27 -4l24 6l29 18l12 53l6 23l4 16l-2 29l5 33l-3 18l5 31l-2 25l-7 18l-4 33l2 16l-12 23l-4 34l-31 15l-26 10h-25l-29 -6l-22 2l-21 4l-24 -2l-27 4h-26l-23 -8l-23 4l-26 2l-25 6l-26 -6h-17l-35 -12l-28 -8l-39 28l-19 8 l-18 21l-25 12l-14 15l-18 14l-27 14l-20 13l-17 10l-74 35l-26 -2l-17 -5l-22 -2l-27 7l-37 2l-45 -9l-20 -2l-57 4zM1305 510l8 -2v-6l-8 2l-9 4zM983 496l-2 2v4l6 2l6 -2h6l7 4l4 -4l-2 -6l-11 -2l-8 -2zM1085 483h-2l-2 4l4 9l5 -4v-7zM942 455h-16l-8 18l4 8l8 -2 l2 -2v-4l2 -10zM854 469h-14l-2 4l6 2l4 -4l12 6zM1223 477l6 -4l2 -10l-2 -2h-8l-9 -4l-8 4l8 6l2 8zM969 432l2 6l6 -4l4 -4v-6l-4 -2h-4l-4 6v4zM1192 424l-2 -4h-4l-6 -4v-6l-6 -11l-11 -8l-2 2v2l4 8l9 7l2 6l2 8l4 6h6l4 -2v-4zM831 418l-6 -4h-8l-4 6l2 6h8zM455 414 h4l2 -4v-7l-2 -2h-6l-4 2v3l2 4zM1212 406h2l3 -5v-2l-5 -2l-2 2l-4 2l2 2zM1044 399h7v-4l-2 -4l-7 -10l-6 -6l-6 -4l-4 6l-6 4v8l4 6l6 -2l10 2zM524 381h4l2 -6l-10 -10l-4 2l-2 4v2l4 4zM963 342l4 4h6l-4 -4h-6zM541 334l-4 2l-2 4l2 4h4l4 -2l4 -4l-2 -6h-4zM1018 305 l-4 -2l-6 -2l-9 2l-2 6l-2 17l-4 14l6 4l9 -12l10 -15l4 -6zM844 276h-19l-4 11l6 6l4 2l3 2l8 16l8 9l6 4l2 2v10l8 -8l6 -2l5 -4l4 -2l4 -13l-2 -10l-2 -2l-7 -2h-2l-10 -6l-6 -4h-2l-4 -4zM915 305l-4 -2l-4 -4l-4 4l-4 8l-2 2l4 11l4 4l6 2l7 -6l2 -5l2 -2l-2 -6z M997 227l7 -2v-6l-7 -6l-8 2l-22 -4v12l10 8l-2 21l-12 16l4 8l-13 17l-20 20l-2 9l4 6l8 -2l4 -4l10 -5l37 -24l6 -8l3 -17l-3 -2l-8 -6v-4l-4 -4l2 -2v-14zM618 281l-4 -2l-6 4v2l-2 6v8l-2 2l4 8l2 6l2 2v-2l6 -6l3 -8l2 -2v-4l-2 -6v-4zM1413 291h2l2 -2l-8 2l-6 2h-2 l-4 4v2l10 -2l6 -4v-2zM1094 297l8 -8l4 -10l-4 -13l-10 -2l-11 6l-2 15l4 8zM778 242l-8 14l-10 6l-8 4l-7 -4l-6 -2h-6l-6 2l-4 -2h-2l-6 4v8h8l4 -2l2 -2l6 2l4 4l13 5l12 6l12 -6l12 6l13 2v-6l-2 -7l4 -10l-2 -8l-4 -8l-6 -10zM897 272l2 -8l4 -8v-8h-4l-2 -2l-2 2 l-2 4l-6 6l-4 16l-2 2v5l4 2l4 4l4 -8zM918 279l14 4l14 2l-6 -9l-4 -8l-2 -16v-12l-8 -2l-6 -2l-9 12v2l-2 2l4 14zM575 279l3 -7l4 -6l-7 2l-8 2l-2 2l-4 7l2 2h6zM858 274l4 -2l4 -4l-2 -4l-2 -6h-6l-6 2l-2 -2v-2l-4 -2l-4 -6l-2 -4l-13 -4l-2 4v6l4 12h2l5 2l6 2l2 2h6 l4 4zM1186 256l6 14l6 -12l-2 -10l-4 -2l-2 -2zM1268 252l-8 -2h-5l-2 4l4 6l7 4h6v-4zM1061 260l12 -4l2 -4l-6 -4h-6l-4 4l-2 4zM879 256l4 -4v-6l-2 -4l-2 -6h-5l-6 -3l2 7v6l2 2l2 4zM1133 256l6 -6l-2 -6l-7 -4l-4 4v2l2 6zM1147 246l14 2l8 -10l-4 -7h-8l-12 2z M1335 248l2 -2v-4l-2 -6l-4 -3h-4l-6 3v6l6 4l2 2h6zM633 236l-4 -9h-13l-6 4l2 5v6h4l5 2l2 -2h10v-6zM737 240l4 -17l-2 -2l-8 -12l-2 -2l-2 10l-2 8v19h6l2 -2zM1016 244l8 -2l2 -9l-4 -6l-4 -4l-10 15l2 6h6zM844 240h6l4 -2l-4 -5h-6l-4 3zM791 236h14l8 -11l-2 -12 l-10 -8l-17 -6l-10 -2l-8 -4v4l2 10v14l10 6zM840 215l6 -2h4l-6 -10l-8 -2l-5 2v4zM651 199v-2l2 -2l-2 -2v-3l-6 -2h-8l-2 5l-4 6h20zM1270 197l2 -7v-4l-4 -2l-8 9l2 4l2 2zM549 184l4 -4l-2 -4v-4h-8l-2 2l-4 8l-2 2v6l2 5h2l2 -2h2l4 -5zM719 186l2 4l4 5v-13l-2 -12 l-12 -6l-11 -2l-4 -2l-4 2l-2 2l6 12l4 12h2l7 -2h10z" />
<glyph unicode="&#x2000;" horiz-adv-x="730" />
<glyph unicode="&#x2001;" horiz-adv-x="1460" />
<glyph unicode="&#x2002;" horiz-adv-x="730" />
<glyph unicode="&#x2003;" horiz-adv-x="1460" />
<glyph unicode="&#x2004;" horiz-adv-x="486" />
<glyph unicode="&#x2005;" horiz-adv-x="365" />
<glyph unicode="&#x2006;" horiz-adv-x="243" />
<glyph unicode="&#x2007;" horiz-adv-x="243" />
<glyph unicode="&#x2008;" horiz-adv-x="182" />
<glyph unicode="&#x2009;" horiz-adv-x="292" />
<glyph unicode="&#x200a;" horiz-adv-x="81" />
<glyph unicode="&#x202f;" horiz-adv-x="292" />
<glyph unicode="&#x205f;" horiz-adv-x="365" />
<glyph unicode="&#x25fc;" horiz-adv-x="798" d="M0 799h799v-799h-799v799z" />
</font>
</defs>
</svg>
